# Blender 4.5.2 LTS
# www.blender.org
o top
v 14.534920 5.313100 11.518110
v 14.534920 4.975637 11.518100
v 14.557570 4.975637 11.776990
v 14.557570 5.313100 11.776990
v 28.734819 5.313101 -1.608297
v 28.734831 4.975638 -1.608297
v 28.521950 4.975638 -1.757359
v 28.521950 5.313101 -1.757359
v 29.068239 5.313102 12.268720
v 29.068251 4.975640 12.268730
v 29.178070 4.975640 12.033200
v 29.178070 5.313102 12.033200
v 29.245319 4.975640 11.782190
v 29.245319 5.313102 11.782180
v 28.286430 4.975638 -1.867180
v 28.286421 5.313101 -1.867180
v 14.886160 5.313099 -1.427787
v 14.886160 4.975637 -1.427788
v 14.737110 4.975637 -1.214915
v 14.737110 5.313099 -1.214915
v 14.624840 5.313100 12.028000
v 14.624840 4.975638 12.028000
v 14.734660 4.975638 12.263520
v 14.734660 5.313100 12.263520
v 14.883720 5.313100 12.476390
v 14.883720 4.975638 12.476390
v 15.067480 4.975638 12.660150
v 15.067480 5.313100 12.660150
v 28.035410 4.975638 -1.934436
v 28.035410 5.313101 -1.934436
v 28.036020 5.313102 12.989270
v 28.036030 4.975639 12.989270
v 28.287041 4.975640 12.924240
v 28.287041 5.313102 12.924240
v 15.282790 5.313099 -1.760599
v 15.282790 4.975636 -1.760601
v 15.069920 4.975636 -1.611545
v 15.069920 5.313099 -1.611543
v 28.522560 4.975640 12.814410
v 28.522560 5.313102 12.814410
v 27.776529 4.975638 -1.957086
v 27.776529 5.313101 -1.957086
v 15.280350 4.975638 12.809200
v 15.280350 5.313100 12.809200
v 29.267370 4.975639 -0.466259
v 29.267370 5.313101 -0.466259
v 29.267969 5.313102 11.523300
v 29.267969 4.975639 11.523300
v 15.515880 4.975638 12.919030
v 15.515880 5.313100 12.919030
v 28.919189 5.313102 12.481600
v 28.919189 4.975639 12.481600
v 15.769330 5.313099 -1.937684
v 15.769330 4.975637 -1.937687
v 15.518320 4.975637 -1.870424
v 15.518310 5.313099 -1.870423
v 14.537370 5.313099 -0.469494
v 14.537370 4.975637 -0.469495
v 29.244720 5.313101 -0.725139
v 29.244720 4.975639 -0.725139
v 29.177460 4.975639 -0.976156
v 29.177460 5.313101 -0.976156
v 28.918579 5.313101 -1.424548
v 28.918579 4.975639 -1.424548
v 28.735430 5.313102 12.665350
v 28.735430 4.975640 12.665360
v 16.028210 4.975637 -1.960331
v 16.028210 5.313099 -1.960328
v 14.560020 5.313100 -0.728376
v 14.560020 4.975636 -0.728377
v 15.766890 5.313100 12.986280
v 15.766890 4.975638 12.986280
v 16.025770 4.975637 13.008930
v 16.025770 5.313100 13.008930
v 14.627280 4.975637 -0.979392
v 14.627280 5.313099 -0.979391
v 27.777361 5.313102 13.005780
v 27.777361 4.975639 13.005780
v 29.067640 4.975639 -1.211677
v 29.067631 5.313101 -1.211677
v 28.077608 5.313102 13.034498
v 28.251654 5.313102 12.989400
v 28.312483 4.975640 12.973640
v 28.292088 4.975639 12.978926
v 28.298277 5.313102 12.977320
v 28.292088 5.313102 12.978925
v 28.077610 4.975639 13.034499
v 28.327017 4.975640 12.969876
v 28.330168 5.313102 12.969059
v 28.330170 4.975640 12.969059
v 28.059383 4.975639 13.035662
v 28.073969 4.975639 13.034731
v 28.044744 5.313102 13.036595
v 28.038429 4.975639 13.036999
v 28.038420 5.313102 13.036999
v 27.817348 5.313102 13.051107
v 27.817348 4.975638 13.051108
v 27.813538 5.313102 13.051109
v 26.207150 5.313101 13.051538
v 26.207111 4.975638 13.051539
v 27.813540 4.975639 13.051109
v 26.053709 5.313101 13.051579
v 16.821638 4.975637 13.054048
v 17.486706 5.313100 13.053868
v 15.993541 4.975637 13.054270
v 15.993541 5.313100 13.054270
v 15.990798 4.975637 13.054029
v 15.975298 4.975636 13.052674
v 15.960649 5.313100 13.051392
v 15.955604 4.975637 13.050951
v 15.906189 4.975637 13.046627
v 15.955604 5.313100 13.050951
v 15.906189 5.313100 13.046627
v 15.824464 5.313100 13.039476
v 15.733070 4.975638 13.031480
v 15.733070 5.313100 13.031480
v 28.754272 5.313101 12.727524
v 28.748804 5.313102 12.731354
v 28.567139 4.975640 12.858559
v 28.594952 4.975640 12.839085
v 28.567139 5.313102 12.858558
v 28.766321 4.975641 12.719090
v 28.778986 5.313102 12.710220
v 28.781319 4.975640 12.708589
v 28.778982 4.975640 12.710226
v 28.781319 5.313102 12.708588
v 28.531307 5.313102 12.875266
v 28.492653 5.313102 12.893291
v 28.550545 4.975639 12.866297
v 28.531309 4.975640 12.875267
v 28.537216 5.313102 12.872512
v 28.564415 4.975640 12.859829
v 28.564413 5.313102 12.859828
v 15.715383 4.975637 13.026741
v 15.701179 5.313100 13.022935
v 15.696863 4.975638 13.021778
v 15.658707 4.975638 13.011555
v 15.658707 5.313100 13.011555
v 15.480510 4.975638 12.963810
v 15.480510 5.313100 12.963810
v 15.451321 4.975638 12.950199
v 15.446964 4.975638 12.948168
v 15.463915 4.975636 12.956071
v 15.450586 5.313100 12.949857
v 15.446964 5.313100 12.948168
v 15.243539 4.975637 12.853310
v 15.243540 5.313100 12.853310
v 15.451321 5.313100 12.950199
v 29.097240 5.313101 12.336561
v 29.093143 5.313102 12.342415
v 29.105679 4.975640 12.324516
v 28.986055 4.975639 12.495342
v 28.966200 4.975639 12.523699
v 28.966198 5.313102 12.523697
v 29.114607 5.313102 12.311759
v 29.114609 4.975640 12.311760
v 29.116179 4.975640 12.309519
v 29.116180 5.313102 12.309518
v 28.942854 5.313102 12.547043
v 28.964247 5.313102 12.525650
v 28.953253 4.975639 12.536645
v 28.964245 4.975639 12.525651
v 28.937990 5.313101 12.551903
v 28.805580 4.975639 12.684324
v 15.029360 4.975638 12.703339
v 15.055936 4.975637 12.721948
v 15.216494 5.313100 12.834372
v 15.055936 5.313100 12.721948
v 15.228540 4.975638 12.842808
v 15.029360 5.313100 12.703341
v 15.241788 4.975638 12.852083
v 15.241788 5.313100 12.852083
v 15.006013 5.313100 12.679995
v 15.003655 5.313100 12.677637
v 15.016412 4.975637 12.690392
v 14.867326 4.975638 12.541315
v 14.844470 4.975638 12.518460
v 14.844470 5.313100 12.518460
v 15.027910 4.975638 12.701890
v 15.027910 5.313100 12.701891
v 29.226679 4.975640 12.072548
v 29.235754 4.975640 12.038672
v 29.247040 4.975640 11.996545
v 29.289600 4.975640 11.837674
v 29.226679 5.313102 12.072548
v 29.235752 5.313102 12.038673
v 29.285793 5.313102 11.851878
v 29.294336 5.313102 11.819987
v 29.293594 5.313102 11.822761
v 29.294338 4.975640 11.819988
v 29.218941 4.975640 12.089142
v 29.149435 4.975640 12.238199
v 29.130913 4.975640 12.277922
v 29.130915 5.313102 12.277914
v 29.212725 5.313101 12.102469
v 29.225508 5.313102 12.075058
v 14.843316 4.975638 12.516812
v 14.825533 5.313100 12.491415
v 14.843316 5.313100 12.516812
v 14.833967 4.975638 12.503461
v 14.823760 5.313100 12.488883
v 14.712946 4.975638 12.330624
v 14.694500 5.313100 12.304280
v 14.694500 4.975637 12.304279
v 14.679331 4.975637 12.271749
v 14.662663 4.975637 12.236005
v 14.584000 5.313100 12.067310
v 14.662663 5.313100 12.236006
v 14.680547 5.313100 12.274357
v 14.679331 5.313100 12.271749
v 14.686762 4.975638 12.287685
v 14.584000 4.975637 12.067310
v 14.693648 5.313100 12.302454
v 14.693649 4.975638 12.302454
v 29.317127 4.975639 11.559518
v 29.317085 4.975639 10.714797
v 29.317127 5.313102 11.559517
v 29.317051 5.313102 10.036315
v 29.316616 4.975639 1.275702
v 29.316528 4.975639 -0.503733
v 29.316616 5.313101 1.275658
v 29.316528 5.313100 -0.503733
v 29.297409 5.313102 11.784896
v 29.297409 4.975640 11.784906
v 29.315531 4.975639 11.577758
v 29.314249 5.313102 11.592406
v 29.316860 4.975639 11.562574
v 29.316858 5.313102 11.562572
v 14.575454 5.313100 12.035419
v 14.574755 5.313100 12.032813
v 14.579260 4.975637 12.049623
v 14.574755 4.975638 12.032813
v 14.564744 5.313100 11.995450
v 14.516320 4.975637 11.814750
v 14.516319 5.313100 11.814751
v 14.514725 4.975637 11.796509
v 14.513220 4.975637 11.779321
v 14.513443 5.313100 11.781859
v 14.513220 5.313100 11.779321
v 14.493530 5.313100 11.554280
v 14.493530 4.975637 11.554280
v 14.516131 4.975637 11.812593
v 14.493764 5.313100 10.411456
v 14.493759 5.313100 10.452682
v 14.493660 4.975637 10.920478
v 14.493656 4.975637 10.943342
v 14.493748 5.313100 10.492951
v 14.493650 4.975637 10.965674
v 14.493744 5.313100 10.531849
v 14.493732 5.313100 10.569026
v 14.493649 4.975637 10.987247
v 14.493643 4.975637 11.007866
v 14.493820 5.313100 10.142492
v 14.493818 5.313100 10.174541
v 14.493691 4.975637 10.771313
v 14.493690 4.975637 10.789087
v 14.493828 5.313100 10.114125
v 14.493694 4.975637 10.755581
v 14.494984 5.313099 4.496528
v 14.494337 4.975637 7.640099
v 14.495714 5.313099 0.948073
v 14.495696 5.313099 1.029749
v 14.495846 4.975636 0.299983
v 14.495695 4.975637 1.029796
v 14.493723 5.313100 10.637175
v 14.493636 4.975637 11.045660
v 14.493774 5.313100 10.369759
v 14.493667 4.975637 10.897353
v 14.493786 5.313100 10.328131
v 14.493672 4.975637 10.874267
v 14.493790 5.313100 10.287165
v 14.493675 4.975637 10.851547
v 14.493799 5.313100 10.247488
v 14.493680 4.975637 10.829543
v 14.493809 5.313100 10.209738
v 14.493685 4.975637 10.808606
v 14.493530 5.313100 11.552087
v 14.493530 4.975637 11.552077
v 14.493711 5.313100 10.667781
v 14.493630 4.975637 11.062634
v 14.495715 5.313099 0.915840
v 14.495846 4.975636 0.282106
v 14.495733 5.313099 0.842174
v 14.495855 4.975636 0.241251
v 14.495748 5.313099 0.760405
v 14.495865 4.975637 0.195902
v 29.115576 5.313101 -1.253731
v 29.129526 5.313100 -1.223810
v 29.115576 4.975639 -1.253731
v 29.123314 4.975639 -1.237138
v 29.226078 4.975639 -1.016762
v 29.225273 4.975639 -1.018485
v 29.130802 4.975639 -1.221080
v 29.226074 5.313101 -1.016762
v 29.149464 5.313101 -1.181056
v 29.130800 5.313101 -1.221081
v 29.316351 4.975638 -0.505747
v 29.316353 5.313101 -0.505746
v 29.296913 5.313101 -0.727999
v 29.296917 4.975639 -0.727999
v 29.296623 5.313101 -0.731314
v 29.295345 4.975639 -0.745963
v 29.293747 5.313101 -0.764202
v 29.293749 4.975639 -0.764202
v 29.114481 4.975639 -1.255296
v 29.092796 4.975639 -1.286267
v 29.114477 5.313101 -1.255299
v 28.986147 5.313101 -1.438572
v 28.976109 4.975639 -1.452913
v 28.984543 5.313101 -1.440867
v 29.246786 5.313101 -0.939466
v 29.293247 4.975639 -0.766070
v 29.235443 5.313101 -0.981795
v 29.230816 4.975639 -0.999077
v 29.235447 4.975639 -0.981795
v 29.234619 5.313100 -0.984872
v 28.965607 4.975639 -1.467910
v 28.965607 5.313101 -1.467910
v 28.964214 4.975639 -1.469304
v 28.937622 4.975638 -1.495894
v 28.793653 4.975637 -1.639841
v 28.964212 5.313101 -1.469303
v 28.937620 5.313101 -1.495892
v 28.804052 5.313101 -1.629443
v 28.780710 4.975637 -1.652787
v 28.780706 5.313102 -1.652787
v 28.566526 5.313100 -1.802766
v 28.593571 5.313101 -1.783829
v 28.566528 4.975638 -1.802766
v 28.581526 4.975638 -1.792264
v 28.564528 4.975638 -1.803699
v 28.361195 4.975638 -1.898512
v 28.564526 5.313101 -1.803699
v 28.361187 5.313101 -1.898514
v 28.359478 5.313101 -1.899311
v 28.346151 4.975638 -1.905526
v 28.329557 5.313101 -1.913264
v 28.327217 5.313101 -1.913890
v 28.327223 4.975638 -1.913889
v 28.320719 4.975638 -1.915631
v 28.329557 4.975638 -1.913263
v 28.108887 5.313101 -1.972388
v 28.110266 5.313100 -1.972018
v 28.103764 4.975638 -1.973761
v 28.094683 4.975638 -1.976194
v 28.103762 5.313101 -1.973761
v 28.076996 4.975638 -1.980932
v 28.076996 5.313101 -1.980932
v 28.779026 4.975638 -1.653966
v 28.779018 5.313101 -1.653970
v 28.748398 4.975638 -1.675413
v 28.748388 5.313101 -1.675419
v 27.834768 4.975638 -2.002125
v 27.891043 4.975638 -1.997201
v 27.891041 5.313101 -1.997201
v 27.849415 5.313101 -2.000843
v 27.816528 4.975638 -2.003721
v 27.816526 5.313101 -2.003721
v 26.988787 4.975638 -2.003949
v 18.211445 4.975637 -2.006382
v 15.996008 4.975637 -2.006996
v 26.323956 5.313100 -2.004132
v 18.211506 5.313099 -2.006381
v 15.996007 5.313099 -2.006995
v 15.905872 4.975637 -1.999112
v 15.905867 5.313099 -1.999110
v 15.803744 5.313099 -1.990178
v 15.753780 4.975637 -1.985808
v 15.803753 4.975637 -1.990179
v 15.768429 5.313099 -1.987089
v 15.735539 4.975636 -1.984213
v 15.738897 4.975637 -1.984507
v 15.735538 5.313100 -1.984212
v 15.738886 5.313099 -1.984505
v 15.631495 4.975637 -1.956331
v 15.631490 5.313099 -1.956329
v 15.514870 5.313099 -1.925077
v 15.500665 4.975637 -1.921271
v 15.482977 5.313099 -1.916531
v 15.482978 4.975637 -1.916532
v 15.436898 5.313099 -1.895046
v 15.436905 4.975637 -1.895048
v 15.262605 4.975636 -1.813778
v 15.275931 5.313099 -1.819992
v 15.246009 4.975636 -1.806039
v 15.246008 5.313099 -1.806038
v 15.031829 4.975636 -1.656067
v 15.029809 4.975636 -1.654047
v 14.870285 5.313099 -1.494521
v 15.029808 5.313099 -1.654047
v 15.031827 5.313098 -1.656066
v 14.859886 4.975636 -1.484123
v 15.005216 4.975636 -1.629454
v 14.869552 5.313099 -1.493789
v 14.846939 4.975637 -1.471176
v 14.846938 5.313099 -1.471175
v 14.715904 5.313099 -1.284040
v 14.845306 5.313099 -1.468846
v 14.707471 4.975637 -1.271994
v 14.825527 4.975637 -1.440597
v 14.845308 4.975637 -1.468847
v 15.058872 5.313099 -1.675004
v 15.049666 5.313099 -1.668558
v 15.046827 4.975636 -1.666570
v 14.715157 5.313099 -1.282972
v 14.696967 5.313099 -1.256994
v 14.696968 4.975637 -1.256995
v 15.235080 4.975636 -1.798387
v 15.235079 5.313099 -1.798385
v 15.049668 4.975636 -1.668558
v 14.518798 5.313101 -0.767471
v 14.518513 5.313100 -0.764218
v 14.498885 5.313099 -0.539883
v 14.515596 5.313100 -0.730881
v 14.497604 4.975637 -0.525234
v 14.515597 4.975636 -0.730883
v 14.518799 4.975637 -0.767472
v 14.496008 5.313099 -0.506992
v 14.496008 4.975636 -0.506993
v 14.594207 4.975637 -1.036619
v 14.664493 4.975637 -1.187350
v 14.681298 4.975637 -1.223389
v 14.695745 5.313099 -1.254370
v 14.695745 4.975637 -1.254370
v 14.681298 5.313099 -1.223389
v 14.600421 5.313099 -1.049947
v 14.664492 5.313099 -1.187350
v 14.586469 4.975637 -1.020024
v 14.586468 5.313099 -1.020023
v 14.527342 5.313099 -0.799364
v 14.523538 4.975636 -0.785160
v 14.576924 4.975636 -0.984403
v 14.576923 5.313099 -0.984402
v 14.566862 4.975636 -0.946852
v 14.495764 5.313099 0.675638
v 14.495780 5.313099 0.592493
v 14.495872 4.975636 0.148891
v 14.495882 4.975637 0.102779
v 14.496006 5.313099 -0.503630
v 14.496008 4.975637 -0.503630
v 14.495817 5.313099 0.413254
v 14.495903 4.975637 0.003373
v 14.495811 5.313099 0.444734
v 14.495899 4.975637 0.020832
v 14.495807 5.313099 0.478590
v 14.495897 4.975637 0.039608
v 14.495796 5.313099 0.514661
v 14.495892 4.975636 0.059613
v 14.495791 5.313099 0.552724
v 14.495888 4.975637 0.080723
vn -0.0000 -1.0000 -0.0000
vn -0.0000 1.0000 -0.0000
vn 0.9962 -0.0000 -0.0872
vn -0.5736 -0.0000 0.8191
vn -0.5736 -0.0000 0.8192
vn -0.9063 -0.0000 -0.4226
vn -0.9659 -0.0000 -0.2588
vn -0.4226 -0.0000 0.9063
vn 0.8192 -0.0000 0.5736
vn 0.9063 -0.0000 -0.4226
vn 0.9659 -0.0000 -0.2589
vn 0.7071 -0.0000 -0.7071
vn -0.2588 -0.0000 0.9659
vn -0.2508 -0.0000 -0.9680
vn 0.5736 -0.0000 0.8191
vn -0.4226 -0.0000 -0.9063
vn -0.0872 -0.0000 0.9962
vn 0.5736 -0.0000 -0.8192
vn -1.0000 -0.0000 -0.0000
vn 0.4226 -0.0000 -0.9063
vn -0.8191 -0.0000 -0.5736
vn -0.8192 -0.0000 -0.5736
vn -0.8192 -0.0000 -0.5735
vn 0.2588 -0.0000 0.9659
vn 0.7071 -0.0000 0.7071
vn 1.0000 -0.0000 0.0002
vn -0.9659 -0.0000 0.2588
vn -0.7071 -0.0000 0.7071
vn -0.7071 -0.0000 -0.7071
vn -0.0003 -0.0000 1.0000
vn 0.9962 -0.0000 0.0872
vn 0.0872 -0.0000 -0.9962
vn 0.8191 -0.0000 -0.5736
vn 0.9063 -0.0000 0.4226
vn -0.9962 -0.0000 -0.0872
vn -0.0637 -0.0000 -0.9980
vn -0.9063 -0.0000 0.4226
vn -0.9063 -0.0000 0.4227
vn 0.0871 -0.0000 0.9962
vn -0.5736 -0.0000 -0.8191
vn -0.5736 -0.0000 -0.8192
vn 0.2588 -0.0000 -0.9659
vn 0.9659 -0.0000 0.2588
vn 0.4226 -0.0000 0.9063
vn -0.9962 -0.0000 0.0872
vn -0.0003 -0.0000 -1.0000
vn -0.8191 -0.0000 0.5736
vn -0.0000 1.0000 0.0001
vt 0.403152 0.257663
vt 0.399302 0.257926
vt 0.399266 0.257166
vt 0.402557 0.256942
vt 0.402614 0.256942
vt 0.600210 0.472081
vt 0.600826 0.472624
vt 0.600826 0.472678
vt 0.600802 0.472968
vt 0.600534 0.476240
vt 0.599873 0.476200
vt 0.585610 0.494372
vt 0.589116 0.492625
vt 0.589826 0.493226
vt 0.589663 0.493348
vt 0.589416 0.493471
vt 0.586822 0.494764
vt 0.581874 0.495443
vt 0.586136 0.495106
vt 0.585873 0.495181
vt 0.583926 0.495740
vt 0.380966 0.281252
vt 0.380238 0.280627
vt 0.380258 0.280385
vt 0.380528 0.277089
vt 0.381303 0.277132
vt 0.581912 0.992025
vt 0.585648 0.990955
vt 0.586609 0.991451
vt 0.586175 0.991668
vt 0.583522 0.992427
vt 0.381310 0.773853
vt 0.380973 0.777973
vt 0.380244 0.777345
vt 0.380533 0.773808
vt 0.391395 0.950222
vt 0.391395 0.931850
vt 0.420502 0.931850
vt 0.420502 0.950222
vt 0.902809 0.028151
vt 0.902809 0.013044
vt 0.931916 0.013044
vt 0.931916 0.028151
vt 0.135695 0.044866
vt 0.135695 0.028151
vt 0.164802 0.028151
vt 0.164802 0.044866
vt 0.135695 0.062682
vt 0.164802 0.062682
vt 0.902809 0.044868
vt 0.931916 0.044868
vt 0.391395 0.028151
vt 0.391395 0.013043
vt 0.420502 0.013043
vt 0.420502 0.028151
vt 0.391395 0.984753
vt 0.391395 0.968038
vt 0.420502 0.968038
vt 0.420502 0.984753
vt 0.647113 0.013103
vt 0.647113 0.000001
vt 0.676219 0.000001
vt 0.676219 0.013103
vt 0.902809 0.062684
vt 0.931916 0.062684
vt 0.647111 0.951408
vt 0.647111 0.933615
vt 0.676218 0.933615
vt 0.676218 0.951408
vt 0.902811 0.982879
vt 0.902811 0.967772
vt 0.931917 0.967772
vt 0.931917 0.982879
vt 0.647111 0.968088
vt 0.676218 0.968088
vt 0.902809 0.081057
vt 0.931916 0.081057
vt 0.647113 0.028260
vt 0.676219 0.028260
vt 0.164802 0.081055
vt 0.164802 0.931987
vt 0.135695 0.931987
vt 0.135695 0.081055
vt 0.647113 0.045012
vt 0.676219 0.045012
vt 0.135695 0.013043
vt 0.164802 0.013043
vt 0.902811 0.951056
vt 0.902811 0.933242
vt 0.931917 0.933242
vt 0.931917 0.951056
vt 0.391395 0.000001
vt 0.420502 0.000001
vt 0.391395 0.081056
vt 0.420502 0.081056
vt 0.135695 0.968176
vt 0.135695 0.950361
vt 0.164802 0.950361
vt 0.164802 0.968176
vt 0.902809 0.000001
vt 0.931916 0.000001
vt 0.135695 0.000001
vt 0.164802 0.000001
vt 0.902811 0.914868
vt 0.931917 0.914868
vt 0.391395 0.062683
vt 0.420501 0.062683
vt 0.647113 0.081230
vt 0.647113 0.062849
vt 0.676219 0.062849
vt 0.676219 0.081230
vt 0.391395 0.999862
vt 0.420502 0.999862
vt 0.391395 0.044867
vt 0.420502 0.044867
vt 0.647111 0.915262
vt 0.676217 0.915262
vt 0.135695 0.984892
vt 0.164802 0.984892
vt 0.647111 0.983147
vt 0.676218 0.983147
vt 0.135695 1.000000
vt 0.164802 1.000000
vt 0.581912 0.257975
vt 0.578059 0.257614
vt 0.579839 0.257014
vt 0.582415 0.257256
vt 0.582679 0.257331
vt 0.582954 0.257410
vt 0.585648 0.259045
vt 0.586609 0.258549
vt 0.586674 0.258581
vt 0.592322 0.263164
vt 0.589154 0.260793
vt 0.589728 0.260111
vt 0.589925 0.260258
vt 0.592494 0.262181
vt 0.595057 0.266088
vt 0.592911 0.262500
vt 0.593082 0.262683
vt 0.595301 0.265055
vt 0.597276 0.269475
vt 0.595658 0.265445
vt 0.595798 0.265657
vt 0.597599 0.268407
vt 0.598099 0.269344
vt 0.598348 0.269913
vt 0.599911 0.277217
vt 0.598910 0.273223
vt 0.599656 0.273146
vt 0.600525 0.276616
vt 0.600528 0.276650
vt 0.426523 0.256935
vt 0.566214 0.256896
vt 0.578539 0.256893
vt 0.578580 0.256896
vt 0.395566 0.258960
vt 0.395491 0.258090
vt 0.398683 0.257206
vt 0.398737 0.257203
vt 0.392060 0.260708
vt 0.391930 0.259740
vt 0.394924 0.258247
vt 0.394971 0.258234
vt 0.600249 0.281336
vt 0.600571 0.277180
vt 0.600865 0.280760
vt 0.600865 0.280795
vt 0.598872 0.480194
vt 0.600487 0.476822
vt 0.600416 0.477104
vt 0.599771 0.479676
vt 0.597238 0.483942
vt 0.599622 0.480274
vt 0.599480 0.480841
vt 0.599364 0.481105
vt 0.598319 0.483503
vt 0.595019 0.487329
vt 0.597854 0.484570
vt 0.597835 0.484612
vt 0.597679 0.484850
vt 0.595921 0.487533
vt 0.592284 0.490253
vt 0.595627 0.487982
vt 0.595603 0.488019
vt 0.595410 0.488225
vt 0.593247 0.490538
vt 0.592881 0.490929
vt 0.592851 0.490961
vt 0.592628 0.491129
vt 0.592585 0.491160
vt 0.578021 0.495803
vt 0.582377 0.496183
vt 0.582327 0.496188
vt 0.403162 0.495750
vt 0.545526 0.496535
vt 0.414887 0.496496
vt 0.402567 0.496492
vt 0.402295 0.496467
vt 0.401458 0.496388
vt 0.395573 0.494319
vt 0.394966 0.495062
vt 0.394931 0.495052
vt 0.394684 0.494929
vt 0.394460 0.494818
vt 0.388899 0.490199
vt 0.392068 0.492571
vt 0.391434 0.493308
vt 0.391404 0.493294
vt 0.391181 0.493126
vt 0.388697 0.491267
vt 0.386164 0.487276
vt 0.388241 0.490926
vt 0.388216 0.490907
vt 0.388024 0.490701
vt 0.385881 0.488411
vt 0.383946 0.483888
vt 0.385485 0.487988
vt 0.385464 0.487966
vt 0.385308 0.487727
vt 0.383572 0.485075
vt 0.382311 0.480141
vt 0.383006 0.484038
vt 0.381599 0.480815
vt 0.381310 0.476147
vt 0.381448 0.480231
vt 0.380588 0.476798
vt 0.380973 0.472027
vt 0.380533 0.476192
vt 0.380244 0.472655
vt 0.382304 0.273138
vt 0.380573 0.276531
vt 0.380644 0.276249
vt 0.381278 0.273721
vt 0.383939 0.269391
vt 0.381446 0.273051
vt 0.381581 0.272512
vt 0.381696 0.272248
vt 0.382731 0.269877
vt 0.386157 0.266004
vt 0.383249 0.268706
vt 0.383382 0.268503
vt 0.385162 0.265785
vt 0.388892 0.263080
vt 0.385486 0.265303
vt 0.385650 0.265128
vt 0.387848 0.262778
vt 0.388244 0.262366
vt 0.388432 0.262225
vt 0.390983 0.260315
vt 0.578021 0.754197
vt 0.581362 0.753722
vt 0.581888 0.753771
vt 0.582327 0.753812
vt 0.592284 0.759747
vt 0.589116 0.757375
vt 0.589826 0.756774
vt 0.592448 0.758737
vt 0.592585 0.758840
vt 0.595019 0.762671
vt 0.592881 0.759071
vt 0.595255 0.761609
vt 0.595266 0.761621
vt 0.597238 0.766058
vt 0.595627 0.762018
vt 0.597554 0.764958
vt 0.597565 0.764975
vt 0.598069 0.765923
vt 0.598319 0.766497
vt 0.599873 0.773800
vt 0.598872 0.769806
vt 0.599622 0.769726
vt 0.600360 0.772671
vt 0.600487 0.773178
vt 0.600491 0.773230
vt 0.600210 0.777919
vt 0.600534 0.773760
vt 0.600783 0.776799
vt 0.600826 0.777322
vt 0.600826 0.777376
vt 0.598910 0.976777
vt 0.599911 0.972783
vt 0.600571 0.972820
vt 0.600568 0.972861
vt 0.600525 0.973384
vt 0.599804 0.976259
vt 0.597276 0.980525
vt 0.599656 0.976854
vt 0.599645 0.976895
vt 0.599518 0.977403
vt 0.598348 0.980087
vt 0.595057 0.983912
vt 0.597886 0.981144
vt 0.597874 0.981174
vt 0.595950 0.984111
vt 0.592322 0.986836
vt 0.595658 0.984555
vt 0.595641 0.984581
vt 0.593272 0.987114
vt 0.592911 0.987500
vt 0.592889 0.987523
vt 0.592494 0.987819
vt 0.589154 0.989207
vt 0.589728 0.989889
vt 0.589702 0.989909
vt 0.586674 0.991419
vt 0.578059 0.992386
vt 0.582890 0.992608
vt 0.582416 0.992745
vt 0.581055 0.992872
vt 0.403152 0.992337
vt 0.579103 0.993055
vt 0.579028 0.993061
vt 0.578539 0.993107
vt 0.556315 0.993101
vt 0.428806 0.993065
vt 0.395566 0.991040
vt 0.399302 0.992074
vt 0.399266 0.992834
vt 0.399172 0.992827
vt 0.398683 0.992794
vt 0.396093 0.992077
vt 0.392060 0.989292
vt 0.395491 0.991910
vt 0.395399 0.991885
vt 0.394924 0.991753
vt 0.392505 0.990547
vt 0.388892 0.986920
vt 0.391437 0.990015
vt 0.391397 0.989994
vt 0.388693 0.987970
vt 0.386157 0.983996
vt 0.388244 0.987634
vt 0.388209 0.987608
vt 0.385877 0.985115
vt 0.383939 0.980609
vt 0.385486 0.984697
vt 0.385457 0.984666
vt 0.383568 0.981782
vt 0.382304 0.976862
vt 0.383006 0.980755
vt 0.381788 0.977964
vt 0.381598 0.977528
vt 0.381303 0.972868
vt 0.381446 0.976949
vt 0.380701 0.973977
vt 0.380585 0.973514
vt 0.380966 0.968748
vt 0.380528 0.972911
vt 0.380277 0.969848
vt 0.380238 0.969373
vt 0.382311 0.769859
vt 0.380538 0.773755
vt 0.380580 0.773232
vt 0.381279 0.770443
vt 0.383946 0.766112
vt 0.381448 0.769769
vt 0.381460 0.769720
vt 0.381587 0.769213
vt 0.382728 0.766599
vt 0.386164 0.762724
vt 0.383249 0.765418
vt 0.385158 0.762501
vt 0.385485 0.762012
vt 0.385881 0.761589
vt 0.388899 0.759801
vt 0.388241 0.759074
vt 0.388697 0.758733
vt 0.395573 0.755681
vt 0.392068 0.757429
vt 0.391434 0.756692
vt 0.394460 0.755182
vt 0.399309 0.754611
vt 0.394966 0.754938
vt 0.398195 0.754013
vt 0.403162 0.754251
vt 0.398292 0.753985
vt 0.398690 0.753871
vt 0.401458 0.753613
vt 0.387869 0.759464
vt 0.388216 0.759093
vt 0.383249 0.484582
vt 0.598069 0.484077
vt 0.597874 0.268827
vt 0.597886 0.268856
vt 0.383006 0.269245
vt 0.579839 0.992986
vt 0.385805 0.985037
vt 0.598099 0.980656
vt 0.590104 0.989608
vt 0.586822 0.755236
vt 0.589218 0.756430
vt 0.589663 0.756652
vt 0.585610 0.755628
vt 0.600864 0.969205
vt 0.600864 0.969239
vt 0.600248 0.968664
vt 0.385182 0.762464
vt 0.385464 0.762034
vt 0.380580 0.476768
vt 0.380557 0.476478
vt 0.581362 0.496278
vt 0.579842 0.496420
vt 0.595603 0.761981
vt 0.395187 0.258174
vt 0.578500 0.496545
vt 0.402077 0.753555
vt 0.402567 0.753509
vt 0.424782 0.753502
vt 0.545525 0.753465
vt 0.583522 0.257573
vt 0.402614 0.993058
vt 0.402557 0.993058
vt 0.597854 0.765430
vt 0.383249 0.981294
vt 0.383225 0.981258
vt 0.593237 0.987152
vt 0.391930 0.990260
vt 0.391842 0.990217
vt 0.578810 0.256918
vt 0.579103 0.256945
vt 0.388612 0.987909
vt 0.600549 0.276906
vt 0.380574 0.973469
vt 0.598081 0.980697
vt 0.383226 0.268742
vt 0.380240 0.444309
vt 0.380235 0.294117
vt 0.380234 0.280676
vt 0.383232 0.484557
vt 0.383117 0.484293
vt 0.600829 0.791965
vt 0.600829 0.792466
vt 0.600829 0.793005
vt 0.600829 0.793579
vt 0.600829 0.794184
vt 0.600829 0.794817
vt 0.600829 0.796140
vt 0.600830 0.797489
vt 0.600830 0.798790
vt 0.600830 0.799962
vt 0.600830 0.800475
vt 0.600830 0.801775
vt 0.381587 0.480787
vt 0.381517 0.480506
vt 0.381581 0.977488
vt 0.394486 0.755170
vt 0.394931 0.754948
vt 0.383006 0.765962
vt 0.383025 0.765919
vt 0.383232 0.765443
vt 0.600841 0.856938
vt 0.600859 0.946324
vt 0.600860 0.946775
vt 0.600860 0.947285
vt 0.600860 0.947845
vt 0.600860 0.948446
vt 0.600860 0.949077
vt 0.600860 0.949729
vt 0.600860 0.950392
vt 0.600860 0.951055
vt 0.600860 0.951711
vt 0.600861 0.952352
vt 0.600861 0.952971
vt 0.600861 0.953562
vt 0.600861 0.954647
vt 0.600861 0.955134
vt 0.398690 0.496129
vt 0.398427 0.496053
vt 0.398292 0.496015
vt 0.399309 0.495389
vt 0.589702 0.260091
vt 0.398954 0.257188
vt 0.600831 0.448225
vt 0.600828 0.459837
vt 0.600828 0.460122
vt 0.600828 0.460772
vt 0.600828 0.461493
vt 0.600828 0.462241
vt 0.600828 0.462975
vt 0.600828 0.463326
vt 0.600827 0.463662
vt 0.600828 0.463980
vt 0.600827 0.464279
vt 0.600827 0.464557
vt 0.595641 0.265419
vt 0.383507 0.981688
vt 0.595923 0.984151
vt 0.579842 0.753580
vt 0.391002 0.757008
vt 0.391405 0.756706
vt 0.599518 0.272597
vt 0.599588 0.272879
vt 0.380234 0.969324
vt 0.380235 0.945087
vt 0.380240 0.805690
vt 0.582106 0.496208
vt 0.426523 0.993065
vt 0.586175 0.258332
vt 0.586421 0.258456
vt 0.592851 0.759039
vt 0.599272 0.768683
vt 0.599480 0.769159
vt 0.582377 0.753817
vt 0.583926 0.754261
vt 0.581874 0.754558
vt 0.391437 0.259985
vt 0.391644 0.259882
vt 0.592889 0.262477
vt 0.586620 0.991446
vt 0.600863 0.288583
vt 0.600863 0.288853
vt 0.600863 0.289455
vt 0.600863 0.289783
vt 0.600863 0.290126
vt 0.600863 0.290482
vt 0.600863 0.290845
vt 0.600863 0.291213
vt 0.600863 0.291581
vt 0.600863 0.291942
vt 0.600863 0.292292
vt 0.600862 0.292625
vt 0.600862 0.292936
vt 0.600862 0.293219
vt 0.600862 0.293469
vt 0.600852 0.343042
vt 0.395063 0.495090
vt 0.585661 0.754758
vt 0.586136 0.754894
vt 0.597835 0.765389
vt 0.385457 0.265334
vt 0.597989 0.269091
vt 0.388209 0.262392
vt 0.380241 0.777377
vt 0.578500 0.753455
vt 0.391397 0.260006
vt 0.398215 0.754007
vt 0.380241 0.472623
s 1
f 78/1/1 32/2/1 94/3/1 97/4/1 101/5/1
f 58/6/1 440/7/1 419/8/1 415/9/1 416/10/1 70/11/1
f 55/12/1 36/13/1 408/14/1 385/15/1 383/16/1 382/17/1
f 54/18/1 55/12/1 382/17/1 380/19/1 378/20/1 375/21/1
f 48/22/1 227/23/1 225/24/1 224/25/1 13/26/1
f 71/27/2 50/28/2 148/29/2 140/30/2 138/31/2
f 59/32/2 46/33/2 298/34/2 299/35/2
f 3/36/3 2/37/3 1/38/3
f 1/38/3 4/39/3 3/36/3
f 7/40/4 6/41/5 5/42/4
f 5/42/4 8/43/4 7/40/4
f 11/44/6 10/45/6 9/46/6
f 9/46/6 12/47/6 11/44/6
f 13/48/7 11/44/7 12/47/7
f 12/47/7 14/49/7 13/48/7
f 15/50/8 7/40/8 8/43/8
f 8/43/8 16/51/8 15/50/8
f 19/52/9 18/53/9 17/54/9
f 17/54/9 20/55/9 19/52/9
f 23/56/10 22/57/10 21/58/10
f 21/58/10 24/59/10 23/56/10
f 22/57/11 3/36/11 4/39/11
f 4/39/11 21/58/11 22/57/11
f 27/60/12 26/61/12 25/62/12
f 25/62/12 28/63/12 27/60/12
f 29/64/13 15/50/13 16/51/13
f 16/51/13 30/65/13 29/64/13
f 33/66/14 32/67/14 31/68/14
f 31/68/14 34/69/14 33/66/14
f 37/70/15 36/71/15 35/72/15
f 35/72/15 38/73/15 37/70/15
f 39/74/16 33/66/16 34/69/16
f 34/69/16 40/75/16 39/74/16
f 41/76/17 29/64/17 30/65/17
f 30/65/17 42/77/17 41/76/17
f 43/78/18 27/60/18 28/63/18
f 28/63/18 44/79/18 43/78/18
f 47/80/19 46/81/19 45/82/19
f 45/82/19 48/83/19 47/80/19
f 49/84/20 43/78/20 44/79/20
f 44/79/20 50/85/20 49/84/20
f 10/45/21 52/86/21 51/87/22
f 51/87/22 9/46/23 10/45/21
f 55/88/24 54/89/24 53/90/24
f 53/90/24 56/91/24 55/88/24
f 18/53/25 37/92/25 38/93/25
f 38/93/25 17/54/25 18/53/25
f 2/37/26 58/94/26 57/95/26
f 57/95/26 1/38/26 2/37/26
f 61/96/27 60/97/27 59/98/27
f 59/98/27 62/99/27 61/96/27
f 6/41/28 64/100/28 63/101/28
f 63/101/28 5/42/28 6/41/28
f 52/86/29 66/102/29 65/103/29
f 65/103/29 51/87/29 52/86/29
f 67/104/30 41/76/30 42/77/30
f 42/77/30 68/105/30 67/104/30
f 58/94/31 70/106/31 69/107/31
f 69/107/31 57/95/31 58/94/31
f 73/108/32 72/109/32 71/110/32
f 71/110/32 74/111/32 73/108/32
f 26/112/33 23/56/33 24/59/33
f 24/59/33 25/113/33 26/112/33
f 75/114/34 19/52/34 20/55/34
f 20/55/34 76/115/34 75/114/34
f 48/83/35 13/48/35 14/49/35
f 14/49/35 47/80/35 48/83/35
f 32/67/36 78/116/36 77/117/36
f 77/117/36 31/68/36 32/67/36
f 79/118/37 61/96/37 62/99/37
f 62/99/37 80/119/38 79/118/37
f 54/89/39 67/104/39 68/105/39
f 68/105/39 53/90/39 54/89/39
f 66/120/40 39/74/41 40/75/40
f 40/75/40 65/121/40 66/120/40
f 72/109/42 49/84/42 50/85/42
f 50/85/42 71/110/42 72/109/42
f 70/106/43 75/114/43 76/115/43
f 76/115/43 69/107/43 70/106/43
f 36/71/44 55/88/44 56/91/44
f 56/91/44 35/72/44 36/71/44
f 60/97/45 45/82/45 46/81/45
f 46/81/45 59/98/45 60/97/45
f 78/116/46 73/108/46 74/111/46
f 74/111/46 77/117/46 78/116/46
f 64/122/47 79/118/47 80/119/47
f 80/119/47 63/123/47 64/122/47
f 72/124/1 73/125/1 111/126/1 115/127/1 134/128/1 136/129/1
f 49/130/1 141/131/1 142/132/1
f 27/133/1 43/134/1 171/135/1 169/136/1 166/137/1
f 26/138/1 27/133/1 179/139/1 175/140/1 176/141/1
f 23/142/1 26/138/1 197/143/1 200/144/1 202/145/1
f 23/142/1 205/146/1 206/147/1
f 3/148/1 22/149/1 232/150/1 234/151/1 242/152/1
f 73/125/1 78/1/1 100/153/1 103/154/1 105/155/1 107/156/1
f 32/2/1 33/157/1 84/158/1 87/159/1 92/160/1
f 33/157/1 39/161/1 130/162/1 90/163/1 88/164/1
f 2/165/1 3/148/1 237/166/1 241/167/1 278/168/1
f 75/169/1 70/11/1 416/10/1 417/170/1 431/171/1 434/172/1
f 19/173/1 75/169/1 432/174/1 428/175/1 420/176/1 421/177/1
f 18/178/1 19/173/1 424/179/1 407/180/1 399/181/1 400/182/1
f 37/183/1 18/178/1 401/184/1 395/185/1 392/186/1 393/187/1
f 37/183/1 388/188/1 387/189/1 404/190/1 410/191/1
f 67/192/1 54/18/1 375/21/1 371/193/1 372/194/1
f 41/195/1 67/192/1 360/196/1 359/197/1 357/198/1 353/199/1 354/200/1
f 15/201/1 339/202/1 341/203/1 336/204/1 332/205/1
f 6/206/1 7/207/1 331/208/1 329/209/1 330/210/1 351/211/1
f 64/212/1 6/206/1 349/213/1 325/214/1 321/215/1 320/216/1
f 79/217/1 64/212/1 319/218/1 317/219/1 309/220/1 306/221/1
f 61/222/1 79/217/1 293/223/1 292/224/1
f 60/225/1 61/222/1 315/226/1 312/227/1
f 45/228/1 60/225/1 300/229/1 297/230/1
f 11/231/1 13/26/1 224/25/1 190/232/1 184/233/1 183/234/1
f 10/235/1 11/231/1 182/236/1 181/237/1 191/238/1 192/239/1
f 52/240/1 10/235/1 156/241/1 151/242/1 152/243/1
f 66/244/1 52/240/1 162/245/1 161/246/1 164/247/1
f 39/161/1 66/244/1 125/248/1 122/249/1 120/250/1
f 68/251/2 367/252/2 370/253/2 374/254/2
f 38/255/2 35/256/2 409/257/2 402/258/2 403/259/2
f 17/260/2 38/255/2 390/261/2 389/262/2 394/263/2
f 20/264/2 17/260/2 398/265/2 397/266/2 405/267/2
f 20/264/2 425/268/2 427/269/2
f 69/270/2 76/271/2 433/272/2 430/273/2 411/274/2 412/275/2
f 57/276/2 69/270/2 414/277/2 413/278/2 418/279/2 439/280/2
f 21/281/2 4/282/2 239/283/2 238/284/2 235/285/2 233/286/2
f 24/287/2 21/281/2 230/288/2 229/289/2 207/290/2 208/291/2
f 25/292/2 24/287/2 213/293/2 203/294/2 201/295/2
f 28/296/2 25/292/2 199/297/2 178/298/2 174/299/2
f 28/296/2 180/300/2 170/301/2 168/302/2
f 50/28/2 44/303/2 172/304/2 147/305/2 145/306/2
f 74/307/2 71/27/2 138/31/2 135/308/2 116/309/2 114/310/2
f 77/311/2 74/307/2 112/312/2 109/313/2 106/314/2 104/315/2 102/316/2
f 34/317/2 31/318/2 95/319/2 93/320/2 81/321/2 82/322/2
f 40/323/2 34/317/2 86/324/2 85/325/2 89/326/2 128/327/2
f 65/328/2 40/323/2 133/329/2 121/330/2 118/331/2
f 51/332/2 65/328/2 123/333/2 126/334/2 163/335/2
f 9/336/2 51/332/2 160/337/2 154/338/2 150/339/2
f 12/340/2 9/336/2 194/341/2 195/342/2 196/343/2
f 14/344/2 12/340/2 186/345/2 187/346/2 189/347/2
f 47/348/2 14/344/2 223/349/2 226/350/2 228/351/2
f 62/352/2 59/32/2 299/35/2 301/353/2 303/354/2 311/355/2
f 80/356/2 62/352/2 313/357/2 316/358/2 294/359/2 295/360/2
f 63/361/2 80/356/2 307/362/2 308/363/2
f 63/361/2 322/364/2 323/365/2
f 5/366/2 350/367/2 352/368/2
f 16/369/2 8/370/2 333/371/2 334/372/2
f 30/373/2 16/369/2 338/374/2 343/375/2
f 42/376/2 30/373/2 346/377/48 348/378/2 355/379/2
f 323/365/2 324/380/2 326/381/2 350/367/2 5/366/2 63/361/2
f 306/221/1 305/382/1 79/217/1
f 421/177/1 422/383/1 19/173/1
f 202/145/1 204/384/1 214/385/1 23/142/1
f 192/239/1 193/386/1 10/235/1
f 114/310/2 113/387/2 74/307/2
f 163/335/2 159/388/2 160/337/2 51/332/2
f 208/291/2 210/389/2 24/287/2
f 168/302/2 167/390/2 172/304/2 44/303/2 28/296/2
f 381/391/2 384/392/2 386/393/2 409/257/2 35/256/2 56/394/2
f 277/395/2 240/396/2 239/283/2 4/282/2 1/397/2
f 308/363/2 310/398/2 318/399/2 322/364/2 63/361/2
f 312/227/1 304/400/1 302/401/1 300/229/1 60/225/1
f 311/355/2 313/357/2 62/352/2
f 369/402/1 365/403/1 67/192/1
f 394/263/2 396/404/2 398/265/2 17/260/2
f 88/164/1 83/405/1 84/158/1 33/157/1
f 365/403/1 361/406/1 360/196/1 67/192/1
f 355/379/2 356/407/2 358/408/2 362/409/2 363/410/2 68/251/2 42/376/2
f 136/129/1 137/411/1 72/124/1
f 98/412/2 96/413/2 95/319/2 31/318/2 77/311/2
f 423/414/2 425/268/2 20/264/2
f 155/415/2 158/416/2 194/341/2 9/336/2
f 233/286/2 230/288/2 21/281/2
f 174/299/2 173/417/2 180/300/2 28/296/2
f 434/172/1 432/174/1 75/169/1
f 127/418/2 131/419/2 133/329/2 40/323/2
f 107/156/1 108/420/1 110/421/1 73/125/1
f 118/331/2 117/422/2 123/333/2 65/328/2
f 422/383/1 424/179/1 19/173/1
f 242/152/1 236/423/1 237/166/1 3/148/1
f 189/347/2 188/424/2 223/349/2 14/344/2
f 210/389/2 209/425/2 213/293/2 24/287/2
f 412/275/2 414/277/2 69/270/2
f 193/386/1 157/426/1 156/241/1 10/235/1
f 219/427/1 216/428/1 215/429/1 227/23/1 48/22/1 45/228/1
f 393/187/1 388/188/1 37/183/1
f 305/382/1 289/430/1 290/431/1 293/223/1 79/217/1
f 128/327/2 127/418/2 40/323/2
f 439/280/2 441/432/2 443/433/2 445/434/2 447/435/2 449/436/2 436/437/2 435/438/2 285/439/2 283/440/2 281/441/2 261/442/2 262/443/2 57/276/2
f 292/224/1 291/444/1 314/445/1 315/226/1 61/222/1
f 196/343/2 185/446/2 186/345/2 12/340/2
f 334/372/2 335/447/2 337/448/2 338/374/2 16/369/2
f 320/216/1 319/218/1 64/212/1
f 400/182/1 401/184/1 18/178/1
f 296/449/2 288/450/2 287/451/2 307/362/2 80/356/2
f 262/443/2 259/452/2 257/453/2 253/454/2 254/455/2 275/456/2 273/457/2 271/458/2 269/459/2 267/460/2 243/461/2 244/462/2 247/463/2 249/464/2 250/465/2 265/466/2 279/467/2 277/395/2 1/397/2 57/276/2
f 354/200/1 347/468/1 345/469/1 344/470/1 29/471/1 41/195/1
f 295/360/2 296/449/2 80/356/2
f 142/132/1 146/472/1 171/135/1 43/134/1 49/130/1
f 351/211/1 349/213/1 6/206/1
f 92/160/1 91/473/1 94/3/1 32/2/1
f 264/474/1 263/475/1 282/476/1 284/477/1 286/478/1 437/479/1 438/480/1 450/481/1 448/482/1 446/483/1 444/484/1 442/485/1 440/7/1 58/6/1
f 176/141/1 177/486/1 197/143/1 26/138/1
f 110/421/1 111/126/1 73/125/1
f 150/339/2 149/487/2 155/415/2 9/336/2
f 201/295/2 198/488/2 199/297/2 25/292/2
f 366/489/2 367/252/2 68/251/2
f 352/368/2 328/490/2 327/491/2 333/371/2 8/370/2 5/366/2
f 206/147/1 212/492/1 231/493/1 232/150/1 22/149/1 23/142/1
f 82/322/2 86/324/2 34/317/2
f 228/351/2 217/494/2 218/495/2 221/496/2 46/33/2 47/348/2
f 372/194/1 368/497/1 369/402/1 67/192/1
f 102/316/2 99/498/2 77/311/2
f 137/411/1 139/499/1 143/500/1 141/131/1 49/130/1 72/124/1
f 113/387/2 112/312/2 74/307/2
f 403/259/2 391/501/2 390/261/2 38/255/2
f 427/269/2 426/502/2 429/503/2 433/272/2 76/271/2 20/264/2
f 332/205/1 331/208/1 7/207/1 15/201/1
f 374/254/2 373/504/2 376/505/2 53/506/2 68/251/2
f 410/191/1 408/14/1 36/13/1 37/183/1
f 132/507/1 129/508/1 130/162/1 39/161/1
f 166/137/1 165/509/1 179/139/1 27/133/1
f 99/498/2 98/412/2 77/311/2
f 145/306/2 144/510/2 148/29/2 50/28/2
f 278/168/1 280/511/1 266/512/1 252/513/1 251/514/1 248/515/1 246/516/1 245/517/1 268/518/1 270/519/1 272/520/1 274/521/1 276/522/1 256/523/1 255/524/1 258/525/1 260/526/1 264/474/1 58/6/1 2/165/1
f 183/234/1 182/236/1 11/231/1
f 340/527/1 339/202/1 15/201/1
f 376/505/2 377/528/2 379/529/2 381/391/2 56/394/2 53/506/2
f 405/267/2 406/530/2 423/414/2 20/264/2
f 152/243/1 153/531/1 162/245/1 52/240/1
f 214/385/1 211/532/1 205/146/1 23/142/1
f 164/247/1 124/533/1 125/248/1 66/244/1
f 221/496/2 222/534/2 298/34/2 46/33/2
f 363/410/2 364/535/2 366/489/2 68/251/2
f 101/5/1 100/153/1 78/1/1
f 120/250/1 119/536/1 132/507/1 39/161/1
f 344/470/1 340/527/1 15/201/1 29/471/1
f 343/375/2 342/537/48 346/377/48 30/373/2
f 297/230/1 220/538/1 219/427/1 45/228/1
