# Blender 4.5.2 LTS
# www.blender.org
o Cube.001
v 2.586174 -0.112551 -1.476846
v 3.037402 -0.112648 -1.928074
v 2.587715 -0.112552 -1.514109
v 2.592328 -0.112553 -1.551116
v 2.599982 -0.112554 -1.587616
v 2.610623 -0.112557 -1.623360
v 2.624180 -0.112559 -1.658103
v 2.640559 -0.112563 -1.691607
v 2.659649 -0.112567 -1.723645
v 2.681320 -0.112572 -1.753996
v 2.705423 -0.112577 -1.782455
v 2.731794 -0.112582 -1.808826
v 2.760252 -0.112589 -1.832929
v 2.790604 -0.112595 -1.854599
v 2.822641 -0.112602 -1.873690
v 2.856146 -0.112609 -1.890069
v 2.890889 -0.112617 -1.903625
v 2.926632 -0.112624 -1.914267
v 2.963132 -0.112632 -1.921920
v 3.000140 -0.112640 -1.926533
v 3.037711 1.332363 -1.928074
v 2.586483 1.332460 -1.476846
v 3.000449 1.332371 -1.926533
v 2.963441 1.332379 -1.921920
v 2.926941 1.332387 -1.914267
v 2.891198 1.332394 -1.903625
v 2.856455 1.332402 -1.890069
v 2.822950 1.332409 -1.873689
v 2.790913 1.332416 -1.854599
v 2.760561 1.332422 -1.832929
v 2.732103 1.332428 -1.808825
v 2.705732 1.332434 -1.782455
v 2.681629 1.332439 -1.753996
v 2.659958 1.332444 -1.723644
v 2.640868 1.332448 -1.691607
v 2.624489 1.332452 -1.658103
v 2.610932 1.332454 -1.623360
v 2.600291 1.332457 -1.587616
v 2.592637 1.332458 -1.551116
v 2.588024 1.332459 -1.514108
v 10.962289 -0.114345 -1.928074
v 11.413517 -0.114442 -1.476846
v 10.999550 -0.114353 -1.926533
v 11.036557 -0.114361 -1.921920
v 11.073058 -0.114369 -1.914266
v 11.108802 -0.114376 -1.903625
v 11.143544 -0.114384 -1.890068
v 11.177049 -0.114391 -1.873689
v 11.209086 -0.114398 -1.854599
v 11.239438 -0.114404 -1.832928
v 11.267897 -0.114411 -1.808825
v 11.294268 -0.114416 -1.782454
v 11.318370 -0.114421 -1.753996
v 11.340041 -0.114426 -1.723644
v 11.359131 -0.114430 -1.691607
v 11.375510 -0.114434 -1.658102
v 11.389068 -0.114436 -1.623359
v 11.399709 -0.114439 -1.587616
v 11.407362 -0.114440 -1.551116
v 11.411975 -0.114441 -1.514108
v 11.413826 1.330569 -1.476846
v 10.962598 1.330666 -1.928074
v 11.412284 1.330570 -1.514108
v 11.407671 1.330571 -1.551116
v 11.400018 1.330572 -1.587616
v 11.389377 1.330575 -1.623359
v 11.375819 1.330577 -1.658102
v 11.359440 1.330581 -1.691607
v 11.340350 1.330585 -1.723644
v 11.318679 1.330590 -1.753996
v 11.294577 1.330595 -1.782454
v 11.268206 1.330601 -1.808825
v 11.239747 1.330607 -1.832928
v 11.209395 1.330613 -1.854599
v 11.177358 1.330620 -1.873689
v 11.143853 1.330627 -1.890068
v 11.109111 1.330635 -1.903625
v 11.073367 1.330642 -1.914266
v 11.036866 1.330650 -1.921919
v 10.999859 1.330658 -1.926533
v 3.037402 -0.112648 1.137806
v 2.586174 -0.112551 0.686578
v 3.000140 -0.112640 1.136264
v 2.963132 -0.112632 1.131651
v 2.926632 -0.112624 1.123998
v 2.890889 -0.112617 1.113357
v 2.856146 -0.112609 1.099800
v 2.822641 -0.112602 1.083421
v 2.790604 -0.112595 1.064331
v 2.760252 -0.112589 1.042660
v 2.731794 -0.112583 1.018557
v 2.705423 -0.112577 0.992186
v 2.681320 -0.112572 0.963728
v 2.659649 -0.112567 0.933376
v 2.640559 -0.112563 0.901338
v 2.624180 -0.112560 0.867834
v 2.610623 -0.112557 0.833091
v 2.599982 -0.112554 0.797348
v 2.592328 -0.112553 0.760847
v 2.587715 -0.112552 0.723840
v 2.586483 1.332459 0.686578
v 3.037711 1.332363 1.137806
v 2.588024 1.332459 0.723840
v 2.592637 1.332458 0.760848
v 2.600291 1.332456 0.797348
v 2.610932 1.332454 0.833091
v 2.624489 1.332451 0.867834
v 2.640868 1.332448 0.901339
v 2.659958 1.332444 0.933376
v 2.681629 1.332439 0.963728
v 2.705732 1.332434 0.992186
v 2.732103 1.332428 1.018557
v 2.760561 1.332422 1.042660
v 2.790913 1.332416 1.064331
v 2.822950 1.332409 1.083421
v 2.856455 1.332402 1.099800
v 2.891198 1.332394 1.113357
v 2.926941 1.332386 1.123998
v 2.963441 1.332379 1.131652
v 3.000449 1.332371 1.136265
v 11.413517 -0.114442 0.686578
v 10.962289 -0.114345 1.137806
v 11.411975 -0.114442 0.723840
v 11.407362 -0.114441 0.760848
v 11.399709 -0.114439 0.797348
v 11.389068 -0.114437 0.833092
v 11.375510 -0.114434 0.867834
v 11.359131 -0.114430 0.901339
v 11.340041 -0.114426 0.933376
v 11.318370 -0.114422 0.963728
v 11.294268 -0.114416 0.992187
v 11.267897 -0.114411 1.018557
v 11.239438 -0.114405 1.042660
v 11.209086 -0.114398 1.064331
v 11.177049 -0.114391 1.083421
v 11.143544 -0.114384 1.099801
v 11.108802 -0.114377 1.113357
v 11.073058 -0.114369 1.123999
v 11.036557 -0.114361 1.131652
v 10.999550 -0.114353 1.136265
v 10.962598 1.330666 1.137806
v 11.413826 1.330569 0.686579
v 10.999859 1.330658 1.136265
v 11.036866 1.330650 1.131652
v 11.073367 1.330642 1.123999
v 11.109111 1.330634 1.113358
v 11.143853 1.330627 1.099801
v 11.177358 1.330620 1.083421
v 11.209395 1.330613 1.064331
v 11.239747 1.330606 1.042661
v 11.268206 1.330600 1.018558
v 11.294577 1.330595 0.992187
v 11.318679 1.330589 0.963728
v 11.340350 1.330585 0.933377
v 11.359440 1.330581 0.901339
v 11.375819 1.330577 0.867835
v 11.389377 1.330574 0.833092
v 11.400018 1.330572 0.797348
v 11.407671 1.330570 0.760848
v 11.412284 1.330569 0.723841
v 11.022579 -0.114358 -1.837830
v 10.992564 -0.114352 -1.841572
v 11.081175 -0.114371 -1.822992
v 11.136527 -0.114382 -1.798712
v 11.109353 -0.114377 -1.811997
v 11.052184 -0.114364 -1.831623
v 11.187129 -0.114393 -1.765652
v 11.210211 -0.114398 -1.746103
v 11.231599 -0.114403 -1.724715
v 11.162512 -0.114388 -1.783229
v 11.251148 -0.114407 -1.701633
v 11.284208 -0.114414 -1.651032
v 11.268724 -0.114411 -1.677016
v 10.960592 -0.114345 -1.843372
v 11.251148 -0.114407 0.911366
v 11.297493 -0.114417 0.833588
v 11.284208 -0.114414 0.860764
v 11.268724 -0.114411 0.886748
v 11.323327 -0.114423 0.746816
v 11.317120 -0.114421 0.776420
v 11.327068 -0.114423 0.716799
v 11.328870 -0.114424 0.684826
v 11.308489 -0.114419 0.805410
v 10.960592 -0.114345 1.053105
v 10.992563 -0.114352 1.051304
v 11.022579 -0.114358 1.047563
v 2.670929 -0.112570 0.684827
v 2.682678 -0.112572 0.776419
v 2.676471 -0.112571 0.746815
v 2.672729 -0.112570 0.716800
v 2.715590 -0.112579 0.860763
v 2.702305 -0.112576 0.833589
v 2.768198 -0.112590 0.934446
v 2.748650 -0.112586 0.911365
v 2.731073 -0.112583 0.886747
v 2.691309 -0.112574 0.805410
v 2.789587 -0.112595 -1.746104
v 2.768198 -0.112590 -1.724715
v 2.837286 -0.112605 -1.783229
v 2.863270 -0.112611 -1.798712
v 2.812669 -0.112600 -1.765653
v 11.187129 -0.114393 0.975384
v 11.231599 -0.114403 0.934447
v 11.210212 -0.114398 0.955835
v 11.162512 -0.114388 0.992961
v 11.297493 -0.114417 -1.623856
v 11.317120 -0.114421 -1.566688
v 11.308489 -0.114419 -1.595678
v 11.327068 -0.114423 -1.507067
v 11.328870 -0.114424 -1.475094
v 11.323327 -0.114422 -1.537084
v 2.670929 -0.112569 -1.475095
v 2.672729 -0.112570 -1.507068
v 2.676471 -0.112571 -1.537084
v 2.812669 -0.112600 0.975384
v 2.789587 -0.112595 0.955835
v 2.863271 -0.112611 1.008444
v 2.837286 -0.112605 0.992960
v 2.918623 -0.112623 1.032724
v 3.007234 -0.112642 1.051304
v 2.977218 -0.112635 1.047562
v 2.947614 -0.112629 1.041355
v 11.081175 -0.114371 1.032724
v 11.109353 -0.114377 1.021729
v 11.052184 -0.114365 1.041355
v 3.039207 -0.112649 1.053104
v 2.890445 -0.112617 1.021729
v 2.682678 -0.112572 -1.566688
v 2.702305 -0.112576 -1.623857
v 2.691309 -0.112574 -1.595679
v 2.731073 -0.112582 -1.677016
v 2.748650 -0.112586 -1.701633
v 2.715590 -0.112579 -1.651031
v 2.918623 -0.112622 -1.822993
v 2.977218 -0.112635 -1.837831
v 2.947614 -0.112629 -1.831624
v 3.039207 -0.112648 -1.843373
v 11.136527 -0.114383 1.008444
v 3.007234 -0.112641 -1.841572
v 2.890445 -0.112616 -1.811997
vn -0.9998 0.0002 -0.0207
vn -0.9966 0.0002 -0.0826
vn -0.9864 0.0002 -0.1646
vn -0.9694 0.0002 -0.2455
vn -0.9458 0.0002 -0.3247
vn -0.9158 0.0002 -0.4017
vn -0.8795 0.0002 -0.4759
vn -0.8372 0.0002 -0.5470
vn -0.7891 0.0002 -0.6142
vn -0.7357 0.0002 -0.6773
vn -0.6773 0.0001 -0.7357
vn -0.6142 0.0001 -0.7891
vn -0.5469 0.0001 -0.8372
vn -0.4759 0.0001 -0.8795
vn -0.4017 0.0001 -0.9158
vn -0.3247 0.0001 -0.9458
vn -0.2455 0.0001 -0.9694
vn -0.1646 -0.0000 -0.9864
vn -0.0826 -0.0000 -0.9966
vn -0.0207 -0.0000 -0.9998
vn 0.9998 -0.0002 -0.0207
vn 0.9966 -0.0002 -0.0826
vn 0.9864 -0.0002 -0.1646
vn 0.9694 -0.0002 -0.2455
vn 0.9458 -0.0002 -0.3247
vn 0.9158 -0.0002 -0.4017
vn 0.8795 -0.0002 -0.4759
vn 0.8372 -0.0002 -0.5470
vn 0.7891 -0.0002 -0.6142
vn 0.7357 -0.0002 -0.6773
vn 0.6773 -0.0001 -0.7357
vn 0.6142 -0.0001 -0.7891
vn 0.5469 -0.0001 -0.8372
vn 0.4759 -0.0001 -0.8795
vn 0.4017 -0.0001 -0.9158
vn 0.3247 -0.0001 -0.9458
vn 0.2455 -0.0001 -0.9694
vn 0.1646 -0.0000 -0.9864
vn 0.0826 -0.0000 -0.9966
vn 0.0207 -0.0000 -0.9998
vn 0.0207 -0.0000 0.9998
vn 0.0826 -0.0000 0.9966
vn 0.1646 -0.0000 0.9864
vn 0.2455 -0.0001 0.9694
vn 0.3247 -0.0001 0.9458
vn 0.4017 -0.0001 0.9158
vn 0.4759 -0.0001 0.8795
vn 0.5469 -0.0001 0.8372
vn 0.6142 -0.0001 0.7891
vn 0.6773 -0.0001 0.7357
vn 0.7357 -0.0002 0.6773
vn 0.7892 -0.0002 0.6142
vn 0.8372 -0.0002 0.5470
vn 0.8795 -0.0002 0.4759
vn 0.9158 -0.0002 0.4017
vn 0.9458 -0.0002 0.3247
vn 0.9694 -0.0002 0.2455
vn 0.9864 -0.0002 0.1646
vn 0.9966 -0.0002 0.0826
vn 0.9998 -0.0002 0.0207
vn -0.9998 0.0002 0.0207
vn -0.9966 0.0002 0.0826
vn -0.9864 0.0002 0.1646
vn -0.9694 0.0002 0.2455
vn -0.9458 0.0002 0.3247
vn -0.9158 0.0002 0.4017
vn -0.8795 0.0002 0.4759
vn -0.8372 0.0002 0.5469
vn -0.7891 0.0002 0.6142
vn -0.7357 0.0002 0.6773
vn -0.6773 0.0001 0.7357
vn -0.6142 0.0001 0.7891
vn -0.5469 0.0001 0.8372
vn -0.4759 0.0001 0.8795
vn -0.4017 0.0001 0.9158
vn -0.3247 0.0001 0.9458
vn -0.2455 0.0001 0.9694
vn -0.1646 -0.0000 0.9864
vn -0.0826 -0.0000 0.9966
vn -0.0207 -0.0000 0.9998
vn -0.0002 -1.0000 -0.0000
vt 0.375000 0.963206
vt 0.625000 0.963206
vt 0.625000 0.966244
vt 0.375000 0.966244
vt 0.625000 0.969262
vt 0.375000 0.969262
vt 0.625000 0.972238
vt 0.375000 0.972238
vt 0.625000 0.975153
vt 0.375000 0.975153
vt 0.625000 0.977986
vt 0.375000 0.977986
vt 0.625000 0.980718
vt 0.375000 0.980718
vt 0.625000 0.983330
vt 0.375000 0.983330
vt 0.625000 0.985805
vt 0.375000 0.985805
vt 0.625000 1.000000
vt 0.375000 1.000000
vt 0.375000 0.000000
vt 0.625000 0.000000
vt 0.625000 0.004124
vt 0.375000 0.004124
vt 0.625000 0.004930
vt 0.375000 0.004930
vt 0.625000 0.005790
vt 0.375000 0.005790
vt 0.625000 0.006697
vt 0.375000 0.006697
vt 0.625000 0.007646
vt 0.375000 0.007646
vt 0.625000 0.008630
vt 0.375000 0.008630
vt 0.625000 0.009642
vt 0.375000 0.009642
vt 0.625000 0.010676
vt 0.375000 0.010676
vt 0.625000 0.011724
vt 0.375000 0.011724
vt 0.625000 0.012779
vt 0.375000 0.012779
vt 0.625000 0.286794
vt 0.375000 0.286794
vt 0.375000 0.283756
vt 0.625000 0.283756
vt 0.375000 0.280738
vt 0.625000 0.280738
vt 0.375000 0.277762
vt 0.625000 0.277762
vt 0.375000 0.274847
vt 0.625000 0.274847
vt 0.375000 0.272014
vt 0.625000 0.272014
vt 0.375000 0.269282
vt 0.625000 0.269282
vt 0.375000 0.266670
vt 0.625000 0.266670
vt 0.375000 0.264195
vt 0.625000 0.264195
vt 0.375000 0.261874
vt 0.625000 0.261874
vt 0.375000 0.245876
vt 0.625000 0.245876
vt 0.375000 0.245070
vt 0.625000 0.245070
vt 0.375000 0.244210
vt 0.625000 0.244210
vt 0.375000 0.243303
vt 0.625000 0.243303
vt 0.375000 0.242354
vt 0.625000 0.242354
vt 0.375000 0.241370
vt 0.625000 0.241370
vt 0.375000 0.240358
vt 0.625000 0.240358
vt 0.375000 0.239324
vt 0.625000 0.239324
vt 0.375000 0.238276
vt 0.625000 0.238276
vt 0.375000 0.237221
vt 0.625000 0.237221
vt 0.625000 0.512779
vt 0.375000 0.512779
vt 0.374875 0.511724
vt 0.625125 0.511724
vt 0.374500 0.510676
vt 0.625500 0.510676
vt 0.373879 0.509642
vt 0.626121 0.509642
vt 0.373014 0.508630
vt 0.626986 0.508630
vt 0.371913 0.507646
vt 0.628087 0.507646
vt 0.370583 0.506697
vt 0.629417 0.506697
vt 0.369033 0.505790
vt 0.630967 0.505790
vt 0.367273 0.504930
vt 0.632727 0.504930
vt 0.365315 0.504124
vt 0.634685 0.504124
vt 0.363173 0.503316
vt 0.636827 0.503316
vt 0.360862 0.502627
vt 0.639138 0.502627
vt 0.358397 0.502006
vt 0.641603 0.502006
vt 0.355795 0.501457
vt 0.644205 0.501457
vt 0.353074 0.500984
vt 0.646926 0.500984
vt 0.350252 0.500590
vt 0.649748 0.500590
vt 0.347349 0.500279
vt 0.652651 0.500279
vt 0.344384 0.500051
vt 0.655616 0.500051
vt 0.341379 0.499909
vt 0.658621 0.499909
vt 0.342097 0.496109
vt 0.657903 0.496109
vt 0.657903 0.753891
vt 0.342097 0.753891
vt 0.341379 0.750091
vt 0.658621 0.750091
vt 0.344385 0.749949
vt 0.655615 0.749949
vt 0.347349 0.749721
vt 0.652651 0.749721
vt 0.350252 0.749410
vt 0.649748 0.749410
vt 0.353074 0.749016
vt 0.646926 0.749016
vt 0.355795 0.748543
vt 0.644205 0.748543
vt 0.358397 0.747994
vt 0.641603 0.747994
vt 0.360862 0.747373
vt 0.639138 0.747373
vt 0.363173 0.746684
vt 0.636827 0.746684
vt 0.365315 0.745876
vt 0.634685 0.745876
vt 0.367273 0.745070
vt 0.632727 0.745070
vt 0.369033 0.744210
vt 0.630967 0.744210
vt 0.370583 0.743303
vt 0.629417 0.743303
vt 0.371913 0.742354
vt 0.628087 0.742354
vt 0.373014 0.741370
vt 0.626986 0.741370
vt 0.373879 0.740358
vt 0.626121 0.740358
vt 0.374500 0.739324
vt 0.625500 0.739324
vt 0.374875 0.738276
vt 0.625125 0.738276
vt 0.375000 0.737221
vt 0.625000 0.737221
vt 0.368195 0.512732
vt 0.368049 0.511827
vt 0.367745 0.510976
vt 0.367242 0.510136
vt 0.366543 0.509312
vt 0.365653 0.508510
vt 0.364578 0.507734
vt 0.363325 0.506990
vt 0.361904 0.506281
vt 0.360325 0.505609
vt 0.358600 0.504979
vt 0.356741 0.504397
vt 0.354764 0.503867
vt 0.352688 0.503385
vt 0.350535 0.502946
vt 0.348337 0.502535
vt 0.346141 0.502123
vt 0.344023 0.501652
vt 0.342048 0.501073
vt 0.340050 0.500414
vt 0.162002 0.502337
vt 0.159374 0.502408
vt 0.156915 0.502526
vt 0.154494 0.502708
vt 0.152126 0.502956
vt 0.149826 0.503270
vt 0.147609 0.503647
vt 0.145490 0.504087
vt 0.143482 0.504585
vt 0.141600 0.505139
vt 0.139855 0.505745
vt 0.138261 0.506398
vt 0.136829 0.507095
vt 0.135566 0.507830
vt 0.134484 0.508599
vt 0.133587 0.509397
vt 0.132884 0.510218
vt 0.132379 0.511055
vt 0.132075 0.511905
vt 0.131929 0.512809
vt 0.131929 0.737188
vt 0.125000 0.737221
vt 0.125000 0.512779
vt 0.125126 0.511724
vt 0.125502 0.510676
vt 0.126126 0.509642
vt 0.126994 0.508630
vt 0.128099 0.507646
vt 0.129435 0.506697
vt 0.130991 0.505790
vt 0.132758 0.504930
vt 0.134724 0.504124
vt 0.136874 0.503377
vt 0.139195 0.502695
vt 0.141670 0.502081
vt 0.144282 0.501540
vt 0.147014 0.501076
vt 0.149847 0.500692
vt 0.152762 0.500391
vt 0.155738 0.500174
vt 0.158756 0.500044
vt 0.161794 0.500000
vt 0.125502 0.739324
vt 0.125126 0.738276
vt 0.132075 0.738092
vt 0.132379 0.738941
vt 0.132884 0.739779
vt 0.133587 0.740600
vt 0.134484 0.741397
vt 0.135566 0.742166
vt 0.136829 0.742902
vt 0.138262 0.743599
vt 0.139855 0.744253
vt 0.141600 0.744858
vt 0.143482 0.745412
vt 0.145490 0.745910
vt 0.147609 0.746350
vt 0.149826 0.746727
vt 0.152126 0.747041
vt 0.154494 0.747289
vt 0.156915 0.747471
vt 0.159374 0.747589
vt 0.162002 0.747660
vt 0.340049 0.749582
vt 0.342048 0.748923
vt 0.344023 0.748345
vt 0.346142 0.747874
vt 0.348337 0.747462
vt 0.350535 0.747051
vt 0.352688 0.746612
vt 0.354765 0.746131
vt 0.356741 0.745599
vt 0.358600 0.745018
vt 0.360325 0.744388
vt 0.361904 0.743717
vt 0.363326 0.743007
vt 0.364578 0.742263
vt 0.365653 0.741487
vt 0.366544 0.740685
vt 0.367242 0.739861
vt 0.367745 0.739021
vt 0.368049 0.738171
vt 0.368195 0.737265
vt 0.161794 0.750000
vt 0.158756 0.749956
vt 0.155738 0.749826
vt 0.152762 0.749609
vt 0.149847 0.749308
vt 0.147014 0.748924
vt 0.144282 0.748460
vt 0.141670 0.747919
vt 0.139195 0.747305
vt 0.136874 0.746623
vt 0.134724 0.745876
vt 0.132758 0.745070
vt 0.130991 0.744210
vt 0.129435 0.743303
vt 0.128099 0.742354
vt 0.126994 0.741370
vt 0.126126 0.740358
s 1
f 1/1/1 22/2/1 40/3/2 3/4/2
f 3/4/2 40/3/2 39/5/3 4/6/3
f 4/6/3 39/5/3 38/7/4 5/8/4
f 5/8/4 38/7/4 37/9/5 6/10/5
f 6/10/5 37/9/5 36/11/6 7/12/6
f 7/12/6 36/11/6 35/13/7 8/14/7
f 8/14/7 35/13/7 34/15/8 9/16/8
f 9/16/8 34/15/8 33/17/9 10/18/9
f 10/18/9 33/17/9 32/19/10 11/20/10
f 11/21/10 32/22/10 31/23/11 12/24/11
f 12/24/11 31/23/11 30/25/12 13/26/12
f 13/26/12 30/25/12 29/27/13 14/28/13
f 14/28/13 29/27/13 28/29/14 15/30/14
f 15/30/14 28/29/14 27/31/15 16/32/15
f 16/32/15 27/31/15 26/33/16 17/34/16
f 17/34/16 26/33/16 25/35/17 18/36/17
f 18/36/17 25/35/17 24/37/18 19/38/18
f 19/38/18 24/37/18 23/39/19 20/40/19
f 20/40/19 23/39/19 21/41/20 2/42/20
f 61/43/21 42/44/21 60/45/22 63/46/22
f 63/46/22 60/45/22 59/47/23 64/48/23
f 64/48/23 59/47/23 58/49/24 65/50/24
f 65/50/24 58/49/24 57/51/25 66/52/25
f 66/52/25 57/51/25 56/53/26 67/54/26
f 67/54/26 56/53/26 55/55/27 68/56/27
f 68/56/27 55/55/27 54/57/28 69/58/28
f 69/58/28 54/57/28 53/59/29 70/60/29
f 70/60/29 53/59/29 52/61/30 71/62/30
f 71/62/30 52/61/30 51/63/31 72/64/31
f 72/64/31 51/63/31 50/65/32 73/66/32
f 73/66/32 50/65/32 49/67/33 74/68/33
f 74/68/33 49/67/33 48/69/34 75/70/34
f 75/70/34 48/69/34 47/71/35 76/72/35
f 76/72/35 47/71/35 46/73/36 77/74/36
f 77/74/36 46/73/36 45/75/37 78/76/37
f 78/76/37 45/75/37 44/77/38 79/78/38
f 79/78/38 44/77/38 43/79/39 80/80/39
f 80/80/39 43/79/39 41/81/40 62/82/40
f 141/83/41 122/84/41 140/85/42 143/86/42
f 143/86/42 140/85/42 139/87/43 144/88/43
f 144/88/43 139/87/43 138/89/44 145/90/44
f 145/90/44 138/89/44 137/91/45 146/92/45
f 146/92/45 137/91/45 136/93/46 147/94/46
f 147/94/46 136/93/46 135/95/47 148/96/47
f 148/96/47 135/95/47 134/97/48 149/98/48
f 149/98/48 134/97/48 133/99/49 150/100/49
f 150/100/49 133/99/49 132/101/50 151/102/50
f 151/102/50 132/101/50 131/103/51 152/104/51
f 152/104/51 131/103/51 130/105/52 153/106/52
f 153/106/52 130/105/52 129/107/53 154/108/53
f 154/108/53 129/107/53 128/109/54 155/110/54
f 155/110/54 128/109/54 127/111/55 156/112/55
f 156/112/55 127/111/55 126/113/56 157/114/56
f 157/114/56 126/113/56 125/115/57 158/116/57
f 158/116/57 125/115/57 124/117/58 159/118/58
f 159/118/58 124/117/58 123/119/59 160/120/59
f 160/120/59 123/119/59 121/121/60 142/122/60
f 101/123/61 82/124/61 100/125/62 103/126/62
f 103/126/62 100/125/62 99/127/63 104/128/63
f 104/128/63 99/127/63 98/129/64 105/130/64
f 105/130/64 98/129/64 97/131/65 106/132/65
f 106/132/65 97/131/65 96/133/66 107/134/66
f 107/134/66 96/133/66 95/135/67 108/136/67
f 108/136/67 95/135/67 94/137/68 109/138/68
f 109/138/68 94/137/68 93/139/69 110/140/69
f 110/140/69 93/139/69 92/141/70 111/142/70
f 111/142/70 92/141/70 91/143/71 112/144/71
f 112/144/71 91/143/71 90/145/72 113/146/72
f 113/146/72 90/145/72 89/147/73 114/148/73
f 114/148/73 89/147/73 88/149/74 115/150/74
f 115/150/74 88/149/74 87/151/75 116/152/75
f 116/152/75 87/151/75 86/153/76 117/154/76
f 117/154/76 86/153/76 85/155/77 118/156/77
f 118/156/77 85/155/77 84/157/78 119/158/78
f 119/158/78 84/157/78 83/159/79 120/160/79
f 120/160/79 83/159/79 81/161/80 102/162/80
f 139/87/81 140/85/81 122/84/81 184/163/81 185/164/81 186/165/81 225/166/81 223/167/81 224/168/81 238/169/81 205/170/81 202/171/81 204/172/81 203/173/81 175/174/81 178/175/81 177/176/81 176/177/81 183/178/81 180/179/81 179/180/81 181/181/81 182/182/81 210/183/81 209/184/81 211/185/81 207/186/81 208/187/81 206/188/81 172/189/81 173/190/81 171/191/81 169/192/81 168/193/81 167/194/81 170/195/81 164/196/81 165/197/81 163/198/81 166/199/81 161/200/81 162/201/81 174/202/81 237/203/81 2/204/81 41/205/81 43/206/81 44/207/81 45/208/81 46/209/81 47/210/81 48/211/81 49/212/81 50/213/81 51/214/81 52/215/81 53/216/81 54/217/81 55/218/81 56/219/81 57/220/81 58/221/81 59/222/81 60/223/81 42/224/81 121/121/81 123/119/81 124/117/81 125/115/81 126/113/81 127/111/81 128/109/81 129/107/81 130/105/81 131/103/81 132/101/81 133/99/81 134/97/81 135/95/81 136/93/81 137/91/81 138/89/81
f 19/225/81 20/226/81 2/204/81 237/203/81 239/227/81 235/228/81 236/229/81 234/230/81 240/231/81 200/232/81 199/233/81 201/234/81 197/235/81 198/236/81 232/237/81 231/238/81 233/239/81 229/240/81 230/241/81 228/242/81 214/243/81 213/244/81 212/245/81 187/246/81 190/247/81 189/248/81 188/249/81 196/250/81 192/251/81 191/252/81 195/253/81 194/254/81 193/255/81 216/256/81 215/257/81 218/258/81 217/259/81 227/260/81 219/261/81 222/262/81 221/263/81 220/264/81 226/265/81 184/163/81 122/84/81 81/161/81 83/159/81 84/157/81 85/155/81 86/153/81 87/151/81 88/149/81 89/147/81 90/145/81 91/143/81 92/141/81 93/139/81 94/137/81 95/135/81 96/133/81 97/131/81 98/129/81 99/127/81 100/125/81 82/124/81 1/266/81 3/267/81 4/268/81 5/269/81 6/270/81 7/271/81 8/272/81 9/273/81 10/274/81 11/275/81 12/276/81 13/277/81 14/278/81 15/279/81 16/280/81 17/281/81 18/282/81
f 2/42/20 21/41/20 62/82/40 41/81/40
f 82/124/61 101/123/61 22/2/1 1/1/1
f 42/44/21 61/43/21 142/122/60 121/121/60
f 122/84/41 141/83/41 102/162/80 81/161/80
