# Blender 4.5.2 LTS
# www.blender.org
o Arch_(1).002
v -0.500000 -1.000012 -3.000000
v -0.500000 -1.000013 3.000000
v -0.477211 -0.739540 3.000000
v -0.477211 -0.739539 -3.000000
v -0.409539 -0.486982 3.000000
v -0.409539 -0.486982 -3.000000
v -0.299038 -0.250013 3.000000
v -0.299038 -0.250012 -3.000000
v -0.149067 -0.035831 3.000000
v -0.149067 -0.035830 -3.000000
v 0.035819 0.149054 3.000000
v 0.035819 0.149055 -3.000000
v 0.250000 0.299026 3.000000
v 0.250000 0.299026 -3.000000
v 0.486970 0.409526 3.000000
v 0.486970 0.409527 -3.000000
v 0.739528 0.477199 3.000000
v 0.739528 0.477200 -3.000000
v 1.000000 0.499987 3.000000
v 1.000000 0.499988 -3.000000
v 0.994629 -14.323609 -2.999960
v 0.994648 -14.323591 3.000040
v 0.734176 -14.300801 3.000041
v 0.734157 -14.300819 -2.999960
v 0.481617 -14.233131 3.000042
v 0.481598 -14.233149 -2.999959
v 0.244647 -14.122631 3.000042
v 0.244628 -14.122649 -2.999959
v 0.030467 -13.972661 3.000043
v 0.030448 -13.972669 -2.999959
v -0.154418 -13.787771 3.000042
v -0.154437 -13.787789 -2.999959
v -0.304389 -13.573591 3.000042
v -0.304408 -13.573609 -2.999959
v -0.414888 -13.336621 3.000042
v -0.414907 -13.336639 -2.999959
v -0.480321 -13.084061 3.000041
v -0.480340 -13.084079 -2.999959
v -0.496931 -12.823811 2.999540
v -0.496947 -12.823819 -3.000464
v 13.061270 0.497405 -3.000006
v 13.061260 0.497422 2.999994
v 13.321730 0.474631 2.999997
v 13.321750 0.474613 -3.000005
v 13.574290 0.406956 2.999998
v 13.574300 0.406938 -3.000003
v 13.811260 0.296453 2.999999
v 13.811270 0.296436 -3.000002
v 14.025440 0.146480 3.000002
v 14.025450 0.146463 -3.000000
v 14.210320 -0.038406 3.000000
v 14.210340 -0.038424 -3.000000
v 14.360290 -0.252590 3.000001
v 14.360310 -0.252607 -2.999998
v 14.470790 -0.489561 3.000005
v 14.470800 -0.489578 -2.999997
v 14.538460 -0.742119 3.000005
v 14.538480 -0.742136 -2.999997
v 14.561240 -1.002591 3.000005
v 14.561260 -1.002609 -2.999996
v 14.557880 -12.823129 -2.999965
v 14.557880 -12.823101 3.000036
v 14.535090 -13.083570 3.000036
v 14.535090 -13.083599 -2.999963
v 14.467420 -13.336131 3.000040
v 14.467420 -13.336159 -2.999962
v 14.356920 -13.573101 3.000041
v 14.356920 -13.573129 -2.999960
v 14.206940 -13.787281 3.000040
v 14.206940 -13.787309 -2.999959
v 14.022060 -13.972161 3.000043
v 14.022060 -13.972199 -2.999957
v 13.807880 -14.122131 3.000044
v 13.807880 -14.122169 -2.999957
v 13.570910 -14.232631 3.000045
v 13.570910 -14.232669 -2.999956
v 13.318350 -14.300301 3.000043
v 13.318350 -14.300339 -2.999955
v 13.057880 -14.323091 3.000044
v 13.057880 -14.323119 -2.999956
v 2.586305 0.499648 0.686578
v 2.586305 0.499648 -1.476846
v 2.587846 0.499648 -1.514109
v 2.587846 0.499647 0.723840
v 2.592459 0.499646 0.760848
v 2.600113 0.499645 0.797348
v 2.600113 0.499645 -1.587616
v 2.610754 0.499642 0.833091
v 2.592459 0.499647 -1.551116
v 2.610754 0.499643 -1.623360
v 2.624310 0.499640 -1.658103
v 2.640690 0.499636 0.901339
v 2.624310 0.499640 0.867834
v 2.640690 0.499636 -1.691607
v 2.705554 0.499622 -1.782455
v 2.681451 0.499627 0.963728
v 2.681451 0.499628 -1.753996
v 2.659780 0.499632 0.933376
v 2.659780 0.499632 -1.723645
v 2.705554 0.499622 0.992186
v 2.731925 0.499617 1.018557
v 2.760383 0.499610 1.042660
v 2.760383 0.499611 -1.832929
v 2.856277 0.499590 1.099800
v 2.856277 0.499590 -1.890069
v 2.822772 0.499597 1.083421
v 2.822772 0.499597 -1.873689
v 2.790735 0.499604 1.064331
v 2.790735 0.499604 -1.854599
v 2.963263 0.499567 -1.921920
v 2.926763 0.499575 1.123998
v 2.926763 0.499575 -1.914267
v 3.000271 0.499559 1.136265
v 3.037533 0.499551 -1.928074
v 2.963263 0.499567 1.131652
v 3.000271 0.499559 -1.926533
v 2.891020 0.499582 1.113357
v 2.891020 0.499583 -1.903625
v 3.037533 0.499551 1.137806
v 2.731925 0.499617 -1.808825
v 11.036688 0.497838 -1.921920
v 11.073189 0.497840 1.123999
v 11.036688 0.497847 1.131652
v 11.073189 0.497831 -1.914266
v 10.999681 0.497855 1.136265
v 10.999681 0.497846 -1.926533
v 11.177179 0.497809 -1.873689
v 11.143675 0.497825 1.099801
v 11.143675 0.497816 -1.890068
v 11.209217 0.497810 1.064331
v 11.239569 0.497804 1.042660
v 11.239569 0.497796 -1.832928
v 11.177179 0.497817 1.083421
v 11.209217 0.497802 -1.854599
v 11.108932 0.497832 1.113357
v 11.108932 0.497823 -1.903625
v 11.294398 0.497784 -1.782454
v 11.318501 0.497787 0.963728
v 11.294398 0.497792 0.992187
v 11.318501 0.497779 -1.753996
v 11.375641 0.497767 -1.658102
v 11.359262 0.497778 0.901339
v 11.359262 0.497771 -1.691607
v 11.340172 0.497782 0.933377
v 11.340172 0.497774 -1.723644
v 11.389198 0.497772 0.833092
v 11.399839 0.497769 0.797348
v 11.399839 0.497762 -1.587616
v 11.412106 0.497760 -1.514108
v 11.413648 0.497766 0.686579
v 11.413648 0.497760 -1.476846
v 11.412106 0.497766 0.723840
v 11.407493 0.497767 0.760848
v 11.407493 0.497761 -1.551116
v 11.389198 0.497764 -1.623359
v 11.375641 0.497775 0.867835
v 10.962420 0.497863 1.137806
v 11.268027 0.497798 1.018557
v 10.962420 0.497854 -1.928074
v 11.268027 0.497790 -1.808825
vn 0.9991 -0.0435 -0.0000
vn 0.9848 -0.1736 -0.0000
vn 0.9397 -0.3420 -0.0000
vn 0.8660 -0.5000 -0.0000
vn 0.7660 -0.6428 -0.0000
vn 0.6428 -0.7660 -0.0000
vn 0.5000 -0.8660 -0.0000
vn 0.3420 -0.9397 -0.0000
vn 0.1736 -0.9848 -0.0000
vn 0.0435 -0.9991 -0.0000
vn 0.0436 0.9990 -0.0000
vn 0.1736 0.9848 -0.0000
vn 0.3420 0.9397 -0.0000
vn 0.5000 0.8660 -0.0000
vn 0.6428 0.7660 -0.0000
vn 0.7660 0.6428 -0.0000
vn 0.8660 0.5000 -0.0000
vn 0.9411 0.3381 -0.0000
vn 0.9874 0.1580 -0.0000
vn 0.9875 0.1579 -0.0000
vn 0.9995 0.0320 -0.0000
vn -0.0437 -0.9990 -0.0000
vn -0.1737 -0.9848 -0.0000
vn -0.3420 -0.9397 -0.0000
vn -0.5000 -0.8660 -0.0000
vn -0.6428 -0.7660 -0.0000
vn -0.7660 -0.6428 -0.0000
vn -0.8660 -0.5000 -0.0000
vn -0.9397 -0.3420 -0.0000
vn -0.9848 -0.1736 -0.0000
vn -0.9991 -0.0435 -0.0000
vn -0.9990 0.0438 -0.0000
vn -0.9848 0.1736 -0.0000
vn -0.9397 0.3420 -0.0000
vn -0.8660 0.5000 -0.0000
vn -0.7660 0.6428 -0.0000
vn -0.6428 0.7660 -0.0000
vn -0.5000 0.8660 -0.0000
vn -0.3420 0.9397 -0.0000
vn -0.1736 0.9848 -0.0000
vn -0.0436 0.9990 -0.0000
vn -0.0002 -1.0000 -0.0000
vt 0.744302 0.062849
vt 0.744302 0.081230
vt 0.511416 0.081229
vt 0.511416 0.062848
vt 0.744302 0.045012
vt 0.511416 0.045011
vt 0.744302 0.028260
vt 0.511416 0.028259
vt 0.744302 0.013103
vt 0.511416 0.013102
vt 0.744302 0.000001
vt 0.511416 0.000000
vt 0.488584 0.984753
vt 0.488584 0.999862
vt 0.255699 0.999862
vt 0.255699 0.984753
vt 0.488584 0.968038
vt 0.255699 0.968038
vt 0.488584 0.950222
vt 0.255699 0.950222
vt 0.488584 0.931850
vt 0.255699 0.931850
vt 0.232886 0.062682
vt 0.232886 0.081056
vt 0.000000 0.081054
vt 0.000000 0.062681
vt 0.232886 0.044867
vt 0.000000 0.044865
vt 0.232886 0.028151
vt 0.000000 0.028150
vt 0.232886 0.013043
vt 0.000000 0.013042
vt 0.232886 0.000001
vt 0.000000 0.000000
vt 0.744302 0.968088
vt 0.744302 0.983147
vt 0.511416 0.983147
vt 0.511416 0.968088
vt 0.744302 0.951408
vt 0.511416 0.951409
vt 0.744302 0.933615
vt 0.511416 0.933615
vt 0.744282 0.915262
vt 0.511397 0.915262
vt 0.232886 0.931987
vt 0.000000 0.931987
vt 1.000000 0.914868
vt 0.767114 0.914868
vt 0.767114 0.081056
vt 1.000000 0.081058
vt 0.488584 0.062684
vt 0.488584 0.081056
vt 0.255698 0.081056
vt 0.255698 0.062682
vt 0.488584 0.044868
vt 0.255699 0.044866
vt 0.488584 0.028151
vt 0.255699 0.028151
vt 0.488584 0.013043
vt 0.255699 0.013043
vt 0.488584 0.000001
vt 0.255699 0.000001
vt 1.000000 0.967772
vt 1.000000 0.982879
vt 0.767114 0.982879
vt 0.767114 0.967772
vt 1.000000 0.951056
vt 0.767114 0.951056
vt 1.000000 0.933242
vt 0.767114 0.933242
vt 0.304061 0.203990
vt 0.304062 0.813242
vt 0.305240 0.814770
vt 0.306483 0.816117
vt 0.307784 0.817272
vt 0.309132 0.818228
vt 0.310519 0.818979
vt 0.311936 0.819519
vt 0.313373 0.819844
vt 0.314819 0.819953
vt 0.398790 0.819953
vt 0.400237 0.819844
vt 0.401673 0.819519
vt 0.403090 0.818979
vt 0.404477 0.818228
vt 0.405826 0.817272
vt 0.407126 0.816117
vt 0.408370 0.814770
vt 0.409548 0.813241
vt 0.410652 0.811541
vt 0.411676 0.809681
vt 0.412611 0.807674
vt 0.413453 0.805533
vt 0.414194 0.803273
vt 0.414829 0.800909
vt 0.415356 0.798459
vt 0.415769 0.795937
vt 0.416066 0.793363
vt 0.416245 0.790752
vt 0.416304 0.788124
vt 0.416304 0.229107
vt 0.416245 0.226479
vt 0.416066 0.223868
vt 0.415769 0.221294
vt 0.415356 0.218772
vt 0.414829 0.216321
vt 0.414194 0.213958
vt 0.413453 0.211698
vt 0.412611 0.209557
vt 0.411676 0.207550
vt 0.410652 0.205690
vt 0.409548 0.203989
vt 0.408370 0.202461
vt 0.407126 0.201114
vt 0.405826 0.199959
vt 0.404477 0.199002
vt 0.403090 0.198252
vt 0.401673 0.197712
vt 0.400237 0.197387
vt 0.398790 0.197278
vt 0.314819 0.197278
vt 0.313372 0.197387
vt 0.311936 0.197712
vt 0.310519 0.198252
vt 0.309132 0.199003
vt 0.307783 0.199959
vt 0.306483 0.201114
vt 0.305239 0.202461
vt 0.302957 0.205690
vt 0.301933 0.207550
vt 0.300997 0.209558
vt 0.300156 0.211698
vt 0.299415 0.213958
vt 0.298780 0.216322
vt 0.298253 0.218772
vt 0.297840 0.221294
vt 0.297543 0.223869
vt 0.297364 0.226479
vt 0.297304 0.229107
vt 0.297305 0.788124
vt 0.297365 0.790752
vt 0.297544 0.793363
vt 0.297841 0.795937
vt 0.298254 0.798459
vt 0.298780 0.800909
vt 0.299416 0.803273
vt 0.300157 0.805533
vt 0.300998 0.807674
vt 0.301933 0.809681
vt 0.302957 0.811541
vt 1.000000 0.062684
vt 0.767114 0.062684
vt 1.000000 0.044868
vt 0.767114 0.044868
vt 1.000000 0.028151
vt 0.767114 0.028151
vt 1.000000 0.013044
vt 0.767114 0.013043
vt 1.000000 0.000001
vt 0.767114 0.000001
vt 0.232886 0.984892
vt 0.232886 1.000000
vt 0.000000 1.000000
vt 0.000000 0.984892
vt 0.232886 0.968176
vt 0.000000 0.968176
vt 0.232886 0.950361
vt 0.000000 0.950361
s 1
f 3/1/2 2/2/1 1/3/1 4/4/2
f 5/5/3 3/1/2 4/4/2 6/6/3
f 7/7/4 5/5/3 6/6/3 8/8/4
f 9/9/5 7/7/4 8/8/4 10/10/5
f 11/11/6 9/9/5 10/10/5 12/12/6
f 13/13/7 11/14/6 12/15/6 14/16/7
f 15/17/8 13/13/7 14/16/7 16/18/8
f 17/19/9 15/17/8 16/18/8 18/20/9
f 19/21/10 17/19/9 18/20/9 20/22/10
f 23/23/12 22/24/11 21/25/11 24/26/12
f 25/27/13 23/23/12 24/26/12 26/28/13
f 27/29/14 25/27/13 26/28/13 28/30/14
f 29/31/15 27/29/14 28/30/14 30/32/15
f 31/33/16 29/31/15 30/32/15 32/34/16
f 33/35/17 31/36/16 32/37/16 34/38/17
f 35/39/18 33/35/17 34/38/17 36/40/18
f 37/41/19 35/39/18 36/40/18 38/42/20
f 39/43/21 37/41/19 38/42/20 40/44/21
f 21/25/11 22/24/11 79/45/41 80/46/41
f 59/47/31 60/48/31 61/49/32 62/50/32
f 39/43/21 40/44/21 1/3/1 2/2/1
f 43/51/23 42/52/22 41/53/22 44/54/23
f 45/55/24 43/51/23 44/54/23 46/56/24
f 47/57/25 45/55/24 46/56/24 48/58/25
f 49/59/26 47/57/25 48/58/25 50/60/26
f 51/61/27 49/59/26 50/60/26 52/62/27
f 53/63/28 51/64/27 52/65/27 54/66/28
f 55/67/29 53/63/28 54/66/28 56/68/29
f 57/69/30 55/67/29 56/68/29 58/70/30
f 59/47/31 57/69/30 58/70/30 60/48/31
f 140/71/42 41/53/22 42/52/22 19/21/10 20/22/10 97/72/42 99/73/42 94/74/42 91/75/42 90/76/42 87/77/42 89/78/42 83/79/42 82/80/42 81/81/42 84/82/42 85/83/42 86/84/42 88/85/42 93/86/42 92/87/42 98/88/42 96/89/42 100/90/42 101/91/42 102/92/42 108/93/42 106/94/42 104/95/42 117/96/42 111/97/42 115/98/42 113/99/42 119/100/42 157/101/42 125/102/42 123/103/42 122/104/42 135/105/42 128/106/42 133/107/42 130/108/42 131/109/42 158/110/42 139/111/42 138/112/42 144/113/42 142/114/42 156/115/42 146/116/42 147/117/42 153/118/42 152/119/42 150/120/42 151/121/42 149/122/42 154/123/42 148/124/42 155/125/42 141/126/42 143/127/42 145/128/42
f 97/72/42 20/22/10 41/53/22 140/71/42 137/129/42 160/130/42 132/131/42 134/132/42 127/133/42 129/134/42 136/135/42 124/136/42 121/137/42 126/138/42 159/139/42 114/140/42 116/141/42 110/142/42 112/143/42 118/144/42 105/145/42 107/146/42 109/147/42 103/148/42 120/149/42 95/150/42
f 63/151/33 62/50/32 61/49/32 64/152/33
f 65/153/34 63/151/33 64/152/33 66/154/34
f 67/155/35 65/153/34 66/154/34 68/156/35
f 69/157/36 67/155/35 68/156/35 70/158/36
f 71/159/37 69/157/36 70/158/36 72/160/37
f 73/161/38 71/162/37 72/163/37 74/164/38
f 75/165/39 73/161/38 74/164/38 76/166/39
f 77/167/40 75/165/39 76/166/39 78/168/40
f 79/45/41 77/167/40 78/168/40 80/46/41
