# Blender v2.92.0 OBJ File: 'walls01.blend'
# www.blender.org
o Arch_(1).002
v -0.500000 -1.000012 -3.000000
v -0.500000 -1.000013 3.000000
v -0.477211 -0.739540 3.000000
v -0.477211 -0.739539 -3.000000
v -0.409539 -0.486982 3.000000
v -0.409539 -0.486982 -3.000000
v -0.299038 -0.250013 3.000000
v -0.299038 -0.250012 -3.000000
v -0.149067 -0.035831 3.000000
v -0.149067 -0.035830 -3.000000
v 0.035819 0.149054 3.000000
v 0.035819 0.149055 -3.000000
v 0.250000 0.299026 3.000000
v 0.250000 0.299026 -3.000000
v 0.486970 0.409526 3.000000
v 0.486970 0.409527 -3.000000
v 0.739528 0.477199 3.000000
v 0.739528 0.477200 -3.000000
v 1.000000 0.499987 3.000000
v 1.000000 0.499988 -3.000000
v 0.994629 -14.323609 -2.999961
v 0.994648 -14.323591 3.000039
v 0.734176 -14.300801 3.000040
v 0.734157 -14.300819 -2.999961
v 0.481617 -14.233131 3.000041
v 0.481598 -14.233149 -2.999960
v 0.244647 -14.122631 3.000041
v 0.244628 -14.122649 -2.999960
v 0.030467 -13.972661 3.000042
v 0.030448 -13.972669 -2.999960
v -0.154418 -13.787771 3.000041
v -0.154437 -13.787789 -2.999960
v -0.304389 -13.573591 3.000041
v -0.304408 -13.573609 -2.999960
v -0.414888 -13.336621 3.000041
v -0.414907 -13.336639 -2.999960
v -0.480321 -13.084061 3.000040
v -0.480340 -13.084079 -2.999960
v -0.496931 -12.823811 2.999539
v -0.496947 -12.823819 -3.000465
v 13.061270 0.497405 -3.000006
v 13.061260 0.497422 2.999994
v 13.321730 0.474631 2.999997
v 13.321750 0.474613 -3.000005
v 13.574290 0.406956 2.999998
v 13.574300 0.406938 -3.000003
v 13.811260 0.296453 2.999999
v 13.811270 0.296436 -3.000002
v 14.025440 0.146480 3.000002
v 14.025450 0.146463 -3.000000
v 14.210320 -0.038406 3.000000
v 14.210340 -0.038424 -3.000000
v 14.360290 -0.252590 3.000001
v 14.360310 -0.252607 -2.999998
v 14.470790 -0.489561 3.000005
v 14.470800 -0.489578 -2.999997
v 14.538460 -0.742119 3.000005
v 14.538480 -0.742136 -2.999997
v 14.561240 -1.002591 3.000005
v 14.561260 -1.002609 -2.999996
v 14.557880 -12.823129 -2.999966
v 14.557880 -12.823101 3.000035
v 14.535090 -13.083570 3.000035
v 14.535090 -13.083599 -2.999964
v 14.467420 -13.336131 3.000039
v 14.467420 -13.336159 -2.999963
v 14.356920 -13.573101 3.000040
v 14.356920 -13.573129 -2.999961
v 14.206940 -13.787281 3.000039
v 14.206940 -13.787309 -2.999960
v 14.022060 -13.972161 3.000042
v 14.022060 -13.972199 -2.999958
v 13.807880 -14.122131 3.000043
v 13.807880 -14.122169 -2.999958
v 13.570910 -14.232631 3.000044
v 13.570910 -14.232669 -2.999957
v 13.318350 -14.300301 3.000042
v 13.318350 -14.300339 -2.999956
v 13.057880 -14.323091 3.000043
v 13.057880 -14.323119 -2.999957
vt 0.744302 0.062849
vt 0.744302 0.081230
vt 0.511416 0.081229
vt 0.511416 0.062848
vt 0.744302 0.045012
vt 0.511416 0.045011
vt 0.744302 0.028260
vt 0.511416 0.028259
vt 0.744302 0.013103
vt 0.511416 0.013102
vt 0.744302 0.000001
vt 0.511416 0.000000
vt 0.488584 0.984753
vt 0.488584 0.999862
vt 0.255699 0.999862
vt 0.255699 0.984753
vt 0.488584 0.968038
vt 0.255699 0.968038
vt 0.488584 0.950222
vt 0.255699 0.950222
vt 0.488584 0.931850
vt 0.255699 0.931850
vt 0.232886 0.062682
vt 0.232886 0.081056
vt 0.000000 0.081054
vt 0.000000 0.062681
vt 0.232886 0.044867
vt 0.000000 0.044865
vt 0.232886 0.028151
vt 0.000000 0.028150
vt 0.232886 0.013043
vt 0.000000 0.013042
vt 0.232886 0.000001
vt 0.000000 0.000000
vt 0.744302 0.968088
vt 0.744302 0.983147
vt 0.511416 0.983147
vt 0.511416 0.968088
vt 0.744302 0.951408
vt 0.511416 0.951409
vt 0.744302 0.933615
vt 0.511416 0.933615
vt 0.744282 0.915262
vt 0.511397 0.915262
vt 0.232886 0.931987
vt 0.000000 0.931987
vt 1.000000 0.914868
vt 0.767114 0.914868
vt 0.767114 0.081056
vt 1.000000 0.081058
vt 0.488584 0.062684
vt 0.488584 0.081056
vt 0.255698 0.081056
vt 0.255698 0.062682
vt 0.488584 0.044868
vt 0.255699 0.044866
vt 0.488584 0.028151
vt 0.255699 0.028151
vt 0.488584 0.013043
vt 0.255699 0.013043
vt 0.488584 0.000001
vt 0.255699 0.000001
vt 1.000000 0.967772
vt 1.000000 0.982879
vt 0.767114 0.982879
vt 0.767114 0.967772
vt 1.000000 0.951056
vt 0.767114 0.951056
vt 1.000000 0.933242
vt 0.767114 0.933242
vt 1.000000 0.062684
vt 0.767114 0.062684
vt 1.000000 0.044868
vt 0.767114 0.044868
vt 1.000000 0.028151
vt 0.767114 0.028151
vt 1.000000 0.013044
vt 0.767114 0.013043
vt 1.000000 0.000001
vt 0.767114 0.000001
vt 0.232886 0.984892
vt 0.232886 1.000000
vt 0.000000 1.000000
vt 0.000000 0.984892
vt 0.232886 0.968176
vt 0.000000 0.968176
vt 0.232886 0.950361
vt 0.000000 0.950361
s off
f 3/1 2/2 1/3 4/4
f 5/5 3/1 4/4 6/6
f 7/7 5/5 6/6 8/8
f 9/9 7/7 8/8 10/10
f 11/11 9/9 10/10 12/12
f 13/13 11/14 12/15 14/16
f 15/17 13/13 14/16 16/18
f 17/19 15/17 16/18 18/20
f 19/21 17/19 18/20 20/22
f 23/23 22/24 21/25 24/26
f 25/27 23/23 24/26 26/28
f 27/29 25/27 26/28 28/30
f 29/31 27/29 28/30 30/32
f 31/33 29/31 30/32 32/34
f 33/35 31/36 32/37 34/38
f 35/39 33/35 34/38 36/40
f 37/41 35/39 36/40 38/42
f 39/43 37/41 38/42 40/44
f 21/25 22/24 79/45 80/46
f 59/47 60/48 61/49 62/50
f 39/43 40/44 1/3 2/2
f 43/51 42/52 41/53 44/54
f 45/55 43/51 44/54 46/56
f 47/57 45/55 46/56 48/58
f 49/59 47/57 48/58 50/60
f 51/61 49/59 50/60 52/62
f 53/63 51/64 52/65 54/66
f 55/67 53/63 54/66 56/68
f 57/69 55/67 56/68 58/70
f 59/47 57/69 58/70 60/48
f 19/21 20/22 41/53 42/52
f 63/71 62/50 61/49 64/72
f 65/73 63/71 64/72 66/74
f 67/75 65/73 66/74 68/76
f 69/77 67/75 68/76 70/78
f 71/79 69/77 70/78 72/80
f 73/81 71/82 72/83 74/84
f 75/85 73/81 74/84 76/86
f 77/87 75/85 76/86 78/88
f 79/45 77/87 78/88 80/46
