# Blender 4.5.2 LTS
# www.blender.org
o Cube.003
v 11.022579 -0.114358 -1.837830
v 10.992564 -0.114352 -1.841572
v 11.081175 -0.114371 -1.822992
v 11.136527 -0.114382 -1.798712
v 11.109353 -0.114377 -1.811997
v 11.052184 -0.114364 -1.831623
v 11.187129 -0.114393 -1.765652
v 11.210211 -0.114398 -1.746103
v 11.231599 -0.114403 -1.724715
v 11.162512 -0.114388 -1.783229
v 11.251148 -0.114407 -1.701633
v 11.284208 -0.114414 -1.651032
v 11.268724 -0.114411 -1.677016
v 10.960592 -0.114345 -1.843372
v 11.251148 -0.114407 0.911366
v 11.297493 -0.114417 0.833588
v 11.284208 -0.114414 0.860764
v 11.268724 -0.114411 0.886748
v 11.323327 -0.114423 0.746816
v 11.317120 -0.114421 0.776420
v 11.327068 -0.114423 0.716799
v 11.328870 -0.114424 0.684826
v 11.308489 -0.114419 0.805410
v 10.960592 -0.114345 1.053105
v 10.992563 -0.114352 1.051304
v 11.022579 -0.114358 1.047563
v 2.670929 -0.112570 0.684827
v 2.682678 -0.112572 0.776419
v 2.676471 -0.112571 0.746815
v 2.672729 -0.112570 0.716800
v 2.715590 -0.112579 0.860763
v 2.702305 -0.112576 0.833589
v 2.768198 -0.112590 0.934446
v 2.748650 -0.112586 0.911365
v 2.731073 -0.112583 0.886747
v 2.691309 -0.112574 0.805410
v 2.789587 -0.112595 -1.746104
v 2.768198 -0.112590 -1.724715
v 2.837286 -0.112605 -1.783229
v 2.863270 -0.112611 -1.798712
v 2.812669 -0.112600 -1.765653
v 11.187129 -0.114393 0.975384
v 11.231599 -0.114403 0.934447
v 11.210212 -0.114398 0.955835
v 11.162512 -0.114388 0.992961
v 11.297493 -0.114417 -1.623856
v 11.317120 -0.114421 -1.566688
v 11.308489 -0.114419 -1.595678
v 11.327068 -0.114423 -1.507067
v 11.328870 -0.114424 -1.475094
v 11.323327 -0.114422 -1.537084
v 2.670929 -0.112569 -1.475095
v 2.672729 -0.112570 -1.507068
v 2.676471 -0.112571 -1.537084
v 2.812669 -0.112600 0.975384
v 2.789587 -0.112595 0.955835
v 2.863271 -0.112611 1.008444
v 2.837286 -0.112605 0.992960
v 2.918623 -0.112623 1.032724
v 3.007234 -0.112642 1.051304
v 2.977218 -0.112635 1.047562
v 2.947614 -0.112629 1.041355
v 11.081175 -0.114371 1.032724
v 11.109353 -0.114377 1.021729
v 11.052184 -0.114365 1.041355
v 3.039207 -0.112649 1.053104
v 2.890445 -0.112617 1.021729
v 2.682678 -0.112572 -1.566688
v 2.702305 -0.112576 -1.623857
v 2.691309 -0.112574 -1.595679
v 2.731073 -0.112582 -1.677016
v 2.748650 -0.112586 -1.701633
v 2.715590 -0.112579 -1.651031
v 2.918623 -0.112622 -1.822993
v 2.977218 -0.112635 -1.837831
v 2.947614 -0.112629 -1.831624
v 3.039207 -0.112648 -1.843373
v 11.136527 -0.114383 1.008444
v 3.007234 -0.112641 -1.841572
v 2.890445 -0.112616 -1.811997
v 11.022780 1.330653 1.047563
v 10.992764 1.330659 1.051304
v 11.081376 1.330640 1.032725
v 11.136728 1.330628 1.008445
v 11.109554 1.330634 1.021729
v 11.052385 1.330646 1.041355
v 11.187330 1.330618 0.975385
v 11.231800 1.330608 0.934447
v 11.210413 1.330613 0.955835
v 11.162713 1.330623 0.992961
v 11.251349 1.330604 0.911366
v 11.284410 1.330597 0.860764
v 11.268926 1.330600 0.886748
v 10.960793 1.330666 1.053105
v 11.251349 1.330604 -1.701633
v 11.297694 1.330594 -1.623856
v 11.284410 1.330597 -1.651032
v 11.268926 1.330600 -1.677015
v 11.323528 1.330589 -1.537084
v 11.317321 1.330590 -1.566688
v 11.329071 1.330587 -1.475094
v 11.327270 1.330588 -1.507067
v 11.308690 1.330592 -1.595677
v 10.960793 1.330666 -1.843372
v 10.992765 1.330660 -1.841572
v 11.022780 1.330653 -1.837830
v 2.671131 1.332442 -1.475095
v 2.682880 1.332439 -1.566688
v 2.676673 1.332440 -1.537084
v 2.672931 1.332441 -1.507068
v 2.715791 1.332432 -1.651031
v 2.702507 1.332435 -1.623857
v 2.768400 1.332421 -1.724715
v 2.748851 1.332425 -1.701633
v 2.731274 1.332429 -1.677016
v 2.691511 1.332437 -1.595679
v 2.789788 1.332416 0.955835
v 2.768400 1.332420 0.934446
v 2.837487 1.332406 0.992961
v 2.863472 1.332400 1.008444
v 2.812870 1.332411 0.975384
v 11.187330 1.330618 -1.765652
v 11.231800 1.330608 -1.724715
v 11.210412 1.330613 -1.746103
v 11.162713 1.330623 -1.783228
v 11.297694 1.330594 0.833588
v 11.317321 1.330590 0.776420
v 11.308690 1.330592 0.805410
v 11.327270 1.330588 0.716800
v 11.329071 1.330587 0.684827
v 11.323528 1.330588 0.746816
v 2.672931 1.332441 0.716800
v 2.671131 1.332441 0.684827
v 2.676673 1.332440 0.746816
v 2.812871 1.332411 -1.765653
v 2.789789 1.332416 -1.746104
v 2.863472 1.332400 -1.798712
v 2.837487 1.332406 -1.783229
v 2.918825 1.332389 -1.822993
v 3.007435 1.332370 -1.841572
v 2.977420 1.332376 -1.837831
v 2.947816 1.332382 -1.831623
v 11.081376 1.330640 -1.822992
v 11.109554 1.330634 -1.811997
v 11.052385 1.330647 -1.831623
v 3.039408 1.332363 -1.843373
v 2.890647 1.332395 -1.811997
v 2.682880 1.332439 0.776420
v 2.702506 1.332435 0.833589
v 2.691511 1.332437 0.805410
v 2.731274 1.332428 0.886748
v 2.748851 1.332425 0.911365
v 2.715791 1.332432 0.860763
v 2.918825 1.332388 1.032724
v 2.977420 1.332376 1.047562
v 2.947816 1.332382 1.041355
v 3.039408 1.332362 1.053104
v 11.136728 1.330629 -1.798712
v 3.007435 1.332369 1.051304
v 2.890647 1.332394 1.021729
vn 0.9984 -0.0001 0.0562
vn 0.9923 -0.0001 0.1237
vn 0.9787 -0.0001 0.2052
vn 0.9584 -0.0001 0.2853
vn 0.9316 -0.0001 0.3635
vn 0.8984 -0.0001 0.4392
vn 0.8591 -0.0001 0.5119
vn 0.8138 -0.0001 0.5811
vn 0.7631 -0.0001 0.6463
vn 0.7071 -0.0001 0.7071
vn 0.6463 -0.0001 0.7631
vn 0.5811 -0.0001 0.8138
vn 0.5119 -0.0001 0.8591
vn 0.4392 -0.0001 0.8984
vn 0.3635 -0.0001 0.9316
vn 0.2853 -0.0000 0.9584
vn 0.2052 -0.0000 0.9787
vn 0.1237 -0.0000 0.9923
vn 0.0562 -0.0000 0.9984
vn -0.9984 0.0001 0.0563
vn -0.9923 0.0001 0.1237
vn -0.9787 0.0001 0.2052
vn -0.9584 0.0001 0.2853
vn -0.9316 0.0001 0.3635
vn -0.8984 0.0001 0.4392
vn -0.8591 0.0001 0.5119
vn -0.8138 0.0001 0.5811
vn -0.7631 0.0001 0.6463
vn -0.7071 0.0001 0.7071
vn -0.6463 0.0001 0.7631
vn -0.5811 0.0001 0.8138
vn -0.5119 0.0001 0.8591
vn -0.4392 0.0001 0.8984
vn -0.3635 0.0001 0.9316
vn -0.2853 -0.0000 0.9584
vn -0.2052 -0.0000 0.9787
vn -0.1237 -0.0000 0.9923
vn -0.0562 -0.0000 0.9984
vn -0.0562 -0.0000 -0.9984
vn -0.1237 -0.0000 -0.9923
vn -0.2052 -0.0000 -0.9787
vn -0.2853 -0.0000 -0.9584
vn -0.3635 0.0001 -0.9316
vn -0.4392 0.0001 -0.8984
vn -0.5119 0.0001 -0.8591
vn -0.5811 0.0001 -0.8138
vn -0.6463 0.0001 -0.7631
vn -0.7071 0.0001 -0.7071
vn -0.7631 0.0001 -0.6463
vn -0.8139 0.0001 -0.5811
vn -0.8590 0.0001 -0.5119
vn -0.8984 0.0001 -0.4392
vn -0.9316 0.0001 -0.3635
vn -0.9584 0.0001 -0.2853
vn -0.9787 0.0001 -0.2052
vn -0.9923 0.0001 -0.1237
vn -0.9984 0.0001 -0.0563
vn 0.9984 -0.0001 -0.0562
vn 0.9923 -0.0001 -0.1237
vn 0.9787 -0.0001 -0.2052
vn 0.9584 -0.0001 -0.2853
vn 0.9316 -0.0001 -0.3635
vn 0.8984 -0.0001 -0.4392
vn 0.8591 -0.0001 -0.5119
vn 0.8138 -0.0001 -0.5811
vn 0.7631 -0.0001 -0.6463
vn 0.7071 -0.0001 -0.7071
vn 0.6463 -0.0001 -0.7631
vn 0.5811 -0.0001 -0.8139
vn 0.5119 -0.0001 -0.8591
vn 0.4392 -0.0001 -0.8984
vn 0.3635 -0.0001 -0.9316
vn 0.2853 -0.0000 -0.9584
vn 0.2052 -0.0000 -0.9787
vn 0.1237 -0.0000 -0.9923
vn 0.0562 -0.0000 -0.9984
vn -0.0000 -0.0000 1.0000
vn 1.0000 -0.0001 -0.0000
vn -1.0000 0.0001 -0.0000
vn -0.0000 -0.0000 -1.0000
vt 0.592191 0.963206
vt 0.407683 0.963206
vt 0.407762 0.966244
vt 0.592112 0.966244
vt 0.407762 0.969262
vt 0.592112 0.969262
vt 0.407762 0.972238
vt 0.592112 0.972238
vt 0.407762 0.975153
vt 0.592112 0.975153
vt 0.407762 0.977986
vt 0.592113 0.977986
vt 0.407763 0.980718
vt 0.592113 0.980718
vt 0.407763 0.983330
vt 0.592113 0.983330
vt 0.407763 0.985805
vt 0.592113 0.985805
vt 0.407763 1.000000
vt 0.592113 1.000000
vt 0.592114 0.000000
vt 0.407763 0.000000
vt 0.407764 0.004124
vt 0.592114 0.004124
vt 0.407764 0.004930
vt 0.592114 0.004930
vt 0.407764 0.005790
vt 0.592115 0.005790
vt 0.407765 0.006697
vt 0.592115 0.006697
vt 0.407765 0.007646
vt 0.592115 0.007646
vt 0.407765 0.008630
vt 0.592116 0.008630
vt 0.407766 0.009642
vt 0.592116 0.009642
vt 0.407766 0.010676
vt 0.592117 0.010676
vt 0.407767 0.011724
vt 0.592117 0.011724
vt 0.407689 0.012779
vt 0.592196 0.012779
vt 0.407888 0.283756
vt 0.407810 0.286794
vt 0.592316 0.286794
vt 0.592238 0.283756
vt 0.407888 0.280738
vt 0.592238 0.280738
vt 0.407888 0.277762
vt 0.592238 0.277762
vt 0.407888 0.274847
vt 0.592238 0.274847
vt 0.407887 0.272014
vt 0.592238 0.272014
vt 0.407887 0.269282
vt 0.592237 0.269282
vt 0.407887 0.266670
vt 0.592237 0.266670
vt 0.407887 0.264195
vt 0.592237 0.264195
vt 0.407886 0.261874
vt 0.592237 0.261874
vt 0.407886 0.245876
vt 0.592236 0.245876
vt 0.592236 0.245070
vt 0.407886 0.245070
vt 0.592236 0.244210
vt 0.407885 0.244210
vt 0.592235 0.243303
vt 0.407885 0.243303
vt 0.592235 0.242354
vt 0.407885 0.242354
vt 0.592234 0.241370
vt 0.407884 0.241370
vt 0.592234 0.240358
vt 0.407884 0.240358
vt 0.592234 0.239324
vt 0.407883 0.239324
vt 0.592233 0.238276
vt 0.407883 0.238276
vt 0.592311 0.237221
vt 0.407804 0.237221
vt 0.407791 0.511724
vt 0.407804 0.512779
vt 0.592311 0.512779
vt 0.592326 0.511724
vt 0.407515 0.510676
vt 0.592602 0.510676
vt 0.407057 0.509642
vt 0.593062 0.509642
vt 0.406421 0.508630
vt 0.593700 0.508630
vt 0.405610 0.507646
vt 0.594513 0.507646
vt 0.404630 0.506697
vt 0.595495 0.506697
vt 0.403488 0.505790
vt 0.596639 0.505790
vt 0.402191 0.504930
vt 0.597938 0.504930
vt 0.400749 0.504124
vt 0.599383 0.504124
vt 0.399171 0.503316
vt 0.600964 0.503316
vt 0.397468 0.502627
vt 0.602669 0.502627
vt 0.395652 0.502006
vt 0.604489 0.502006
vt 0.393735 0.501457
vt 0.606409 0.501457
vt 0.391730 0.500984
vt 0.608417 0.500984
vt 0.389651 0.500590
vt 0.610499 0.500590
vt 0.387512 0.500279
vt 0.612642 0.500279
vt 0.385327 0.500051
vt 0.614829 0.500051
vt 0.383112 0.499909
vt 0.617047 0.499909
vt 0.383543 0.496109
vt 0.616616 0.496109
vt 0.616887 0.750091
vt 0.382953 0.750091
vt 0.383384 0.753891
vt 0.616457 0.753891
vt 0.614673 0.749949
vt 0.385171 0.749949
vt 0.612488 0.749721
vt 0.387358 0.749721
vt 0.610349 0.749410
vt 0.389501 0.749410
vt 0.608270 0.749016
vt 0.391583 0.749016
vt 0.606265 0.748543
vt 0.393591 0.748543
vt 0.604348 0.747994
vt 0.395511 0.747994
vt 0.602532 0.747373
vt 0.397331 0.747373
vt 0.600829 0.746684
vt 0.399036 0.746684
vt 0.400617 0.745876
vt 0.599251 0.745876
vt 0.402062 0.745070
vt 0.597809 0.745070
vt 0.403361 0.744210
vt 0.596512 0.744210
vt 0.404505 0.743303
vt 0.595370 0.743303
vt 0.405487 0.742354
vt 0.594390 0.742354
vt 0.406300 0.741370
vt 0.593579 0.741370
vt 0.406938 0.740358
vt 0.592943 0.740358
vt 0.407398 0.739324
vt 0.592485 0.739324
vt 0.407674 0.738276
vt 0.592209 0.738276
vt 0.407689 0.737221
vt 0.592196 0.737221
s 0
f 107/1/1 52/2/1 53/3/1 110/4/1
f 110/4/2 53/3/2 54/5/2 109/6/2
f 109/6/3 54/5/3 68/7/3 108/8/3
f 108/8/4 68/7/4 70/9/4 116/10/4
f 116/10/5 70/9/5 69/11/5 112/12/5
f 112/12/6 69/11/6 73/13/6 111/14/6
f 111/14/7 73/13/7 71/15/7 115/16/7
f 115/16/8 71/15/8 72/17/8 114/18/8
f 114/18/9 72/17/9 38/19/9 113/20/9
f 113/21/10 38/22/10 37/23/10 136/24/10
f 136/24/11 37/23/11 41/25/11 135/26/11
f 135/26/12 41/25/12 39/27/12 138/28/12
f 138/28/13 39/27/13 40/29/13 137/30/13
f 137/30/14 40/29/14 80/31/14 147/32/14
f 147/32/15 80/31/15 74/33/15 139/34/15
f 139/34/16 74/33/16 76/35/16 142/36/16
f 142/36/17 76/35/17 75/37/17 141/38/17
f 141/38/18 75/37/18 79/39/18 140/40/18
f 140/40/19 79/39/19 77/41/19 146/42/19
f 49/43/20 50/44/20 101/45/20 102/46/20
f 51/47/21 49/43/21 102/46/21 99/48/21
f 47/49/22 51/47/22 99/48/22 100/50/22
f 48/51/23 47/49/23 100/50/23 103/52/23
f 46/53/24 48/51/24 103/52/24 96/54/24
f 12/55/25 46/53/25 96/54/25 97/56/25
f 13/57/26 12/55/26 97/56/26 98/58/26
f 11/59/27 13/57/27 98/58/27 95/60/27
f 9/61/28 11/59/28 95/60/28 123/62/28
f 8/63/29 9/61/29 123/62/29 124/64/29
f 122/65/30 7/66/30 8/63/30 124/64/30
f 125/67/31 10/68/31 7/66/31 122/65/31
f 158/69/32 4/70/32 10/68/32 125/67/32
f 144/71/33 5/72/33 4/70/33 158/69/33
f 143/73/34 3/74/34 5/72/34 144/71/34
f 145/75/35 6/76/35 3/74/35 143/73/35
f 106/77/36 1/78/36 6/76/36 145/75/36
f 105/79/37 2/80/37 1/78/37 106/77/37
f 104/81/38 14/82/38 2/80/38 105/79/38
f 25/83/39 24/84/39 94/85/39 82/86/39
f 26/87/40 25/83/40 82/86/40 81/88/40
f 65/89/41 26/87/41 81/88/41 86/90/41
f 63/91/42 65/89/42 86/90/42 83/92/42
f 64/93/43 63/91/43 83/92/43 85/94/43
f 78/95/44 64/93/44 85/94/44 84/96/44
f 45/97/45 78/95/45 84/96/45 90/98/45
f 42/99/46 45/97/46 90/98/46 87/100/46
f 44/101/47 42/99/47 87/100/47 89/102/47
f 43/103/48 44/101/48 89/102/48 88/104/48
f 15/105/49 43/103/49 88/104/49 91/106/49
f 18/107/50 15/105/50 91/106/50 93/108/50
f 17/109/51 18/107/51 93/108/51 92/110/51
f 16/111/52 17/109/52 92/110/52 126/112/52
f 23/113/53 16/111/53 126/112/53 128/114/53
f 20/115/54 23/113/54 128/114/54 127/116/54
f 19/117/55 20/115/55 127/116/55 131/118/55
f 21/119/56 19/117/56 131/118/56 129/120/56
f 22/121/57 21/119/57 129/120/57 130/122/57
f 132/123/58 30/124/58 27/125/58 133/126/58
f 134/127/59 29/128/59 30/124/59 132/123/59
f 148/129/60 28/130/60 29/128/60 134/127/60
f 150/131/61 36/132/61 28/130/61 148/129/61
f 149/133/62 32/134/62 36/132/62 150/131/62
f 153/135/63 31/136/63 32/134/63 149/133/63
f 151/137/64 35/138/64 31/136/64 153/135/64
f 152/139/65 34/140/65 35/138/65 151/137/65
f 118/141/66 33/142/66 34/140/66 152/139/66
f 56/143/67 33/142/67 118/141/67 117/144/67
f 55/145/68 56/143/68 117/144/68 121/146/68
f 58/147/69 55/145/69 121/146/69 119/148/69
f 57/149/70 58/147/70 119/148/70 120/150/70
f 67/151/71 57/149/71 120/150/71 160/152/71
f 59/153/72 67/151/72 160/152/72 154/154/72
f 62/155/73 59/153/73 154/154/73 156/156/73
f 61/157/74 62/155/74 156/156/74 155/158/74
f 60/159/75 61/157/75 155/158/75 159/160/75
f 66/161/76 60/159/76 159/160/76 157/162/76
f 146/42/77 77/41/77 14/82/77 104/81/77
f 133/126/78 27/125/78 52/2/78 107/1/78
f 50/44/79 22/121/79 130/122/79 101/45/79
f 24/84/80 66/161/80 157/162/80 94/85/80
