# Blender 4.5.2 LTS
# www.blender.org
o Cube.002
v 2.670893 0.196470 -1.475095
v 3.039171 0.196350 -1.843373
v 2.672694 0.195638 -1.507068
v 2.676435 0.195637 -1.537084
v 2.682642 0.195635 -1.566688
v 2.691274 0.195632 -1.595679
v 2.702269 0.195628 -1.623857
v 2.715554 0.195624 -1.651031
v 2.731037 0.195619 -1.677016
v 2.748614 0.195613 -1.701633
v 2.768163 0.195606 -1.724715
v 2.789551 0.195600 -1.746104
v 2.812633 0.195592 -1.765653
v 2.837250 0.195584 -1.783229
v 2.863235 0.195575 -1.798712
v 2.890409 0.195566 -1.811997
v 2.918588 0.195557 -1.822993
v 2.947578 0.195548 -1.831624
v 2.977182 0.195538 -1.837831
v 3.007198 0.195528 -1.841572
v 10.960556 0.193750 -1.843372
v 11.328834 0.193629 -1.475094
v 10.992528 0.192908 -1.841572
v 11.022543 0.192898 -1.837830
v 11.052148 0.192888 -1.831623
v 11.081139 0.192878 -1.822992
v 11.109317 0.192869 -1.811997
v 11.136491 0.192861 -1.798712
v 11.162476 0.192852 -1.783229
v 11.187093 0.192844 -1.765652
v 11.210175 0.192836 -1.746103
v 11.231563 0.192829 -1.724715
v 11.251112 0.192823 -1.701633
v 11.268688 0.192816 -1.677016
v 11.284172 0.192812 -1.651032
v 11.297457 0.192808 -1.623856
v 11.308453 0.192804 -1.595678
v 11.317083 0.192801 -1.566688
v 11.323291 0.192799 -1.537084
v 11.327032 0.192798 -1.507067
v 3.039171 0.196349 1.053104
v 2.670893 0.196470 0.684827
v 3.007198 0.195528 1.051304
v 2.977182 0.195538 1.047562
v 2.947578 0.195547 1.041355
v 2.918588 0.195557 1.032724
v 2.890409 0.195566 1.021729
v 2.863235 0.195575 1.008444
v 2.837250 0.195584 0.992960
v 2.812633 0.195592 0.975384
v 2.789551 0.195599 0.955835
v 2.768163 0.195606 0.934446
v 2.748614 0.195613 0.911365
v 2.731037 0.195619 0.886747
v 2.715554 0.195623 0.860763
v 2.702269 0.195628 0.833589
v 2.691274 0.195632 0.805410
v 2.682642 0.195634 0.776419
v 2.676435 0.195636 0.746815
v 2.672694 0.195638 0.716800
v 11.328834 0.193628 0.684826
v 10.960556 0.193750 1.053105
v 11.327032 0.192798 0.716799
v 11.323291 0.192799 0.746816
v 11.317083 0.192801 0.776420
v 11.308453 0.192803 0.805410
v 11.297457 0.192808 0.833588
v 11.284172 0.192812 0.860764
v 11.268688 0.192816 0.886748
v 11.251112 0.192823 0.911366
v 11.231563 0.192828 0.934447
v 11.210176 0.192836 0.955835
v 11.187093 0.192844 0.975384
v 11.162476 0.192852 0.992961
v 11.136491 0.192860 1.008444
v 11.109317 0.192869 1.021729
v 11.081139 0.192878 1.032724
v 11.052148 0.192888 1.041355
v 11.022543 0.192898 1.047563
v 10.992527 0.192907 1.051304
vn -0.0003 -1.0000 -0.0000
vt 0.125000 0.512779
vt 0.125126 0.511724
vt 0.125502 0.510676
vt 0.126126 0.509642
vt 0.126994 0.508630
vt 0.128099 0.507646
vt 0.129435 0.506697
vt 0.130991 0.505790
vt 0.132758 0.504930
vt 0.134724 0.504124
vt 0.136874 0.503377
vt 0.139195 0.502695
vt 0.141670 0.502081
vt 0.144282 0.501540
vt 0.147014 0.501076
vt 0.149847 0.500692
vt 0.152762 0.500391
vt 0.155738 0.500174
vt 0.158756 0.500044
vt 0.161794 0.500000
vt 0.342097 0.496109
vt 0.341379 0.499909
vt 0.344384 0.500051
vt 0.347349 0.500279
vt 0.350252 0.500590
vt 0.353074 0.500984
vt 0.355795 0.501457
vt 0.358397 0.502006
vt 0.360862 0.502627
vt 0.363173 0.503316
vt 0.365315 0.504124
vt 0.367273 0.504930
vt 0.369033 0.505790
vt 0.370583 0.506697
vt 0.371913 0.507646
vt 0.373014 0.508630
vt 0.373879 0.509642
vt 0.374500 0.510676
vt 0.374875 0.511724
vt 0.375000 0.512779
vt 0.375000 0.737221
vt 0.374875 0.738276
vt 0.374500 0.739324
vt 0.373879 0.740358
vt 0.373014 0.741370
vt 0.371913 0.742354
vt 0.370583 0.743303
vt 0.369033 0.744210
vt 0.367273 0.745070
vt 0.365315 0.745876
vt 0.363173 0.746684
vt 0.360862 0.747373
vt 0.358397 0.747994
vt 0.355795 0.748543
vt 0.353074 0.749016
vt 0.350252 0.749410
vt 0.347349 0.749721
vt 0.344385 0.749949
vt 0.341379 0.750091
vt 0.342097 0.753891
vt 0.161794 0.750000
vt 0.158756 0.749956
vt 0.155738 0.749826
vt 0.152762 0.749609
vt 0.149847 0.749308
vt 0.147014 0.748924
vt 0.144282 0.748460
vt 0.141670 0.747919
vt 0.139195 0.747305
vt 0.136874 0.746623
vt 0.134724 0.745876
vt 0.132758 0.745070
vt 0.130991 0.744210
vt 0.129435 0.743303
vt 0.128099 0.742354
vt 0.126994 0.741370
vt 0.126126 0.740358
vt 0.125502 0.739324
vt 0.125126 0.738276
vt 0.125000 0.737221
s 0
f 21/1/1 23/2/1 24/3/1 25/4/1 26/5/1 27/6/1 28/7/1 29/8/1 30/9/1 31/10/1 32/11/1 33/12/1 34/13/1 35/14/1 36/15/1 37/16/1 38/17/1 39/18/1 40/19/1 22/20/1 61/21/1 63/22/1 64/23/1 65/24/1 66/25/1 67/26/1 68/27/1 69/28/1 70/29/1 71/30/1 72/31/1 73/32/1 74/33/1 75/34/1 76/35/1 77/36/1 78/37/1 79/38/1 80/39/1 62/40/1 41/41/1 43/42/1 44/43/1 45/44/1 46/45/1 47/46/1 48/47/1 49/48/1 50/49/1 51/50/1 52/51/1 53/52/1 54/53/1 55/54/1 56/55/1 57/56/1 58/57/1 59/58/1 60/59/1 42/60/1 1/61/1 3/62/1 4/63/1 5/64/1 6/65/1 7/66/1 8/67/1 9/68/1 10/69/1 11/70/1 12/71/1 13/72/1 14/73/1 15/74/1 16/75/1 17/76/1 18/77/1 19/78/1 20/79/1 2/80/1
