# Blender v2.92.0 OBJ File: ''
# www.blender.org
mtllib workbench.mtl
o Cube_Cube.001
v -0.415785 0.799691 1.010424
v -0.415785 0.835219 1.010424
v -0.415785 0.835219 -1.026460
v -0.415785 0.799691 -1.026460
v 0.443609 0.835219 -1.026460
v 0.443609 0.799691 -1.026460
v 0.443609 0.835219 1.010424
v 0.443609 0.799691 1.010424
v -0.415310 0.796962 -1.025333
v -0.415310 0.796963 1.009297
v 0.440064 0.837874 1.002021
v -0.412240 0.837874 1.002021
v 0.440064 0.837874 -1.018057
v -0.412240 0.837874 -1.018057
v 0.443134 0.796962 -1.025333
v 0.443134 0.796963 1.009297
v 0.376825 -0.008823 -1.008195
v 0.376825 -0.008823 -1.002669
v 0.418054 -0.008823 -1.002669
v 0.422635 -0.008823 -1.008195
v 0.418054 -0.008823 -0.952941
v 0.422635 -0.008823 -0.952941
v 0.376825 0.797879 -1.008195
v 0.376825 0.797879 -1.002670
v 0.418054 0.797879 -1.002670
v 0.422635 0.797879 -1.008195
v 0.418054 0.797879 -0.952941
v 0.422635 0.797879 -0.952941
v -0.407815 -0.008823 -0.952789
v -0.403234 -0.008823 -0.952789
v -0.403234 -0.008823 -1.002518
v -0.407815 -0.008823 -1.008043
v -0.362005 -0.008823 -1.002518
v -0.362005 -0.008823 -1.008043
v -0.407815 0.797879 -0.952790
v -0.403234 0.797879 -0.952790
v -0.403234 0.797879 -1.002518
v -0.407815 0.797879 -1.008043
v -0.362005 0.797879 -1.002518
v -0.362005 0.797879 -1.008043
v -0.402126 0.724074 0.939212
v -0.402126 0.797977 0.939212
v -0.402126 0.797976 -0.966422
v -0.402126 0.724073 -0.966422
v -0.364368 0.797976 -0.966422
v -0.364368 0.797976 -1.003108
v -0.402126 0.797976 -1.003108
v -0.364368 0.724073 -0.966422
v -0.364368 0.797977 0.939212
v -0.364368 0.724074 0.939212
v -0.402126 0.724074 0.987364
v -0.402126 0.797977 0.987364
v -0.364368 0.724074 0.987364
v -0.364368 0.797977 0.987364
v -0.364368 0.724073 -1.003108
v 0.383636 0.724073 -1.003108
v 0.383636 0.724073 -0.966422
v -0.402126 0.724073 -1.003108
v 0.383636 0.724074 0.939212
v 0.383636 0.724074 0.987364
v 0.383636 0.797976 -1.003108
v 0.383636 0.797976 -0.966422
v 0.421035 0.797976 -0.966422
v 0.421035 0.797976 -1.003108
v 0.383636 0.797977 0.939212
v 0.383636 0.797977 0.987364
v 0.421035 0.724074 0.939212
v 0.421035 0.797977 0.939212
v 0.421035 0.797977 0.987364
v 0.421035 0.724074 0.987364
v 0.421035 0.724073 -0.966422
v 0.421035 0.724073 -1.003108
v -0.402126 0.354851 0.939212
v -0.402126 0.428754 0.939212
v -0.402126 0.428754 -0.966422
v -0.402126 0.354851 -0.966422
v -0.364368 0.428754 -0.966422
v -0.364368 0.428754 -1.003108
v -0.402126 0.428754 -1.003108
v -0.364368 0.354851 -0.966422
v -0.364368 0.428754 0.939212
v -0.364368 0.354851 0.939212
v -0.402126 0.354851 0.987364
v -0.402126 0.428754 0.987364
v -0.364368 0.354851 0.987364
v -0.364368 0.428754 0.987364
v -0.364368 0.354851 -1.003108
v 0.383636 0.354851 -1.003108
v 0.383636 0.354851 -0.966422
v -0.402126 0.354851 -1.003108
v 0.383636 0.354851 0.939212
v 0.383636 0.354851 0.987364
v 0.383636 0.428754 -1.003108
v 0.383636 0.428754 -0.966422
v 0.421035 0.428754 -0.966422
v 0.421035 0.428754 -1.003108
v 0.383636 0.428754 0.939212
v 0.383636 0.428754 0.987364
v 0.421035 0.354851 0.939212
v 0.421035 0.428754 0.939212
v 0.421035 0.428754 0.987364
v 0.421035 0.354851 0.987364
v 0.421035 0.354851 -0.966422
v 0.421035 0.354851 -1.003108
v -0.407815 -0.008823 0.936721
v -0.403234 -0.008823 0.936721
v -0.403234 -0.008823 0.986449
v -0.407815 -0.008823 0.991974
v -0.362005 -0.008823 0.986449
v -0.362005 -0.008823 0.991974
v -0.407815 0.797879 0.936721
v -0.407815 0.797879 0.991974
v -0.403234 0.797879 0.986449
v -0.403234 0.797879 0.936721
v -0.362005 0.797879 0.991974
v -0.362005 0.797879 0.986449
v 0.376825 -0.008823 0.992126
v 0.376825 -0.008823 0.986601
v 0.418054 -0.008823 0.986601
v 0.422635 -0.008823 0.992126
v 0.418054 -0.008823 0.936873
v 0.422635 -0.008823 0.936873
v 0.376825 0.797879 0.992126
v 0.422635 0.797879 0.992126
v 0.418054 0.797879 0.986601
v 0.376825 0.797879 0.986601
v 0.422635 0.797879 0.936872
v 0.418054 0.797879 0.936872
v -0.380109 0.719872 0.934655
v -0.380109 0.719872 0.290468
v -0.375389 0.713013 0.305564
v -0.375389 0.713014 0.919559
v -0.380109 0.427200 0.290468
v 0.420014 0.719872 0.290468
v 0.420014 0.427200 0.290468
v 0.420014 0.719872 0.934655
v 0.426571 0.714782 0.923452
v 0.426571 0.714782 0.301670
v 0.420014 0.427200 0.934655
v -0.380109 0.427200 0.934655
v 0.426571 0.432289 0.923452
v 0.428866 0.427969 0.932962
v 0.428866 0.719103 0.932962
v 0.426571 0.432289 0.301671
v 0.428866 0.719103 0.292161
v 0.433017 0.722733 0.940953
v 0.433017 0.722733 0.284170
v 0.428866 0.427969 0.292161
v 0.438803 0.722733 0.940953
v 0.438803 0.722733 0.284170
v 0.433017 0.424338 0.284170
v 0.433017 0.424338 0.940953
v 0.438803 0.424338 0.940953
v 0.443291 0.428866 0.930988
v 0.443291 0.718206 0.930988
v 0.438803 0.424338 0.284170
v 0.443291 0.428866 0.294135
v 0.443291 0.718206 0.294135
v -0.375389 0.434058 0.919559
v -0.375389 0.434058 0.305564
v 0.513021 0.611636 0.604336
v 0.511684 0.611636 0.690211
v 0.505481 0.609153 0.688771
v 0.506205 0.609153 0.604336
v 0.498164 0.608281 0.604336
v 0.498164 0.608281 0.687072
v 0.490847 0.609153 0.685374
v 0.490123 0.609153 0.604336
v 0.483307 0.611636 0.604336
v 0.484644 0.611636 0.683934
v 0.480500 0.615352 0.682972
v 0.478752 0.615352 0.604336
v 0.477153 0.619735 0.604336
v 0.479044 0.619735 0.682634
v 0.480500 0.624119 0.682972
v 0.478752 0.624119 0.604336
v 0.498164 0.631189 0.604336
v 0.498164 0.631189 0.687072
v 0.505481 0.630317 0.688771
v 0.506205 0.630318 0.604336
v 0.483307 0.627835 0.604336
v 0.484644 0.627834 0.683934
v 0.490847 0.630317 0.685374
v 0.490123 0.630318 0.604336
v 0.517576 0.624119 0.604336
v 0.515829 0.624119 0.691173
v 0.517284 0.619735 0.691511
v 0.519175 0.619735 0.604336
v 0.517576 0.615352 0.604336
v 0.515829 0.615352 0.691173
v 0.511684 0.627834 0.690211
v 0.513021 0.627835 0.604336
v 0.506108 0.624119 0.698679
v 0.507247 0.619735 0.699250
v 0.481687 0.627834 0.686430
v 0.486544 0.630317 0.688866
v 0.492274 0.631189 0.691740
v 0.498004 0.630317 0.694614
v 0.477301 0.619735 0.684230
v 0.478441 0.624119 0.684802
v 0.481687 0.611636 0.686430
v 0.478441 0.615352 0.684802
v 0.492274 0.608281 0.691740
v 0.486544 0.609153 0.688866
v 0.502862 0.611636 0.697051
v 0.498004 0.609153 0.694614
v 0.506108 0.615352 0.698679
v 0.502862 0.627834 0.697051
v 0.476706 0.619735 0.707605
v 0.476646 0.615943 0.706791
v 0.475610 0.628891 0.692815
v 0.475913 0.629645 0.696908
v 0.476474 0.626742 0.704472
v 0.476646 0.623528 0.706791
v 0.475181 0.623528 0.687025
v 0.475352 0.626742 0.689344
v 0.476217 0.628891 0.701002
v 0.475181 0.615943 0.687025
v 0.475120 0.619735 0.686211
v 0.475610 0.610580 0.692815
v 0.475352 0.612728 0.689344
v 0.476217 0.610580 0.701002
v 0.475913 0.609825 0.696908
v 0.476474 0.612728 0.704472
v 0.435011 0.615943 0.706791
v 0.435011 0.612728 0.704472
v 0.435011 0.623528 0.706791
v 0.435011 0.619735 0.707605
v 0.435011 0.626742 0.689344
v 0.435011 0.628891 0.692815
v 0.435011 0.629645 0.696908
v 0.435011 0.628891 0.701002
v 0.435011 0.619735 0.686211
v 0.435011 0.623528 0.687025
v 0.435011 0.612728 0.689344
v 0.435011 0.615943 0.687025
v 0.435011 0.609825 0.696908
v 0.435011 0.610580 0.692815
v 0.435011 0.610580 0.701002
v 0.435011 0.626742 0.704472
v 0.505481 0.609153 0.519901
v 0.511684 0.611636 0.518461
v 0.490847 0.609153 0.523298
v 0.498164 0.608281 0.521600
v 0.480500 0.615352 0.525700
v 0.484644 0.611636 0.524738
v 0.480500 0.624118 0.525700
v 0.479044 0.619735 0.526038
v 0.505481 0.630318 0.519901
v 0.498164 0.631189 0.521600
v 0.490847 0.630317 0.523298
v 0.484644 0.627834 0.524738
v 0.517284 0.619735 0.517161
v 0.515829 0.624118 0.517499
v 0.515829 0.615352 0.517499
v 0.511684 0.627834 0.518461
v 0.507247 0.619735 0.509422
v 0.506108 0.624118 0.509993
v 0.486544 0.630318 0.519806
v 0.481687 0.627834 0.522242
v 0.498004 0.630318 0.514058
v 0.492274 0.631189 0.516932
v 0.478441 0.624118 0.523870
v 0.477301 0.619735 0.524442
v 0.478441 0.615352 0.523870
v 0.481687 0.611636 0.522242
v 0.486544 0.609153 0.519806
v 0.492274 0.608281 0.516932
v 0.498004 0.609153 0.514058
v 0.502862 0.611636 0.511621
v 0.506108 0.615352 0.509993
v 0.502862 0.627834 0.511621
v 0.476646 0.615943 0.501881
v 0.476706 0.619735 0.501067
v 0.475913 0.629645 0.511764
v 0.475610 0.628891 0.515857
v 0.476646 0.623527 0.501881
v 0.476474 0.626742 0.504200
v 0.475353 0.626742 0.519328
v 0.475181 0.623527 0.521647
v 0.476217 0.628891 0.507670
v 0.475120 0.619735 0.522461
v 0.475181 0.615943 0.521647
v 0.475352 0.612728 0.519328
v 0.475610 0.610580 0.515857
v 0.475913 0.609825 0.511764
v 0.476217 0.610580 0.507670
v 0.476474 0.612728 0.504200
v 0.435011 0.612728 0.504200
v 0.435011 0.615943 0.501881
v 0.435011 0.619735 0.501067
v 0.435011 0.623527 0.501881
v 0.435011 0.628891 0.515857
v 0.435011 0.626742 0.519328
v 0.435011 0.628891 0.507670
v 0.435011 0.629645 0.511764
v 0.435011 0.623527 0.521647
v 0.435011 0.619735 0.522461
v 0.435011 0.615943 0.521647
v 0.435011 0.612728 0.519328
v 0.435011 0.610580 0.515857
v 0.435011 0.609825 0.511764
v 0.435011 0.610580 0.507670
v 0.435011 0.626742 0.504200
vt 0.986909 0.247094
vt 0.986909 0.588199
vt 0.980990 0.588199
vt 0.980990 0.247094
vt 0.991009 0.544292
vt 0.991009 0.400407
vt 0.996927 0.400410
vt 0.996927 0.544294
vt 0.971885 0.588199
vt 0.971885 0.247094
vt 0.977803 0.247094
vt 0.977803 0.588199
vt 0.997949 0.709447
vt 0.997949 0.853331
vt 0.992031 0.853334
vt 0.992031 0.709449
vt 0.987364 0.588011
vt 0.987364 0.247283
vt 0.178345 0.424975
vt 0.178942 0.426382
vt 0.035788 0.426382
vt 0.036372 0.424975
vt 0.036372 0.086684
vt 0.178345 0.086684
vt 0.035788 0.085276
vt 0.178942 0.085276
vt 0.393465 0.085182
vt 0.393465 0.425910
vt 0.250477 0.425910
vt 0.250477 0.085182
vt 0.971430 0.247283
vt 0.971430 0.588011
vt 0.998406 0.853256
vt 0.998406 0.709531
vt 0.990551 0.400491
vt 0.990551 0.544216
vt 0.850104 0.880117
vt 0.842473 0.880117
vt 0.842473 0.879192
vt 0.849341 0.879192
vt 0.849341 0.870864
vt 0.850104 0.870864
vt 0.032431 0.890788
vt 0.024800 0.890788
vt 0.024800 0.889863
vt 0.031668 0.889863
vt 0.031668 0.881535
vt 0.032431 0.881535
vt 0.427595 0.709847
vt 0.427595 0.844938
vt 0.426675 0.844938
vt 0.426675 0.709847
vt 0.965113 0.695590
vt 0.965113 0.830666
vt 0.958246 0.830664
vt 0.958246 0.695587
vt 0.208261 0.748068
vt 0.208261 0.883160
vt 0.199976 0.883160
vt 0.199976 0.748068
vt 0.426018 0.747499
vt 0.426018 0.882575
vt 0.425255 0.882575
vt 0.425255 0.747498
vt 0.907467 0.695590
vt 0.907467 0.830681
vt 0.898262 0.830681
vt 0.898262 0.695590
vt 0.935547 0.830667
vt 0.935547 0.695590
vt 0.943177 0.695587
vt 0.943177 0.830664
vt 0.020985 0.881535
vt 0.020985 0.890788
vt 0.020222 0.890788
vt 0.020222 0.882461
vt 0.013354 0.882461
vt 0.013354 0.881535
vt 0.043877 0.881535
vt 0.043877 0.890788
vt 0.043114 0.890788
vt 0.043114 0.882461
vt 0.036246 0.882461
vt 0.036246 0.881535
vt 0.185288 0.752161
vt 0.185288 0.887237
vt 0.184525 0.887237
vt 0.184525 0.752161
vt 0.911840 0.830681
vt 0.911840 0.695590
vt 0.920124 0.695590
vt 0.920124 0.830681
vt 0.978420 0.707248
vt 0.978420 0.842324
vt 0.971553 0.842322
vt 0.971553 0.707246
vt 0.211943 0.845503
vt 0.211943 0.710413
vt 0.212863 0.710413
vt 0.212863 0.845503
vt 0.946992 0.830667
vt 0.946992 0.695590
vt 0.954622 0.695587
vt 0.954622 0.830664
vt 0.209411 0.545431
vt 0.209411 0.680523
vt 0.200207 0.680523
vt 0.200207 0.545431
vt 0.874422 0.251295
vt 0.874422 0.570420
vt 0.862111 0.570420
vt 0.862111 0.251295
vt 0.669169 0.416667
vt 0.669168 0.410523
vt 0.675458 0.410523
vt 0.675458 0.416667
vt 0.391094 0.590874
vt 0.391094 0.909999
vt 0.378783 0.909999
vt 0.378783 0.590874
vt 0.862111 0.578484
vt 0.874422 0.578484
vt 0.806269 0.591397
vt 0.806269 0.910523
vt 0.799980 0.910523
vt 0.799980 0.591397
vt 0.675458 0.091397
vt 0.669168 0.091397
vt 0.194828 0.546114
vt 0.194828 0.552435
vt 0.182518 0.552440
vt 0.182518 0.546118
vt 0.806269 0.583333
vt 0.799980 0.583333
vt 0.675458 0.083333
vt 0.669168 0.083333
vt 0.675387 0.910523
vt 0.799980 0.916667
vt 0.675387 0.916667
vt 0.843643 0.702595
vt 0.843643 0.696273
vt 0.855953 0.696277
vt 0.855953 0.702599
vt 0.874422 0.245151
vt 0.862111 0.245151
vt 0.675387 0.583333
vt 0.675387 0.591397
vt 0.806269 0.916667
vt 0.806286 0.416667
vt 0.800056 0.416667
vt 0.800056 0.410523
vt 0.806286 0.410523
vt 0.929824 0.241599
vt 0.929824 0.560725
vt 0.917512 0.560725
vt 0.917512 0.241599
vt 0.843643 0.827829
vt 0.855953 0.827834
vt 0.800056 0.091397
vt 0.800056 0.083333
vt 0.164053 0.874940
vt 0.164053 0.749705
vt 0.176363 0.749701
vt 0.176363 0.874936
vt 0.182518 0.677674
vt 0.194828 0.677670
vt 0.892884 0.693132
vt 0.892884 0.818366
vt 0.880574 0.818362
vt 0.880574 0.693127
vt 0.899045 0.578484
vt 0.899045 0.570421
vt 0.911357 0.570421
vt 0.911357 0.578484
vt 0.911357 0.245151
vt 0.911357 0.251295
vt 0.899045 0.251295
vt 0.899045 0.245151
vt 0.806286 0.091397
vt 0.806286 0.083333
vt 0.182518 0.683936
vt 0.194828 0.683932
vt 0.669158 0.910523
vt 0.669158 0.916667
vt 0.843643 0.834091
vt 0.855953 0.834095
vt 0.669158 0.583333
vt 0.669158 0.591397
vt 0.892889 0.251295
vt 0.892889 0.570420
vt 0.880578 0.570420
vt 0.880578 0.251295
vt 0.463492 0.416667
vt 0.463492 0.410523
vt 0.469781 0.410523
vt 0.469781 0.416667
vt 0.948291 0.241599
vt 0.948291 0.560725
vt 0.935980 0.560725
vt 0.935980 0.241599
vt 0.880578 0.578484
vt 0.892889 0.578484
vt 0.600602 0.591397
vt 0.600602 0.910523
vt 0.594312 0.910523
vt 0.594312 0.591397
vt 0.469781 0.091397
vt 0.463492 0.091397
vt 0.409560 0.545548
vt 0.409560 0.551869
vt 0.397250 0.551874
vt 0.397250 0.545552
vt 0.600602 0.583333
vt 0.594312 0.583333
vt 0.469781 0.083333
vt 0.463492 0.083333
vt 0.469720 0.910523
vt 0.594312 0.916667
vt 0.469720 0.916667
vt 0.164053 0.552435
vt 0.164053 0.546114
vt 0.176363 0.546118
vt 0.176363 0.552440
vt 0.892889 0.245151
vt 0.880578 0.245151
vt 0.469720 0.583333
vt 0.469720 0.591397
vt 0.600602 0.916667
vt 0.600610 0.416667
vt 0.594380 0.416667
vt 0.594380 0.410523
vt 0.600610 0.410523
vt 0.966758 0.241599
vt 0.966758 0.560725
vt 0.954447 0.560725
vt 0.954447 0.241599
vt 0.164053 0.677670
vt 0.176363 0.677674
vt 0.594380 0.091397
vt 0.594380 0.083333
vt 0.397250 0.874374
vt 0.397250 0.749139
vt 0.409560 0.749135
vt 0.409560 0.874369
vt 0.397250 0.677108
vt 0.409560 0.677104
vt 0.874418 0.693132
vt 0.874418 0.818366
vt 0.862108 0.818362
vt 0.862108 0.693127
vt 0.855955 0.245151
vt 0.855955 0.253215
vt 0.843644 0.253215
vt 0.843644 0.245151
vt 0.843644 0.578484
vt 0.843644 0.572340
vt 0.855955 0.572340
vt 0.855955 0.578484
vt 0.600610 0.091397
vt 0.600610 0.083333
vt 0.397250 0.683370
vt 0.409560 0.683365
vt 0.463490 0.910523
vt 0.463490 0.916667
vt 0.164053 0.683932
vt 0.176363 0.683936
vt 0.463490 0.583333
vt 0.463490 0.591397
vt 0.066769 0.881535
vt 0.066769 0.890788
vt 0.066006 0.890788
vt 0.066006 0.882461
vt 0.059138 0.882461
vt 0.059138 0.881535
vt 0.054560 0.881535
vt 0.055323 0.881535
vt 0.055323 0.890788
vt 0.054560 0.889863
vt 0.047692 0.889863
vt 0.047692 0.890788
vt 0.183381 0.752161
vt 0.184144 0.752161
vt 0.184144 0.887237
vt 0.183381 0.887237
vt 0.187550 0.752164
vt 0.195834 0.752164
vt 0.195834 0.887255
vt 0.187550 0.887255
vt 0.990674 0.195590
vt 0.997541 0.195587
vt 0.997541 0.330664
vt 0.990674 0.330666
vt 0.213323 0.710413
vt 0.214244 0.710413
vt 0.214244 0.845503
vt 0.213323 0.845503
vt 0.931732 0.830667
vt 0.924102 0.830664
vt 0.924102 0.695587
vt 0.931732 0.695590
vt 0.424143 0.679956
vt 0.414939 0.679956
vt 0.414939 0.544865
vt 0.424143 0.544865
vt 0.078215 0.890788
vt 0.070584 0.890788
vt 0.070584 0.889863
vt 0.077451 0.889863
vt 0.077451 0.881535
vt 0.078215 0.881535
vt 0.001908 0.882461
vt 0.001908 0.881535
vt 0.009538 0.881535
vt 0.008775 0.882461
vt 0.008775 0.890788
vt 0.009538 0.890788
vt 0.428976 0.844938
vt 0.428055 0.844938
vt 0.428055 0.709847
vt 0.428976 0.709847
vt 0.981853 0.707248
vt 0.988720 0.707246
vt 0.988720 0.842322
vt 0.981853 0.842324
vt 0.422993 0.882594
vt 0.414708 0.882594
vt 0.414708 0.747502
vt 0.422993 0.747502
vt 0.210523 0.748065
vt 0.211286 0.748065
vt 0.211286 0.883141
vt 0.210523 0.883141
vt 0.363283 0.747460
vt 0.372488 0.747460
vt 0.372488 0.882550
vt 0.363283 0.882550
vt 0.158665 0.883089
vt 0.151036 0.883087
vt 0.151036 0.748010
vt 0.158665 0.748013
vt 0.853902 0.132320
vt 0.852755 0.134848
vt 0.852755 0.026970
vt 0.853902 0.029498
vt 0.275668 0.747198
vt 0.275668 0.881159
vt 0.226918 0.881142
vt 0.226918 0.747181
vt 0.243425 0.679921
vt 0.241559 0.678836
vt 0.348876 0.678836
vt 0.347010 0.679921
vt 0.348794 0.747181
vt 0.348794 0.881142
vt 0.300044 0.881159
vt 0.300044 0.747198
vt 0.134146 0.680477
vt 0.026829 0.680477
vt 0.026829 0.546505
vt 0.134146 0.546505
vt 0.241559 0.544858
vt 0.348876 0.544858
vt 0.013028 0.850387
vt 0.013745 0.848794
vt 0.060806 0.848794
vt 0.061528 0.850387
vt 0.180857 0.731504
vt 0.182723 0.730644
vt 0.182723 0.779655
vt 0.180857 0.778811
vt 0.182723 0.852327
vt 0.180857 0.853172
vt 0.180857 0.804161
vt 0.182723 0.805021
vt 0.132280 0.545422
vt 0.028695 0.545422
vt 0.213093 0.539155
vt 0.213793 0.540493
vt 0.213793 0.647805
vt 0.213093 0.649143
vt 0.060806 0.744668
vt 0.061528 0.743075
vt 0.013028 0.743075
vt 0.013745 0.744668
vt 0.212129 0.539155
vt 0.212129 0.649143
vt 0.062137 0.741737
vt 0.012427 0.741737
vt 0.012427 0.851725
vt 0.062137 0.851725
vt 0.427563 0.648577
vt 0.426861 0.647239
vt 0.426861 0.539927
vt 0.427563 0.538589
vt 0.087741 0.743406
vt 0.086992 0.741737
vt 0.136701 0.741737
vt 0.135941 0.743406
vt 0.914905 0.062455
vt 0.913941 0.062456
vt 0.913941 0.012491
vt 0.914905 0.012491
vt 0.914905 0.137402
vt 0.913941 0.137402
vt 0.913941 0.087438
vt 0.914905 0.087438
vt 0.428527 0.648577
vt 0.428527 0.538589
vt 0.135941 0.850056
vt 0.087741 0.850056
vt 0.136701 0.851725
vt 0.086992 0.851725
vt 0.900373 0.029498
vt 0.900373 0.132320
vt 0.901511 0.026970
vt 0.901511 0.134848
vt 0.901273 0.889607
vt 0.900145 0.889607
vt 0.900368 0.875226
vt 0.901394 0.875468
vt 0.903952 0.889607
vt 0.902610 0.889607
vt 0.902610 0.875752
vt 0.903832 0.876037
vt 0.905864 0.889607
vt 0.905095 0.889607
vt 0.904872 0.876278
vt 0.905573 0.876439
vt 0.882210 0.869429
vt 0.882939 0.869429
vt 0.882941 0.882541
vt 0.882212 0.882597
vt 0.864347 0.874830
vt 0.865684 0.874830
vt 0.865684 0.888685
vt 0.864467 0.888969
vt 0.867025 0.874830
vt 0.868167 0.874830
vt 0.867944 0.888159
vt 0.866905 0.888401
vt 0.880745 0.871574
vt 0.880017 0.871574
vt 0.880019 0.857032
vt 0.880747 0.856975
vt 0.899397 0.889607
vt 0.899688 0.875065
vt 0.883671 0.869429
vt 0.883673 0.882597
vt 0.863217 0.874830
vt 0.863440 0.889211
vt 0.868935 0.874830
vt 0.868644 0.887998
vt 0.862468 0.874830
vt 0.862759 0.889372
vt 0.881477 0.871574
vt 0.881479 0.857032
vt 0.886037 0.853134
vt 0.886767 0.853373
vt 0.886794 0.855028
vt 0.886065 0.854842
vt 0.868437 0.888577
vt 0.867622 0.888985
vt 0.866665 0.889467
vt 0.865713 0.889948
vt 0.086933 0.888780
vt 0.086203 0.888535
vt 0.086199 0.888249
vt 0.086928 0.888442
vt 0.905365 0.875860
vt 0.905916 0.876132
vt 0.903591 0.874970
vt 0.904548 0.875452
vt 0.901838 0.874081
vt 0.902639 0.874489
vt 0.885307 0.853380
vt 0.885334 0.855035
vt 0.864909 0.890356
vt 0.864378 0.890629
vt 0.868986 0.888305
vt 0.085472 0.888780
vt 0.085467 0.888442
vt 0.901308 0.873808
vt 0.886109 0.859986
vt 0.885475 0.859996
vt 0.869446 0.889647
vt 0.869394 0.890332
vt 0.887411 0.855562
vt 0.887268 0.860008
vt 0.886739 0.859990
vt 0.087542 0.888991
vt 0.086823 0.887904
vt 0.087352 0.887942
vt 0.869345 0.891018
vt 0.869308 0.891599
vt 0.085560 0.887904
vt 0.086193 0.887891
vt 0.906374 0.874790
vt 0.906423 0.875372
vt 0.906273 0.873419
vt 0.906321 0.874105
vt 0.884713 0.855575
vt 0.884934 0.860019
vt 0.869494 0.889066
vt 0.084844 0.888991
vt 0.085018 0.887942
vt 0.906236 0.872838
vt 0.885505 0.866967
vt 0.884963 0.866961
vt 0.886768 0.866961
vt 0.886139 0.866967
vt 0.876214 0.889066
vt 0.876209 0.889647
vt 0.876207 0.890332
vt 0.876209 0.891018
vt 0.086191 0.881176
vt 0.086821 0.881179
vt 0.085015 0.881187
vt 0.085557 0.881179
vt 0.913134 0.874105
vt 0.913136 0.874790
vt 0.913142 0.872838
vt 0.913136 0.873419
vt 0.887298 0.866950
vt 0.087350 0.881187
vt 0.876214 0.891599
vt 0.913142 0.875372
vt 0.900368 0.903988
vt 0.901394 0.903747
vt 0.902610 0.903463
vt 0.903832 0.903178
vt 0.904872 0.902937
vt 0.905573 0.902776
vt 0.882941 0.856317
vt 0.882212 0.856260
vt 0.865684 0.860974
vt 0.864467 0.860690
vt 0.867944 0.861500
vt 0.866905 0.861259
vt 0.880019 0.886116
vt 0.880747 0.886173
vt 0.899688 0.904150
vt 0.883673 0.856260
vt 0.863440 0.860449
vt 0.868644 0.861661
vt 0.862759 0.860287
vt 0.881479 0.886116
vt 0.853303 0.873903
vt 0.853330 0.872248
vt 0.854061 0.872009
vt 0.854033 0.873717
vt 0.868437 0.861082
vt 0.867622 0.860674
vt 0.866665 0.860193
vt 0.865713 0.859711
vt 0.082140 0.888249
vt 0.082136 0.888535
vt 0.081407 0.888780
vt 0.081412 0.888442
vt 0.905365 0.903355
vt 0.905916 0.903083
vt 0.903591 0.904245
vt 0.904548 0.903763
vt 0.901838 0.905134
vt 0.902639 0.904726
vt 0.854791 0.872255
vt 0.854764 0.873909
vt 0.864910 0.859303
vt 0.864378 0.859031
vt 0.868986 0.861354
vt 0.082872 0.888442
vt 0.082867 0.888780
vt 0.901308 0.905406
vt 0.853988 0.878861
vt 0.854622 0.878871
vt 0.869446 0.860013
vt 0.869394 0.859327
vt 0.852829 0.878883
vt 0.852686 0.874437
vt 0.853359 0.878865
vt 0.081516 0.887904
vt 0.080797 0.888991
vt 0.080987 0.887942
vt 0.869345 0.858642
vt 0.869308 0.858060
vt 0.082780 0.887904
vt 0.082146 0.887891
vt 0.906374 0.904424
vt 0.906423 0.903843
vt 0.906273 0.905796
vt 0.906321 0.905110
vt 0.855385 0.874450
vt 0.855164 0.878894
vt 0.869494 0.860594
vt 0.083321 0.887942
vt 0.083495 0.888991
vt 0.906236 0.906377
vt 0.854592 0.885842
vt 0.855134 0.885836
vt 0.853329 0.885836
vt 0.853958 0.885842
vt 0.876214 0.860594
vt 0.876209 0.860013
vt 0.876207 0.859327
vt 0.876209 0.858642
vt 0.082148 0.881176
vt 0.081518 0.881179
vt 0.083324 0.881187
vt 0.082782 0.881179
vt 0.913134 0.905110
vt 0.913136 0.904424
vt 0.913142 0.906377
vt 0.913136 0.905796
vt 0.852800 0.885825
vt 0.080989 0.881187
vt 0.876214 0.858060
vt 0.913142 0.903843
vn -1.0000 0.0000 0.0000
vn 0.0000 0.0000 -1.0000
vn 1.0000 0.0000 0.0000
vn 0.0000 0.0000 1.0000
vn -0.9852 -0.1717 0.0000
vn -0.9851 -0.1717 0.0000
vn 0.0000 0.9535 0.3013
vn 0.0000 1.0000 -0.0000
vn 0.0000 0.9535 -0.3013
vn 0.5995 0.8004 -0.0000
vn -0.5995 0.8004 -0.0000
vn 0.0000 -1.0000 0.0000
vn 0.9852 -0.1717 0.0000
vn 0.9851 -0.1717 0.0000
vn 0.0000 -0.3817 0.9243
vn 0.0000 -0.3817 -0.9243
vn -0.8238 -0.5669 0.0000
vn 0.6132 0.7899 0.0000
vn -0.9721 0.0000 0.2346
vn 0.8630 -0.0000 -0.5051
vn 0.8630 0.0000 0.5051
vn 0.6132 -0.7899 0.0000
vn -0.6584 0.7527 0.0000
vn -0.8832 -0.4691 0.0000
vn -0.8832 0.4691 -0.0000
vn -0.9721 -0.0000 -0.2346
vn -0.8874 -0.0000 -0.4609
vn -0.8874 -0.0000 -0.4610
vn -0.8874 0.0000 0.4610
vn -0.8874 0.0000 0.4609
vn -0.6584 -0.7527 0.0000
vn 0.9118 0.0000 0.4106
vn 0.7102 -0.7040 0.0000
vn 0.7102 0.7040 0.0000
vn 0.9118 0.0000 -0.4106
vn -0.8238 0.5669 -0.0000
vn -0.9544 0.0000 0.2984
vn -0.9544 -0.0000 -0.2984
vn 0.2369 -0.9715 0.0000
vn 0.5110 -0.8596 0.0000
vn 0.4864 -0.8298 0.2735
vn 0.2416 -0.9593 0.1463
vn -0.2374 -0.9714 -0.0000
vn 0.0283 -0.9993 0.0253
vn -0.1857 -0.9783 -0.0923
vn -0.8273 -0.5617 -0.0000
vn -0.5124 -0.8587 -0.0000
vn -0.4340 -0.8749 -0.2150
vn -0.7321 -0.5889 -0.3422
vn -0.8273 0.5617 -0.0000
vn -0.9108 0.0000 -0.4128
vn -0.7321 0.5890 -0.3423
vn 0.2369 0.9715 -0.0000
vn -0.0003 1.0000 0.0000
vn 0.0278 0.9993 0.0249
vn 0.2416 0.9593 0.1463
vn -0.2374 0.9714 0.0000
vn -0.5124 0.8587 -0.0000
vn -0.4340 0.8749 -0.2150
vn -0.1857 0.9782 -0.0924
vn 0.8262 0.5634 0.0000
vn 0.7576 0.5257 0.3869
vn 0.9006 -0.0000 0.4346
vn 0.8262 -0.5634 0.0000
vn 0.7576 -0.5257 0.3869
vn 0.5111 0.8595 -0.0000
vn 0.4864 0.8298 0.2735
vn 0.4063 0.4332 0.8045
vn 0.4632 0.0001 0.8862
vn -0.3787 0.7839 -0.4920
vn -0.1993 0.9535 -0.2260
vn -0.0329 0.9977 0.0591
vn 0.1254 0.9316 0.3413
vn -0.6468 0.0000 -0.7627
vn -0.5579 0.4598 -0.6909
vn -0.3787 -0.7840 -0.4920
vn -0.5579 -0.4598 -0.6909
vn -0.0329 -0.9977 0.0591
vn -0.1993 -0.9535 -0.2260
vn 0.2769 -0.7492 0.6017
vn 0.1254 -0.9316 0.3413
vn 0.4063 -0.4332 0.8045
vn 0.2769 0.7492 0.6017
vn 0.1316 0.0004 0.9913
vn 0.1193 -0.3915 0.9124
vn -0.1077 0.9473 -0.3016
vn -0.0329 0.9983 0.0487
vn 0.0843 0.7117 0.6974
vn 0.1193 0.3915 0.9124
vn -0.2915 0.4366 -0.8511
vn -0.1946 0.7611 -0.6188
vn 0.0319 0.9185 0.3941
vn -0.2916 -0.4366 -0.8511
vn -0.3433 -0.0000 -0.9392
vn -0.1077 -0.9474 -0.3015
vn -0.1946 -0.7611 -0.6188
vn 0.0319 -0.9185 0.3940
vn -0.0329 -0.9983 0.0488
vn 0.0843 -0.7117 0.6974
vn 0.0000 -0.4061 0.9138
vn 0.0000 -0.7316 0.6817
vn 0.0000 0.4061 0.9138
vn 0.0000 0.7316 -0.6817
vn 0.0000 0.9330 -0.3600
vn 0.0000 0.9330 0.3600
vn 0.0000 0.4061 -0.9138
vn 0.0000 -0.7316 -0.6817
vn 0.0000 -0.4061 -0.9138
vn 0.0000 -0.9330 -0.3600
vn 0.0000 -0.9330 0.3600
vn 0.0000 0.7316 0.6817
vn 0.4864 -0.8298 -0.2735
vn 0.2416 -0.9593 -0.1463
vn 0.0283 -0.9993 -0.0253
vn -0.1857 -0.9783 0.0924
vn -0.4340 -0.8749 0.2150
vn -0.7321 -0.5890 0.3422
vn -0.9108 0.0000 0.4128
vn -0.7321 0.5890 0.3422
vn 0.0278 0.9993 -0.0249
vn 0.2416 0.9593 -0.1463
vn -0.4340 0.8749 0.2150
vn -0.1857 0.9782 0.0924
vn 0.7576 0.5257 -0.3869
vn 0.9006 -0.0000 -0.4347
vn 0.7576 -0.5257 -0.3869
vn 0.4864 0.8298 -0.2735
vn 0.4063 0.4332 -0.8045
vn 0.4632 0.0001 -0.8862
vn -0.3787 0.7840 0.4919
vn -0.1993 0.9535 0.2260
vn -0.0329 0.9977 -0.0591
vn 0.1254 0.9316 -0.3413
vn -0.6468 -0.0000 0.7627
vn -0.5579 0.4598 0.6909
vn -0.3786 -0.7840 0.4920
vn -0.5579 -0.4598 0.6909
vn -0.0329 -0.9977 -0.0591
vn -0.1993 -0.9535 0.2260
vn 0.2769 -0.7492 -0.6017
vn 0.1254 -0.9316 -0.3413
vn 0.4063 -0.4332 -0.8045
vn 0.2769 0.7492 -0.6017
vn 0.1316 0.0004 -0.9913
vn 0.1193 -0.3915 -0.9124
vn -0.1077 0.9473 0.3015
vn -0.0329 0.9983 -0.0488
vn 0.0843 0.7117 -0.6974
vn 0.1193 0.3915 -0.9124
vn -0.2915 0.4366 0.8511
vn -0.1946 0.7611 0.6188
vn 0.0319 0.9185 -0.3941
vn -0.2916 -0.4366 0.8511
vn -0.3433 -0.0000 0.9392
vn -0.1077 -0.9473 0.3016
vn -0.1946 -0.7611 0.6188
vn 0.0319 -0.9185 -0.3940
vn -0.0329 -0.9983 -0.0488
vn 0.0843 -0.7117 -0.6974
usemtl Handle_material
s 1
f 4/1/1 1/2/1 2/3/1
f 2/3/1 3/4/1 4/1/1
f 6/5/2 4/6/2 3/7/2
f 3/7/2 5/8/2 6/5/2
f 8/9/3 6/10/3 5/11/3
f 5/11/3 7/12/3 8/9/3
f 1/13/4 8/14/4 7/15/4
f 7/15/4 2/16/4 1/13/4
f 10/17/5 1/2/5 4/1/6
f 4/1/6 9/18/6 10/17/5
f 12/19/7 2/20/7 7/21/7
f 7/21/7 11/22/7 12/19/7
f 11/22/8 13/23/8 14/24/8
f 14/24/8 12/19/8 11/22/8
f 13/23/9 5/25/9 3/26/9
f 3/26/9 14/24/9 13/23/9
f 11/22/10 7/21/10 5/25/10
f 5/25/10 13/23/10 11/22/10
f 14/24/11 3/26/11 2/20/11
f 2/20/11 12/19/11 14/24/11
f 10/27/12 9/28/12 15/29/12
f 15/29/12 16/30/12 10/27/12
f 15/31/13 6/10/13 8/9/14
f 8/9/14 16/32/14 15/31/13
f 16/33/15 8/14/15 1/13/15
f 1/13/15 10/34/15 16/33/15
f 9/35/16 4/6/16 6/5/16
f 6/5/16 15/36/16 9/35/16
f 20/37/8 17/38/8 18/39/8
f 18/39/8 19/40/8 20/37/8
f 20/37/8 19/40/8 21/41/8
f 21/41/8 22/42/8 20/37/8
f 26/43/8 23/44/8 24/45/8
f 24/45/8 25/46/8 26/43/8
f 26/43/8 25/46/8 27/47/8
f 27/47/8 28/48/8 26/43/8
f 23/49/1 17/50/1 18/51/1
f 18/51/1 24/52/1 23/49/1
f 24/53/4 18/54/4 19/55/4
f 19/55/4 25/56/4 24/53/4
f 25/57/1 19/58/1 21/59/1
f 21/59/1 27/60/1 25/57/1
f 27/61/4 21/62/4 22/63/4
f 22/63/4 28/64/4 27/61/4
f 28/65/3 22/66/3 20/67/3
f 20/67/3 26/68/3 28/65/3
f 26/69/2 20/70/2 17/71/2
f 17/71/2 23/72/2 26/69/2
f 32/73/8 29/74/8 30/75/8
f 30/75/8 31/76/8 32/73/8
f 32/73/8 31/76/8 33/77/8
f 33/77/8 34/78/8 32/73/8
f 38/79/8 35/80/8 36/81/8
f 36/81/8 37/82/8 38/79/8
f 38/79/8 37/82/8 39/83/8
f 39/83/8 40/84/8 38/79/8
f 35/85/4 29/86/4 30/87/4
f 30/87/4 36/88/4 35/85/4
f 36/89/3 30/90/3 31/91/3
f 31/91/3 37/92/3 36/89/3
f 37/93/4 31/94/4 33/95/4
f 33/95/4 39/96/4 37/93/4
f 39/97/3 33/98/3 34/99/3
f 34/99/3 40/100/3 39/97/3
f 40/101/2 34/102/2 32/103/2
f 32/103/2 38/104/2 40/101/2
f 38/105/1 32/106/1 29/107/1
f 29/107/1 35/108/1 38/105/1
f 44/109/1 41/110/1 42/111/1
f 42/111/1 43/112/1 44/109/1
f 47/113/8 43/114/8 45/115/8
f 45/115/8 46/116/8 47/113/8
f 50/117/3 48/118/3 45/119/3
f 45/119/3 49/120/3 50/117/3
f 52/121/1 42/111/1 41/110/1
f 41/110/1 51/122/1 52/121/1
f 41/123/12 44/124/12 48/125/12
f 48/125/12 50/126/12 41/123/12
f 49/127/8 45/115/8 43/114/8
f 43/114/8 42/128/8 49/127/8
f 51/129/4 53/130/4 54/131/4
f 54/131/4 52/132/4 51/129/4
f 51/133/12 41/123/12 50/126/12
f 50/126/12 53/134/12 51/133/12
f 54/135/8 49/127/8 42/128/8
f 42/128/8 52/136/8 54/135/8
f 57/137/12 48/125/12 55/138/12
f 55/138/12 56/139/12 57/137/12
f 55/140/2 58/141/2 47/142/2
f 47/142/2 46/143/2 55/140/2
f 58/144/1 44/109/1 43/112/1
f 43/112/1 47/145/1 58/144/1
f 60/146/12 53/134/12 50/126/12
f 50/126/12 59/147/12 60/146/12
f 55/138/12 48/125/12 44/124/12
f 44/124/12 58/148/12 55/138/12
f 64/149/8 61/150/8 62/151/8
f 62/151/8 63/152/8 64/149/8
f 57/153/1 59/154/1 65/155/1
f 65/155/1 62/156/1 57/153/1
f 56/157/2 55/140/2 46/143/2
f 46/143/2 61/158/2 56/157/2
f 65/159/8 49/127/8 54/135/8
f 54/135/8 66/160/8 65/159/8
f 62/161/4 45/162/4 48/163/4
f 48/163/4 57/164/4 62/161/4
f 61/150/8 46/116/8 45/115/8
f 45/115/8 62/151/8 61/150/8
f 66/165/4 54/131/4 53/130/4
f 53/130/4 60/166/4 66/165/4
f 59/167/2 50/168/2 49/169/2
f 49/169/2 65/170/2 59/167/2
f 70/171/3 67/172/3 68/173/3
f 68/173/3 69/174/3 70/171/3
f 64/175/3 63/176/3 71/177/3
f 71/177/3 72/178/3 64/175/3
f 68/179/8 65/159/8 66/160/8
f 66/160/8 69/180/8 68/179/8
f 69/181/4 66/165/4 60/166/4
f 60/166/4 70/182/4 69/181/4
f 71/183/12 57/137/12 56/139/12
f 56/139/12 72/184/12 71/183/12
f 72/185/2 56/157/2 61/158/2
f 61/158/2 64/186/2 72/185/2
f 70/187/12 60/146/12 59/147/12
f 59/147/12 67/188/12 70/187/12
f 63/176/3 68/173/3 67/172/3
f 67/172/3 71/177/3 63/176/3
f 62/151/8 65/159/8 68/179/8
f 68/179/8 63/152/8 62/151/8
f 71/183/12 67/188/12 59/147/12
f 59/147/12 57/137/12 71/183/12
f 76/189/1 73/190/1 74/191/1
f 74/191/1 75/192/1 76/189/1
f 79/193/8 75/194/8 77/195/8
f 77/195/8 78/196/8 79/193/8
f 82/197/3 80/198/3 77/199/3
f 77/199/3 81/200/3 82/197/3
f 84/201/1 74/191/1 73/190/1
f 73/190/1 83/202/1 84/201/1
f 73/203/12 76/204/12 80/205/12
f 80/205/12 82/206/12 73/203/12
f 81/207/8 77/195/8 75/194/8
f 75/194/8 74/208/8 81/207/8
f 83/209/4 85/210/4 86/211/4
f 86/211/4 84/212/4 83/209/4
f 83/213/12 73/203/12 82/206/12
f 82/206/12 85/214/12 83/213/12
f 86/215/8 81/207/8 74/208/8
f 74/208/8 84/216/8 86/215/8
f 89/217/12 80/205/12 87/218/12
f 87/218/12 88/219/12 89/217/12
f 87/220/2 90/221/2 79/222/2
f 79/222/2 78/223/2 87/220/2
f 90/224/1 76/189/1 75/192/1
f 75/192/1 79/225/1 90/224/1
f 92/226/12 85/214/12 82/206/12
f 82/206/12 91/227/12 92/226/12
f 87/218/12 80/205/12 76/204/12
f 76/204/12 90/228/12 87/218/12
f 96/229/8 93/230/8 94/231/8
f 94/231/8 95/232/8 96/229/8
f 89/233/1 91/234/1 97/235/1
f 97/235/1 94/236/1 89/233/1
f 88/237/2 87/220/2 78/223/2
f 78/223/2 93/238/2 88/237/2
f 97/239/8 81/207/8 86/215/8
f 86/215/8 98/240/8 97/239/8
f 94/241/4 77/242/4 80/243/4
f 80/243/4 89/244/4 94/241/4
f 93/230/8 78/196/8 77/195/8
f 77/195/8 94/231/8 93/230/8
f 98/245/4 86/211/4 85/210/4
f 85/210/4 92/246/4 98/245/4
f 91/247/2 82/248/2 81/249/2
f 81/249/2 97/250/2 91/247/2
f 102/251/3 99/252/3 100/253/3
f 100/253/3 101/254/3 102/251/3
f 96/255/3 95/256/3 103/257/3
f 103/257/3 104/258/3 96/255/3
f 100/259/8 97/239/8 98/240/8
f 98/240/8 101/260/8 100/259/8
f 101/261/4 98/245/4 92/246/4
f 92/246/4 102/262/4 101/261/4
f 103/263/12 89/217/12 88/219/12
f 88/219/12 104/264/12 103/263/12
f 104/265/2 88/237/2 93/238/2
f 93/238/2 96/266/2 104/265/2
f 102/267/12 92/226/12 91/227/12
f 91/227/12 99/268/12 102/267/12
f 95/256/3 100/253/3 99/252/3
f 99/252/3 103/257/3 95/256/3
f 94/231/8 97/239/8 100/259/8
f 100/259/8 95/232/8 94/231/8
f 103/263/12 99/268/12 91/227/12
f 91/227/12 89/217/12 103/263/12
f 108/269/12 105/270/12 106/271/12
f 106/271/12 107/272/12 108/269/12
f 108/269/12 107/272/12 109/273/12
f 109/273/12 110/274/12 108/269/12
f 114/275/8 111/276/8 112/277/8
f 112/277/8 113/278/8 114/275/8
f 116/279/8 113/278/8 112/277/8
f 112/277/8 115/280/8 116/279/8
f 106/281/2 105/282/2 111/283/2
f 111/283/2 114/284/2 106/281/2
f 107/285/3 106/286/3 114/287/3
f 114/287/3 113/288/3 107/285/3
f 109/289/2 107/290/2 113/291/2
f 113/291/2 116/292/2 109/289/2
f 110/293/3 109/294/3 116/295/3
f 116/295/3 115/296/3 110/293/3
f 108/297/4 110/298/4 115/299/4
f 115/299/4 112/300/4 108/297/4
f 105/301/1 108/302/1 112/303/1
f 112/303/1 111/304/1 105/301/1
f 120/305/12 117/306/12 118/307/12
f 118/307/12 119/308/12 120/305/12
f 120/305/12 119/308/12 121/309/12
f 121/309/12 122/310/12 120/305/12
f 126/311/8 123/312/8 124/313/8
f 124/313/8 125/314/8 126/311/8
f 128/315/8 125/314/8 124/313/8
f 124/313/8 127/316/8 128/315/8
f 118/317/1 117/318/1 123/319/1
f 123/319/1 126/320/1 118/317/1
f 119/321/2 118/322/2 126/323/2
f 126/323/2 125/324/2 119/321/2
f 121/325/1 119/326/1 125/327/1
f 125/327/1 128/328/1 121/325/1
f 122/329/2 121/330/2 128/331/2
f 128/331/2 127/332/2 122/329/2
f 120/333/3 122/334/3 127/335/3
f 127/335/3 124/336/3 120/333/3
f 117/337/4 120/338/4 124/339/4
f 124/339/4 123/340/4 117/337/4
f 132/341/17 129/342/17 130/343/17
f 130/343/17 131/344/17 132/341/17
f 135/345/2 133/346/2 130/347/2
f 130/347/2 134/348/2 135/345/2
f 138/349/18 134/350/18 136/351/18
f 136/351/18 137/352/18 138/349/18
f 140/353/4 139/354/4 136/355/4
f 136/355/4 129/356/4 140/353/4
f 140/357/12 133/358/12 135/359/12
f 135/359/12 139/360/12 140/357/12
f 136/351/8 134/350/8 130/361/8
f 130/361/8 129/362/8 136/351/8
f 143/363/19 137/364/19 141/365/19
f 141/365/19 142/366/19 143/363/19
f 144/367/20 135/368/20 134/369/20
f 134/369/20 138/370/20 144/367/20
f 137/371/21 136/372/21 139/373/21
f 139/373/21 141/374/21 137/371/21
f 141/375/22 139/360/22 135/359/22
f 135/359/22 144/376/22 141/375/22
f 147/377/23 145/378/23 143/379/23
f 143/379/23 146/380/23 147/377/23
f 142/366/24 141/365/24 144/381/24
f 144/381/24 148/382/24 142/366/24
f 145/383/25 138/384/25 137/364/25
f 137/364/25 143/363/25 145/383/25
f 148/382/26 144/381/26 138/384/26
f 138/384/26 145/383/26 148/382/26
f 150/385/8 147/377/8 146/380/8
f 146/380/8 149/386/8 150/385/8
f 151/387/27 148/382/27 145/383/28
f 145/383/28 147/388/28 151/387/27
f 146/389/29 143/363/29 142/366/30
f 142/366/30 152/390/30 146/389/29
f 152/391/31 142/392/31 148/393/31
f 148/393/31 151/394/31 152/391/31
f 155/395/32 149/396/32 153/397/32
f 153/397/32 154/398/32 155/395/32
f 156/399/2 151/400/2 147/401/2
f 147/401/2 150/402/2 156/399/2
f 149/403/4 146/404/4 152/405/4
f 152/405/4 153/406/4 149/403/4
f 153/407/12 152/391/12 151/394/12
f 151/394/12 156/408/12 153/407/12
f 154/398/3 157/409/3 158/410/3
f 158/410/3 155/395/3 154/398/3
f 154/398/33 153/397/33 156/411/33
f 156/411/33 157/409/33 154/398/33
f 158/410/34 150/412/34 149/396/34
f 149/396/34 155/395/34 158/410/34
f 157/409/35 156/411/35 150/412/35
f 150/412/35 158/410/35 157/409/35
f 160/413/1 159/414/1 132/341/1
f 132/341/1 131/344/1 160/413/1
f 160/413/36 133/415/36 140/416/36
f 140/416/36 159/414/36 160/413/36
f 131/344/37 130/343/37 133/415/37
f 133/415/37 160/413/37 131/344/37
f 159/414/38 140/416/38 129/342/38
f 129/342/38 132/341/38 159/414/38
f 164/417/39 161/418/40 162/419/41
f 162/419/41 163/420/42 164/417/39
f 168/421/43 165/422/12 166/423/44
f 166/423/44 167/424/45 168/421/43
f 172/425/46 169/426/47 170/427/48
f 170/427/48 171/428/49 172/425/46
f 176/429/50 173/430/1 174/431/51
f 174/431/51 175/432/52 176/429/50
f 180/433/53 177/434/54 178/435/55
f 178/435/55 179/436/56 180/433/53
f 184/437/57 181/438/58 182/439/59
f 182/439/59 183/440/60 184/437/57
f 188/441/3 185/442/61 186/443/62
f 186/443/62 187/444/63 188/441/3
f 161/418/40 189/445/64 190/446/65
f 190/446/65 162/419/41 161/418/40
f 165/422/12 164/417/39 163/420/42
f 163/420/42 166/423/44 165/422/12
f 169/426/47 168/421/43 167/424/45
f 167/424/45 170/427/48 169/426/47
f 173/430/1 172/447/46 171/448/49
f 171/448/49 174/431/51 173/430/1
f 192/449/66 180/433/53 179/436/56
f 179/436/56 191/450/67 192/449/66
f 181/438/58 176/451/50 175/452/52
f 175/452/52 182/439/59 181/438/58
f 185/453/61 192/449/66 191/450/67
f 191/450/67 186/454/62 185/453/61
f 177/434/54 184/437/57 183/440/60
f 183/440/60 178/435/55 177/434/54
f 189/455/64 188/441/3 187/444/63
f 187/444/63 190/456/65 189/455/64
f 187/457/63 186/458/62 193/459/68
f 193/459/68 194/460/69 187/457/63
f 183/440/60 182/439/59 195/461/70
f 195/461/70 196/462/71 183/440/60
f 179/436/56 178/435/55 197/463/72
f 197/463/72 198/464/73 179/436/56
f 175/465/52 174/466/51 199/467/74
f 199/467/74 200/468/75 175/465/52
f 171/428/49 170/427/48 201/469/76
f 201/469/76 202/470/77 171/428/49
f 167/424/45 166/423/44 203/471/78
f 203/471/78 204/472/79 167/424/45
f 163/420/42 162/419/41 205/473/80
f 205/473/80 206/474/81 163/420/42
f 190/475/65 187/457/63 194/460/69
f 194/460/69 207/476/82 190/475/65
f 178/435/55 183/440/60 196/462/71
f 196/462/71 197/463/72 178/435/55
f 186/454/62 191/450/67 208/477/83
f 208/477/83 193/478/68 186/454/62
f 182/439/59 175/452/52 200/479/75
f 200/479/75 195/461/70 182/439/59
f 191/450/67 179/436/56 198/464/73
f 198/464/73 208/477/83 191/450/67
f 174/466/51 171/480/49 202/481/77
f 202/481/77 199/467/74 174/466/51
f 170/427/48 167/424/45 204/472/79
f 204/472/79 201/469/76 170/427/48
f 166/423/44 163/420/42 206/474/81
f 206/474/81 203/471/78 166/423/44
f 162/419/41 190/446/65 207/482/82
f 207/482/82 205/473/80 162/419/41
f 207/476/82 194/460/69 209/483/84
f 209/483/84 210/484/85 207/476/82
f 197/463/72 196/462/71 211/485/86
f 211/485/86 212/486/87 197/463/72
f 193/459/68 208/487/83 213/488/88
f 213/488/88 214/489/89 193/459/68
f 195/490/70 200/468/75 215/491/90
f 215/491/90 216/492/91 195/490/70
f 208/477/83 198/464/73 217/493/92
f 217/493/92 213/494/88 208/477/83
f 199/467/74 202/481/77 218/495/93
f 218/495/93 219/496/94 199/467/74
f 201/469/76 204/472/79 220/497/95
f 220/497/95 221/498/96 201/469/76
f 203/471/78 206/474/81 222/499/97
f 222/499/97 223/500/98 203/471/78
f 205/501/80 207/476/82 210/484/85
f 210/484/85 224/502/99 205/501/80
f 194/460/69 193/459/68 214/489/89
f 214/489/89 209/483/84 194/460/69
f 196/462/71 195/461/70 216/503/91
f 216/503/91 211/485/86 196/462/71
f 198/464/73 197/463/72 212/486/87
f 212/486/87 217/493/92 198/464/73
f 200/468/75 199/467/74 219/496/94
f 219/496/94 215/491/90 200/468/75
f 202/481/77 201/504/76 221/505/96
f 221/505/96 218/495/93 202/481/77
f 204/472/79 203/471/78 223/500/98
f 223/500/98 220/497/95 204/472/79
f 206/474/81 205/473/80 224/506/99
f 224/506/99 222/499/97 206/474/81
f 224/502/99 210/484/85 225/507/100
f 225/507/100 226/508/101 224/502/99
f 209/483/84 214/489/89 227/509/102
f 227/509/102 228/510/4 209/483/84
f 211/485/86 216/503/91 229/511/103
f 229/511/103 230/512/104 211/485/86
f 217/493/92 212/486/87 231/513/8
f 231/513/8 232/514/105 217/493/92
f 215/491/90 219/496/94 233/515/2
f 233/515/2 234/516/106 215/491/90
f 218/495/93 221/505/96 235/517/107
f 235/517/107 236/518/108 218/495/93
f 220/497/95 223/500/98 237/519/12
f 237/519/12 238/520/109 220/497/95
f 222/499/97 224/506/99 226/521/101
f 226/521/101 239/522/110 222/499/97
f 210/484/85 209/483/84 228/510/4
f 228/510/4 225/507/100 210/484/85
f 212/486/87 211/485/86 230/512/104
f 230/512/104 231/513/8 212/486/87
f 214/489/89 213/488/88 240/523/111
f 240/523/111 227/509/102 214/489/89
f 216/492/91 215/491/90 234/516/106
f 234/516/106 229/524/103 216/492/91
f 213/494/88 217/493/92 232/514/105
f 232/514/105 240/525/111 213/494/88
f 219/496/94 218/495/93 236/518/108
f 236/518/108 233/515/2 219/496/94
f 221/498/96 220/497/95 238/520/109
f 238/520/109 235/526/107 221/498/96
f 223/500/98 222/499/97 239/522/110
f 239/522/110 237/519/12 223/500/98
f 242/527/112 161/418/40 164/417/39
f 164/417/39 241/528/113 242/527/112
f 244/529/114 165/422/12 168/421/43
f 168/421/43 243/530/115 244/529/114
f 246/531/116 169/426/47 172/425/46
f 172/425/46 245/532/117 246/531/116
f 248/533/118 173/430/1 176/429/50
f 176/429/50 247/534/119 248/533/118
f 250/535/120 177/434/54 180/433/53
f 180/433/53 249/536/121 250/535/120
f 252/537/122 181/438/58 184/437/57
f 184/437/57 251/538/123 252/537/122
f 254/539/124 185/442/61 188/441/3
f 188/441/3 253/540/125 254/539/124
f 255/541/126 189/445/64 161/418/40
f 161/418/40 242/527/112 255/541/126
f 241/528/113 164/417/39 165/422/12
f 165/422/12 244/529/114 241/528/113
f 243/530/115 168/421/43 169/426/47
f 169/426/47 246/531/116 243/530/115
f 245/542/117 172/447/46 173/430/1
f 173/430/1 248/533/118 245/542/117
f 249/536/121 180/433/53 192/449/66
f 192/449/66 256/543/127 249/536/121
f 247/544/119 176/451/50 181/438/58
f 181/438/58 252/537/122 247/544/119
f 256/543/127 192/449/66 185/453/61
f 185/453/61 254/545/124 256/543/127
f 251/538/123 184/437/57 177/434/54
f 177/434/54 250/535/120 251/538/123
f 253/540/125 188/441/3 189/455/64
f 189/455/64 255/546/126 253/540/125
f 258/547/128 254/548/124 253/549/125
f 253/549/125 257/550/129 258/547/128
f 260/551/130 252/537/122 251/538/123
f 251/538/123 259/552/131 260/551/130
f 262/553/132 250/535/120 249/536/121
f 249/536/121 261/554/133 262/553/132
f 264/555/134 248/556/118 247/557/119
f 247/557/119 263/558/135 264/555/134
f 266/559/136 246/531/116 245/532/117
f 245/532/117 265/560/137 266/559/136
f 268/561/138 244/529/114 243/530/115
f 243/530/115 267/562/139 268/561/138
f 270/563/140 242/527/112 241/528/113
f 241/528/113 269/564/141 270/563/140
f 257/550/129 253/549/125 255/565/126
f 255/565/126 271/566/142 257/550/129
f 259/552/131 251/538/123 250/535/120
f 250/535/120 262/553/132 259/552/131
f 272/567/143 256/543/127 254/545/124
f 254/545/124 258/568/128 272/567/143
f 263/569/135 247/544/119 252/537/122
f 252/537/122 260/551/130 263/569/135
f 261/554/133 249/536/121 256/543/127
f 256/543/127 272/567/143 261/554/133
f 265/570/137 245/571/117 248/556/118
f 248/556/118 264/555/134 265/570/137
f 267/562/139 243/530/115 246/531/116
f 246/531/116 266/559/136 267/562/139
f 269/564/141 241/528/113 244/529/114
f 244/529/114 268/561/138 269/564/141
f 271/572/142 255/541/126 242/527/112
f 242/527/112 270/563/140 271/572/142
f 274/573/144 257/550/129 271/566/142
f 271/566/142 273/574/145 274/573/144
f 276/575/146 259/552/131 262/553/132
f 262/553/132 275/576/147 276/575/146
f 278/577/148 272/578/143 258/547/128
f 258/547/128 277/579/149 278/577/148
f 280/580/150 263/558/135 260/581/130
f 260/581/130 279/582/151 280/580/150
f 281/583/152 261/554/133 272/567/143
f 272/567/143 278/584/148 281/583/152
f 283/585/153 265/570/137 264/555/134
f 264/555/134 282/586/154 283/585/153
f 285/587/155 267/562/139 266/559/136
f 266/559/136 284/588/156 285/587/155
f 287/589/157 269/564/141 268/561/138
f 268/561/138 286/590/158 287/589/157
f 273/574/145 271/566/142 270/591/140
f 270/591/140 288/592/159 273/574/145
f 277/579/149 258/547/128 257/550/129
f 257/550/129 274/573/144 277/579/149
f 279/593/151 260/551/130 259/552/131
f 259/552/131 276/575/146 279/593/151
f 275/576/147 262/553/132 261/554/133
f 261/554/133 281/583/152 275/576/147
f 282/586/154 264/555/134 263/558/135
f 263/558/135 280/580/150 282/586/154
f 284/594/156 266/595/136 265/570/137
f 265/570/137 283/585/153 284/594/156
f 286/590/158 268/561/138 267/562/139
f 267/562/139 285/587/155 286/590/158
f 288/596/159 270/563/140 269/564/141
f 269/564/141 287/589/157 288/596/159
f 290/597/108 273/574/145 288/592/159
f 288/592/159 289/598/107 290/597/108
f 292/599/106 277/579/149 274/573/144
f 274/573/144 291/600/2 292/599/106
f 294/601/111 279/593/151 276/575/146
f 276/575/146 293/602/105 294/601/111
f 296/603/8 275/576/147 281/583/152
f 281/583/152 295/604/104 296/603/8
f 298/605/4 282/586/154 280/580/150
f 280/580/150 297/606/102 298/605/4
f 300/607/101 284/594/156 283/585/153
f 283/585/153 299/608/100 300/607/101
f 302/609/12 286/590/158 285/587/155
f 285/587/155 301/610/110 302/609/12
f 289/611/107 288/596/159 287/589/157
f 287/589/157 303/612/109 289/611/107
f 291/600/2 274/573/144 273/574/145
f 273/574/145 290/597/108 291/600/2
f 293/602/105 276/575/146 275/576/147
f 275/576/147 296/603/8 293/602/105
f 304/613/103 278/577/148 277/579/149
f 277/579/149 292/599/106 304/613/103
f 297/606/102 280/580/150 279/582/151
f 279/582/151 294/614/111 297/606/102
f 295/604/104 281/583/152 278/584/148
f 278/584/148 304/615/103 295/604/104
f 299/608/100 283/585/153 282/586/154
f 282/586/154 298/605/4 299/608/100
f 301/610/110 285/587/155 284/588/156
f 284/588/156 300/616/101 301/610/110
f 303/612/109 287/589/157 286/590/158
f 286/590/158 302/609/12 303/612/109
