# Blender v2.92.0 OBJ File: ''
# www.blender.org
mtllib exitsign.mtl
o Sign_LP_Mesh
v 5.256534 3.150369 -6.328727
v 5.253605 3.143299 -6.328727
v 5.263604 3.153298 -6.328727
v 5.253605 3.143299 -6.528728
v 5.256534 3.150369 -6.528728
v 5.263604 3.153298 -6.528728
v 5.724566 3.150369 -6.328727
v 5.717496 3.153298 -6.328727
v 5.727495 3.143299 -6.328727
v 5.717496 3.153298 -6.528728
v 5.724566 3.150369 -6.528728
v 5.727495 3.143299 -6.528728
v 5.256534 2.956227 -6.328727
v 5.263604 2.953298 -6.328727
v 5.253605 2.963297 -6.328727
v 5.263604 2.953298 -6.528728
v 5.256534 2.956227 -6.528728
v 5.253605 2.963297 -6.528728
v 5.724566 2.956227 -6.328727
v 5.727495 2.963297 -6.328727
v 5.717496 2.953298 -6.328727
v 5.727495 2.963297 -6.528728
v 5.724566 2.956227 -6.528728
v 5.717496 2.953298 -6.528728
v 5.279147 3.135910 -6.328727
v 5.701953 3.135910 -6.328727
v 5.279147 2.970685 -6.328727
v 5.701953 2.970685 -6.328727
v 5.269833 2.978946 -6.328727
v 5.269833 3.127650 -6.328727
v 5.711267 2.978946 -6.328727
v 5.711267 3.127650 -6.328727
v 5.272561 3.133491 -6.328727
v 5.708539 3.133491 -6.328727
v 5.272561 2.973105 -6.328727
v 5.708539 2.973105 -6.328727
v 5.279147 3.135910 -6.348727
v 5.701953 3.135910 -6.348727
v 5.279147 2.970685 -6.348727
v 5.701953 2.970685 -6.348727
v 5.269833 2.978946 -6.348727
v 5.269833 3.127650 -6.348727
v 5.711267 2.978946 -6.348727
v 5.711267 3.127650 -6.348727
v 5.272561 3.133491 -6.348727
v 5.708539 3.133491 -6.348727
v 5.272561 2.973105 -6.348727
v 5.708539 2.973105 -6.348727
vt 0.150094 0.980542
vt 0.002976 0.980549
vt 0.002960 0.646668
vt 0.150079 0.646662
vt 0.002937 0.157862
vt 0.150056 0.157855
vt 0.150071 0.491736
vt 0.002953 0.491743
vt 0.002953 0.503001
vt 0.150072 0.502995
vt 0.150078 0.635403
vt 0.002959 0.635410
vt 0.150055 0.146597
vt 0.002936 0.146604
vt 0.002930 0.014195
vt 0.150049 0.014188
vt 0.002930 0.008566
vt 0.150049 0.008559
vt 0.002930 0.002937
vt 0.150048 0.002930
vt 0.002960 0.641039
vt 0.150078 0.641032
vt 0.002937 0.152233
vt 0.150055 0.152226
vt 0.002953 0.497372
vt 0.150072 0.497365
vt 0.959652 0.923054
vt 0.187965 0.923176
vt 0.214386 0.893610
vt 0.933221 0.893496
vt 0.187911 0.583145
vt 0.959598 0.583023
vt 0.933177 0.612589
vt 0.214342 0.612702
vt 0.170963 0.906178
vt 0.170914 0.600147
vt 0.198509 0.626749
vt 0.198548 0.879568
vt 0.976600 0.600020
vt 0.976649 0.906051
vt 0.949054 0.879449
vt 0.949014 0.626630
vt 0.175943 0.918198
vt 0.203187 0.889498
vt 0.971672 0.918073
vt 0.944419 0.889381
vt 0.175891 0.588126
vt 0.203144 0.616818
vt 0.971620 0.588000
vt 0.944375 0.616700
vt 0.669025 0.982300
vt 0.980038 0.982358
vt 0.980035 0.997070
vt 0.669022 0.997012
vt 0.228819 0.982217
vt 0.539832 0.982276
vt 0.539830 0.996988
vt 0.228816 0.996929
vt 0.109530 0.982195
vt 0.218916 0.982215
vt 0.218913 0.996927
vt 0.109527 0.996907
vt 0.549736 0.982278
vt 0.659121 0.982298
vt 0.659119 0.997010
vt 0.549733 0.996989
vt 0.104788 0.982194
vt 0.104785 0.996906
vt 0.099627 0.982193
vt 0.099624 0.996905
vt 0.663863 0.982299
vt 0.663861 0.997011
vt 0.223658 0.982216
vt 0.223655 0.996928
vt 0.544994 0.982277
vt 0.544991 0.996988
vt 0.966545 0.515984
vt 0.966524 0.227373
vt 0.971433 0.237884
vt 0.971453 0.505472
vt 0.954693 0.520338
vt 0.193864 0.520394
vt 0.193842 0.223076
vt 0.954672 0.223020
vt 0.182012 0.516041
vt 0.181991 0.227431
vt 0.177103 0.505531
vt 0.177083 0.237942
vn -0.0063 1.0000 0.0001
vn -0.0063 1.0000 0.0000
vn 0.0063 1.0000 -0.0001
vn 0.0063 1.0000 0.0000
vn -0.0063 -1.0000 0.0000
vn 0.0063 -1.0000 0.0001
vn 0.0063 -1.0000 0.0000
vn 0.9999 -0.0157 0.0000
vn 0.9999 0.0157 -0.0000
vn -0.9999 -0.0157 0.0001
vn -0.9999 -0.0157 0.0000
vn -0.9999 0.0157 -0.0001
vn -0.9999 0.0157 0.0000
vn -0.9239 0.3827 0.0000
vn -0.3827 0.9239 0.0000
vn 0.3827 0.9239 0.0000
vn 0.9239 0.3827 0.0000
vn -0.3827 -0.9239 0.0000
vn -0.9239 -0.3827 0.0000
vn 0.9239 -0.3827 0.0000
vn 0.3827 -0.9239 0.0000
vn 0.0000 0.0000 1.0000
vn -0.0056 -1.0000 0.0000
vn 0.0057 -1.0000 0.0000
vn 0.0056 1.0000 0.0000
vn -0.0056 1.0000 0.0000
vn -0.0056 1.0000 0.0001
vn 0.9998 -0.0177 0.0000
vn 0.9998 0.0177 0.0000
vn -0.9998 0.0176 0.0000
vn -0.9998 -0.0176 0.0000
vn -0.9998 -0.0176 0.0001
vn 0.9061 -0.4232 0.0000
vn 0.3448 -0.9387 0.0000
vn -0.3448 -0.9387 0.0000
vn -0.9061 -0.4231 0.0000
vn 0.3448 0.9387 0.0000
vn 0.9061 0.4232 0.0000
vn -0.9061 0.4231 0.0000
vn -0.3448 0.9387 0.0000
vn 0.0001 0.0000 1.0000
vn -0.0001 0.0000 1.0000
usemtl lambert1
s 1
f 6/1/1 3/2/2 8/3/3 10/4/4
f 14/5/5 16/6/5 24/7/6 21/8/7
f 20/9/8 22/10/8 12/11/9 9/12/9
f 18/13/10 15/14/11 2/15/12 4/16/13
f 2/15/12 1/17/14 5/18/14 4/16/13
f 1/17/15 3/19/2 6/20/1 5/18/15
f 8/3/3 7/21/16 11/22/16 10/4/4
f 7/21/17 9/12/9 12/11/9 11/22/17
f 14/5/5 13/23/18 17/24/18 16/6/5
f 13/23/19 15/14/11 18/13/10 17/24/19
f 20/9/8 19/25/20 23/26/20 22/10/8
f 19/25/21 21/8/7 24/7/6 23/26/21
f 8/27/22 3/28/22 25/29/22 26/30/22
f 14/31/22 21/32/22 28/33/22 27/34/22
f 2/35/22 15/36/22 29/37/22 30/38/22
f 20/39/22 9/40/22 32/41/22 31/42/22
f 1/43/22 2/35/22 30/38/22 33/44/22
f 3/28/22 1/43/22 33/44/22 25/29/22
f 7/45/22 8/27/22 26/30/22 34/46/22
f 9/40/22 7/45/22 34/46/22 32/41/22
f 13/47/22 14/31/22 27/34/22 35/48/22
f 15/36/22 13/47/22 35/48/22 29/37/22
f 19/49/22 20/39/22 31/42/22 36/50/22
f 21/32/22 19/49/22 36/50/22 28/33/22
f 26/51/23 25/52/24 37/53/24 38/54/23
f 27/55/25 28/56/26 40/57/27 39/58/25
f 30/59/28 29/60/29 41/61/29 42/62/28
f 31/63/30 32/64/31 44/65/32 43/66/30
f 33/67/33 30/59/28 42/62/28 45/68/33
f 25/69/24 33/67/34 45/68/34 37/70/24
f 34/71/35 26/51/23 38/54/23 46/72/35
f 32/64/31 34/71/36 46/72/36 44/65/32
f 35/73/37 27/55/25 39/58/25 47/74/37
f 29/60/29 35/73/38 47/74/38 41/61/29
f 36/75/39 31/63/30 43/66/30 48/76/39
f 28/56/26 36/75/40 48/76/40 40/57/27
f 46/77/22 48/78/22 43/79/41 44/80/41
f 38/81/22 37/82/22 39/83/22 40/84/22
f 38/81/22 40/84/22 48/78/22 46/77/22
f 39/83/22 37/82/22 45/85/22 47/86/22
f 47/86/22 45/85/22 42/87/42 41/88/42
