# Blender v2.92.0 OBJ File: ''
# www.blender.org
mtllib meatldoor.mtl
o Handle_Low_meshId0_name
v 37.017258 122.254234 -3.293204
v 37.994011 122.579819 -3.293204
v 37.994011 122.579819 -5.524843
v 37.017258 122.254234 -5.524843
v 38.970764 122.254234 -3.293204
v 38.970764 122.254234 -5.524843
v 38.970764 122.254234 -7.442447
v 37.994011 122.579819 -7.442447
v 35.810658 122.341003 -7.436576
v 35.315071 122.206673 -9.277774
v 37.994011 122.254234 -9.463588
v 37.994011 121.277473 -9.707461
v 35.315079 121.277473 -9.521646
v 38.717525 122.000999 -9.273913
v 38.970764 121.277473 -9.463588
v 38.717525 120.553955 -9.273913
v 37.994011 120.300713 -9.463588
v 35.315071 120.348282 -9.277774
v 35.810658 120.213951 -7.436576
v 37.994011 119.975136 -7.442448
v 37.994011 119.975136 -5.524843
v 37.017258 120.300713 -5.524843
v 38.970764 120.300713 -7.442448
v 38.970764 120.300713 -5.524843
v 38.970764 120.300713 -3.293205
v 37.994011 119.975136 -3.293205
v 37.017258 120.300713 -3.293205
v 39.296345 121.277473 -5.524843
v 39.296345 121.277473 -3.293204
v 39.296345 121.277473 -7.442448
v 36.691673 121.277473 -5.524843
v 34.989487 121.277473 -7.012759
v 36.691673 121.277473 -3.293204
v 36.691673 121.277473 -5.524843
v 36.691673 121.277473 -3.293204
v 34.989487 121.277473 -7.012759
v 37.994011 122.579819 -8.731975
v 35.315079 122.516411 -8.546161
v 38.970764 122.254234 -8.731975
v 23.074221 120.681175 -7.977072
v 23.074221 120.482414 -7.245455
v 23.074221 121.277473 -7.245455
v 23.074221 121.277473 -8.220942
v 23.074221 120.681175 -6.513837
v 23.074221 121.277473 -6.269964
v 23.074221 121.873779 -6.513837
v 23.074221 122.072533 -7.245455
v 23.074221 121.873779 -7.977072
v 37.994011 119.975136 -8.731976
v 35.315079 120.038536 -8.546161
v 38.970764 120.300713 -8.731975
v 39.296345 121.277473 -8.731975
v 29.882936 120.228775 -7.988716
v 29.882936 120.490952 -8.720332
v 29.882936 120.490952 -7.257094
v 23.074221 120.681175 -6.513837
v 23.074221 120.482414 -7.245455
v 29.882936 121.277473 -7.013226
v 29.882936 122.064003 -7.257094
v 29.882936 121.277473 -7.013226
v 23.074221 121.873779 -6.513837
v 23.074221 121.277473 -6.269964
v 23.074221 121.277473 -6.269964
v 29.882936 122.326180 -7.988715
v 29.882936 122.064003 -8.720332
v 23.074221 122.072533 -7.245455
v 29.882936 121.277473 -8.964206
vt 0.055901 0.525982
vt 0.054737 0.520524
vt 0.057427 0.519460
vt 0.058373 0.524515
vt 0.060433 0.518554
vt 0.060971 0.523459
vt 0.059511 0.527985
vt 0.061548 0.526794
vt 0.056983 0.532498
vt 0.063847 0.534949
vt 0.061499 0.534736
vt 0.062042 0.530527
vt 0.063836 0.530723
vt 0.062575 0.529420
vt 0.063865 0.529308
vt 0.065619 0.530531
vt 0.065144 0.529422
vt 0.066196 0.534721
vt 0.071729 0.525842
vt 0.070711 0.532438
vt 0.068187 0.527912
vt 0.069277 0.524400
vt 0.066187 0.526602
vt 0.066595 0.523439
vt 0.070003 0.519309
vt 0.066913 0.518648
vt 0.072810 0.520273
vt 0.063692 0.518315
vt 0.063779 0.523089
vt 0.063832 0.526250
vt 0.073257 0.534380
vt 0.074096 0.526989
vt 0.075261 0.521172
vt 0.053571 0.527159
vt 0.052263 0.521449
vt 0.054436 0.534430
vt 0.059611 0.534397
vt 0.060698 0.529812
vt 0.062154 0.528531
vt 0.063818 0.563182
vt 0.065328 0.563436
vt 0.065752 0.565240
vt 0.063815 0.565290
vt 0.065260 0.567020
vt 0.063812 0.567612
vt 0.061878 0.565234
vt 0.062365 0.567016
vt 0.062307 0.563432
vt 0.068083 0.534364
vt 0.066931 0.529824
vt 0.065626 0.528538
vt 0.063899 0.528108
vt 0.065907 0.547086
vt 0.067819 0.547235
vt 0.069720 0.547422
vt 0.067144 0.563668
vt 0.068946 0.563937
vt 0.071690 0.547591
vt 0.055990 0.547581
vt 0.057962 0.547418
vt 0.057150 0.564081
vt 0.058688 0.563924
vt 0.070483 0.564100
vt 0.059864 0.547233
vt 0.061776 0.547085
vt 0.060491 0.563659
vt 0.063842 0.547063
vn -0.6464 0.7329 0.2121
vn -0.7071 0.7071 0.0000
vn 0.0000 1.0000 0.0000
vn 0.0292 0.9991 0.0291
vn 0.7071 0.7071 0.0000
vn 0.1222 0.9924 0.0131
vn -0.2343 0.8823 0.4083
vn -0.0878 0.0003 -0.9961
vn -0.0821 0.6514 -0.7543
vn 0.1408 0.6312 -0.7627
vn 0.0956 0.0098 -0.9954
vn 0.5379 0.4798 -0.6932
vn 0.6563 0.0302 -0.7539
vn 0.1467 -0.6484 -0.7470
vn 0.4998 -0.5570 -0.6632
vn -0.0763 -0.6516 -0.7547
vn -0.5845 -0.7910 0.1807
vn -0.1999 -0.9165 0.3465
vn 0.0899 -0.9957 0.0201
vn 0.0000 -1.0000 0.0000
vn 0.7071 -0.7071 0.0000
vn -0.7071 -0.7071 0.0000
vn 1.0000 0.0000 0.0000
vn -0.2596 -0.4661 0.8458
vn -0.8566 -0.2855 0.4298
vn -0.9487 -0.3162 0.0000
vn -0.8709 0.3777 0.3143
vn -0.9487 0.3162 0.0000
vn -0.2040 0.4943 0.8450
vn -0.0592 0.9909 -0.1206
vn 0.1365 0.9691 -0.2054
vn 0.6933 0.6750 -0.2522
vn -0.6732 0.0026 -0.7394
vn -0.6557 -0.5733 -0.4912
vn -1.0000 0.0000 0.0000
vn -0.6521 0.5754 -0.4935
vn -0.0368 -0.9921 -0.1202
vn 0.1350 -0.9690 -0.2067
vn 0.6750 -0.6933 -0.2522
vn 0.9769 0.0131 -0.2130
vn -0.0948 -0.6887 -0.7188
vn -0.0432 -0.9991 -0.0046
vn 0.0173 -0.6986 0.7153
vn -0.0303 -0.9993 0.0211
vn 0.0601 -0.7272 0.6838
vn 0.0484 -0.2983 0.9532
vn 0.0590 0.3001 0.9521
vn 0.0338 0.7006 0.7128
vn 0.0912 0.3707 0.9243
vn 0.0500 0.7279 0.6839
vn 0.1005 -0.3766 0.9209
vn -0.0326 0.9995 -0.0029
vn -0.0949 0.6889 -0.7186
vn -0.0315 0.9994 0.0154
vn -0.1090 0.0025 -0.9940
usemtl lambert1.001
s 1
f 4/1/1 1/2/2 2/3/3
f 2/3/3 3/4/4 4/1/1
f 3/4/4 2/3/3 5/5/5
f 5/5/5 6/6/5 3/4/4
f 8/7/6 3/4/4 6/6/5
f 6/6/5 7/8/5 8/7/6
f 9/9/7 4/1/1 3/4/4
f 3/4/4 8/7/6 9/9/7
f 13/10/8 10/11/9 11/12/10
f 11/12/10 12/13/11 13/10/8
f 12/13/11 11/12/10 14/14/12
f 14/14/12 15/15/13 12/13/11
f 17/16/14 12/13/11 15/15/13
f 15/15/13 16/17/15 17/16/14
f 18/18/16 13/10/8 12/13/11
f 12/13/11 17/16/14 18/18/16
f 22/19/17 19/20/18 20/21/19
f 20/21/19 21/22/20 22/19/17
f 21/22/20 20/21/19 23/23/21
f 23/23/21 24/24/21 21/22/20
f 26/25/20 21/22/20 24/24/21
f 24/24/21 25/26/21 26/25/20
f 27/27/22 22/19/17 21/22/20
f 21/22/20 26/25/20 27/27/22
f 29/28/23 25/26/21 24/24/21
f 24/24/21 28/29/23 29/28/23
f 28/29/23 24/24/21 23/23/21
f 23/23/21 30/30/23 28/29/23
f 6/6/5 28/29/23 30/30/23
f 30/30/23 7/8/5 6/6/5
f 5/5/5 29/28/23 28/29/23
f 28/29/23 6/6/5 5/5/5
f 32/31/24 19/20/18 22/19/17
f 22/19/17 31/32/25 32/31/24
f 31/32/25 22/19/17 27/27/22
f 27/27/22 33/33/26 31/32/25
f 4/1/1 34/34/27 35/35/28
f 35/35/28 1/2/2 4/1/1
f 9/9/7 36/36/29 34/34/27
f 34/34/27 4/1/1 9/9/7
f 38/37/30 9/9/7 8/7/6
f 8/7/6 37/38/31 38/37/30
f 37/38/31 8/7/6 7/8/5
f 7/8/5 39/39/32 37/38/31
f 11/12/10 37/38/31 39/39/32
f 39/39/32 14/14/12 11/12/10
f 10/11/9 38/37/30 37/38/31
f 37/38/31 11/12/10 10/11/9
f 43/40/33 40/41/34 41/42/35
f 41/42/35 42/43/35 43/40/33
f 42/43/35 41/42/35 44/44/35
f 44/44/35 45/45/35 42/43/35
f 47/46/35 42/43/35 45/45/35
f 45/45/35 46/47/35 47/46/35
f 48/48/36 43/40/33 42/43/35
f 42/43/35 47/46/35 48/48/36
f 50/49/37 18/18/16 17/16/14
f 17/16/14 49/50/38 50/49/37
f 49/50/38 17/16/14 16/17/15
f 16/17/15 51/51/39 49/50/38
f 20/21/19 49/50/38 51/51/39
f 51/51/39 23/23/21 20/21/19
f 19/20/18 50/49/37 49/50/38
f 49/50/38 20/21/19 19/20/18
f 39/39/32 7/8/5 30/30/23
f 30/30/23 52/52/40 39/39/32
f 52/52/40 30/30/23 23/23/21
f 23/23/21 51/51/39 52/52/40
f 15/15/13 52/52/40 51/51/39
f 51/51/39 16/17/15 15/15/13
f 14/14/12 39/39/32 52/52/40
f 52/52/40 15/15/13 14/14/12
f 54/53/41 18/18/16 50/49/37
f 50/49/37 53/54/42 54/53/41
f 53/54/42 50/49/37 19/20/18
f 19/20/18 55/55/43 53/54/42
f 57/56/44 53/54/42 55/55/43
f 55/55/43 56/57/45 57/56/44
f 40/41/34 54/53/41 53/54/42
f 53/54/42 57/56/44 40/41/34
f 55/55/43 19/20/18 32/31/24
f 32/31/24 58/58/46 55/55/43
f 60/59/47 36/36/29 9/9/7
f 9/9/7 59/60/48 60/59/47
f 62/61/49 60/59/47 59/60/48
f 59/60/48 61/62/50 62/61/49
f 56/57/45 55/55/43 58/58/46
f 58/58/46 63/63/51 56/57/45
f 59/60/48 9/9/7 38/37/30
f 38/37/30 64/64/52 59/60/48
f 64/64/52 38/37/30 10/11/9
f 10/11/9 65/65/53 64/64/52
f 66/66/54 64/64/52 65/65/53
f 65/65/53 48/48/36 66/66/54
f 61/62/50 59/60/48 64/64/52
f 64/64/52 66/66/54 61/62/50
f 65/65/53 10/11/9 13/10/8
f 13/10/8 67/67/55 65/65/53
f 67/67/55 13/10/8 18/18/16
f 18/18/16 54/53/41 67/67/55
f 43/40/33 67/67/55 54/53/41
f 54/53/41 40/41/34 43/40/33
f 48/48/36 65/65/53 67/67/55
f 67/67/55 43/40/33 48/48/36
o HandleBase_Low_meshId1_name
v 34.115417 127.967834 -3.175117
v 34.201580 127.967834 -3.258615
v 34.201580 108.339424 -3.258618
v 34.115417 108.339424 -3.175120
v 34.201580 127.967834 -3.258615
v 34.409615 127.967834 -3.293203
v 34.409615 108.339424 -3.293206
v 34.201580 108.339424 -3.258618
v 34.409615 128.221893 -3.175117
v 34.201580 128.147522 -3.175117
v 34.201580 128.147522 -2.555105
v 34.409615 128.221893 -2.555105
v 34.201580 128.147522 -3.175117
v 34.115417 127.967834 -2.555105
v 34.201580 128.147522 -2.555105
v 41.578411 127.967834 -3.293203
v 34.409615 128.147522 -3.258615
v 41.578411 128.147522 -3.258615
v 34.409615 128.147522 -3.258615
v 41.578411 128.221893 -3.175117
v 41.578411 128.147522 -3.258615
v 41.786438 127.967834 -3.258615
v 41.786438 108.339424 -3.258618
v 41.578411 108.339424 -3.293206
v 41.786438 127.967834 -3.258615
v 41.872612 127.967834 -3.175117
v 41.872612 108.339424 -3.175120
v 41.786438 108.339424 -3.258618
v 41.786438 128.147522 -3.175117
v 41.786438 128.147522 -2.555105
v 41.872612 127.967834 -2.555105
v 41.786438 128.147522 -3.175117
v 41.578411 128.221893 -2.555105
v 41.786438 128.147522 -2.555105
v 34.201580 108.159798 -3.175120
v 34.201580 108.159798 -2.555108
v 34.115417 108.339424 -2.555108
v 34.201580 108.159798 -3.175120
v 34.409615 108.085365 -3.175120
v 34.409615 108.085365 -2.555108
v 34.201580 108.159798 -2.555108
v 41.578411 108.085365 -3.175120
v 34.409615 108.159798 -3.258618
v 41.578411 108.159798 -3.258618
v 34.409615 108.159798 -3.258618
v 41.578411 108.159798 -3.258618
v 41.786438 108.159798 -3.175120
v 41.786438 108.159798 -2.555108
v 41.578411 108.085365 -2.555108
v 41.786438 108.159798 -3.175120
v 41.872612 108.339424 -2.555108
v 41.786438 108.159798 -2.555108
v 34.239815 128.114502 -3.243269
v 34.239815 128.114502 -3.243269
v 34.239815 128.114502 -3.243269
v 41.748203 128.114502 -3.243269
v 41.748203 128.114502 -3.243269
v 41.748203 128.114502 -3.243269
v 34.239815 108.192802 -3.243272
v 34.239815 108.192802 -3.243272
v 34.239815 108.192802 -3.243272
v 41.748203 108.192802 -3.243272
v 41.748203 108.192802 -3.243272
v 41.748203 108.192802 -3.243272
vt 0.028489 0.566272
vt 0.028489 0.520692
vt 0.028767 0.520680
vt 0.028767 0.566285
vt 0.028767 0.566285
vt 0.028767 0.520680
vt 0.029257 0.520682
vt 0.029257 0.566282
vt 0.029217 0.518555
vt 0.029264 0.519998
vt 0.028759 0.520045
vt 0.028700 0.518590
vt 0.027095 0.520157
vt 0.028553 0.520245
vt 0.027051 0.520629
vt 0.045916 0.520257
vt 0.045914 0.520683
vt 0.029255 0.520257
vt 0.045916 0.520257
vt 0.029255 0.520257
vt 0.045908 0.519998
vt 0.045914 0.566283
vt 0.046404 0.520680
vt 0.046404 0.566286
vt 0.046404 0.566286
vt 0.046404 0.520680
vt 0.046682 0.520693
vt 0.046683 0.566274
vt 0.048123 0.520628
vt 0.046620 0.520242
vt 0.048077 0.520161
vt 0.046474 0.518595
vt 0.046410 0.520047
vt 0.045953 0.518562
vt 0.027048 0.566337
vt 0.028551 0.566722
vt 0.027094 0.566804
vt 0.028697 0.568376
vt 0.028762 0.566918
vt 0.029263 0.566967
vt 0.029218 0.568410
vt 0.045916 0.566708
vt 0.045908 0.566968
vt 0.029255 0.566707
vt 0.045916 0.566708
vt 0.029255 0.566707
vt 0.045955 0.568404
vt 0.046413 0.566920
vt 0.046471 0.568370
vt 0.048076 0.566808
vt 0.046618 0.566720
vt 0.048120 0.566337
vt 0.028855 0.520334
vt 0.028746 0.520314
vt 0.028840 0.520231
vt 0.046427 0.520312
vt 0.046316 0.520334
vt 0.046328 0.520233
vt 0.028843 0.566732
vt 0.028744 0.566653
vt 0.028855 0.566631
vt 0.046426 0.566652
vt 0.046331 0.566734
vt 0.046316 0.566632
vn -0.9130 -0.1909 -0.3604
vn -0.9130 0.1909 -0.3605
vn -0.6900 0.1295 -0.7121
vn -0.6901 -0.1295 -0.7121
vn -0.1636 -0.0666 -0.9843
vn -0.1636 0.0666 -0.9843
vn -0.0766 0.0895 -0.9930
vn -0.0766 -0.0895 -0.9930
vn -0.1708 0.9853 0.0000
vn -0.1480 0.9307 -0.3345
vn -0.3257 0.9110 -0.2528
vn -0.3366 0.9416 0.0000
vn -0.9017 0.4324 0.0000
vn -0.8631 0.4138 -0.2894
vn -0.9751 0.2217 0.0000
vn 0.0588 0.1887 -0.9803
vn 0.0767 0.0895 -0.9930
vn -0.0588 0.1887 -0.9803
vn 0.1030 0.7428 -0.6615
vn -0.1030 0.7427 -0.6616
vn 0.1480 0.9307 -0.3344
vn 0.0766 -0.0895 -0.9930
vn 0.1636 0.0666 -0.9843
vn 0.1636 -0.0666 -0.9843
vn 0.6900 -0.1295 -0.7121
vn 0.6900 0.1295 -0.7121
vn 0.9130 0.1909 -0.3605
vn 0.9130 -0.1910 -0.3605
vn 0.9751 0.2217 0.0000
vn 0.8631 0.4139 -0.2894
vn 0.9017 0.4324 0.0000
vn 0.3366 0.9416 0.0000
vn 0.3257 0.9110 -0.2528
vn 0.1708 0.9853 0.0000
vn -0.9751 -0.2217 0.0000
vn -0.8630 -0.4140 -0.2894
vn -0.9016 -0.4324 0.0000
vn -0.3369 -0.9415 0.0000
vn -0.3259 -0.9109 -0.2528
vn -0.1480 -0.9306 -0.3346
vn -0.1709 -0.9853 0.0000
vn 0.1029 -0.7425 -0.6619
vn 0.1481 -0.9306 -0.3346
vn -0.1029 -0.7425 -0.6619
vn 0.0588 -0.1887 -0.9803
vn -0.0588 -0.1888 -0.9803
vn 0.1709 -0.9853 0.0000
vn 0.3259 -0.9109 -0.2528
vn 0.3369 -0.9415 0.0000
vn 0.9016 -0.4325 0.0000
vn 0.8630 -0.4140 -0.2894
vn 0.9751 -0.2218 0.0000
vn -0.1454 0.1639 -0.9757
vn -0.7163 0.3192 -0.6205
vn -0.2611 0.7767 -0.5732
vn 0.7163 0.3193 -0.6205
vn 0.1454 0.1639 -0.9757
vn 0.2611 0.7767 -0.5732
vn -0.2613 -0.7766 -0.5732
vn -0.7163 -0.3193 -0.6205
vn -0.1453 -0.1639 -0.9757
vn 0.7162 -0.3193 -0.6205
vn 0.2613 -0.7766 -0.5733
vn 0.1454 -0.1639 -0.9757
usemtl lambert1.001
s 1
f 71/68/56 68/69/57 69/70/58
f 69/70/58 70/71/59 71/68/56
f 75/72/60 72/73/61 73/74/62
f 73/74/62 74/75/63 75/72/60
f 79/76/64 76/77/65 77/78/66
f 77/78/66 78/79/67 79/76/64
f 82/80/68 80/81/69 68/69/57
f 68/69/57 81/82/70 82/80/68
f 85/83/71 83/84/72 73/74/62
f 73/74/62 84/85/73 85/83/71
f 88/86/74 86/87/75 76/77/65
f 76/77/65 87/88/76 88/86/74
f 91/89/77 83/84/72 89/90/78
f 89/90/78 90/91/79 91/89/77
f 95/92/80 92/93/81 93/94/82
f 93/94/82 94/95/83 95/92/80
f 98/96/84 93/94/82 96/97/85
f 96/97/85 97/98/86 98/96/84
f 101/99/87 99/100/88 87/88/76
f 87/88/76 100/101/89 101/99/87
f 104/102/90 71/68/56 102/103/91
f 102/103/91 103/104/92 104/102/90
f 108/105/93 105/106/94 106/107/95
f 106/107/95 107/108/96 108/105/93
f 111/109/97 109/110/98 106/107/95
f 106/107/95 110/111/99 111/109/97
f 113/112/100 112/113/101 74/75/63
f 74/75/63 91/89/77 113/112/100
f 116/114/102 109/110/98 114/115/103
f 114/115/103 115/116/104 116/114/102
f 119/117/105 117/118/106 94/95/83
f 94/95/83 118/119/107 119/117/105
f 87/88/76 76/77/65 79/76/64
f 79/76/64 100/101/89 87/88/76
f 91/89/77 74/75/63 73/74/62
f 73/74/62 83/84/72 91/89/77
f 109/110/98 116/114/102 107/108/96
f 107/108/96 106/107/95 109/110/98
f 98/96/84 118/119/107 94/95/83
f 94/95/83 93/94/82 98/96/84
f 68/69/57 71/68/56 104/102/90
f 104/102/90 81/82/70 68/69/57
f 120/120/108 84/85/73 73/74/62
f 73/74/62 72/73/61 120/120/108
f 121/121/109 69/70/58 68/69/57
f 68/69/57 80/81/69 121/121/109
f 122/122/110 77/78/66 76/77/65
f 76/77/65 86/87/75 122/122/110
f 123/123/111 96/97/85 93/94/82
f 93/94/82 92/93/81 123/123/111
f 124/124/112 89/90/78 83/84/72
f 83/84/72 85/83/71 124/124/112
f 125/125/113 88/86/74 87/88/76
f 87/88/76 99/100/88 125/125/113
f 126/126/114 110/111/99 106/107/95
f 106/107/95 105/106/94 126/126/114
f 127/127/115 102/103/91 71/68/56
f 71/68/56 70/71/59 127/127/115
f 128/128/116 75/72/60 74/75/63
f 74/75/63 112/113/101 128/128/116
f 129/129/117 95/92/80 94/95/83
f 94/95/83 117/118/106 129/129/117
f 130/130/118 114/115/103 109/110/98
f 109/110/98 111/109/97 130/130/118
f 131/131/119 113/112/100 91/89/77
f 91/89/77 90/91/79 131/131/119
o Frame_Low_meshId2_name
v -49.388939 217.068970 3.058274
v 49.388939 217.068970 3.058274
v 49.388939 217.068970 -3.058204
v -49.388939 217.068970 -3.058204
v 49.388939 2.680061 3.058239
v 49.388939 2.680062 -3.058239
v 49.388939 217.068970 -3.058204
v 49.388939 217.068970 3.058274
v -49.388939 2.680062 -3.058239
v -49.388939 2.680061 3.058239
v -49.388939 217.068970 3.058274
v -49.388939 217.068970 -3.058204
v -45.000008 212.680008 3.058274
v 45.000008 212.680008 3.058274
v 46.097240 213.777237 3.058274
v -46.097240 213.777237 3.058274
v 45.000008 212.680008 -3.058204
v -45.000008 212.680008 -3.058204
v -46.097240 213.777237 -3.058204
v 46.097240 213.777237 -3.058204
v 45.000008 2.680062 -3.058239
v 46.097240 2.680062 -3.058239
v 45.000008 2.680061 3.058239
v 46.097240 2.680061 3.058239
v -45.000008 2.680061 3.058239
v -46.097240 2.680061 3.058239
v -45.000008 2.680062 -3.058239
v -46.097240 2.680062 -3.058239
v 49.388939 217.068970 4.321118
v 46.097240 213.777237 4.321118
v 46.097240 2.680060 4.321084
v 49.388939 2.680060 4.321084
v -49.388939 217.068970 4.321118
v -46.097240 213.777237 4.321118
v -49.388939 2.680060 4.321084
v -46.097240 2.680060 4.321084
v -49.388939 217.068970 -4.321048
v -46.097240 213.777237 -4.321048
v -46.097240 2.680062 -4.321083
v -49.388939 2.680062 -4.321083
v 49.388939 217.068970 -4.321048
v 46.097240 213.777237 -4.321048
v 49.388939 2.680062 -4.321083
v 46.097240 2.680062 -4.321083
v 45.000008 2.680061 3.058239
v 45.000008 212.680008 3.058274
v 45.000008 212.680008 -3.058204
v 45.000008 2.680062 -3.058239
v 45.000008 212.680008 3.058274
v -45.000008 212.680008 3.058274
v -45.000008 212.680008 -3.058204
v 45.000008 212.680008 -3.058204
v 46.097240 213.777237 3.058274
v 46.097240 2.680061 3.058239
v 46.097240 2.680060 4.321084
v 46.097240 213.777237 4.321118
v 49.388939 217.068970 4.321118
v 49.388939 2.680060 4.321084
v -46.097240 213.777237 3.058274
v 46.097240 213.777237 3.058274
v 46.097240 213.777237 4.321118
v -46.097240 213.777237 4.321118
v -49.388939 217.068970 4.321118
v 49.388939 217.068970 4.321118
v -46.097240 2.680061 3.058239
v -46.097240 213.777237 3.058274
v -46.097240 213.777237 4.321118
v -46.097240 2.680060 4.321084
v -49.388939 2.680060 4.321084
v -49.388939 217.068970 4.321118
v -46.097240 213.777237 -3.058204
v -46.097240 2.680062 -3.058239
v -46.097240 2.680062 -4.321083
v -46.097240 213.777237 -4.321048
v -49.388939 217.068970 -4.321048
v -49.388939 2.680062 -4.321083
v 46.097240 213.777237 -3.058204
v -46.097240 213.777237 -3.058204
v -46.097240 213.777237 -4.321048
v 46.097240 213.777237 -4.321048
v 49.388939 217.068970 -4.321048
v -49.388939 217.068970 -4.321048
v 46.097240 2.680062 -3.058239
v 46.097240 213.777237 -3.058204
v 46.097240 213.777237 -4.321048
v 46.097240 2.680062 -4.321083
v 49.388939 2.680062 -4.321083
v 49.388939 217.068970 -4.321048
v -45.000008 212.680008 -3.058204
v -45.000008 212.680008 3.058274
v -45.000008 2.680061 3.058239
v -45.000008 2.680062 -3.058239
vt 0.462036 0.737545
vt 0.447824 0.737545
vt 0.447824 0.508035
vt 0.462036 0.508035
vt 0.739594 0.500907
vt 0.739594 0.002773
vt 0.753806 0.002773
vt 0.753806 0.500907
vt 0.726790 0.002943
vt 0.726790 0.501077
vt 0.712578 0.501077
vt 0.712578 0.002943
vt 0.704241 0.998008
vt 0.706790 0.995458
vt 0.915908 0.995458
vt 0.918457 0.998008
vt 0.471906 0.997567
vt 0.474455 0.995017
vt 0.683567 0.995017
vt 0.686116 0.997567
vt 0.471906 0.507091
vt 0.474455 0.507091
vt 0.915908 0.507518
vt 0.918457 0.507518
vt 0.704241 0.507518
vt 0.706790 0.507518
vt 0.683567 0.507091
vt 0.686116 0.507091
vt 0.703219 0.003201
vt 0.703219 0.501338
vt 0.695570 0.493690
vt 0.695570 0.003201
vt 0.473707 0.501338
vt 0.481355 0.493690
vt 0.473707 0.003201
vt 0.481355 0.003201
vt 0.467283 0.003388
vt 0.467283 0.501525
vt 0.459634 0.493876
vt 0.459634 0.003388
vt 0.237771 0.501525
vt 0.245418 0.493876
vt 0.237771 0.003388
vt 0.245418 0.003388
vt 0.799698 0.505130
vt 0.813909 0.505130
vt 0.813909 0.993067
vt 0.799698 0.993067
vt 0.009037 0.517689
vt 0.023249 0.517689
vt 0.023249 0.726802
vt 0.009037 0.726802
vt 0.781687 0.501449
vt 0.784621 0.501449
vt 0.784621 0.991921
vt 0.781687 0.991921
vt 0.736660 0.002773
vt 0.736660 0.500907
vt 0.001833 0.506821
vt 0.004767 0.506821
vt 0.004767 0.721022
vt 0.001833 0.721022
vt 0.444890 0.508035
vt 0.444890 0.737545
vt 0.763676 0.500974
vt 0.766610 0.500974
vt 0.766610 0.991451
vt 0.763676 0.991451
vt 0.709644 0.002943
vt 0.709644 0.501077
vt 0.772682 0.501866
vt 0.775616 0.501866
vt 0.775616 0.992342
vt 0.772682 0.992342
vt 0.729724 0.501077
vt 0.729724 0.002943
vt 0.691633 0.507250
vt 0.694568 0.507250
vt 0.694567 0.721455
vt 0.691634 0.721455
vt 0.464970 0.737545
vt 0.464970 0.508035
vt 0.790692 0.501396
vt 0.793626 0.501396
vt 0.793626 0.991856
vt 0.790692 0.991856
vt 0.756740 0.500907
vt 0.756740 0.002773
vt 0.819509 0.992518
vt 0.819509 0.504582
vt 0.833721 0.504582
vt 0.833721 0.992518
vn 0.0000 1.0000 0.0000
vn 1.0000 0.0000 0.0000
vn -1.0000 0.0000 0.0000
vn 0.0000 -0.0000 1.0000
vn 0.0000 0.0000 -1.0000
vn 0.0000 -1.0000 0.0000
usemtl lambert1.001
s off
f 135/132/120 132/133/120 133/134/120
f 133/134/120 134/135/120 135/132/120
f 139/136/121 136/137/121 137/138/121
f 137/138/121 138/139/121 139/136/121
f 143/140/122 140/141/122 141/142/122
f 141/142/122 142/143/122 143/140/122
f 147/144/123 144/145/123 145/146/123
f 145/146/123 146/147/123 147/144/123
f 151/148/124 148/149/124 149/150/124
f 149/150/124 150/151/124 151/148/124
f 153/152/124 152/153/124 148/149/124
f 148/149/124 151/148/124 153/152/124
f 146/147/123 145/146/123 154/154/123
f 154/154/123 155/155/123 146/147/123
f 157/156/123 156/157/123 144/145/123
f 144/145/123 147/144/123 157/156/123
f 150/151/124 149/150/124 158/158/124
f 158/158/124 159/159/124 150/151/124
f 163/160/123 160/161/123 161/162/123
f 161/162/123 162/163/123 163/160/123
f 160/161/123 164/164/123 165/165/123
f 165/165/123 161/162/123 160/161/123
f 164/164/123 166/166/123 167/167/123
f 167/167/123 165/165/123 164/164/123
f 171/168/124 168/169/124 169/170/124
f 169/170/124 170/171/124 171/168/124
f 168/169/124 172/172/124 173/173/124
f 173/173/124 169/170/124 168/169/124
f 172/172/124 174/174/124 175/175/124
f 175/175/124 173/173/124 172/172/124
f 179/176/122 176/177/122 177/178/122
f 177/178/122 178/179/122 179/176/122
f 183/180/125 180/181/125 181/182/125
f 181/182/125 182/183/125 183/180/125
f 187/184/122 184/185/122 185/186/122
f 185/186/122 186/187/122 187/184/122
f 189/188/121 136/137/121 139/136/121
f 139/136/121 188/189/121 189/188/121
f 193/190/125 190/191/125 191/192/125
f 191/192/125 192/193/125 193/190/125
f 195/194/120 133/134/120 132/133/120
f 132/133/120 194/195/120 195/194/120
f 199/196/121 196/197/121 197/198/121
f 197/198/121 198/199/121 199/196/121
f 201/200/122 142/143/122 141/142/122
f 141/142/122 200/201/122 201/200/122
f 205/202/121 202/203/121 203/204/121
f 203/204/121 204/205/121 205/202/121
f 207/206/122 140/141/122 143/140/122
f 143/140/122 206/207/122 207/206/122
f 211/208/125 208/209/125 209/210/125
f 209/210/125 210/211/125 211/208/125
f 213/212/120 135/132/120 134/135/120
f 134/135/120 212/213/120 213/212/120
f 217/214/122 214/215/122 215/216/122
f 215/216/122 216/217/122 217/214/122
f 219/218/121 138/139/121 137/138/121
f 137/138/121 218/219/121 219/218/121
f 223/220/121 220/221/121 221/222/121
f 221/222/121 222/223/121 223/220/121
o Hinges_Low_meshId3_name
v -44.565231 188.374817 -2.987922
v -44.744511 188.374817 -3.062187
v -44.744511 196.093567 -3.062186
v -44.565231 196.093567 -2.987921
v -44.744511 188.374817 -3.062187
v -44.923801 188.374817 -2.987922
v -44.923801 196.093567 -2.987921
v -44.744511 196.093567 -3.062186
v -44.923801 188.374817 -2.987922
v -44.998062 188.374817 -2.808641
v -44.998062 196.093567 -2.808640
v -44.923801 196.093567 -2.987921
v -44.998062 188.374817 -2.808641
v -44.923801 188.374817 -2.629356
v -44.923801 196.093567 -2.629355
v -44.998062 196.093567 -2.808640
v -44.923801 188.374817 -2.629356
v -44.744511 188.374817 -2.555091
v -44.744511 196.093567 -2.555090
v -44.923801 196.093567 -2.629355
v -44.744511 188.374817 -2.555091
v -44.565231 188.374817 -2.629356
v -44.565231 196.093567 -2.629355
v -44.744511 196.093567 -2.555090
v -44.565231 188.374817 -2.629356
v -44.490967 188.374817 -2.808641
v -44.490967 196.093567 -2.808640
v -44.565231 196.093567 -2.629355
v -44.490967 188.374817 -2.808641
v -44.565231 188.374817 -2.987922
v -44.565231 196.093567 -2.987921
v -44.490967 196.093567 -2.808640
v -44.744511 188.374817 -3.062187
v -44.565231 188.374817 -2.987922
v -44.744511 188.374817 -2.808641
v -44.923801 188.374817 -2.987922
v -44.998062 188.374817 -2.808641
v -44.923801 188.374817 -2.629356
v -44.744511 188.374817 -2.555091
v -44.565231 188.374817 -2.629356
v -44.490967 188.374817 -2.808641
v -44.565231 196.093567 -2.987921
v -44.744511 196.093567 -3.062186
v -44.744511 196.093567 -2.808640
v -44.923801 196.093567 -2.987921
v -44.998062 196.093567 -2.808640
v -44.923801 196.093567 -2.629355
v -44.744511 196.093567 -2.555090
v -44.565231 196.093567 -2.629355
v -44.490967 196.093567 -2.808640
v -44.565231 19.266541 -2.987950
v -44.744511 19.266541 -3.062215
v -44.744511 26.985292 -3.062214
v -44.565231 26.985292 -2.987949
v -44.744511 19.266541 -3.062215
v -44.923801 19.266541 -2.987950
v -44.923801 26.985292 -2.987949
v -44.744511 26.985292 -3.062214
v -44.923801 19.266541 -2.987950
v -44.998062 19.266541 -2.808669
v -44.998062 26.985292 -2.808668
v -44.923801 26.985292 -2.987949
v -44.998062 19.266541 -2.808669
v -44.923801 19.266541 -2.629384
v -44.923801 26.985292 -2.629383
v -44.998062 26.985292 -2.808668
v -44.923801 19.266541 -2.629384
v -44.744511 19.266541 -2.555119
v -44.744511 26.985292 -2.555118
v -44.923801 26.985292 -2.629383
v -44.744511 19.266541 -2.555119
v -44.565231 19.266541 -2.629384
v -44.565231 26.985292 -2.629383
v -44.744511 26.985292 -2.555118
v -44.565231 19.266541 -2.629384
v -44.490967 19.266541 -2.808669
v -44.490967 26.985292 -2.808668
v -44.565231 26.985292 -2.629383
v -44.490967 19.266541 -2.808669
v -44.565231 19.266541 -2.987950
v -44.565231 26.985292 -2.987949
v -44.490967 26.985292 -2.808668
v -44.744511 19.266541 -3.062215
v -44.565231 19.266541 -2.987950
v -44.744511 19.266541 -2.808669
v -44.923801 19.266541 -2.987950
v -44.998062 19.266541 -2.808669
v -44.923801 19.266541 -2.629384
v -44.744511 19.266541 -2.555119
v -44.565231 19.266541 -2.629384
v -44.490967 19.266541 -2.808669
v -44.565231 26.985292 -2.987949
v -44.744511 26.985292 -3.062214
v -44.744511 26.985292 -2.808668
v -44.923801 26.985292 -2.987949
v -44.998062 26.985292 -2.808668
v -44.923801 26.985292 -2.629383
v -44.744511 26.985292 -2.555118
v -44.565231 26.985292 -2.629383
v -44.490967 26.985292 -2.808668
vt 0.089635 0.538369
vt 0.089635 0.520447
vt 0.090086 0.520447
vt 0.090086 0.538369
vt 0.090086 0.538369
vt 0.090086 0.520447
vt 0.090536 0.520447
vt 0.090536 0.538369
vt 0.090536 0.538369
vt 0.090536 0.520447
vt 0.090987 0.520447
vt 0.090987 0.538369
vt 0.090987 0.538369
vt 0.090987 0.520447
vt 0.091438 0.520447
vt 0.091438 0.538369
vt 0.091438 0.538369
vt 0.091438 0.520447
vt 0.091888 0.520447
vt 0.091888 0.538369
vt 0.088284 0.538369
vt 0.088284 0.520447
vt 0.088734 0.520447
vt 0.088734 0.538369
vt 0.088734 0.538369
vt 0.088734 0.520447
vt 0.089185 0.520447
vt 0.089185 0.538369
vt 0.089185 0.538369
vt 0.089185 0.520447
vt 0.089635 0.520447
vt 0.089635 0.538369
vt 0.090086 0.520447
vt 0.089635 0.520447
vt 0.089860 0.519903
vt 0.090404 0.520128
vt 0.090404 0.519678
vt 0.090086 0.519359
vt 0.089635 0.519359
vt 0.089317 0.519678
vt 0.089317 0.520128
vt 0.089635 0.538369
vt 0.090086 0.538369
vt 0.089860 0.538913
vt 0.090404 0.538688
vt 0.090404 0.539139
vt 0.090086 0.539457
vt 0.089635 0.539457
vt 0.089317 0.539138
vt 0.089317 0.538688
vt 0.080630 0.538371
vt 0.080630 0.520449
vt 0.081081 0.520449
vt 0.081081 0.538371
vt 0.081081 0.538371
vt 0.081081 0.520449
vt 0.081531 0.520449
vt 0.081531 0.538371
vt 0.081531 0.538371
vt 0.081531 0.520449
vt 0.081982 0.520449
vt 0.081982 0.538371
vt 0.081982 0.538371
vt 0.081982 0.520449
vt 0.082433 0.520449
vt 0.082433 0.538371
vt 0.082433 0.538371
vt 0.082433 0.520449
vt 0.082883 0.520449
vt 0.082883 0.538371
vt 0.079278 0.538371
vt 0.079278 0.520449
vt 0.079729 0.520449
vt 0.079729 0.538371
vt 0.079729 0.538371
vt 0.079729 0.520449
vt 0.080180 0.520449
vt 0.080179 0.538371
vt 0.080179 0.538371
vt 0.080180 0.520449
vt 0.080630 0.520449
vt 0.080630 0.538371
vt 0.081081 0.520449
vt 0.080630 0.520449
vt 0.080855 0.519905
vt 0.081399 0.520130
vt 0.081399 0.519679
vt 0.081081 0.519361
vt 0.080630 0.519361
vt 0.080312 0.519679
vt 0.080312 0.520130
vt 0.080630 0.538371
vt 0.081081 0.538371
vt 0.080855 0.538915
vt 0.081399 0.538690
vt 0.081399 0.539140
vt 0.081081 0.539459
vt 0.080630 0.539459
vt 0.080312 0.539140
vt 0.080312 0.538690
vn 0.3827 0.0000 -0.9239
vn -0.3827 0.0000 -0.9239
vn -0.9239 0.0000 -0.3827
vn -0.9239 0.0000 0.3827
vn -0.3827 -0.0000 0.9239
vn 0.3827 -0.0000 0.9239
vn 0.9239 0.0000 0.3827
vn 0.9239 0.0000 -0.3827
vn 0.0000 -1.0000 0.0000
vn 0.0000 -1.0000 -0.0002
vn 0.0000 1.0000 0.0000
vn 0.0000 1.0000 0.0002
vn 0.0000 1.0000 -0.0002
usemtl lambert1.001
s off
f 227/224/126 224/225/126 225/226/126
f 225/226/126 226/227/126 227/224/126
f 231/228/127 228/229/127 229/230/127
f 229/230/127 230/231/127 231/228/127
f 235/232/128 232/233/128 233/234/128
f 233/234/128 234/235/128 235/232/128
f 239/236/129 236/237/129 237/238/129
f 237/238/129 238/239/129 239/236/129
f 243/240/130 240/241/130 241/242/130
f 241/242/130 242/243/130 243/240/130
f 247/244/131 244/245/131 245/246/131
f 245/246/131 246/247/131 247/244/131
f 251/248/132 248/249/132 249/250/132
f 249/250/132 250/251/132 251/248/132
f 255/252/133 252/253/133 253/254/133
f 253/254/133 254/255/133 255/252/133
f 256/256/134 257/257/134 258/258/134
f 259/259/134 256/256/134 258/258/134
f 260/260/134 259/259/134 258/258/134
f 261/261/135 260/260/135 258/258/135
f 262/262/134 261/261/134 258/258/134
f 263/263/134 262/262/134 258/258/134
f 264/264/134 263/263/134 258/258/134
f 257/257/134 264/264/134 258/258/134
f 265/265/136 266/266/136 267/267/136
f 266/266/136 268/268/136 267/267/136
f 268/268/137 269/269/137 267/267/137
f 269/269/136 270/270/136 267/267/136
f 270/270/136 271/271/136 267/267/136
f 271/271/136 272/272/136 267/267/136
f 272/272/137 273/273/137 267/267/137
f 273/273/138 265/265/138 267/267/138
f 277/274/126 274/275/126 275/276/126
f 275/276/126 276/277/126 277/274/126
f 281/278/127 278/279/127 279/280/127
f 279/280/127 280/281/127 281/278/127
f 285/282/128 282/283/128 283/284/128
f 283/284/128 284/285/128 285/282/128
f 289/286/129 286/287/129 287/288/129
f 287/288/129 288/289/129 289/286/129
f 293/290/130 290/291/130 291/292/130
f 291/292/130 292/293/130 293/290/130
f 297/294/131 294/295/131 295/296/131
f 295/296/131 296/297/131 297/294/131
f 301/298/132 298/299/132 299/300/132
f 299/300/132 300/301/132 301/298/132
f 305/302/133 302/303/133 303/304/133
f 303/304/133 304/305/133 305/302/133
f 306/306/134 307/307/134 308/308/134
f 309/309/134 306/306/134 308/308/134
f 310/310/134 309/309/134 308/308/134
f 311/311/134 310/310/134 308/308/134
f 312/312/134 311/311/134 308/308/134
f 313/313/134 312/312/134 308/308/134
f 314/314/134 313/313/134 308/308/134
f 307/307/134 314/314/134 308/308/134
f 315/315/136 316/316/136 317/317/136
f 316/316/136 318/318/136 317/317/136
f 318/318/136 319/319/136 317/317/136
f 319/319/136 320/320/136 317/317/136
f 320/320/136 321/321/136 317/317/136
f 321/321/136 322/322/136 317/317/136
f 322/322/136 323/323/136 317/317/136
f 323/323/136 315/315/136 317/317/136
o Main_Low_meshId4_name
v -44.744511 212.424530 -2.555091
v -44.925171 212.605179 -2.480258
v 44.925171 212.605179 -2.480258
v 44.744511 212.424530 -2.555091
v -44.925171 212.605179 -2.480258
v -45.000008 212.680008 -2.299603
v 45.000008 212.680008 -2.299603
v 44.925171 212.605179 -2.480258
v 44.744511 212.424530 2.555161
v -44.744511 212.424530 2.555161
v -44.744511 2.935539 2.555126
v 44.744511 2.935539 2.555126
v -45.000008 212.680008 2.299670
v 45.000008 212.680008 2.299670
v 44.744511 2.935539 -2.555125
v -44.744511 2.935539 -2.555125
v -45.000008 2.680047 -2.299637
v 45.000008 2.680047 -2.299637
v 45.000008 2.680046 2.299636
v -45.000008 2.680046 2.299636
v 45.000008 212.680008 -2.299603
v 45.000008 212.680008 2.299670
v 45.000008 2.680046 2.299636
v 45.000008 2.680047 -2.299637
v -45.000008 212.680008 2.299670
v -45.000008 212.680008 -2.299603
v -45.000008 2.680047 -2.299637
v -45.000008 2.680046 2.299636
v -44.925171 2.754883 2.480294
v 44.925171 2.754883 2.480294
v -44.925171 2.754883 2.480294
v -45.000008 2.680046 2.299636
v 45.000008 2.680046 2.299636
v 44.925171 2.754883 2.480294
v 44.925171 2.754883 2.480294
v 44.925171 212.605179 2.480328
v 45.000008 2.680046 2.299636
v 45.000008 212.680008 2.299670
v 44.925171 212.605179 2.480328
v 44.925171 2.754883 2.480294
v -44.925171 2.754883 2.480294
v -44.925171 212.605179 2.480328
v -45.000008 212.680008 2.299670
v -45.000008 2.680046 2.299636
v -44.925171 212.605179 2.480328
v -44.925171 2.754883 2.480294
v -45.000008 212.680008 2.299670
v -44.925171 212.605179 2.480328
v 44.925171 212.605179 2.480328
v 45.000008 212.680008 2.299670
v -44.925171 212.605179 2.480328
v 44.925171 212.605179 2.480328
v 44.925171 212.605179 -2.480258
v 44.925171 2.754884 -2.480293
v 44.925171 212.605179 -2.480258
v 44.925171 2.754884 -2.480293
v -44.925171 212.605179 -2.480258
v -44.925171 2.754884 -2.480293
v -44.925171 212.605179 -2.480258
v -44.925171 2.754884 -2.480293
v -44.925171 2.754884 -2.480293
v 44.925171 2.754884 -2.480293
v -44.925171 2.754884 -2.480293
v 44.925171 2.754884 -2.480293
vt 0.437664 0.507714
vt 0.437664 0.994693
vt 0.229613 0.994693
vt 0.229613 0.507714
vt 0.221390 0.014157
vt 0.221735 0.500386
vt 0.013377 0.501070
vt 0.013716 0.013476
vt 0.222187 0.500831
vt 0.012925 0.501521
vt 0.012925 0.501521
vt 0.222187 0.500831
vt 0.222584 0.501182
vt 0.012526 0.501866
vt 0.222588 0.511875
vt 0.012534 0.512556
vt 0.222242 0.002672
vt 0.222237 0.013365
vt 0.012872 0.012682
vt 0.012879 0.001992
vt 0.012872 0.012682
vt 0.012526 0.501866
vt 0.001833 0.501784
vt 0.002183 0.012601
vt 0.232926 0.013283
vt 0.233276 0.501100
vt 0.222584 0.501182
vt 0.222237 0.013365
vt 0.229162 0.507268
vt 0.438115 0.507268
vt 0.438115 0.507268
vt 0.229162 0.507268
vt 0.228765 0.506920
vt 0.438512 0.506920
vt 0.438115 0.507268
vt 0.438115 0.995139
vt 0.438115 0.507268
vt 0.438512 0.506920
vt 0.438512 0.995487
vt 0.438115 0.995139
vt 0.228765 0.506920
vt 0.229162 0.507268
vt 0.229162 0.995139
vt 0.228765 0.995487
vt 0.229162 0.507268
vt 0.229162 0.995139
vt 0.438512 0.995487
vt 0.228765 0.995487
vt 0.229162 0.995139
vt 0.438115 0.995139
vt 0.438115 0.995139
vt 0.229162 0.995139
vt 0.013267 0.013034
vt 0.012925 0.501521
vt 0.013267 0.013034
vt 0.012925 0.501521
vt 0.221840 0.013711
vt 0.222187 0.500831
vt 0.221840 0.013711
vt 0.222187 0.500831
vt 0.221840 0.013711
vt 0.013267 0.013034
vt 0.013267 0.013034
vt 0.221840 0.013711
vn 0.0000 -0.0000 1.0000
vn 0.0000 0.0000 -1.0000
vn 0.1481 0.1481 -0.9778
vn -0.1481 0.1482 -0.9778
vn 0.0000 0.3828 -0.9238
vn 0.0000 0.3826 -0.9239
vn 0.0000 0.9239 -0.3825
vn 0.0000 0.9239 -0.3827
vn 0.0000 0.9855 -0.1693
vn 0.0000 0.9856 -0.1693
vn 0.0000 1.0000 0.0000
vn 0.0000 -1.0000 0.0000
vn 0.0000 -0.9855 -0.1693
vn 0.9855 0.0000 -0.1693
vn 1.0000 0.0000 0.0000
vn -1.0000 0.0000 0.0000
vn -0.9855 0.0000 -0.1693
vn 0.1481 -0.1481 0.9778
vn -0.1481 -0.1481 0.9778
vn 0.0000 -0.3827 0.9239
vn 0.0000 -0.9239 0.3827
vn 0.3827 0.0000 0.9239
vn 0.1481 0.1482 0.9778
vn 0.9239 0.0000 0.3827
vn -0.9239 0.0000 0.3827
vn -0.3827 0.0000 0.9239
vn -0.1481 0.1481 0.9778
vn 0.0000 0.9239 0.3827
vn 0.0000 0.9239 0.3825
vn 0.0000 0.3828 0.9238
vn 0.0000 0.3826 0.9239
vn 0.3827 0.0000 -0.9239
vn 0.1481 -0.1481 -0.9778
vn 0.9239 0.0000 -0.3827
vn -0.9239 0.0000 -0.3827
vn -0.3827 0.0000 -0.9239
vn -0.1481 -0.1481 -0.9778
vn 0.0000 -0.9239 -0.3827
vn 0.0000 -0.3827 -0.9239
usemtl lambert1.001
s off
f 335/324/139 332/325/139 333/326/139
f 333/326/139 334/327/139 335/324/139
f 339/328/140 324/329/140 327/330/140
f 327/330/140 338/331/140 339/328/140
s 1
f 327/330/141 324/329/142 325/332/143
f 325/332/143 326/333/144 327/330/141
f 331/334/145 328/335/146 329/336/147
f 329/336/147 330/337/148 331/334/145
f 329/336/147 336/338/149 337/339/149
f 337/339/149 330/337/148 329/336/147
f 343/340/150 340/341/151 341/342/151
f 341/342/151 342/343/150 343/340/150
f 347/344/152 344/345/152 345/346/153
f 345/346/153 346/347/153 347/344/152
f 351/348/154 348/349/154 349/350/155
f 349/350/155 350/351/155 351/348/154
f 335/324/156 334/327/157 352/352/158
f 352/352/158 353/353/158 335/324/156
f 357/354/159 354/355/159 355/356/159
f 355/356/159 356/357/159 357/354/159
f 335/324/156 358/358/160 359/359/160
f 359/359/160 332/325/161 335/324/156
f 363/360/162 360/361/162 361/362/162
f 361/362/162 362/363/162 363/360/162
f 367/364/163 364/365/163 365/366/163
f 365/366/163 366/367/163 367/364/163
f 369/368/164 334/327/157 333/326/165
f 333/326/165 368/369/164 369/368/164
f 373/370/166 370/371/167 371/372/167
f 371/372/167 372/373/166 373/370/166
f 375/374/168 374/375/169 333/326/165
f 333/326/165 332/325/161 375/374/168
f 377/376/170 338/331/171 327/330/141
f 327/330/141 376/377/170 377/376/170
f 379/378/172 378/379/172 344/345/152
f 344/345/152 347/344/152 379/378/172
f 381/380/173 350/351/155 349/350/155
f 349/350/155 380/381/173 381/380/173
f 383/382/174 382/383/174 324/329/142
f 324/329/142 339/328/175 383/382/174
f 341/342/151 340/341/151 384/384/176
f 384/384/176 385/385/176 341/342/151
f 387/386/177 386/387/177 339/328/175
f 339/328/175 338/331/171 387/386/177
