# Blender v2.92.0 OBJ File: ''
# www.blender.org
mtllib lowpwhiteboard.mtl
o wheel1_Mesh.006
v 0.559885 0.048546 0.156206
v 0.559828 0.048546 0.136751
v 0.579885 0.048547 0.156147
v 0.579827 0.048547 0.136692
v 0.559885 0.028997 0.156206
v 0.559828 0.028997 0.136751
v 0.579827 0.028997 0.136692
v 0.579885 0.028997 0.156147
v 0.569885 0.033375 0.156177
v 0.569827 0.033375 0.136722
v 0.563668 0.022350 0.159576
v 0.569764 0.024727 0.159576
v 0.575860 0.022350 0.159576
v 0.578385 0.016610 0.159576
v 0.575860 0.010871 0.159576
v 0.569764 0.008494 0.159576
v 0.563668 0.010871 0.159576
v 0.561143 0.016610 0.159576
v 0.557571 0.028089 0.159576
v 0.569764 0.032844 0.159576
v 0.581956 0.028089 0.159576
v 0.587006 0.016610 0.159576
v 0.581956 0.005132 0.159576
v 0.569764 0.000377 0.159576
v 0.557572 0.005132 0.159576
v 0.552521 0.016610 0.159576
v 0.557571 0.028089 0.133904
v 0.569764 0.032844 0.133904
v 0.581956 0.028089 0.133904
v 0.587006 0.016610 0.133904
v 0.581956 0.005132 0.133904
v 0.569764 0.000377 0.133904
v 0.557572 0.005132 0.133904
v 0.552521 0.016610 0.133904
v 0.563668 0.022350 0.133904
v 0.569764 0.024727 0.133904
v 0.575860 0.022350 0.133905
v 0.578385 0.016610 0.133904
v 0.575860 0.010871 0.133904
v 0.569764 0.008494 0.133904
v 0.563668 0.010871 0.133904
v 0.561143 0.016610 0.133904
v 0.569764 0.016610 0.159576
v 0.569764 0.016610 0.133904
vt 0.569360 0.044462
vt 0.569362 0.034154
vt 0.579720 0.034156
vt 0.579718 0.044464
vt 0.577393 0.070666
vt 0.569356 0.065366
vt 0.579714 0.065368
vt 0.569358 0.055058
vt 0.579716 0.055060
vt 0.577397 0.049761
vt 0.569355 0.075963
vt 0.579712 0.075965
vt 0.752126 0.164095
vt 0.752125 0.160702
vt 0.756046 0.159172
vt 0.756047 0.165958
vt 0.749828 0.158205
vt 0.751451 0.154179
vt 0.746579 0.158067
vt 0.744954 0.153903
vt 0.744283 0.160369
vt 0.740361 0.158505
vt 0.744283 0.163762
vt 0.740362 0.165291
vt 0.746581 0.166258
vt 0.744957 0.170285
vt 0.749829 0.166396
vt 0.751454 0.170561
vt 0.680066 0.151793
vt 0.686852 0.151792
vt 0.686853 0.165104
vt 0.680067 0.165104
vt 0.693638 0.151791
vt 0.693639 0.165103
vt 0.700140 0.151791
vt 0.700142 0.165102
vt 0.706643 0.151790
vt 0.706644 0.165102
vt 0.713429 0.151789
vt 0.713430 0.165101
vt 0.720215 0.151789
vt 0.720216 0.165101
vt 0.726717 0.151788
vt 0.726719 0.165100
vt 0.673563 0.151793
vt 0.673565 0.165105
vt 0.651224 0.167600
vt 0.644439 0.167544
vt 0.646000 0.163636
vt 0.649393 0.163663
vt 0.639482 0.162910
vt 0.643522 0.161318
vt 0.639258 0.156411
vt 0.643409 0.158069
vt 0.643898 0.151855
vt 0.645729 0.155791
vt 0.650683 0.151910
vt 0.649122 0.155819
vt 0.655640 0.156545
vt 0.651600 0.158136
vt 0.655864 0.163043
vt 0.651712 0.161385
vt 0.748204 0.162232
vt 0.647561 0.159727
vn -1.0000 0.0000 0.0029
vn -0.0030 0.0000 -1.0000
vn 1.0000 0.0000 -0.0030
vn 0.0029 -0.0000 1.0000
vn 0.0030 -0.0000 1.0000
vn -0.0000 -0.0000 1.0000
vn -0.3633 0.9317 0.0000
vn 0.3633 0.9317 0.0000
vn 0.9153 0.4027 0.0000
vn 0.9153 -0.4027 -0.0000
vn 0.3633 -0.9317 -0.0000
vn -0.3633 -0.9317 -0.0000
vn -0.9153 -0.4027 -0.0000
vn -0.9153 0.4027 0.0000
vn 0.0000 0.0000 -1.0000
usemtl lambert1.001
s 1
f 1/1/1 2/2/1 6/3/1 5/4/1
f 10/5/2 4/6/2 7/7/2
f 4/6/3 3/8/3 8/9/3 7/7/3
f 3/8/4 1/1/5 5/4/5 9/10/4
f 3/8/4 9/10/4 8/9/4
f 2/11/2 4/6/2 10/5/2 6/12/2
f 11/13/6 12/14/6 20/15/6 19/16/6
f 12/14/6 13/17/6 21/18/6 20/15/6
f 13/17/6 14/19/6 22/20/6 21/18/6
f 14/19/6 15/21/6 23/22/6 22/20/6
f 15/21/6 16/23/6 24/24/6 23/22/6
f 16/23/6 17/25/6 25/26/6 24/24/6
f 17/25/6 18/27/6 26/28/6 25/26/6
f 18/27/6 11/13/6 19/16/6 26/28/6
f 19/29/7 20/30/7 28/31/7 27/32/7
f 20/30/8 21/33/8 29/34/8 28/31/8
f 21/33/9 22/35/9 30/36/9 29/34/9
f 22/35/10 23/37/10 31/38/10 30/36/10
f 23/37/11 24/39/11 32/40/11 31/38/11
f 24/39/12 25/41/12 33/42/12 32/40/12
f 25/41/13 26/43/13 34/44/13 33/42/13
f 26/45/14 19/29/14 27/32/14 34/46/14
f 27/47/15 28/48/15 36/49/15 35/50/15
f 28/48/15 29/51/15 37/52/15 36/49/15
f 29/51/15 30/53/15 38/54/15 37/52/15
f 30/53/15 31/55/15 39/56/15 38/54/15
f 31/55/15 32/57/15 40/58/15 39/56/15
f 32/57/15 33/59/15 41/60/15 40/58/15
f 33/59/15 34/61/15 42/62/15 41/60/15
f 34/61/15 27/47/15 35/50/15 42/62/15
f 12/14/6 11/13/6 43/63/6
f 13/17/6 12/14/6 43/63/6
f 14/19/6 13/17/6 43/63/6
f 15/21/6 14/19/6 43/63/6
f 16/23/6 15/21/6 43/63/6
f 17/25/6 16/23/6 43/63/6
f 18/27/6 17/25/6 43/63/6
f 11/13/6 18/27/6 43/63/6
f 35/50/15 36/49/15 44/64/15
f 36/49/15 37/52/15 44/64/15
f 37/52/15 38/54/15 44/64/15
f 38/54/15 39/56/15 44/64/15
f 39/56/15 40/58/15 44/64/15
f 40/58/15 41/60/15 44/64/15
f 41/60/15 42/62/15 44/64/15
f 42/62/15 35/50/15 44/64/15
o wheel2_Mesh.007
v 0.559885 0.048546 -0.136432
v 0.559828 0.048546 -0.155887
v 0.579885 0.048547 -0.136491
v 0.579827 0.048547 -0.155946
v 0.559885 0.028997 -0.136432
v 0.559828 0.028997 -0.155887
v 0.579827 0.028997 -0.155946
v 0.579885 0.028997 -0.136491
v 0.569885 0.033375 -0.136461
v 0.569827 0.033375 -0.155916
v 0.563668 0.022350 -0.133062
v 0.569764 0.024727 -0.133062
v 0.575860 0.022350 -0.133062
v 0.578385 0.016610 -0.133062
v 0.575860 0.010871 -0.133062
v 0.569764 0.008494 -0.133062
v 0.563668 0.010871 -0.133062
v 0.561143 0.016610 -0.133062
v 0.557571 0.028089 -0.133062
v 0.569764 0.032844 -0.133062
v 0.581956 0.028089 -0.133062
v 0.587006 0.016610 -0.133062
v 0.581956 0.005132 -0.133062
v 0.569764 0.000377 -0.133062
v 0.557572 0.005132 -0.133062
v 0.552521 0.016610 -0.133062
v 0.557571 0.028089 -0.158734
v 0.569764 0.032844 -0.158734
v 0.581956 0.028089 -0.158734
v 0.587006 0.016610 -0.158734
v 0.581956 0.005132 -0.158734
v 0.569764 0.000377 -0.158734
v 0.557572 0.005132 -0.158734
v 0.552521 0.016610 -0.158734
v 0.563668 0.022350 -0.158734
v 0.569764 0.024727 -0.158734
v 0.575860 0.022350 -0.158734
v 0.578385 0.016610 -0.158734
v 0.575860 0.010871 -0.158734
v 0.569764 0.008494 -0.158734
v 0.563668 0.010871 -0.158734
v 0.561143 0.016610 -0.158734
v 0.569764 0.016610 -0.133062
v 0.569764 0.016610 -0.158734
vt 0.544840 0.047590
vt 0.544831 0.037282
vt 0.555188 0.037272
vt 0.555198 0.047580
vt 0.552903 0.073785
vt 0.544859 0.068495
vt 0.555217 0.068485
vt 0.544850 0.058187
vt 0.555208 0.058177
vt 0.552883 0.052881
vt 0.544870 0.079091
vt 0.555227 0.079081
vt 0.649883 0.198735
vt 0.649881 0.195342
vt 0.653802 0.193811
vt 0.653805 0.200596
vt 0.647583 0.192846
vt 0.649205 0.188819
vt 0.644334 0.192709
vt 0.642708 0.188545
vt 0.642039 0.195011
vt 0.638117 0.193150
vt 0.642041 0.198404
vt 0.638120 0.199936
vt 0.644339 0.200900
vt 0.642717 0.204927
vt 0.647587 0.201037
vt 0.649214 0.205201
vt 0.670948 0.192876
vt 0.677734 0.192875
vt 0.677735 0.206187
vt 0.670949 0.206187
vt 0.684520 0.192874
vt 0.684521 0.206186
vt 0.691022 0.192874
vt 0.691024 0.206185
vt 0.697525 0.192873
vt 0.697527 0.206185
vt 0.704311 0.192872
vt 0.704312 0.206184
vt 0.711097 0.192872
vt 0.711098 0.206183
vt 0.717599 0.192871
vt 0.717601 0.206183
vt 0.664445 0.192876
vt 0.664447 0.206188
vt 0.748081 0.211336
vt 0.741296 0.211280
vt 0.742857 0.207371
vt 0.746250 0.207399
vt 0.736339 0.206645
vt 0.740379 0.205054
vt 0.736115 0.200146
vt 0.740267 0.201805
vt 0.740755 0.195590
vt 0.742587 0.199527
vt 0.747541 0.195646
vt 0.745979 0.199554
vt 0.752497 0.200281
vt 0.748458 0.201872
vt 0.752721 0.206780
vt 0.748570 0.205121
vt 0.645961 0.196873
vt 0.744418 0.203463
vn -1.0000 0.0000 0.0029
vn -0.0030 0.0000 -1.0000
vn 1.0000 0.0000 -0.0030
vn 0.0029 -0.0000 1.0000
vn 0.0030 -0.0000 1.0000
vn 0.0000 -0.0000 1.0000
vn -0.3633 0.9317 0.0000
vn 0.3633 0.9317 0.0000
vn 0.9153 0.4027 0.0000
vn 0.9153 -0.4027 -0.0000
vn 0.3633 -0.9317 -0.0000
vn -0.3633 -0.9317 -0.0000
vn -0.9153 -0.4027 -0.0000
vn -0.9153 0.4027 0.0000
vn 0.0000 0.0000 -1.0000
usemtl lambert1.001
s 1
f 45/65/16 46/66/16 50/67/16 49/68/16
f 54/69/17 48/70/17 51/71/17
f 48/70/18 47/72/18 52/73/18 51/71/18
f 47/72/19 45/65/20 49/68/20 53/74/19
f 47/72/19 53/74/19 52/73/19
f 46/75/17 48/70/17 54/69/17 50/76/17
f 55/77/21 56/78/21 64/79/21 63/80/21
f 56/78/21 57/81/21 65/82/21 64/79/21
f 57/81/21 58/83/21 66/84/21 65/82/21
f 58/83/21 59/85/21 67/86/21 66/84/21
f 59/85/21 60/87/21 68/88/21 67/86/21
f 60/87/21 61/89/21 69/90/21 68/88/21
f 61/89/21 62/91/21 70/92/21 69/90/21
f 62/91/21 55/77/21 63/80/21 70/92/21
f 63/93/22 64/94/22 72/95/22 71/96/22
f 64/94/23 65/97/23 73/98/23 72/95/23
f 65/97/24 66/99/24 74/100/24 73/98/24
f 66/99/25 67/101/25 75/102/25 74/100/25
f 67/101/26 68/103/26 76/104/26 75/102/26
f 68/103/27 69/105/27 77/106/27 76/104/27
f 69/105/28 70/107/28 78/108/28 77/106/28
f 70/109/29 63/93/29 71/96/29 78/110/29
f 71/111/30 72/112/30 80/113/30 79/114/30
f 72/112/30 73/115/30 81/116/30 80/113/30
f 73/115/30 74/117/30 82/118/30 81/116/30
f 74/117/30 75/119/30 83/120/30 82/118/30
f 75/119/30 76/121/30 84/122/30 83/120/30
f 76/121/30 77/123/30 85/124/30 84/122/30
f 77/123/30 78/125/30 86/126/30 85/124/30
f 78/125/30 71/111/30 79/114/30 86/126/30
f 56/78/21 55/77/21 87/127/21
f 57/81/21 56/78/21 87/127/21
f 58/83/21 57/81/21 87/127/21
f 59/85/21 58/83/21 87/127/21
f 60/87/21 59/85/21 87/127/21
f 61/89/21 60/87/21 87/127/21
f 62/91/21 61/89/21 87/127/21
f 55/77/21 62/91/21 87/127/21
f 79/114/30 80/113/30 88/128/30
f 80/113/30 81/116/30 88/128/30
f 81/116/30 82/118/30 88/128/30
f 82/118/30 83/120/30 88/128/30
f 83/120/30 84/122/30 88/128/30
f 84/122/30 85/124/30 88/128/30
f 85/124/30 86/126/30 88/128/30
f 86/126/30 79/114/30 88/128/30
o wheel3_Mesh.008
v -0.579863 0.048546 -0.136432
v -0.579920 0.048546 -0.155887
v -0.559863 0.048547 -0.136491
v -0.559920 0.048547 -0.155946
v -0.579863 0.028997 -0.136432
v -0.579920 0.028997 -0.155887
v -0.559920 0.028997 -0.155946
v -0.559863 0.028997 -0.136491
v -0.569863 0.033375 -0.136461
v -0.569920 0.033375 -0.155916
v -0.576080 0.022350 -0.133062
v -0.569984 0.024727 -0.133062
v -0.563888 0.022350 -0.133062
v -0.561363 0.016610 -0.133062
v -0.563888 0.010871 -0.133062
v -0.569984 0.008494 -0.133062
v -0.576080 0.010871 -0.133062
v -0.578605 0.016610 -0.133062
v -0.582176 0.028089 -0.133062
v -0.569984 0.032844 -0.133062
v -0.557792 0.028089 -0.133062
v -0.552741 0.016610 -0.133062
v -0.557792 0.005132 -0.133062
v -0.569984 0.000377 -0.133062
v -0.582176 0.005132 -0.133062
v -0.587226 0.016610 -0.133062
v -0.582176 0.028089 -0.158734
v -0.569984 0.032844 -0.158734
v -0.557792 0.028089 -0.158734
v -0.552741 0.016610 -0.158734
v -0.557792 0.005132 -0.158734
v -0.569984 0.000377 -0.158734
v -0.582176 0.005132 -0.158734
v -0.587226 0.016610 -0.158734
v -0.576080 0.022350 -0.158734
v -0.569984 0.024727 -0.158734
v -0.563888 0.022350 -0.158734
v -0.561363 0.016610 -0.158734
v -0.563888 0.010871 -0.158734
v -0.569984 0.008494 -0.158734
v -0.576080 0.010871 -0.158734
v -0.578605 0.016610 -0.158734
v -0.569984 0.016610 -0.133062
v -0.569984 0.016610 -0.158734
vt 0.491522 0.077603
vt 0.491521 0.067291
vt 0.501883 0.067289
vt 0.501885 0.077602
vt 0.499562 0.061989
vt 0.491519 0.056689
vt 0.501881 0.056688
vt 0.491517 0.046377
vt 0.501880 0.046375
vt 0.491516 0.035775
vt 0.501878 0.035774
vt 0.499558 0.041075
vt 0.651170 0.287570
vt 0.651168 0.284177
vt 0.655088 0.282646
vt 0.655092 0.289432
vt 0.648870 0.281681
vt 0.650492 0.277654
vt 0.645621 0.281544
vt 0.643995 0.277381
vt 0.643325 0.283847
vt 0.639403 0.281985
vt 0.643327 0.287240
vt 0.639407 0.288771
vt 0.645626 0.289736
vt 0.644004 0.293763
vt 0.648874 0.289872
vt 0.650501 0.294036
vt 0.671001 0.277405
vt 0.677787 0.277404
vt 0.677789 0.290716
vt 0.671003 0.290716
vt 0.684573 0.277403
vt 0.684574 0.290715
vt 0.691076 0.277402
vt 0.691077 0.290714
vt 0.697578 0.277402
vt 0.697580 0.290713
vt 0.704364 0.277401
vt 0.704366 0.290713
vt 0.711150 0.277400
vt 0.711151 0.290712
vt 0.717652 0.277399
vt 0.717654 0.290711
vt 0.664498 0.277406
vt 0.664500 0.290717
vt 0.744405 0.294656
vt 0.737620 0.294601
vt 0.739181 0.290693
vt 0.742574 0.290720
vt 0.732663 0.289967
vt 0.736703 0.288375
vt 0.732439 0.283468
vt 0.736591 0.285126
vt 0.737079 0.278912
vt 0.738910 0.282848
vt 0.743864 0.278967
vt 0.742303 0.282875
vt 0.748821 0.283601
vt 0.744781 0.285193
vt 0.749045 0.290100
vt 0.744893 0.288442
vt 0.647248 0.285708
vt 0.740742 0.286784
vn -1.0000 0.0000 0.0029
vn -0.0030 0.0000 -1.0000
vn 1.0000 0.0000 -0.0029
vn 0.0029 -0.0000 1.0000
vn 0.0030 -0.0000 1.0000
vn 0.0000 -0.0000 1.0000
vn -0.3633 0.9317 0.0000
vn 0.3633 0.9317 0.0000
vn 0.9153 0.4027 0.0000
vn 0.9153 -0.4027 -0.0000
vn 0.3633 -0.9317 -0.0000
vn -0.3633 -0.9317 -0.0000
vn -0.9153 -0.4027 -0.0000
vn -0.9153 0.4027 0.0000
vn 0.0000 0.0000 -1.0000
usemtl lambert1.001
s 1
f 89/129/31 90/130/31 94/131/31 93/132/31
f 98/133/32 92/134/32 95/135/32
f 92/134/33 91/136/33 96/137/33 95/135/33
f 91/136/34 89/138/35 93/139/35 97/140/34
f 91/136/34 97/140/34 96/137/34
f 90/130/32 92/134/32 98/133/32 94/131/32
f 99/141/36 100/142/36 108/143/36 107/144/36
f 100/142/36 101/145/36 109/146/36 108/143/36
f 101/145/36 102/147/36 110/148/36 109/146/36
f 102/147/36 103/149/36 111/150/36 110/148/36
f 103/149/36 104/151/36 112/152/36 111/150/36
f 104/151/36 105/153/36 113/154/36 112/152/36
f 105/153/36 106/155/36 114/156/36 113/154/36
f 106/155/36 99/141/36 107/144/36 114/156/36
f 107/157/37 108/158/37 116/159/37 115/160/37
f 108/158/38 109/161/38 117/162/38 116/159/38
f 109/161/39 110/163/39 118/164/39 117/162/39
f 110/163/40 111/165/40 119/166/40 118/164/40
f 111/165/41 112/167/41 120/168/41 119/166/41
f 112/167/42 113/169/42 121/170/42 120/168/42
f 113/169/43 114/171/43 122/172/43 121/170/43
f 114/173/44 107/157/44 115/160/44 122/174/44
f 115/175/45 116/176/45 124/177/45 123/178/45
f 116/176/45 117/179/45 125/180/45 124/177/45
f 117/179/45 118/181/45 126/182/45 125/180/45
f 118/181/45 119/183/45 127/184/45 126/182/45
f 119/183/45 120/185/45 128/186/45 127/184/45
f 120/185/45 121/187/45 129/188/45 128/186/45
f 121/187/45 122/189/45 130/190/45 129/188/45
f 122/189/45 115/175/45 123/178/45 130/190/45
f 100/142/36 99/141/36 131/191/36
f 101/145/36 100/142/36 131/191/36
f 102/147/36 101/145/36 131/191/36
f 103/149/36 102/147/36 131/191/36
f 104/151/36 103/149/36 131/191/36
f 105/153/36 104/151/36 131/191/36
f 106/155/36 105/153/36 131/191/36
f 99/141/36 106/155/36 131/191/36
f 123/178/45 124/177/45 132/192/45
f 124/177/45 125/180/45 132/192/45
f 125/180/45 126/182/45 132/192/45
f 126/182/45 127/184/45 132/192/45
f 127/184/45 128/186/45 132/192/45
f 128/186/45 129/188/45 132/192/45
f 129/188/45 130/190/45 132/192/45
f 130/190/45 123/178/45 132/192/45
o wheel4_Mesh.009
v -0.579783 0.048546 0.156206
v -0.579840 0.048546 0.136751
v -0.559783 0.048547 0.156147
v -0.559840 0.048547 0.136692
v -0.579783 0.028997 0.156206
v -0.579840 0.028997 0.136751
v -0.559840 0.028997 0.136692
v -0.559783 0.028997 0.156147
v -0.569783 0.033375 0.156177
v -0.569840 0.033375 0.136722
v -0.576000 0.022350 0.159576
v -0.569904 0.024727 0.159576
v -0.563808 0.022350 0.159576
v -0.561283 0.016610 0.159576
v -0.563808 0.010871 0.159576
v -0.569904 0.008494 0.159576
v -0.576000 0.010871 0.159576
v -0.578525 0.016610 0.159576
v -0.582096 0.028089 0.159576
v -0.569904 0.032844 0.159576
v -0.557712 0.028089 0.159576
v -0.552662 0.016610 0.159576
v -0.557712 0.005132 0.159576
v -0.569904 0.000377 0.159576
v -0.582096 0.005132 0.159576
v -0.587147 0.016610 0.159576
v -0.582096 0.028089 0.133904
v -0.569904 0.032844 0.133904
v -0.557712 0.028089 0.133904
v -0.552662 0.016610 0.133904
v -0.557712 0.005132 0.133904
v -0.569904 0.000377 0.133904
v -0.582096 0.005132 0.133904
v -0.587147 0.016610 0.133904
v -0.576000 0.022350 0.133904
v -0.569904 0.024727 0.133904
v -0.563808 0.022350 0.133905
v -0.561283 0.016610 0.133904
v -0.563808 0.010871 0.133904
v -0.569904 0.008494 0.133904
v -0.576000 0.010871 0.133904
v -0.578525 0.016610 0.133904
v -0.569904 0.016610 0.159576
v -0.569904 0.016610 0.133904
vt 0.519537 0.076852
vt 0.519536 0.066551
vt 0.529887 0.066550
vt 0.529888 0.076851
vt 0.527568 0.061255
vt 0.519535 0.055961
vt 0.529886 0.055960
vt 0.519534 0.045660
vt 0.529885 0.045659
vt 0.519534 0.035070
vt 0.529884 0.035070
vt 0.527567 0.040365
vt 0.651279 0.247683
vt 0.651277 0.244291
vt 0.655197 0.242759
vt 0.655201 0.249545
vt 0.648979 0.241795
vt 0.650601 0.237768
vt 0.645730 0.241658
vt 0.644104 0.237494
vt 0.643434 0.243960
vt 0.639512 0.242098
vt 0.643436 0.247353
vt 0.639516 0.248884
vt 0.645734 0.249849
vt 0.644113 0.253876
vt 0.648983 0.249986
vt 0.650609 0.254150
vt 0.670325 0.238329
vt 0.677111 0.238328
vt 0.677112 0.251640
vt 0.670326 0.251641
vt 0.683896 0.238327
vt 0.683898 0.251639
vt 0.690399 0.238327
vt 0.690401 0.251638
vt 0.696902 0.238326
vt 0.696903 0.251638
vt 0.703688 0.238325
vt 0.703689 0.251637
vt 0.710473 0.238324
vt 0.710475 0.251636
vt 0.716976 0.238324
vt 0.716978 0.251635
vt 0.663822 0.238330
vt 0.663824 0.251642
vt 0.740430 0.250433
vt 0.733644 0.250377
vt 0.735205 0.246469
vt 0.738598 0.246497
vt 0.728688 0.245743
vt 0.732727 0.244152
vt 0.728464 0.239244
vt 0.732615 0.240902
vt 0.733103 0.234688
vt 0.734935 0.238624
vt 0.739889 0.234743
vt 0.738328 0.238652
vt 0.744845 0.239378
vt 0.740806 0.240969
vt 0.745069 0.245877
vt 0.740918 0.244219
vt 0.647357 0.245822
vt 0.736767 0.242560
vn -1.0000 0.0000 0.0029
vn -0.0030 0.0000 -1.0000
vn 1.0000 0.0000 -0.0030
vn 0.0029 -0.0000 1.0000
vn 0.0030 -0.0000 1.0000
vn -0.0000 -0.0000 1.0000
vn -0.3633 0.9317 0.0000
vn 0.3633 0.9317 0.0000
vn 0.9153 0.4027 0.0000
vn 0.9153 -0.4027 -0.0000
vn 0.3633 -0.9317 -0.0000
vn -0.3633 -0.9317 -0.0000
vn -0.9153 -0.4027 -0.0000
vn -0.9153 0.4027 0.0000
vn 0.0000 0.0000 -1.0000
usemtl lambert1.001
s 1
f 133/193/46 134/194/46 138/195/46 137/196/46
f 142/197/47 136/198/47 139/199/47
f 136/198/48 135/200/48 140/201/48 139/199/48
f 135/200/49 133/202/50 137/203/50 141/204/49
f 135/200/49 141/204/49 140/201/49
f 134/194/47 136/198/47 142/197/47 138/195/47
f 143/205/51 144/206/51 152/207/51 151/208/51
f 144/206/51 145/209/51 153/210/51 152/207/51
f 145/209/51 146/211/51 154/212/51 153/210/51
f 146/211/51 147/213/51 155/214/51 154/212/51
f 147/213/51 148/215/51 156/216/51 155/214/51
f 148/215/51 149/217/51 157/218/51 156/216/51
f 149/217/51 150/219/51 158/220/51 157/218/51
f 150/219/51 143/205/51 151/208/51 158/220/51
f 151/221/52 152/222/52 160/223/52 159/224/52
f 152/222/53 153/225/53 161/226/53 160/223/53
f 153/225/54 154/227/54 162/228/54 161/226/54
f 154/227/55 155/229/55 163/230/55 162/228/55
f 155/229/56 156/231/56 164/232/56 163/230/56
f 156/231/57 157/233/57 165/234/57 164/232/57
f 157/233/58 158/235/58 166/236/58 165/234/58
f 158/237/59 151/221/59 159/224/59 166/238/59
f 159/239/60 160/240/60 168/241/60 167/242/60
f 160/240/60 161/243/60 169/244/60 168/241/60
f 161/243/60 162/245/60 170/246/60 169/244/60
f 162/245/60 163/247/60 171/248/60 170/246/60
f 163/247/60 164/249/60 172/250/60 171/248/60
f 164/249/60 165/251/60 173/252/60 172/250/60
f 165/251/60 166/253/60 174/254/60 173/252/60
f 166/253/60 159/239/60 167/242/60 174/254/60
f 144/206/51 143/205/51 175/255/51
f 145/209/51 144/206/51 175/255/51
f 146/211/51 145/209/51 175/255/51
f 147/213/51 146/211/51 175/255/51
f 148/215/51 147/213/51 175/255/51
f 149/217/51 148/215/51 175/255/51
f 150/219/51 149/217/51 175/255/51
f 143/205/51 150/219/51 175/255/51
f 167/242/60 168/241/60 176/256/60
f 168/241/60 169/244/60 176/256/60
f 169/244/60 170/246/60 176/256/60
f 170/246/60 171/248/60 176/256/60
f 171/248/60 172/250/60 176/256/60
f 172/250/60 173/252/60 176/256/60
f 173/252/60 174/254/60 176/256/60
f 174/254/60 167/242/60 176/256/60
o whiteboard_low_Mesh.005
v -0.530932 0.449335 0.022082
v 0.530932 0.449335 0.022082
v -0.530932 1.007933 0.022082
v 0.530932 1.007933 0.022082
v -0.530932 1.007933 -0.022081
v 0.530932 1.007933 -0.022081
v -0.530932 0.449335 -0.022082
v 0.530932 0.449335 -0.022082
v -0.512054 0.467955 0.022082
v 0.512054 0.467955 0.022082
v 0.512054 0.989312 0.022082
v -0.512054 0.989312 0.022082
v -0.512054 0.989312 -0.022081
v 0.512054 0.989312 -0.022081
v 0.512054 0.467955 -0.022081
v -0.512054 0.467955 -0.022081
v -0.512054 0.467955 0.014476
v 0.512054 0.467955 0.014476
v 0.512054 0.989312 0.014476
v -0.512054 0.989312 0.014476
v -0.512054 0.989312 -0.014476
v 0.512054 0.989312 -0.014476
v 0.512054 0.467955 -0.014476
v -0.512054 0.467955 -0.014476
v 0.512054 0.748032 0.014476
v 0.512054 0.722572 0.014476
v 0.512054 0.697114 0.014476
v -0.512054 0.697114 0.014476
v -0.512054 0.722572 0.014476
v -0.512054 0.748032 0.014476
v 0.512054 0.697114 -0.014476
v 0.512054 0.722572 -0.014476
v 0.512054 0.748032 -0.014476
v -0.512054 0.748032 -0.014476
v -0.512054 0.722572 -0.014476
v -0.512054 0.697114 -0.014476
v 0.530932 0.697114 0.022082
v 0.530932 0.722572 0.022082
v 0.530932 0.748032 0.022082
v 0.530932 0.748032 -0.022081
v 0.530932 0.722572 -0.022081
v 0.530932 0.697114 -0.022081
v -0.530932 0.748032 0.022082
v -0.530932 0.722572 0.022082
v -0.530932 0.697114 0.022082
v -0.530932 0.697114 -0.022081
v -0.530932 0.722572 -0.022081
v -0.530932 0.748032 -0.022081
v 0.512054 0.697114 0.022082
v 0.512054 0.722572 0.022082
v 0.512054 0.748032 0.022082
v -0.512054 0.748032 0.022082
v -0.512054 0.722572 0.022082
v -0.512054 0.697114 0.022082
v 0.512054 0.748032 -0.022081
v 0.512054 0.722572 -0.022081
v 0.512054 0.697114 -0.022081
v -0.512054 0.697114 -0.022081
v -0.512054 0.722572 -0.022081
v -0.512054 0.748032 -0.022081
v 0.530932 0.736434 0.012737
v 0.530932 0.722572 0.012737
v 0.530932 0.722572 -0.012736
v 0.530932 0.736434 -0.012736
v 0.530932 0.708712 0.012737
v 0.530932 0.708712 -0.012736
v -0.530932 0.708712 0.012737
v -0.530932 0.722572 0.012737
v -0.530932 0.722572 -0.012736
v -0.530932 0.708712 -0.012736
v -0.530932 0.736434 0.012737
v -0.530932 0.736434 -0.012736
v 0.554529 0.736434 0.012737
v 0.554529 0.722572 0.012737
v 0.554529 0.722572 -0.012736
v 0.554529 0.736434 -0.012736
v 0.554529 0.708712 0.012737
v 0.554529 0.708712 -0.012736
v -0.554529 0.708712 0.012737
v -0.554529 0.722572 0.012737
v -0.554529 0.722572 -0.012736
v -0.554529 0.708712 -0.012736
v -0.554529 0.736434 0.012737
v -0.554529 0.736434 -0.012736
v 0.585336 0.736434 0.012737
v 0.585336 0.722572 0.012737
v 0.585336 0.722572 -0.012736
v 0.585336 0.736434 -0.012736
v 0.585336 0.708712 0.012737
v 0.585336 0.708712 -0.012736
v -0.585336 0.708712 0.012737
v -0.585336 0.722572 0.012737
v -0.585336 0.722572 -0.012736
v -0.585336 0.708712 -0.012736
v -0.585336 0.736434 0.012737
v -0.585336 0.736434 -0.012736
v 0.554529 0.422651 0.012737
v 0.554529 0.422651 -0.012736
v 0.585336 0.422651 -0.012736
v 0.585336 0.422651 0.012737
v -0.554529 0.422651 -0.012736
v -0.554529 0.422651 0.012737
v -0.585336 0.422651 0.012737
v -0.585336 0.422651 -0.012736
v 0.554529 0.397391 0.012737
v 0.554529 0.397391 -0.012736
v 0.585336 0.397391 -0.012736
v 0.585336 0.397391 0.012737
v -0.554529 0.397391 -0.012736
v -0.554529 0.397391 0.012737
v -0.585336 0.397391 0.012737
v -0.585336 0.397391 -0.012736
v 0.554529 0.179506 0.012736
v 0.554529 0.179506 -0.012736
v 0.585336 0.179506 -0.012736
v 0.585336 0.179506 0.012736
v -0.554529 0.179507 -0.012736
v -0.554529 0.179507 0.012736
v -0.585336 0.179507 0.012736
v -0.585336 0.179507 -0.012736
v 0.554529 0.146667 0.012736
v 0.554529 0.146667 -0.012736
v 0.585336 0.146667 -0.012736
v 0.585336 0.146667 0.012736
v -0.554529 0.146668 -0.012736
v -0.554529 0.146668 0.012736
v -0.585336 0.146668 0.012736
v -0.585336 0.146668 -0.012736
v 0.554529 0.067681 0.012736
v 0.554529 0.067681 -0.012736
v 0.585336 0.067681 -0.012736
v 0.585336 0.067681 0.012736
v -0.554529 0.067681 -0.012736
v -0.554529 0.067681 0.012736
v -0.585336 0.067681 0.012736
v -0.585336 0.067681 -0.012736
v 0.554529 0.048881 0.012736
v 0.554529 0.048881 -0.012736
v 0.585336 0.048881 -0.012736
v 0.585336 0.048881 0.012736
v -0.554529 0.048881 -0.012736
v -0.554529 0.048881 0.012736
v -0.585336 0.048881 0.012736
v -0.585336 0.048881 -0.012736
v 0.548367 0.418862 -0.008774
v 0.548367 0.401180 -0.008774
v 0.548367 0.401180 0.008774
v 0.548367 0.418862 0.008774
v -0.544998 0.418862 0.008774
v -0.544998 0.401180 0.008774
v -0.544998 0.401180 -0.008774
v -0.544998 0.418862 -0.008774
v 0.556754 0.756529 -0.010472
v 0.556754 0.756529 0.010472
v 0.583111 0.756529 0.010472
v 0.583111 0.756529 -0.010472
v -0.557610 0.756529 0.010472
v -0.557610 0.756529 -0.010472
v -0.582255 0.756529 -0.010472
v -0.582255 0.756529 0.010472
v 0.548367 0.176587 -0.010533
v 0.548367 0.149586 -0.010533
v 0.548367 0.149586 0.010534
v 0.548367 0.176587 0.010534
v -0.544998 0.176587 0.010534
v -0.544998 0.149587 0.010534
v -0.544998 0.149587 -0.010533
v -0.544998 0.176587 -0.010533
v 0.554529 0.067681 -0.199308
v 0.585336 0.067681 -0.199308
v 0.585336 0.048881 -0.199308
v 0.554529 0.048881 -0.199308
v 0.554529 0.067681 0.199308
v 0.585336 0.067681 0.199308
v 0.554529 0.048881 0.199308
v 0.585336 0.048881 0.199308
v -0.554529 0.067681 0.199308
v -0.585336 0.067681 0.199308
v -0.585336 0.048881 0.199308
v -0.554529 0.048881 0.199308
v -0.554529 0.067681 -0.199308
v -0.585336 0.067681 -0.199308
v -0.554529 0.048881 -0.199308
v -0.585336 0.048881 -0.199308
v 0.406207 0.418862 -0.008774
v -0.409065 0.418862 -0.008774
v 0.406207 0.401180 -0.008774
v -0.409065 0.401180 -0.008774
v 0.406207 0.401180 0.008774
v -0.409065 0.401180 0.008774
v 0.406207 0.418862 0.008774
v -0.409065 0.418862 0.008774
v 0.393977 0.403262 0.008774
v -0.396836 0.403262 0.008774
v 0.393977 0.406534 0.008774
v -0.396836 0.406534 0.008774
v 0.393977 0.403262 0.045243
v -0.396836 0.403262 0.045243
v 0.393977 0.406534 0.045243
v -0.396836 0.406534 0.045243
v 0.376404 0.403262 0.064991
v -0.379263 0.403262 0.064991
v 0.376404 0.406534 0.064991
v -0.379263 0.406534 0.064991
vt 0.819974 0.417612
vt 0.279768 0.421576
vt 0.279865 0.398097
vt 0.820203 0.393612
vt 0.280895 0.331880
vt 0.821391 0.322773
vt 0.821367 0.346746
vt 0.280995 0.355328
vt 0.812100 0.356893
vt 0.284635 0.364226
vt 0.810624 0.427691
vt 0.283245 0.430515
vt 0.283542 0.389021
vt 0.809596 0.383630
vt 0.284579 0.322781
vt 0.810697 0.312894
vt 0.812090 0.360989
vt 0.284679 0.368320
vt 0.810579 0.431791
vt 0.283250 0.434614
vt 0.283599 0.384921
vt 0.809575 0.379531
vt 0.284604 0.318686
vt 0.810641 0.308800
vt 0.536225 0.563402
vt 0.536224 0.576603
vt 0.005187 0.576527
vt 0.005188 0.563325
vt 0.536222 0.589805
vt 0.005184 0.589729
vt 0.536860 0.847652
vt 0.536862 0.860854
vt 0.005824 0.860906
vt 0.005823 0.847704
vt 0.536863 0.874055
vt 0.005825 0.874107
vt 0.674910 0.633264
vt 0.675803 0.640808
vt 0.663378 0.641827
vt 0.663768 0.635111
vt 0.676104 0.648293
vt 0.662650 0.648796
vt 0.568733 0.651228
vt 0.567740 0.644881
vt 0.580938 0.643733
vt 0.582314 0.650008
vt 0.566706 0.638425
vt 0.579323 0.637715
vt 0.005206 0.444498
vt 0.536243 0.444575
vt 0.005810 0.722592
vt 0.536848 0.722539
vt 0.004623 0.417284
vt 0.005037 0.393470
vt 0.138546 0.395773
vt 0.138160 0.419632
vt 0.172796 0.355171
vt 0.172674 0.330683
vt 0.138027 0.429829
vt 0.014487 0.427639
vt 0.005319 0.353636
vt 0.145251 0.354682
vt 0.145221 0.364869
vt 0.015277 0.363879
vt 0.165855 0.395890
vt 0.165973 0.385752
vt 0.172717 0.320557
vt 0.137977 0.433931
vt 0.014417 0.431739
vt 0.145214 0.368967
vt 0.015248 0.367975
vt 0.166142 0.381658
vt 0.172859 0.316468
vt 0.536204 0.714918
vt 0.005167 0.714841
vt 0.536874 0.992882
vt 0.005837 0.992934
vt 0.165747 0.420377
vt 0.145391 0.330841
vt 0.005492 0.329846
vt 0.165629 0.430525
vt 0.172790 0.365306
vt 0.138765 0.385579
vt 0.015255 0.383464
vt 0.145512 0.320655
vt 0.015597 0.319749
vt 0.165693 0.434621
vt 0.172900 0.369397
vt 0.138857 0.381478
vt 0.015328 0.379365
vt 0.145564 0.316559
vt 0.015628 0.315653
vt 0.151915 0.419911
vt 0.151791 0.430151
vt 0.152190 0.395967
vt 0.152412 0.385707
vt 0.158987 0.354824
vt 0.158972 0.365058
vt 0.159019 0.330884
vt 0.159156 0.320637
vt 0.151810 0.434262
vt 0.159037 0.369163
vt 0.152564 0.381599
vt 0.159274 0.316532
vt 0.152004 0.414850
vt 0.159525 0.415049
vt 0.159631 0.401044
vt 0.152176 0.401017
vt 0.144510 0.414703
vt 0.144704 0.400914
vt 0.159023 0.349756
vt 0.166524 0.349899
vt 0.166513 0.335898
vt 0.159040 0.335920
vt 0.151548 0.349703
vt 0.151589 0.335909
vt 0.640622 0.631572
vt 0.636587 0.634695
vt 0.629318 0.635416
vt 0.635405 0.626775
vt 0.643371 0.641726
vt 0.644980 0.637561
vt 0.649713 0.631768
vt 0.649787 0.640575
vt 0.635364 0.639851
vt 0.632022 0.646940
vt 0.640194 0.644426
vt 0.646197 0.648010
vt 0.601212 0.598817
vt 0.602270 0.605959
vt 0.590284 0.607850
vt 0.589152 0.600698
vt 0.605909 0.632073
vt 0.608833 0.637531
vt 0.598637 0.646542
vt 0.595232 0.637918
vt 0.617706 0.643338
vt 0.611415 0.650437
vt 0.603202 0.613085
vt 0.591544 0.615022
vt 0.603996 0.626050
vt 0.591802 0.629425
vt 0.689997 0.630552
vt 0.691420 0.638730
vt 0.652422 0.621124
vt 0.660122 0.611594
vt 0.672060 0.622217
vt 0.663150 0.626204
vt 0.692278 0.647134
vt 0.367932 0.073893
vt 0.354323 0.073859
vt 0.354136 0.056676
vt 0.367624 0.056588
vt 0.552532 0.651483
vt 0.551890 0.644720
vt 0.118226 0.042225
vt 0.131702 0.042267
vt 0.131551 0.059502
vt 0.117997 0.058785
vt 0.551371 0.637665
vt 0.571898 0.617275
vt 0.581922 0.622702
vt 0.575030 0.630341
vt 0.565966 0.627955
vt 0.644682 0.797866
vt 0.631265 0.797657
vt 0.660973 0.798049
vt 0.674413 0.798157
vt 0.690574 0.798282
vt 0.611035 0.798430
vt 0.597770 0.798141
vt 0.568809 0.797963
vt 0.552735 0.797983
vt 0.582041 0.797980
vt 0.660856 0.811284
vt 0.644676 0.811126
vt 0.674238 0.811407
vt 0.690406 0.811555
vt 0.568680 0.811162
vt 0.552626 0.811165
vt 0.581938 0.811195
vt 0.597983 0.811210
vt 0.631314 0.811000
vt 0.643610 0.925429
vt 0.630247 0.925302
vt 0.659773 0.925583
vt 0.673137 0.925709
vt 0.689299 0.925863
vt 0.611272 0.811200
vt 0.611325 0.924845
vt 0.598035 0.924854
vt 0.568671 0.924867
vt 0.552600 0.924872
vt 0.581961 0.924865
vt 0.659609 0.942810
vt 0.643448 0.942657
vt 0.672973 0.942937
vt 0.689134 0.943090
vt 0.568685 0.942002
vt 0.552612 0.942013
vt 0.581974 0.941994
vt 0.598047 0.941982
vt 0.630085 0.942530
vt 0.643055 0.984093
vt 0.629692 0.983966
vt 0.659216 0.984246
vt 0.672579 0.984373
vt 0.688741 0.984526
vt 0.611337 0.941971
vt 0.611370 0.983179
vt 0.598080 0.983189
vt 0.568717 0.983212
vt 0.552645 0.983224
vt 0.582007 0.983202
vt 0.368347 0.083935
vt 0.354433 0.083953
vt 0.245243 0.065356
vt 0.254663 0.049121
vt 0.258588 0.058055
vt 0.253479 0.072679
vt 0.353891 0.046527
vt 0.367893 0.046082
vt 0.467439 0.050875
vt 0.467412 0.078623
vt 0.460495 0.071824
vt 0.461730 0.057483
vt 0.118277 0.032137
vt 0.132114 0.031787
vt 0.231459 0.038267
vt 0.230991 0.065985
vt 0.224220 0.059062
vt 0.225661 0.044764
vt 0.131767 0.069533
vt 0.117689 0.069173
vt 0.018318 0.066425
vt 0.008113 0.049446
vt 0.017560 0.042295
vt 0.021811 0.057742
vt 0.094105 0.288938
vt 0.083387 0.287992
vt 0.084840 0.284374
vt 0.094429 0.285041
vt 0.072617 0.283989
vt 0.076005 0.281748
vt 0.116757 0.283624
vt 0.105201 0.288096
vt 0.103998 0.284202
vt 0.113061 0.281222
vt 0.056181 0.213180
vt 0.067148 0.216516
vt 0.063524 0.220347
vt 0.054453 0.218412
vt 0.022347 0.216518
vt 0.034317 0.212879
vt 0.035474 0.218476
vt 0.026361 0.220583
vt 0.045317 0.212378
vt 0.045023 0.217886
vt 0.640597 0.617503
vt 0.685936 0.619487
vt 0.582757 0.614082
vt 0.553319 0.627269
vt 0.014215 0.136130
vt 0.014977 0.120786
vt 0.018336 0.121918
vt 0.017689 0.136016
vt 0.017403 0.108932
vt 0.020223 0.111113
vt 0.017717 0.163494
vt 0.014586 0.147420
vt 0.018131 0.147006
vt 0.020544 0.160936
vt 0.591300 0.147869
vt 0.588956 0.163657
vt 0.584534 0.161046
vt 0.586185 0.147123
vt 0.589576 0.108729
vt 0.591406 0.121164
vt 0.586168 0.122069
vt 0.584896 0.111142
vt 0.591726 0.136517
vt 0.586538 0.136127
vt 0.353202 0.029975
vt 0.253935 0.032657
vt 0.253518 0.082777
vt 0.368645 0.029581
vt 0.468213 0.034365
vt 0.132377 0.086025
vt 0.231633 0.082464
vt 0.117006 0.085693
vt 0.017612 0.082870
vt 0.017616 0.032222
vt 0.547082 0.217077
vt 0.124654 0.216929
vt 0.124653 0.207806
vt 0.547082 0.207953
vt 0.547081 0.226270
vt 0.124657 0.226122
vt 0.547078 0.235394
vt 0.124660 0.235245
vt 0.140125 0.265559
vt 0.531616 0.265701
vt 0.531203 0.267350
vt 0.140518 0.267206
vt 0.084932 0.209799
vt 0.093897 0.209930
vt 0.075730 0.209592
vt 0.102717 0.209861
vt 0.111695 0.209596
vt 0.063465 0.289656
vt 0.054239 0.289504
vt 0.036351 0.289452
vt 0.027403 0.289657
vt 0.045301 0.289400
vt 0.540741 0.236474
vt 0.130997 0.236330
vt 0.439264 0.176439
vt 0.439264 0.185608
vt 0.432923 0.179216
vt 0.432923 0.177519
vt 0.016517 0.185628
vt 0.022858 0.179234
vt 0.016516 0.176459
vt 0.022858 0.177538
vt 0.540730 0.255437
vt 0.131010 0.255290
vt 0.544780 0.295825
vt 0.543120 0.296270
vt 0.540584 0.277602
vt 0.542048 0.276809
vt 0.128563 0.296355
vt 0.131160 0.277465
vt 0.126884 0.295907
vt 0.129684 0.276658
vn 0.0000 1.0000 0.0000
vn 0.0000 -1.0000 0.0000
vn -0.0000 -0.0000 1.0000
vn -0.0000 0.0000 -1.0000
vn 1.0000 0.0000 0.0000
vn -1.0000 -0.0000 0.0000
vn -0.5409 0.0000 -0.8411
vn -0.5238 -0.8518 0.0000
vn -0.5409 -0.0000 0.8411
vn -0.5238 0.8518 0.0000
vn 0.3839 0.0000 0.9234
vn 0.0392 0.0000 0.9992
vn 0.3694 -0.9293 0.0000
vn 0.0381 -0.9993 -0.0000
vn 0.3839 0.0000 -0.9234
vn 0.0392 0.0000 -0.9992
vn 0.3694 0.9293 0.0000
vn 0.0381 0.9993 -0.0001
vn 0.0381 0.9993 -0.0000
vn -0.9939 0.1101 0.0000
vn 0.0000 0.1120 0.9937
vn 0.9939 0.1101 0.0000
vn 0.0000 0.1120 -0.9937
vn 0.9885 0.1515 0.0000
vn -0.9885 0.1515 0.0000
vn -0.3367 0.0000 -0.9416
vn -0.4281 -0.9037 0.0000
vn -0.3367 -0.0000 0.9416
vn -0.4281 0.9037 0.0000
vn 0.2252 -0.0000 0.9743
vn 0.2929 -0.9562 0.0000
vn 0.2252 0.0000 -0.9743
vn 0.2929 0.9562 0.0000
vn 0.7470 0.0000 0.6648
vn -0.7470 0.0000 0.6648
usemtl lambert1.001
s 1
f 179/257/61 180/258/61 182/259/61 181/260/61
f 183/261/62 184/262/62 178/263/62 177/264/62
f 177/264/63 178/263/63 186/265/63 185/266/63
f 180/258/63 179/257/63 188/267/63 187/268/63
f 181/260/64 182/259/64 190/269/64 189/270/64
f 184/262/64 183/261/64 192/271/64 191/272/64
f 185/266/61 186/265/61 194/273/61 193/274/61
f 187/268/62 188/267/62 196/275/62 195/276/62
f 189/270/62 190/269/62 198/277/62 197/278/62
f 191/272/61 192/271/61 200/279/61 199/280/61
f 203/281/63 202/282/63 205/283/63 204/284/63
f 202/282/63 201/285/63 206/286/63 205/283/63
f 209/287/64 208/288/64 211/289/64 210/290/64
f 208/288/64 207/291/64 212/292/64 211/289/64
f 261/293/65 262/294/65 263/295/65 264/296/65
f 262/294/65 265/297/65 266/298/65 263/295/65
f 267/299/66 268/300/66 269/301/66 270/302/66
f 268/300/66 271/303/66 272/304/66 269/301/66
f 193/305/63 194/306/63 203/281/63 204/284/63
f 197/307/64 198/308/64 209/287/64 210/290/64
f 178/309/65 184/310/65 218/311/65 213/312/65
f 183/261/66 177/264/66 221/313/66 222/314/66
f 178/309/63 213/312/63 225/315/63 186/316/63
f 179/317/63 219/318/63 228/319/63 188/320/63
f 182/259/64 216/321/64 231/322/64 190/269/64
f 183/261/64 222/314/64 234/323/64 192/271/64
f 186/316/66 225/315/66 203/324/66 194/325/66
f 188/320/65 228/319/65 206/326/65 196/327/65
f 190/269/66 231/322/66 209/328/66 198/277/66
f 192/271/65 234/323/65 212/329/65 200/279/65
f 206/286/63 201/285/63 195/330/63 196/331/63
f 212/292/64 207/291/64 199/332/64 200/333/64
f 215/334/65 216/321/65 182/259/65 180/258/65
f 224/335/66 219/318/66 179/317/66 181/336/66
f 227/337/63 215/334/63 180/258/63 187/268/63
f 230/338/63 221/313/63 177/264/63 185/266/63
f 233/339/64 218/311/64 184/310/64 191/340/64
f 236/341/64 224/335/64 181/336/64 189/342/64
f 201/343/66 227/337/66 187/268/66 195/276/66
f 204/344/65 230/338/65 185/266/65 193/274/65
f 207/345/66 233/339/66 191/340/66 199/346/66
f 210/347/65 236/341/65 189/342/65 197/348/65
f 213/312/63 214/349/63 226/350/63 225/315/63
f 214/349/63 215/334/63 227/337/63 226/350/63
f 216/321/64 217/351/64 232/352/64 231/322/64
f 217/351/64 218/311/64 233/339/64 232/352/64
f 219/318/63 220/353/63 229/354/63 228/319/63
f 220/353/63 221/313/63 230/338/63 229/354/63
f 222/314/64 223/355/64 235/356/64 234/323/64
f 223/355/64 224/335/64 236/341/64 235/356/64
f 201/343/66 202/357/66 226/350/66 227/337/66
f 202/357/66 203/324/66 225/315/66 226/350/66
f 204/344/65 205/358/65 229/354/65 230/338/65
f 205/358/65 206/326/65 228/319/65 229/354/65
f 207/345/66 208/359/66 232/352/66 233/339/66
f 208/359/66 209/328/66 231/322/66 232/352/66
f 210/347/65 211/360/65 235/356/65 236/341/65
f 211/360/65 212/329/65 234/323/65 235/356/65
f 215/334/65 214/349/65 238/361/65 237/362/65
f 217/351/65 216/321/65 240/363/65 239/364/65
f 216/321/65 215/334/65 237/362/65 240/363/65
f 214/349/65 213/312/65 241/365/65 238/361/65
f 213/312/65 218/311/65 242/366/65 241/365/65
f 218/311/65 217/351/65 239/364/65 242/366/65
f 221/313/66 220/353/66 244/367/66 243/368/66
f 223/355/66 222/314/66 246/369/66 245/370/66
f 222/314/66 221/313/66 243/368/66 246/369/66
f 220/353/66 219/318/66 247/371/66 244/367/66
f 219/318/66 224/335/66 248/372/66 247/371/66
f 224/335/66 223/355/66 245/370/66 248/372/66
f 237/373/63 238/374/63 250/375/63 249/376/63
f 239/377/64 240/378/64 252/379/64 251/380/64
f 240/378/61 237/373/61 249/376/61 252/379/61
f 238/374/63 241/381/63 253/382/63 250/375/63
f 241/381/62 242/383/62 254/384/62 253/382/62
f 242/383/64 239/377/64 251/380/64 254/384/64
f 243/385/63 244/386/63 256/387/63 255/388/63
f 245/389/64 246/390/64 258/391/64 257/392/64
f 246/390/62 243/393/62 255/394/62 258/391/62
f 244/386/63 247/395/63 259/396/63 256/387/63
f 247/395/61 248/397/61 260/398/61 259/396/61
f 248/397/64 245/389/64 257/392/64 260/398/64
f 249/399/63 250/400/63 262/294/63 261/293/63
f 251/380/64 252/379/64 264/296/64 263/295/64
f 329/401/61 330/402/61 331/403/61 332/404/61
f 250/400/63 253/405/63 265/297/63 262/294/63
f 313/406/62 314/407/62 315/408/62 316/409/62
f 254/384/64 251/380/64 263/295/64 266/298/64
f 255/410/63 256/411/63 268/300/63 267/299/63
f 257/392/64 258/391/64 270/302/64 269/301/64
f 317/412/62 318/413/62 319/414/62 320/415/62
f 256/411/63 259/416/63 271/303/63 268/300/63
f 333/417/61 334/418/61 335/419/61 336/420/61
f 260/398/64 257/392/64 269/301/64 272/304/64
f 253/382/66 254/384/66 274/421/66 273/422/66
f 254/384/64 266/298/64 275/423/64 274/421/64
f 266/298/65 265/297/65 276/424/65 275/423/65
f 265/297/63 253/405/63 273/425/63 276/424/63
f 258/391/65 255/394/65 278/426/65 277/427/65
f 255/410/63 267/299/63 279/428/63 278/429/63
f 267/299/66 270/302/66 280/430/66 279/428/66
f 270/302/64 258/391/64 277/427/64 280/430/64
f 274/421/64 275/423/64 283/431/64 282/432/64
f 275/423/65 276/424/65 284/433/65 283/431/65
f 276/424/63 273/425/63 281/434/63 284/433/63
f 278/429/63 279/428/63 287/435/63 286/436/63
f 279/428/66 280/430/66 288/437/66 287/435/66
f 280/430/64 277/427/64 285/438/64 288/437/64
f 281/439/66 282/432/66 290/440/66 289/441/66
f 282/432/64 283/431/64 291/442/64 290/440/64
f 283/431/65 284/433/65 292/443/65 291/442/65
f 284/433/63 281/434/63 289/444/63 292/443/63
f 285/438/65 286/445/65 294/446/65 293/447/65
f 286/436/63 287/435/63 295/448/63 294/449/63
f 287/435/66 288/437/66 296/450/66 295/448/66
f 288/437/64 285/438/64 293/447/64 296/450/64
f 290/440/64 291/442/64 299/451/64 298/452/64
f 291/442/65 292/443/65 300/453/65 299/451/65
f 292/443/63 289/444/63 297/454/63 300/453/63
f 294/449/63 295/448/63 303/455/63 302/456/63
f 295/448/66 296/450/66 304/457/66 303/455/66
f 296/450/64 293/447/64 301/458/64 304/457/64
f 297/459/66 298/452/66 306/460/66 305/461/66
f 298/452/64 299/451/64 307/462/64 306/460/64
f 299/451/65 300/453/65 308/463/65 307/462/65
f 300/453/63 297/454/63 305/464/63 308/463/63
f 301/458/65 302/465/65 310/466/65 309/467/65
f 302/456/63 303/455/63 311/468/63 310/469/63
f 303/455/66 304/457/66 312/470/66 311/468/66
f 304/457/64 301/458/64 309/467/64 312/470/64
f 305/471/66 306/472/66 314/407/66 313/406/66
f 345/473/64 346/474/64 347/475/64 348/476/64
f 307/477/65 308/478/65 316/409/65 315/408/65
f 350/479/63 349/480/63 351/481/63 352/482/63
f 309/483/65 310/484/65 318/413/65 317/412/65
f 353/485/63 354/486/63 355/487/63 356/488/63
f 311/489/66 312/490/66 320/415/66 319/414/66
f 358/491/64 357/492/64 359/493/64 360/494/64
f 274/495/67 282/496/67 322/497/67 321/498/67
f 282/496/68 281/499/68 323/500/68 322/497/68
f 281/501/69 273/502/69 324/503/69 323/504/69
f 273/502/70 274/495/70 321/498/70 324/503/70
f 278/505/71 286/506/71 326/507/72 325/508/72
f 286/509/73 285/510/73 327/511/74 326/512/74
f 285/510/75 277/513/75 328/514/76 327/511/76
f 277/513/77 278/505/77 325/508/78 328/514/79
f 252/379/80 249/376/80 330/515/80 329/401/80
f 249/399/81 261/293/81 331/403/81 330/516/81
f 261/293/82 264/296/82 332/404/82 331/403/82
f 264/296/83 252/379/83 329/401/83 332/404/83
f 259/396/84 260/398/84 334/418/84 333/517/84
f 260/398/83 272/304/83 335/419/83 334/418/83
f 272/304/85 271/303/85 336/420/85 335/419/85
f 271/303/81 259/416/81 333/518/81 336/420/81
f 290/519/86 298/520/86 338/521/86 337/522/86
f 298/520/87 297/523/87 339/524/87 338/521/87
f 297/525/88 289/526/88 340/527/88 339/528/88
f 289/526/89 290/519/89 337/522/89 340/527/89
f 294/529/90 302/530/90 342/531/90 341/532/90
f 302/533/91 301/534/91 343/535/91 342/536/91
f 301/534/92 293/537/92 344/538/92 343/535/92
f 293/537/93 294/529/93 341/532/93 344/538/93
f 338/521/62 339/524/62 342/536/62 343/535/62
f 339/528/63 340/527/63 341/532/63 342/531/63
f 338/521/64 343/535/64 344/538/64 337/522/64
f 337/522/61 344/538/61 341/532/61 340/527/61
f 306/539/61 307/477/61 346/474/61 345/540/61
f 307/477/65 315/408/65 347/475/65 346/474/65
f 315/408/62 314/407/62 348/476/62 347/475/62
f 314/407/66 306/472/66 345/541/66 348/476/66
f 308/478/61 305/542/61 349/543/61 350/479/61
f 305/471/66 313/406/66 351/481/66 349/480/66
f 313/406/62 316/409/62 352/482/62 351/481/62
f 316/409/65 308/478/65 350/479/65 352/482/65
f 310/544/61 311/489/61 354/486/61 353/545/61
f 311/489/66 319/414/66 355/487/66 354/486/66
f 319/414/62 318/413/62 356/488/62 355/487/62
f 318/413/65 310/484/65 353/485/65 356/488/65
f 312/490/61 309/546/61 357/547/61 358/491/61
f 309/483/65 317/412/65 359/493/65 357/548/65
f 317/412/62 320/415/62 360/494/62 359/493/62
f 320/415/66 312/490/66 358/491/66 360/494/66
f 361/549/61 362/550/61 368/551/61 367/552/61
f 362/550/64 361/549/64 363/553/64 364/554/64
f 364/554/62 363/553/62 365/555/62 366/556/62
f 378/557/63 377/558/63 379/559/63 380/560/63
f 321/498/64 322/497/64 363/561/64 361/562/64
f 322/497/62 323/500/62 365/563/62 363/561/62
f 323/504/63 324/503/63 367/564/63 365/565/63
f 324/503/61 321/498/61 361/562/61 367/564/61
f 325/508/72 326/507/72 366/566/63 368/567/63
f 326/512/74 327/511/74 364/568/62 366/569/62
f 327/511/76 328/514/76 362/570/64 364/568/64
f 328/514/79 325/508/78 368/567/61 362/570/61
f 366/556/63 365/555/63 369/571/63 370/572/63
f 365/573/63 367/574/63 371/575/63 369/576/63
f 367/574/63 368/577/63 372/578/63 371/575/63
f 368/577/63 366/579/63 370/580/63 372/578/63
f 370/572/62 369/571/62 373/581/62 374/582/62
f 369/583/65 371/584/65 375/585/65 373/586/65
f 371/584/61 372/587/61 376/588/61 375/585/61
f 372/587/66 370/589/66 374/590/66 376/588/66
f 374/582/62 373/581/62 377/558/62 378/557/62
f 373/586/94 375/585/94 379/559/94 377/558/94
f 375/585/61 376/588/61 380/560/61 379/559/61
f 376/588/95 374/590/95 378/557/95 380/560/95
