# Blender v2.92.0 OBJ File: 'fixed.blend'
# www.blender.org
mtllib frame_inner.mtl
o Body27_Body27.001
v -2.235200 2.235200 0.057150
v -2.235200 2.235200 0.076200
v -2.235200 -0.000000 0.076200
v -2.235200 -0.000000 0.057150
v -2.292350 2.292350 -0.057150
v -2.292350 2.292350 0.057150
v -2.292350 -0.000000 0.057150
v -2.292350 0.000000 -0.057150
v -2.235200 2.235200 -0.076200
v -2.235200 2.235200 -0.057150
v -2.235200 0.000000 -0.057150
v -2.235200 0.000000 -0.076200
v -2.336800 -0.000000 0.076200
v -2.336800 0.000000 -0.076200
v 2.292350 2.292350 -0.057150
v 2.292350 2.292350 0.057150
v 2.235200 2.235200 -0.057150
v 2.235200 0.000000 -0.057150
v 2.292350 0.000000 -0.057150
v 2.235200 2.235200 -0.076200
v 2.235200 2.235200 0.057150
v 2.235200 2.235200 0.076200
v -2.336800 2.336800 0.076200
v -2.336800 2.336800 -0.076200
v 2.292350 -0.000000 0.057150
v 2.235200 -0.000000 0.057150
v 2.235200 0.000000 -0.076200
v 2.336800 0.000000 -0.076200
v 2.336800 2.336800 -0.076200
v 2.336800 2.336800 0.076200
v 2.336800 -0.000000 0.076200
v 2.235200 -0.000000 0.076200
vt 0.762421 0.493958
vt 0.762421 0.504700
vt 0.526184 0.504700
vt 0.526184 0.977173
vt 0.762421 0.977173
vt 0.762421 0.987915
vt 0.515442 0.987915
vt 0.515442 0.493958
vt 0.895302 0.484558
vt 0.883222 0.484558
vt 0.883222 0.000000
vt 0.895302 0.000000
vt 0.835571 0.728054
vt 0.833558 0.728054
vt 0.833558 0.491812
vt 0.835571 0.491812
vt 0.762416 0.738792
vt 0.762416 0.491812
vt 0.778524 0.491812
vt 0.778524 0.738792
vt 0.500671 0.515436
vt 0.512752 0.515436
vt 0.512752 0.757718
vt 0.500671 0.757718
vt 0.783218 0.768993
vt 0.789261 0.768993
vt 0.789261 0.771007
vt 0.778519 0.771007
vt 0.778519 0.754900
vt 0.789261 0.754900
vt 0.789261 0.756913
vt 0.783218 0.756913
vt 0.918792 0.472488
vt 0.916779 0.472488
vt 0.916779 0.000000
vt 0.918792 0.000000
vt 0.484563 0.762416
vt 0.484563 0.515436
vt 0.500671 0.515436
vt 0.500671 0.762416
vt 0.242279 0.515442
vt 0.484558 0.515442
vt 0.484558 0.521484
vt 0.248322 0.521484
vt 0.248322 0.993973
vt 0.484558 0.993973
vt 0.484558 1.000000
vt 0.242279 1.000000
vt 0.835571 0.491812
vt 0.837584 0.491812
vt 0.837584 0.728054
vt 0.835571 0.728054
vt 0.512752 0.515436
vt 0.514765 0.515436
vt 0.514765 0.751678
vt 0.512752 0.751678
vt 0.242279 0.515442
vt 0.242279 0.521484
vt 0.006042 0.521484
vt 0.006042 0.993973
vt 0.242279 0.993973
vt 0.242279 1.000000
vt 0.000000 1.000000
vt 0.000000 0.515442
vt 0.837584 0.491812
vt 0.839597 0.491812
vt 0.839597 0.728054
vt 0.837584 0.728054
vt 0.869799 0.000000
vt 0.869799 0.493958
vt 0.853691 0.493958
vt 0.853691 0.000000
vt 0.515442 0.000000
vt 0.762421 0.000000
vt 0.762421 0.010742
vt 0.526184 0.010742
vt 0.526184 0.483215
vt 0.762421 0.483215
vt 0.762421 0.493958
vt 0.515442 0.493958
vt 0.920805 0.472488
vt 0.918792 0.472488
vt 0.918792 0.000000
vt 0.920805 0.000000
vt 0.789261 0.738792
vt 0.789261 0.754900
vt 0.778519 0.754900
vt 0.778519 0.752886
vt 0.784561 0.752886
vt 0.784561 0.740805
vt 0.778519 0.740805
vt 0.778519 0.738792
vt 0.778523 0.491812
vt 0.790604 0.491812
vt 0.790604 0.734094
vt 0.778523 0.734094
vn 0.0000 0.0000 -1.0000
vn 0.0000 -1.0000 0.0000
vn 1.0000 0.0000 0.0000
vn -1.0000 0.0000 0.0000
vn 0.0000 -0.0000 1.0000
vn 0.0000 1.0000 0.0000
usemtl Brushed__Copper.001
s 1
f 28/1/1 27/2/1 20/3/1 9/4/1 12/5/1 14/6/1 24/7/1 29/8/1
f 6/9/2 5/10/2 15/11/2 16/12/2
f 1/13/3 2/14/3 3/15/3 4/16/3
f 24/17/4 14/18/4 13/19/4 23/20/4
f 7/21/3 8/22/3 5/23/3 6/24/3
f 7/25/2 4/26/2 3/27/2 13/28/2 14/29/2 12/30/2 11/31/2 8/32/2
f 20/33/2 17/34/2 10/35/2 9/36/2
f 30/37/3 31/38/3 28/39/3 29/40/3
f 16/41/1 25/42/1 26/43/1 21/44/1 1/45/1 4/46/1 7/47/1 6/48/1
f 27/49/4 18/50/4 17/51/4 20/52/4
f 11/53/3 12/54/3 9/55/3 10/56/3
f 8/57/5 11/58/5 10/59/5 17/60/5 18/61/5 19/62/5 15/63/5 5/64/5
f 26/65/4 32/66/4 22/67/4 21/68/4
f 29/69/6 24/70/6 23/71/6 30/72/6
f 23/73/5 13/74/5 3/75/5 2/76/5 22/77/5 32/78/5 31/79/5 30/80/5
f 21/81/2 22/82/2 2/83/2 1/84/2
f 28/85/2 31/86/2 32/87/2 26/88/2 25/89/2 19/90/2 18/91/2 27/92/2
f 19/93/4 25/94/4 16/95/4 15/96/4
