# Blender v2.92.0 OBJ File: 'fixed.blend'
# www.blender.org
mtllib frame_outer.mtl
o Body26_Body26.001
v -2.336800 2.336800 -0.050800
v -2.336800 2.336800 0.050800
v -2.336800 -0.000000 0.050800
v -2.336800 0.000000 -0.050800
v -2.438400 -0.000000 0.050800
v -2.438400 0.000000 -0.050800
v 2.336800 2.336800 0.050800
v 2.336800 -0.000000 0.050800
v 2.438400 -0.000000 0.050800
v 2.438400 2.438400 0.050800
v -2.438400 2.438400 0.050800
v 2.336800 2.336800 -0.050800
v -2.438400 2.438400 -0.050800
v 2.438400 0.000000 -0.050800
v 2.438400 2.438400 -0.050800
v 2.336800 0.000000 -0.050800
vt 0.257721 0.515442
vt 0.257721 0.000000
vt 0.515442 0.000000
vt 0.515442 0.010742
vt 0.268463 0.010742
vt 0.268463 0.504700
vt 0.515442 0.504700
vt 0.515442 0.515442
vt 0.812080 0.491812
vt 0.822819 0.491812
vt 0.822819 0.738792
vt 0.812080 0.738792
vt 0.000000 0.515442
vt 0.000000 0.000000
vt 0.257721 0.000000
vt 0.257721 0.010742
vt 0.010742 0.010742
vt 0.010742 0.504700
vt 0.257721 0.504700
vt 0.257721 0.515442
vt 0.801342 0.491812
vt 0.801342 0.749530
vt 0.790604 0.749530
vt 0.790604 0.491812
vt 0.812081 0.491812
vt 0.812081 0.749530
vt 0.801342 0.749530
vt 0.801342 0.491812
vt 0.906040 0.000000
vt 0.906040 0.515442
vt 0.895302 0.515442
vt 0.895302 0.000000
vt 0.822819 0.491812
vt 0.833557 0.491812
vt 0.833557 0.738792
vt 0.822819 0.738792
vt 0.789256 0.781738
vt 0.789256 0.792480
vt 0.778517 0.792480
vt 0.778517 0.781738
vt 0.916779 0.493958
vt 0.906040 0.493958
vt 0.906040 0.000000
vt 0.916779 0.000000
vt 0.789256 0.771011
vt 0.789256 0.781754
vt 0.778517 0.781754
vt 0.778517 0.771011
vn 0.0000 0.0000 -1.0000
vn 1.0000 0.0000 0.0000
vn 0.0000 -0.0000 1.0000
vn -1.0000 0.0000 0.0000
vn 0.0000 1.0000 0.0000
vn 0.0000 -1.0000 -0.0000
usemtl Brushed_Copper_2.001
s 1
f 13/1/1 15/2/1 14/3/1 16/4/1 12/5/1 1/6/1 4/7/1 6/8/1
f 3/9/2 4/10/2 1/11/2 2/12/2
f 10/13/3 11/14/3 5/15/3 3/16/3 2/17/3 7/18/3 8/19/3 9/20/3
f 5/21/4 11/22/4 13/23/4 6/24/4
f 14/25/2 15/26/2 10/27/2 9/28/2
f 15/29/5 13/30/5 11/31/5 10/32/5
f 16/33/4 8/34/4 7/35/4 12/36/4
f 6/37/6 4/38/6 3/39/6 5/40/6
f 12/41/6 7/42/6 2/43/6 1/44/6
f 16/45/6 14/46/6 9/47/6 8/48/6
