# Blender v2.92.0 OBJ File: 'fixed.blend'
# www.blender.org
mtllib roll_plate_left_wheel_arm.mtl
o Body73_Body73.002
v -2.389271 2.298260 0.236463
v -2.388969 2.297914 0.237115
v -2.388484 2.297664 0.237241
v -2.387967 2.295522 0.238097
v -2.387820 2.295522 0.238023
v -2.387628 2.295522 0.237758
v -2.387702 2.295522 0.237906
v -2.387628 2.295522 0.219442
v -2.387702 2.295522 0.219295
v -2.387967 2.295522 0.219103
v -2.387820 2.295522 0.219178
v -2.389262 2.298260 0.220746
v -2.388611 2.297914 0.220444
v -2.388484 2.297663 0.219959
v -2.406283 2.295522 0.219103
v -2.406431 2.295522 0.219178
v -2.406501 2.296499 0.220051
v -2.406548 2.295522 0.219295
v -2.406347 2.296468 0.219529
v -2.404979 2.298260 0.220737
v -2.405281 2.297914 0.220086
v -2.405766 2.297663 0.219959
v -2.404988 2.298260 0.236454
v -2.405639 2.297914 0.236756
v -2.405766 2.297663 0.237241
v -2.406622 2.295522 0.237758
v -2.406548 2.295522 0.237906
v -2.405674 2.296500 0.237976
v -2.406431 2.295522 0.238023
v -2.406196 2.296468 0.237822
v -2.387750 2.186601 0.220051
v -2.387702 2.187579 0.219295
v -2.387904 2.186632 0.219529
v -2.389271 2.184840 0.220737
v -2.388969 2.185187 0.220086
v -2.388484 2.185437 0.219959
v -2.387967 2.187579 0.219103
v -2.387820 2.187578 0.219178
v -2.404988 2.184840 0.220746
v -2.405639 2.185187 0.220444
v -2.405766 2.185437 0.219959
v -2.406622 2.187579 0.219442
v -2.406548 2.187579 0.219295
v -2.406283 2.187579 0.219103
v -2.406431 2.187579 0.219178
v -2.387628 2.187579 0.237758
v -2.387703 2.187579 0.237906
v -2.388576 2.186601 0.237976
v -2.387819 2.187579 0.238023
v -2.388054 2.186632 0.237822
v -2.389262 2.184840 0.236454
v -2.388610 2.185187 0.236756
v -2.388484 2.185437 0.237241
v -2.406283 2.187579 0.238097
v -2.406431 2.187579 0.238023
v -2.406622 2.187579 0.237758
v -2.406548 2.187579 0.237906
v -2.404979 2.184840 0.236463
v -2.405281 2.185187 0.237115
v -2.405766 2.185437 0.237241
vt 0.513031 0.836609
vt 0.513092 0.836487
vt 0.513031 0.836716
vt 0.513016 0.836716
vt 0.849529 0.557251
vt 0.849497 0.557312
vt 0.847836 0.557312
vt 0.847767 0.557281
vt 0.847754 0.557236
vt 0.513031 0.848114
vt 0.513092 0.848343
vt 0.513016 0.848114
vt 0.514984 0.848114
vt 0.514999 0.848114
vt 0.514923 0.848343
vt 0.514877 0.848373
vt 0.513046 0.848114
vt 0.849567 0.559006
vt 0.849499 0.558975
vt 0.849581 0.557236
vt 0.847092 0.771271
vt 0.847168 0.771042
vt 0.847107 0.771271
vt 0.847311 0.557266
vt 0.847313 0.558929
vt 0.845652 0.558929
vt 0.845650 0.557266
vt 0.847343 0.557205
vt 0.845581 0.557236
vt 0.845568 0.557190
vt 0.849060 0.782669
vt 0.849075 0.782669
vt 0.848999 0.782898
vt 0.848953 0.782928
vt 0.847168 0.782898
vt 0.847122 0.782776
vt 0.847183 0.782776
vt 0.847088 0.795105
vt 0.847170 0.794861
vt 0.847101 0.795105
vt 0.849052 0.818268
vt 0.849068 0.818268
vt 0.848994 0.818497
vt 0.848943 0.818512
vt 0.847169 0.818497
vt 0.847101 0.818283
vt 0.847117 0.818283
vt 0.847117 0.806915
vt 0.847101 0.806915
vt 0.847169 0.806686
vt 0.847219 0.806656
vt 0.848994 0.806671
vt 0.849042 0.806808
vt 0.848988 0.806808
vt 0.847837 0.558975
vt 0.847805 0.559052
vt 0.847754 0.559067
vt 0.513046 0.836716
vt 0.513153 0.836456
vt 0.514923 0.836487
vt 0.514999 0.836716
vt 0.514984 0.836716
vt 0.849068 0.795105
vt 0.848995 0.794861
vt 0.849079 0.795074
vt 0.849052 0.806396
vt 0.849068 0.806396
vt 0.848995 0.806610
vt 0.848944 0.806641
vt 0.847170 0.806610
vt 0.847124 0.806519
vt 0.847179 0.806519
vt 0.515015 0.836716
vt 0.515015 0.848114
vt 0.514984 0.848221
vt 0.845619 0.559006
vt 0.845568 0.559021
vt 0.847109 0.806808
vt 0.847089 0.806915
vt 0.847122 0.771271
vt 0.847229 0.771011
vt 0.848999 0.771042
vt 0.849045 0.771164
vt 0.848984 0.771164
vt 0.847382 0.558960
vt 0.847395 0.559021
vt 0.849058 0.806488
vt 0.849079 0.806396
vt 0.847116 0.795105
vt 0.847221 0.794830
vt 0.849052 0.795105
vt 0.849581 0.559067
vt 0.847107 0.782669
vt 0.847089 0.818283
vt 0.849075 0.771271
vt 0.849068 0.806915
vt 0.847101 0.806396
vt 0.847395 0.557190
vn -0.7937 0.3596 -0.4906
vn -0.4717 0.7426 -0.4755
vn -0.5610 0.1521 -0.8137
vn -0.8110 0.1520 -0.5650
vn 0.5612 -0.8045 0.1947
vn 0.2842 -0.9161 0.2828
vn 0.2827 -0.9161 -0.2842
vn 0.1948 -0.8046 -0.5610
vn 0.4718 -0.7425 -0.4755
vn -0.5648 -0.1522 -0.8110
vn -0.4754 -0.7426 -0.4718
vn -0.8137 -0.1523 -0.5610
vn 0.3089 -0.1420 -0.9404
vn 0.5605 -0.1522 -0.8140
vn -0.3120 -0.1398 -0.9397
vn -0.1947 -0.8046 0.5611
vn -0.2828 -0.9161 0.2843
vn 0.4756 -0.7424 0.4718
vn -0.8109 -0.1519 0.5651
vn -0.4717 -0.7426 0.4754
vn -0.5608 -0.1520 0.8139
vn -0.2842 0.9162 0.2826
vn 0.2826 0.9162 0.2841
vn 0.2842 0.9162 -0.2827
vn -0.2827 0.9161 -0.2842
vn -0.5610 0.8046 0.1945
vn -0.1946 0.8046 -0.5611
vn 0.3088 0.1420 0.9405
vn 0.5608 0.1521 0.8138
vn 0.4717 0.7426 0.4755
vn 0.1945 0.8047 0.5610
vn -0.4754 0.7427 0.4716
vn -0.4905 0.3598 0.7937
vn -0.0852 0.3066 0.9480
vn 0.5646 0.1520 -0.8113
vn 0.4755 0.7426 -0.4716
vn 0.8136 0.1521 -0.5611
vn -0.9404 -0.1420 -0.3090
vn -0.5610 -0.8046 -0.1948
vn -0.9397 -0.1398 0.3121
vn -0.9404 0.1420 0.3090
vn -0.8137 0.1522 0.5611
vn -0.9480 0.3065 -0.0852
vn -0.2842 -0.9161 -0.2829
vn -0.3089 0.1420 -0.9404
vn 0.3120 0.1398 -0.9397
vn 0.8109 0.1521 0.5651
vn 0.9404 -0.1420 0.3091
vn 0.8138 -0.1520 0.5610
vn 0.7937 -0.3598 -0.4905
vn 0.9480 -0.3067 -0.0851
vn 0.8110 -0.1520 -0.5650
vn 0.5611 0.8046 -0.1945
vn -0.5648 0.1522 0.8111
vn -0.3088 -0.1420 0.9405
vn 0.4911 -0.3596 0.7934
vn 0.0852 -0.3067 0.9480
vn 0.5650 -0.1519 0.8110
vn 0.9405 0.1419 -0.3087
vn 0.9397 0.1398 0.3121
usemtl Brushed_Aluminum.001
s 1
f 19/1/1 22/2/2 16/3/3 18/4/4
f 52/5/5 51/6/6 34/7/7 35/8/8 36/9/9
f 45/10/10 41/11/11 43/12/12
f 37/13/13 38/14/14 36/15/9 35/16/8 41/11/11 45/10/10 44/17/15
f 59/18/16 58/19/17 51/6/6 52/5/5 53/20/18
f 57/21/19 60/22/20 55/23/21
f 23/24/22 1/25/23 12/26/24 20/27/25
f 24/28/26 23/24/22 20/27/25 21/29/27 22/30/2
f 4/31/28 5/32/29 3/33/30 2/34/31 25/35/32 30/36/33 28/37/34
f 11/38/35 14/39/36 9/40/37
f 42/41/38 43/42/12 41/43/11 40/44/39 60/45/20 57/46/19 56/47/40
f 26/48/41 27/49/42 25/50/32 24/51/26 22/52/2 19/53/1 17/54/43
f 34/7/7 39/55/44 40/56/39 41/57/11 35/8/8
f 15/58/45 16/3/3 22/2/2 21/59/27 14/60/36 11/61/35 10/62/46
f 7/63/47 3/64/30 5/65/29
f 46/66/48 47/67/49 53/68/18 52/69/5 36/70/9 33/71/50 31/72/51
f 38/14/14 37/13/13 10/62/46 11/61/35 9/73/37 32/74/52
f 33/75/50 36/15/9 38/14/14 32/74/52
f 21/29/27 20/27/25 12/26/24 13/76/53 14/77/36
f 30/78/33 25/50/32 27/49/42 29/79/54
f 54/80/55 55/23/21 60/22/20 59/81/16 53/82/18 50/83/56 48/84/57
f 58/19/17 39/55/44 34/7/7 51/6/6
f 13/76/53 12/26/24 1/25/23 2/85/31 3/86/30
f 50/87/56 53/68/18 47/67/49 49/88/58
f 4/31/28 28/37/34 54/80/55 48/84/57
f 8/89/59 9/40/37 14/39/36 13/90/53 3/64/30 7/63/47 6/91/60
f 45/10/10 43/12/12 18/4/4 16/3/3 15/58/45 44/17/15
f 42/41/38 56/47/40 26/48/41 17/54/43
f 39/55/44 58/19/17 59/18/16 60/92/20 40/56/39
f 28/37/34 30/36/33 29/93/54 55/23/21 54/80/55
f 57/46/19 55/94/21 29/79/54 27/49/42 26/48/41 56/47/40
f 47/67/49 46/66/48 6/91/60 7/63/47 5/65/29 49/88/58
f 48/84/57 50/83/56 49/95/58 5/32/29 4/31/28
f 8/89/59 6/91/60 46/66/48 31/72/51
f 17/54/43 19/53/1 18/96/4 43/42/12 42/41/38
f 31/72/51 33/71/50 32/97/52 9/40/37 8/89/59
f 15/58/45 10/62/46 37/13/13 44/17/15
f 1/25/23 23/24/22 24/28/26 25/98/32 2/85/31
