# Blender v2.92.0 OBJ File: 'fixed.blend'
# www.blender.org
mtllib roll_plate_right_wheel_arm_top.mtl
o Body72_Body72.001
v 2.336977 2.299356 0.180025
v 2.337441 2.299418 0.179131
v 2.336910 2.299124 0.181012
v 2.337544 2.299214 0.179191
v 2.337721 2.299041 0.179296
v 2.339096 2.299549 0.177972
v 2.338173 2.299485 0.178422
v 2.338166 2.299258 0.178598
v 2.338183 2.299065 0.178843
v 2.339096 2.299549 0.279229
v 2.338173 2.299485 0.278779
v 2.338162 2.299258 0.278611
v 2.338184 2.299065 0.278358
v 2.336910 2.299124 0.276188
v 2.336977 2.299356 0.277176
v 2.337441 2.299418 0.278070
v 2.337554 2.299214 0.278006
v 2.337721 2.299041 0.277905
v 2.339096 2.316901 0.279229
v 2.338173 2.316965 0.278779
v 2.338166 2.317192 0.278602
v 2.338183 2.317385 0.278358
v 2.336977 2.317094 0.277176
v 2.337441 2.317032 0.278070
v 2.336910 2.317326 0.276188
v 2.337544 2.317236 0.278010
v 2.337721 2.317410 0.277905
v 2.336910 2.317326 0.181012
v 2.336977 2.317095 0.180025
v 2.337441 2.317032 0.179131
v 2.337554 2.317236 0.179194
v 2.337721 2.317409 0.179296
v 2.339096 2.316901 0.177972
v 2.338173 2.316965 0.178422
v 2.338162 2.317192 0.178589
v 2.338184 2.317385 0.178843
v 2.406473 2.299356 0.277176
v 2.406009 2.299418 0.278070
v 2.406540 2.299124 0.276188
v 2.405906 2.299214 0.278010
v 2.405729 2.299041 0.277905
v 2.404354 2.299549 0.279229
v 2.405277 2.299485 0.278779
v 2.405285 2.299258 0.278602
v 2.405267 2.299065 0.278358
v 2.406540 2.317326 0.276188
v 2.406473 2.317095 0.277176
v 2.406009 2.317032 0.278070
v 2.405896 2.317236 0.278006
v 2.405729 2.317409 0.277905
v 2.404354 2.316901 0.279229
v 2.405277 2.316965 0.278779
v 2.405288 2.317192 0.278611
v 2.405267 2.317385 0.278358
v 2.406473 2.317094 0.180025
v 2.406009 2.317032 0.179131
v 2.406540 2.317326 0.181012
v 2.405906 2.317236 0.179191
v 2.405729 2.317409 0.179296
v 2.404354 2.316901 0.177972
v 2.405277 2.316965 0.178422
v 2.405285 2.317192 0.178598
v 2.405267 2.317385 0.178843
v 2.406540 2.299124 0.181012
v 2.406473 2.299356 0.180025
v 2.406009 2.299418 0.179131
v 2.405896 2.299214 0.179194
v 2.405729 2.299041 0.179296
v 2.404354 2.299549 0.177972
v 2.405277 2.299485 0.178422
v 2.405288 2.299258 0.178589
v 2.405267 2.299065 0.178843
vt 0.507034 0.842834
vt 0.507004 0.842804
vt 0.507004 0.842743
vt 0.507019 0.842743
vt 0.507050 0.842743
vt 0.507050 0.842850
vt 0.778748 0.803185
vt 0.778656 0.803137
vt 0.778656 0.803120
vt 0.785751 0.803118
vt 0.785751 0.803137
vt 0.785645 0.803185
vt 0.833694 0.728121
vt 0.840790 0.728119
vt 0.840775 0.728146
vt 0.833694 0.728146
vt 0.846893 0.491890
vt 0.846909 0.491982
vt 0.845047 0.491982
vt 0.845047 0.491890
vt 0.845062 0.491814
vt 0.846893 0.491814
vt 0.785873 0.802862
vt 0.785812 0.803055
vt 0.785797 0.803045
vt 0.785797 0.792622
vt 0.785812 0.792612
vt 0.785873 0.792803
vt 0.778610 0.803045
vt 0.778610 0.792622
vt 0.778656 0.792574
vt 0.785736 0.792574
vt 0.785736 0.803093
vt 0.778656 0.803093
vt 0.833649 0.728193
vt 0.833618 0.728184
vt 0.833618 0.728176
vt 0.833694 0.728102
vt 0.846924 0.491905
vt 0.846939 0.491928
vt 0.846939 0.491989
vt 0.846924 0.491982
vt 0.840836 0.728193
vt 0.840836 0.738617
vt 0.840775 0.738665
vt 0.833694 0.738665
vt 0.833649 0.738617
vt 0.840851 0.728184
vt 0.840790 0.728102
vt 0.840866 0.728176
vt 0.840790 0.738689
vt 0.833694 0.738691
vt 0.846909 0.492088
vt 0.846939 0.492188
vt 0.846939 0.501846
vt 0.846924 0.502014
vt 0.846909 0.502022
vt 0.846909 0.501945
vt 0.833557 0.728374
vt 0.833618 0.738626
vt 0.833557 0.738434
vt 0.785751 0.792547
vt 0.785751 0.792530
vt 0.785828 0.792604
vt 0.507034 0.842636
vt 0.507019 0.842545
vt 0.507019 0.834976
vt 0.507019 0.834885
vt 0.507050 0.834869
vt 0.507034 0.834915
vt 0.845016 0.491982
vt 0.845001 0.491989
vt 0.845001 0.491928
vt 0.845032 0.491905
vt 0.508926 0.842743
vt 0.508942 0.842743
vt 0.508942 0.842804
vt 0.508926 0.842834
vt 0.508896 0.842850
vt 0.508911 0.842743
vt 0.845032 0.501945
vt 0.845047 0.502022
vt 0.845016 0.502014
vt 0.845016 0.501846
vt 0.845016 0.492188
vt 0.845032 0.492088
vt 0.778519 0.792803
vt 0.778580 0.792612
vt 0.778580 0.803055
vt 0.778519 0.802862
vt 0.778656 0.792549
vt 0.778580 0.792604
vt 0.778656 0.792530
vt 0.840912 0.738434
vt 0.840851 0.738626
vt 0.840912 0.728374
vt 0.508911 0.834915
vt 0.508911 0.834869
vt 0.508926 0.834885
vt 0.508942 0.834976
vt 0.508942 0.842545
vt 0.508911 0.842636
vt 0.508896 0.842941
vt 0.508896 0.847488
vt 0.507065 0.847488
vt 0.507065 0.842941
vt 0.785751 0.803268
vt 0.785751 0.803360
vt 0.783905 0.803360
vt 0.783905 0.803268
vt 0.783890 0.803192
vt 0.785751 0.803192
vt 0.840683 0.728054
vt 0.833786 0.728054
vt 0.783905 0.810364
vt 0.783905 0.810257
vt 0.785751 0.810257
vt 0.785751 0.810364
vt 0.785751 0.810440
vt 0.783890 0.810440
vt 0.785767 0.810486
vt 0.783890 0.810486
vt 0.833786 0.738756
vt 0.833694 0.738708
vt 0.840790 0.738708
vt 0.840683 0.738756
vt 0.785645 0.792482
vt 0.778748 0.792482
vn 0.3986 -0.6579 0.6390
vn 0.2622 -0.8591 0.4395
vn 0.3982 -0.8620 0.3138
vn 0.5905 -0.6591 0.4656
vn 0.7635 -0.2821 0.5810
vn 0.5180 -0.2984 0.8016
vn 0.2697 0.3115 0.9112
vn 0.5191 0.2940 0.8026
vn 0.4003 0.6595 0.6362
vn -0.3987 0.6578 0.6390
vn -0.5179 0.2985 0.8016
vn -0.2703 0.3149 0.9098
vn -0.3984 -0.6580 -0.6390
vn 0.4004 -0.6598 -0.6359
vn 0.2625 -0.8604 -0.4367
vn -0.2622 -0.8591 -0.4395
vn -0.7634 0.2821 0.5810
vn -0.7628 -0.2883 0.5788
vn -0.5191 -0.2936 0.8027
vn -0.2696 -0.3111 0.9113
vn -0.6726 0.7342 0.0928
vn -0.5905 0.6589 0.4659
vn -0.3981 0.8619 0.3140
vn -0.4042 0.8587 -0.3150
vn -0.5914 0.6596 -0.4640
vn -0.6721 0.7345 -0.0936
vn 0.4043 0.8587 0.3150
vn 0.3980 0.8620 -0.3139
vn 0.2620 0.8591 -0.4397
vn -0.2623 0.8602 -0.4373
vn -0.2624 0.8588 0.4399
vn 0.2624 0.8602 0.4373
vn -0.3981 -0.8620 -0.3139
vn -0.5902 -0.6593 -0.4658
vn -0.7634 -0.2824 -0.5810
vn -0.5178 -0.2985 -0.8017
vn 0.4042 -0.8589 -0.3146
vn -0.2626 -0.8604 0.4368
vn -0.4042 -0.8588 0.3147
vn 0.5917 -0.6597 -0.4633
vn 0.5191 -0.2937 -0.8027
vn 0.7629 -0.2882 -0.5788
vn -0.4004 -0.6596 0.6361
vn -0.8923 0.3222 0.3162
vn -0.7626 0.2883 -0.5790
vn -0.8889 0.3308 -0.3170
vn -0.6723 -0.7344 -0.0928
vn -0.5917 -0.6596 0.4635
vn -0.6719 -0.7347 0.0937
vn -0.4002 0.6596 -0.6362
vn -0.5190 0.2940 -0.8026
vn 0.8923 -0.3221 0.3164
vn 0.6725 -0.7343 0.0929
vn 0.6721 -0.7345 -0.0937
vn 0.8889 -0.3307 -0.3170
vn 0.5916 0.6594 0.4639
vn 0.7627 0.2882 0.5790
vn -0.8922 -0.3225 -0.3163
vn -0.8888 -0.3310 0.3169
vn 0.6727 0.7341 -0.0929
vn 0.5900 0.6596 -0.4657
vn 0.6723 0.7344 0.0937
vn 0.3981 0.6583 -0.6388
vn 0.7633 0.2823 -0.5811
vn 0.5180 0.2988 -0.8015
vn 0.8923 0.3221 -0.3163
vn 0.8890 0.3305 0.3170
vn 0.2703 -0.3147 0.9099
vn -0.2697 0.3115 -0.9112
vn -0.2703 -0.3146 -0.9099
vn 0.2696 -0.3112 -0.9113
vn 0.2704 0.3150 -0.9098
usemtl Brushed_Aluminum.001
s 1
f 44/1/1 45/2/2 41/3/3 40/4/4 38/5/5 43/6/6
f 51/7/7 52/8/8 53/9/9 21/10/10 20/11/11 19/12/12
f 8/13/13 71/14/14 72/15/15 9/16/16
f 20/17/11 24/18/17 16/19/18 11/20/19 10/21/20 19/22/12
f 25/23/21 26/24/22 27/25/23 32/26/24 31/27/25 28/28/26
f 50/29/27 59/30/28 63/31/29 36/32/30 32/26/24 27/25/23 22/33/31 54/34/32
f 21/10/10 53/9/9 54/34/32 22/33/31
f 8/13/13 9/16/16 5/35/33 4/36/34 2/37/35 7/38/36
f 21/39/10 22/40/31 27/41/23 26/42/22 24/18/17 20/17/11
f 68/43/37 41/44/3 45/45/2 13/46/38 18/47/39 5/35/33 9/16/16 72/15/15
f 67/48/40 68/43/37 72/15/15 71/14/14 70/49/41 66/50/42
f 44/51/1 12/52/43 13/46/38 45/45/2
f 23/53/44 24/18/17 26/42/22 25/54/21 28/55/26 31/56/25 30/57/45 29/58/46
f 3/59/47 4/36/34 5/35/33 18/47/39 17/60/48 14/61/49
f 31/27/25 32/26/24 36/32/30 35/62/50 34/63/51 30/64/45
f 37/65/52 38/5/5 40/4/4 39/66/53 64/67/54 67/68/40 66/69/42 65/70/55
f 17/71/48 18/72/39 13/73/38 12/74/43 11/20/19 16/19/18
f 49/75/56 50/76/27 54/77/32 53/78/9 52/79/8 48/80/57
f 1/81/58 2/82/35 4/83/34 3/84/47 14/85/49 17/71/48 16/19/18 15/86/59
f 57/87/60 58/88/61 59/30/28 50/29/27 49/89/56 46/90/62
f 62/91/63 63/31/29 59/30/28 58/88/61 56/92/64 61/93/65
f 39/94/53 40/95/4 41/44/3 68/43/37 67/48/40 64/96/54
f 55/97/66 56/98/64 58/99/61 57/100/60 46/101/62 49/75/56 48/80/57 47/102/67
f 51/103/7 19/104/12 10/105/20 42/106/68
f 34/107/51 33/108/69 6/109/70 7/110/36 2/111/35 30/112/45
f 16/19/18 24/18/17 23/53/44 15/86/59
f 47/102/67 37/65/52 65/70/55 55/97/66
f 1/81/58 29/58/46 30/57/45 2/82/35
f 52/79/8 51/103/7 42/106/68 43/6/6 38/5/5 48/80/57
f 69/113/71 70/49/41 71/14/14 8/13/13 7/38/36 6/114/70
f 23/53/44 29/58/46 1/81/58 15/86/59
f 37/65/52 47/102/67 48/80/57 38/5/5
f 70/115/41 69/116/71 60/117/72 61/118/65 56/119/64 66/120/42
f 6/109/70 33/108/69 60/117/72 69/116/71
f 55/121/66 65/122/55 66/120/42 56/119/64
f 62/91/63 35/62/50 36/32/30 63/31/29
f 10/123/20 11/124/19 12/52/43 44/51/1 43/125/6 42/126/68
f 33/127/69 34/63/51 35/62/50 62/91/63 61/93/65 60/128/72
