# Blender v2.92.0 OBJ File: 'fixed.blend'
# www.blender.org
mtllib roll_plate_right_chain_wheel_inner_4.mtl
o Body151_Body151.001
v 2.343150 1.937775 0.249412
v 2.343150 1.931535 0.243177
v 2.343150 1.895133 0.268685
v 2.343150 1.912293 0.285833
v 2.381250 1.931535 0.243177
v 2.381250 1.895133 0.268685
v 2.381250 1.937775 0.249412
v 2.381250 1.912293 0.285833
vt 0.790604 0.734100
vt 0.790604 0.738800
vt 0.786575 0.738800
vt 0.786575 0.734100
vt 0.508728 0.757721
vt 0.508728 0.762421
vt 0.504700 0.762421
vt 0.504700 0.757721
vt 0.849075 0.792816
vt 0.849075 0.788788
vt 0.851639 0.788788
vt 0.851639 0.792816
vt 0.500748 0.850929
vt 0.499802 0.850929
vt 0.498993 0.846306
vt 0.501556 0.846306
vt 0.791412 0.850800
vt 0.790604 0.846176
vt 0.793167 0.846176
vt 0.792358 0.850800
vt 0.852844 0.516983
vt 0.853775 0.516983
vt 0.853775 0.521011
vt 0.852844 0.521011
vn 0.0000 -0.5739 -0.8189
vn 0.0000 0.8194 0.5733
vn -0.0000 -0.5733 0.8194
vn 0.0000 -0.8190 0.5739
vn -0.0000 -0.8189 0.5739
vn -1.0000 -0.0000 0.0000
vn 1.0000 0.0000 0.0000
vn 0.0000 0.5733 -0.8193
vn 0.0000 0.8189 -0.5739
usemtl Brushed_Aluminum_2.001
s 1
f 3/1/1 2/2/1 5/3/1 6/4/1
f 8/5/2 7/6/2 1/7/2 4/8/2
f 8/9/3 4/10/3 3/11/4 6/12/5
f 1/13/6 2/14/6 3/15/6 4/16/6
f 7/17/7 8/18/7 6/19/7 5/20/7
f 7/21/8 5/22/9 2/23/9 1/24/8
