# Blender v2.92.0 OBJ File: 'fixed.blend'
# www.blender.org
mtllib roll_plate_left.mtl
o Body48_Body48.001
v -2.326640 2.032000 0.076200
v -2.326640 2.032000 0.381000
v -2.336800 2.032000 0.381000
v -2.336800 2.032000 0.076200
v -2.326640 2.336800 0.076200
v -2.336800 2.336800 0.076200
v -2.326640 2.336800 0.381000
v -2.336800 2.336800 0.381000
vt 0.843353 0.502927
vt 0.843353 0.535142
vt 0.842285 0.535142
vt 0.842285 0.502927
vt 0.846008 0.835434
vt 0.846008 0.803223
vt 0.847076 0.803223
vt 0.847076 0.835434
vt 0.844437 0.502927
vt 0.845505 0.502927
vt 0.845505 0.535142
vt 0.844437 0.535142
vt 0.846008 0.803223
vt 0.846008 0.771011
vt 0.847076 0.771011
vt 0.847076 0.803223
vt 0.822815 0.771007
vt 0.822815 0.738792
vt 0.855026 0.738792
vt 0.855026 0.771007
vt 0.822815 0.749531
vt 0.822815 0.781746
vt 0.790604 0.781746
vt 0.790604 0.749531
vn 0.0000 -1.0000 0.0000
vn 0.0000 -0.0000 1.0000
vn 0.0000 1.0000 0.0000
vn 0.0000 0.0000 -1.0000
vn -1.0000 0.0000 0.0000
vn 1.0000 0.0000 0.0000
usemtl Generic.001
s 1
f 1/1/1 2/2/1 3/3/1 4/4/1
f 8/5/2 3/6/2 2/7/2 7/8/2
f 5/9/3 6/10/3 8/11/3 7/12/3
f 5/13/4 1/14/4 4/15/4 6/16/4
f 8/17/5 6/18/5 4/19/5 3/20/5
f 2/21/6 1/22/6 5/23/6 7/24/6
