# Blender v2.92.0 OBJ File: 'fixed.blend'
# www.blender.org
mtllib roll_plate_right.mtl
o Body49_Body49.001
v 2.326640 2.032000 0.381000
v 2.326640 2.032000 0.076200
v 2.336800 2.032000 0.076200
v 2.336800 2.032000 0.381000
v 2.326640 2.336800 0.076200
v 2.336800 2.336800 0.076200
v 2.326640 2.336800 0.381000
v 2.336800 2.336800 0.381000
vt 0.843353 0.502927
vt 0.844421 0.502927
vt 0.844421 0.535142
vt 0.843353 0.535142
vt 0.846573 0.502930
vt 0.846573 0.535141
vt 0.845505 0.535141
vt 0.845505 0.502930
vt 0.515427 0.795215
vt 0.515427 0.827430
vt 0.514359 0.827430
vt 0.514359 0.795215
vt 0.822815 0.781746
vt 0.822815 0.813961
vt 0.790604 0.813961
vt 0.790604 0.781746
vt 0.846573 0.535141
vt 0.846573 0.502930
vt 0.847641 0.502930
vt 0.847641 0.535141
vt 0.790604 0.846174
vt 0.790604 0.813960
vt 0.822815 0.813960
vt 0.822815 0.846174
vn 0.0000 -1.0000 0.0000
vn 0.0000 -0.0000 1.0000
vn 0.0000 1.0000 0.0000
vn 1.0000 0.0000 0.0000
vn 0.0000 0.0000 -1.0000
vn -1.0000 0.0000 0.0000
usemtl Generic.001
s 1
f 2/1/1 3/2/1 4/3/1 1/4/1
f 4/5/2 8/6/2 7/7/2 1/8/2
f 5/9/3 7/10/3 8/11/3 6/12/3
f 4/13/4 3/14/4 6/15/4 8/16/4
f 6/17/5 3/18/5 2/19/5 5/20/5
f 7/21/6 5/22/6 2/23/6 1/24/6
