# Blender v2.92.0 OBJ File: 'fixed.blend'
# www.blender.org
mtllib roll_plate_right_chain_wheel_inner_6.mtl
o Body153_Body153.001
v 2.343150 2.009568 0.268643
v 2.343150 1.973148 0.243161
v 2.343150 1.966912 0.249401
v 2.343150 1.992421 0.285803
v 2.381250 1.973148 0.243161
v 2.381250 1.966912 0.249401
v 2.381250 2.009568 0.268643
v 2.381250 1.992421 0.285803
vt 0.849068 0.788788
vt 0.849068 0.784760
vt 0.851631 0.784760
vt 0.851631 0.788788
vt 0.504700 0.762421
vt 0.500671 0.762421
vt 0.500671 0.757721
vt 0.504700 0.757721
vt 0.845245 0.539764
vt 0.844429 0.535141
vt 0.846992 0.535141
vt 0.846176 0.539764
vt 0.849754 0.844803
vt 0.848824 0.844803
vt 0.848007 0.840179
vt 0.850571 0.840179
vt 0.505661 0.842941
vt 0.505661 0.847641
vt 0.501633 0.847641
vt 0.501633 0.842941
vt 0.492661 0.853561
vt 0.491730 0.853561
vt 0.491730 0.849533
vt 0.492661 0.849533
vn -0.0000 0.8194 0.5733
vn 0.0000 0.5739 0.8189
vn -0.0001 0.5739 0.8189
vn 0.0000 0.5733 -0.8194
vn 1.0000 -0.0000 0.0000
vn -1.0000 0.0000 0.0000
vn 0.0000 -0.8189 0.5739
vn 0.0000 -0.5739 -0.8190
vn -0.0000 -0.8194 -0.5733
usemtl Brushed_Aluminum_2.001
s 1
f 7/1/1 1/2/1 4/3/2 8/4/3
f 1/5/4 7/6/4 5/7/4 2/8/4
f 5/9/5 7/10/5 8/11/5 6/12/5
f 2/13/6 3/14/6 4/15/6 1/16/6
f 6/17/7 8/18/7 4/19/7 3/20/7
f 3/21/8 2/22/9 5/23/9 6/24/8
