# Blender v2.92.0 OBJ File: 'fixed.blend'
# www.blender.org
mtllib roll_plate_left_wheel_arm_top.mtl
o Body74_Body74.002
v -2.336977 2.299356 0.277176
v -2.337441 2.299418 0.278070
v -2.336910 2.299124 0.276188
v -2.337544 2.299214 0.278010
v -2.337721 2.299041 0.277905
v -2.339096 2.299549 0.279229
v -2.338173 2.299485 0.278779
v -2.338166 2.299258 0.278602
v -2.338183 2.299065 0.278358
v -2.339096 2.299549 0.177972
v -2.338173 2.299485 0.178422
v -2.338162 2.299258 0.178589
v -2.338184 2.299065 0.178843
v -2.336910 2.299124 0.181012
v -2.336977 2.299356 0.180025
v -2.337441 2.299418 0.179131
v -2.337554 2.299214 0.179194
v -2.337721 2.299041 0.179296
v -2.339096 2.316901 0.177972
v -2.338173 2.316965 0.178422
v -2.338166 2.317192 0.178598
v -2.338183 2.317385 0.178843
v -2.336977 2.317094 0.180025
v -2.337441 2.317032 0.179131
v -2.336910 2.317326 0.181012
v -2.337544 2.317236 0.179191
v -2.337721 2.317410 0.179296
v -2.336910 2.317326 0.276188
v -2.336977 2.317095 0.277176
v -2.337441 2.317032 0.278070
v -2.337554 2.317236 0.278006
v -2.337721 2.317409 0.277905
v -2.339096 2.316901 0.279229
v -2.338173 2.316965 0.278779
v -2.338162 2.317192 0.278611
v -2.338184 2.317385 0.278358
v -2.404354 2.299549 0.279229
v -2.405277 2.299485 0.278779
v -2.405288 2.299258 0.278611
v -2.405267 2.299065 0.278358
v -2.406540 2.299124 0.276188
v -2.406473 2.299356 0.277176
v -2.406009 2.299418 0.278070
v -2.405896 2.299214 0.278006
v -2.405729 2.299041 0.277905
v -2.404354 2.316901 0.279229
v -2.405277 2.316965 0.278779
v -2.405285 2.317192 0.278602
v -2.405267 2.317385 0.278358
v -2.406473 2.317094 0.277176
v -2.406009 2.317032 0.278070
v -2.406540 2.317326 0.276188
v -2.405906 2.317236 0.278010
v -2.405729 2.317410 0.277905
v -2.404354 2.316901 0.177972
v -2.405277 2.316965 0.178422
v -2.405288 2.317192 0.178589
v -2.405267 2.317385 0.178843
v -2.406540 2.317326 0.181012
v -2.406473 2.317095 0.180025
v -2.406009 2.317032 0.179131
v -2.405896 2.317236 0.179194
v -2.405729 2.317409 0.179296
v -2.404354 2.299549 0.177972
v -2.405277 2.299485 0.178422
v -2.405285 2.299258 0.178598
v -2.405267 2.299065 0.178843
v -2.406473 2.299356 0.180025
v -2.406009 2.299418 0.179131
v -2.406540 2.299124 0.181012
v -2.405906 2.299214 0.179191
v -2.405729 2.299041 0.179296
vt 0.844727 0.547852
vt 0.844696 0.547836
vt 0.844696 0.547760
vt 0.844711 0.547760
vt 0.844742 0.547760
vt 0.844742 0.547867
vt 0.508865 0.834797
vt 0.501770 0.834799
vt 0.501770 0.834772
vt 0.508850 0.834772
vt 0.848801 0.491882
vt 0.848801 0.491974
vt 0.846954 0.491974
vt 0.846954 0.491882
vt 0.846939 0.491806
vt 0.848801 0.491806
vt 0.812088 0.739113
vt 0.812149 0.738922
vt 0.812180 0.738932
vt 0.812180 0.749355
vt 0.812149 0.749365
vt 0.812088 0.749172
vt 0.812225 0.738884
vt 0.819305 0.738884
vt 0.819366 0.738932
vt 0.819366 0.749355
vt 0.819305 0.749403
vt 0.812225 0.749403
vt 0.819321 0.749428
vt 0.819382 0.749365
vt 0.819397 0.749372
vt 0.819321 0.749447
vt 0.821365 0.738884
vt 0.821381 0.738907
vt 0.821381 0.738968
vt 0.821365 0.738960
vt 0.821350 0.738960
vt 0.821335 0.738865
vt 0.819458 0.738960
vt 0.819443 0.738968
vt 0.819443 0.738907
vt 0.819473 0.738884
vt 0.819489 0.738865
vt 0.819489 0.738960
vt 0.819473 0.748924
vt 0.819489 0.749001
vt 0.819458 0.748989
vt 0.819458 0.748825
vt 0.819458 0.739166
vt 0.819473 0.739063
vt 0.819443 0.749172
vt 0.819382 0.738922
vt 0.819443 0.739113
vt 0.812317 0.749495
vt 0.812225 0.749447
vt 0.812225 0.749430
vt 0.819214 0.749495
vt 0.508911 0.834724
vt 0.508926 0.834734
vt 0.508942 0.834742
vt 0.508865 0.834816
vt 0.501724 0.834724
vt 0.501724 0.824301
vt 0.501770 0.824253
vt 0.508850 0.824253
vt 0.508911 0.824301
vt 0.508987 0.834541
vt 0.508926 0.824291
vt 0.508987 0.824482
vt 0.812149 0.749372
vt 0.844727 0.547653
vt 0.844711 0.547562
vt 0.844711 0.539993
vt 0.844711 0.539902
vt 0.844742 0.539886
vt 0.844727 0.539932
vt 0.821350 0.739063
vt 0.821381 0.739166
vt 0.821381 0.748825
vt 0.821365 0.748989
vt 0.821350 0.749001
vt 0.821350 0.748924
vt 0.501770 0.824228
vt 0.508865 0.824226
vt 0.501694 0.834734
vt 0.501770 0.834816
vt 0.501694 0.834742
vt 0.846603 0.539932
vt 0.846603 0.539886
vt 0.846619 0.539902
vt 0.846634 0.539993
vt 0.846634 0.547562
vt 0.846619 0.547760
vt 0.846603 0.547760
vt 0.846603 0.547653
vt 0.848801 0.498978
vt 0.848801 0.499054
vt 0.846939 0.499054
vt 0.846954 0.498978
vt 0.846954 0.498871
vt 0.848801 0.498871
vt 0.819504 0.738792
vt 0.821335 0.738792
vt 0.819214 0.738792
vt 0.819321 0.738840
vt 0.819321 0.738857
vt 0.812225 0.738859
vt 0.812225 0.738840
vt 0.812317 0.738792
vt 0.844757 0.547958
vt 0.846588 0.547958
vt 0.846588 0.552505
vt 0.844757 0.552505
vt 0.846588 0.547867
vt 0.848816 0.499100
vt 0.846939 0.499100
vt 0.501633 0.824482
vt 0.501694 0.824291
vt 0.501633 0.834541
vt 0.846634 0.547760
vt 0.846634 0.547836
vt 0.846619 0.547852
vt 0.501862 0.834864
vt 0.508759 0.834864
vt 0.508759 0.824162
vt 0.508865 0.824209
vt 0.501770 0.824209
vt 0.501862 0.824162
vn -0.3984 -0.6582 -0.6388
vn -0.2621 -0.8593 -0.4393
vn -0.3980 -0.8621 -0.3137
vn -0.5904 -0.6594 -0.4654
vn -0.7635 -0.2822 -0.5810
vn -0.5179 -0.2986 -0.8016
vn 0.3985 -0.6578 0.6391
vn -0.4005 -0.6597 0.6360
vn -0.2626 -0.8604 0.4368
vn 0.2622 -0.8591 0.4396
vn 0.5190 0.2939 0.8026
vn 0.2697 0.3115 0.9112
vn 0.2703 -0.3146 0.9099
vn 0.5178 -0.2984 0.8018
vn 0.7634 -0.2820 0.5811
vn 0.7626 0.2885 0.5790
vn 0.6723 0.7344 -0.0928
vn 0.5900 0.6595 -0.4659
vn 0.3979 0.8620 -0.3140
vn 0.4042 0.8587 0.3151
vn 0.5913 0.6596 0.4639
vn 0.6719 0.7347 0.0936
vn 0.2621 0.8589 -0.4399
vn -0.2624 0.8601 -0.4374
vn -0.4043 0.8586 -0.3150
vn -0.3981 0.8619 0.3140
vn -0.2623 0.8589 0.4399
vn 0.2624 0.8601 0.4374
vn -0.3987 0.6578 0.6391
vn -0.5905 0.6590 0.4658
vn -0.7634 0.2821 0.5810
vn -0.5181 0.2985 0.8015
vn 0.3982 0.6580 -0.6391
vn 0.7633 0.2824 -0.5810
vn 0.5178 0.2987 -0.8016
vn 0.5917 -0.6596 -0.4635
vn 0.4041 -0.8589 -0.3147
vn 0.2625 -0.8604 -0.4368
vn 0.4004 -0.6597 -0.6360
vn 0.5191 -0.2936 -0.8027
vn 0.7628 -0.2881 -0.5789
vn 0.8923 -0.3221 0.3164
vn 0.5904 -0.6590 0.4660
vn 0.6726 -0.7342 0.0929
vn 0.6722 -0.7344 -0.0937
vn 0.8890 -0.3306 -0.3170
vn -0.6724 0.7343 0.0929
vn -0.5914 0.6596 -0.4638
vn -0.6720 0.7346 -0.0937
vn 0.4002 0.6595 0.6363
vn -0.2704 0.3150 0.9098
vn 0.3981 -0.8619 0.3140
vn -0.4043 -0.8588 0.3147
vn -0.8923 -0.3220 -0.3164
vn -0.6726 -0.7342 -0.0929
vn -0.6722 -0.7344 0.0937
vn -0.5918 -0.6595 0.4635
vn -0.7629 -0.2880 0.5788
vn -0.8890 -0.3305 0.3170
vn 0.8922 0.3225 -0.3162
vn 0.8888 0.3311 0.3170
vn -0.5191 -0.2936 0.8027
vn -0.8923 0.3222 0.3162
vn -0.7627 0.2883 -0.5789
vn -0.8889 0.3308 -0.3170
vn -0.2696 -0.3112 0.9113
vn 0.2696 -0.3112 -0.9113
vn 0.2703 0.3149 -0.9098
vn -0.2697 0.3115 -0.9112
vn -0.5191 0.2940 -0.8026
vn -0.4003 0.6595 -0.6362
vn -0.2703 -0.3146 -0.9099
usemtl Brushed_Aluminum.001
s 1
f 66/1/1 67/2/2 72/3/3 71/4/4 69/5/5 65/6/6
f 8/7/7 39/8/8 40/9/9 9/10/10
f 34/11/11 33/12/12 6/13/13 7/14/14 2/15/15 30/16/16
f 25/17/17 26/18/18 27/19/19 32/20/20 31/21/21 28/22/22
f 32/20/20 27/19/19 22/23/23 58/24/24 63/25/25 54/26/26 49/27/27 36/28/28
f 48/29/29 49/27/27 54/26/26 53/30/30 51/31/31 47/32/32
f 21/33/33 22/34/23 27/35/19 26/36/18 24/37/34 20/38/35
f 17/39/36 18/40/37 13/41/38 12/42/39 11/43/40 16/44/41
f 1/45/42 2/46/15 4/47/43 3/48/44 14/49/45 17/39/36 16/44/41 15/50/46
f 52/51/47 53/30/30 54/26/26 63/25/25 62/52/48 59/53/49
f 33/54/12 34/55/11 35/56/50 48/29/29 47/32/32 46/57/51
f 48/29/29 35/56/50 36/28/28 49/27/27
f 8/7/7 9/10/10 5/58/52 4/59/43 2/60/15 7/61/14
f 45/62/53 72/63/3 67/64/2 13/65/38 18/66/37 5/58/52 9/10/10 40/9/9
f 3/67/44 4/59/43 5/58/52 18/66/37 17/68/36 14/69/45
f 31/21/21 32/20/20 36/28/28 35/56/50 34/55/11 30/70/16
f 68/71/54 69/5/5 71/4/4 70/72/55 41/73/56 44/74/57 43/75/58 42/76/59
f 23/77/60 24/37/34 26/36/18 25/78/17 28/79/22 31/80/21 30/81/16 29/82/61
f 66/83/1 12/84/39 13/65/38 67/64/2
f 44/85/57 45/62/53 40/9/9 39/8/8 38/86/62 43/87/58
f 50/88/63 51/89/31 53/90/30 52/91/47 59/92/49 62/93/48 61/94/64 60/95/65
f 47/96/32 51/97/31 43/98/58 38/99/62 37/100/66 46/101/51
f 16/44/41 24/37/34 23/77/60 15/50/46
f 60/95/65 68/71/54 42/76/59 50/88/63
f 1/45/42 29/82/61 30/81/16 2/46/15
f 20/38/35 24/37/34 16/44/41 11/43/40 10/102/67 19/103/68
f 6/13/13 33/12/12 46/101/51 37/100/66
f 55/104/69 56/105/70 57/106/71 21/107/33 20/108/35 19/109/68
f 64/110/72 55/111/69 19/112/68 10/113/67
f 65/6/6 69/5/5 61/94/64 56/114/70 55/111/69 64/110/72
f 43/98/58 51/97/31 50/115/63 42/116/59
f 1/45/42 15/50/46 23/77/60 29/82/61
f 21/107/33 57/106/71 58/24/24 22/23/23
f 61/94/64 69/5/5 68/71/54 60/95/65
f 70/117/55 71/118/4 72/63/3 45/62/53 44/85/57 41/119/56
f 62/93/48 63/120/25 58/121/24 57/122/71 56/114/70 61/94/64
f 37/123/66 38/86/62 39/8/8 8/7/7 7/61/14 6/124/13
f 10/125/67 11/126/40 12/84/39 66/83/1 65/127/6 64/128/72
