# Blender v2.92.0 OBJ File: 'fixed.blend'
# www.blender.org
mtllib roll_plate_right_wheel_arm.mtl
o Body71_Body71.001
v 2.389271 2.298260 0.220737
v 2.388969 2.297914 0.220086
v 2.388484 2.297663 0.219959
v 2.387967 2.295522 0.219103
v 2.387820 2.295522 0.219178
v 2.387750 2.296499 0.220051
v 2.387702 2.295522 0.219295
v 2.387904 2.296468 0.219529
v 2.387628 2.295522 0.237758
v 2.387703 2.295522 0.237906
v 2.388576 2.296500 0.237976
v 2.387819 2.295522 0.238023
v 2.388054 2.296468 0.237822
v 2.389262 2.298260 0.236454
v 2.388610 2.297914 0.236756
v 2.388484 2.297663 0.237241
v 2.406283 2.295522 0.238097
v 2.406431 2.295522 0.238023
v 2.406622 2.295522 0.237758
v 2.406548 2.295522 0.237906
v 2.404979 2.298260 0.236463
v 2.405281 2.297914 0.237115
v 2.405766 2.297664 0.237241
v 2.404988 2.298260 0.220746
v 2.405639 2.297914 0.220444
v 2.405766 2.297663 0.219959
v 2.406622 2.295522 0.219442
v 2.406548 2.295522 0.219295
v 2.406283 2.295522 0.219103
v 2.406431 2.295522 0.219178
v 2.387967 2.187579 0.219103
v 2.387820 2.187579 0.219178
v 2.389262 2.184840 0.220746
v 2.388611 2.185187 0.220444
v 2.388484 2.185436 0.219959
v 2.387702 2.187579 0.219295
v 2.387749 2.186601 0.220051
v 2.387902 2.186632 0.219528
v 2.406283 2.187579 0.219103
v 2.406431 2.187578 0.219178
v 2.406501 2.186601 0.220051
v 2.406548 2.187579 0.219295
v 2.406347 2.186632 0.219529
v 2.404979 2.184840 0.220737
v 2.405281 2.185187 0.220086
v 2.405766 2.185437 0.219959
v 2.389271 2.184840 0.236463
v 2.388969 2.185187 0.237115
v 2.388484 2.185437 0.237241
v 2.387967 2.187579 0.238097
v 2.387820 2.187579 0.238023
v 2.387628 2.187579 0.237758
v 2.387702 2.187579 0.237906
v 2.404988 2.184840 0.236454
v 2.405639 2.185187 0.236756
v 2.405766 2.185437 0.237241
v 2.406622 2.187579 0.237758
v 2.406548 2.187579 0.237906
v 2.405674 2.186601 0.237976
v 2.406431 2.187579 0.238023
v 2.406196 2.186632 0.237822
vt 0.846763 0.539917
vt 0.846797 0.539886
vt 0.848457 0.539886
vt 0.848525 0.539917
vt 0.848536 0.539948
vt 0.847092 0.783188
vt 0.847168 0.782959
vt 0.847107 0.783188
vt 0.847977 0.847076
vt 0.847992 0.847076
vt 0.847916 0.847305
vt 0.847855 0.847321
vt 0.846085 0.847290
vt 0.846024 0.847061
vt 0.846039 0.847061
vt 0.512766 0.760293
vt 0.512835 0.760517
vt 0.512753 0.760301
vt 0.847122 0.783188
vt 0.847229 0.782928
vt 0.848999 0.782959
vt 0.849045 0.783081
vt 0.848984 0.783081
vt 0.847992 0.835678
vt 0.847916 0.835464
vt 0.847992 0.835678
vt 0.844965 0.729401
vt 0.845026 0.729279
vt 0.844957 0.729523
vt 0.844944 0.729492
vt 0.848486 0.551788
vt 0.848456 0.551834
vt 0.846796 0.551834
vt 0.846726 0.551788
vt 0.846711 0.551758
vt 0.846008 0.847061
vt 0.846008 0.835678
vt 0.846024 0.835678
vt 0.846039 0.835678
vt 0.846653 0.540161
vt 0.846638 0.540161
vt 0.846711 0.539948
vt 0.848603 0.540161
vt 0.848588 0.540161
vt 0.845032 0.728088
vt 0.845100 0.728088
vt 0.845108 0.729187
vt 0.845076 0.729248
vt 0.844973 0.729523
vt 0.846851 0.729279
vt 0.846899 0.729401
vt 0.846844 0.729431
vt 0.848596 0.551620
vt 0.848536 0.551758
vt 0.848603 0.551529
vt 0.848617 0.551529
vt 0.849060 0.794586
vt 0.849075 0.794586
vt 0.848999 0.794815
vt 0.848953 0.794846
vt 0.847168 0.794815
vt 0.847122 0.794693
vt 0.847183 0.794693
vt 0.846762 0.728088
vt 0.846769 0.729187
vt 0.514576 0.760632
vt 0.512917 0.760620
vt 0.512848 0.760571
vt 0.514610 0.760559
vt 0.846024 0.835587
vt 0.846085 0.835464
vt 0.514561 0.761730
vt 0.512899 0.761720
vt 0.846838 0.729218
vt 0.512781 0.760287
vt 0.514652 0.760386
vt 0.514708 0.760395
vt 0.514662 0.760530
vt 0.848588 0.551529
vt 0.846663 0.551636
vt 0.846718 0.551636
vt 0.846024 0.847168
vt 0.846792 0.728058
vt 0.846844 0.728058
vt 0.846146 0.835434
vt 0.847977 0.835678
vt 0.847977 0.847168
vt 0.847992 0.847076
vt 0.849075 0.783188
vt 0.512867 0.761737
vt 0.512815 0.761726
vt 0.847824 0.847366
vt 0.846161 0.847366
vt 0.846100 0.847321
vt 0.847107 0.794586
vt 0.846899 0.738129
vt 0.845026 0.738068
vt 0.514652 0.751678
vt 0.514708 0.751691
vt 0.514732 0.751752
vt 0.514732 0.760306
vt 0.848617 0.540161
vt 0.846638 0.551529
vt 0.512753 0.751746
vt 0.512766 0.751739
vt 0.512781 0.751734
vn 0.5610 0.8046 -0.1946
vn 0.2841 0.9162 -0.2826
vn 0.2826 0.9162 0.2842
vn 0.1945 0.8046 0.5611
vn 0.4715 0.7427 0.4755
vn 0.8110 0.1520 0.5650
vn 0.5609 0.1520 0.8138
vn 0.3089 -0.1420 -0.9404
vn 0.5607 -0.1522 -0.8139
vn 0.4717 -0.7426 -0.4755
vn 0.1947 -0.8046 -0.5610
vn -0.4755 -0.7426 -0.4716
vn -0.5645 -0.1519 -0.8113
vn -0.3120 -0.1398 -0.9398
vn -0.8108 -0.1521 0.5652
vn -0.4719 -0.7425 0.4754
vn -0.5608 -0.1521 0.8139
vn 0.3089 0.1420 0.9405
vn -0.4754 0.7426 0.4717
vn -0.4910 0.3596 0.7935
vn -0.0852 0.3066 0.9480
vn 0.5649 0.1522 -0.8110
vn 0.4754 0.7426 -0.4717
vn 0.8137 0.1523 -0.5610
vn -0.8137 0.1520 0.5610
vn -0.5649 0.1519 0.8110
vn 0.5611 -0.8045 0.1948
vn 0.2843 -0.9161 0.2828
vn 0.2827 -0.9161 -0.2842
vn -0.8137 -0.1520 -0.5611
vn -0.8110 0.1522 -0.5649
vn -0.5608 0.1522 -0.8139
vn -0.3089 0.1420 -0.9404
vn 0.9404 0.1421 -0.3090
vn 0.9397 0.1398 0.3121
vn -0.2842 0.9162 0.2827
vn -0.5611 0.8045 0.1945
vn -0.9404 0.1420 0.3091
vn -0.4718 0.7425 -0.4755
vn -0.7937 0.3599 -0.4904
vn -0.9480 0.3066 -0.0850
vn 0.4905 -0.3598 0.7937
vn 0.4756 -0.7424 0.4718
vn 0.8137 -0.1522 0.5610
vn 0.5648 -0.1521 0.8111
vn -0.3088 -0.1420 0.9405
vn -0.1948 -0.8046 0.5610
vn 0.0853 -0.3066 0.9480
vn -0.2827 0.9162 -0.2841
vn -0.2842 -0.9161 -0.2827
vn -0.2828 -0.9161 0.2843
vn -0.5611 -0.8046 -0.1945
vn -0.1947 0.8046 -0.5610
vn -0.9397 -0.1398 0.3121
vn -0.9450 -0.3121 -0.0977
vn -0.8006 -0.3589 -0.4799
vn 0.9404 -0.1420 0.3090
vn 0.7937 -0.3596 -0.4907
vn 0.9480 -0.3066 -0.0852
vn 0.3121 0.1398 -0.9397
vn 0.8110 -0.1519 -0.5650
usemtl Brushed_Aluminum.001
s 1
f 25/1/1 24/2/2 21/3/3 22/4/4 23/5/5
f 20/6/6 23/7/5 18/8/7
f 39/9/8 40/10/9 46/11/10 45/12/11 35/13/12 32/14/13 31/15/14
f 53/16/15 49/17/16 51/18/17
f 17/19/18 18/8/7 23/7/5 22/20/4 16/21/19 13/22/20 11/23/21
f 30/24/22 26/25/23 28/26/24
f 13/27/20 16/28/19 10/29/25 12/30/26
f 55/31/27 54/32/28 44/33/29 45/34/11 46/35/10
f 32/14/13 36/36/30 7/37/31 5/38/32 4/39/33 31/15/14
f 27/40/34 28/41/24 26/42/23 25/1/1 23/5/5 20/43/6 19/44/35
f 22/45/4 21/46/3 14/47/36 15/48/37 16/28/19
f 9/49/38 10/29/25 16/28/19 15/48/37 3/50/39 8/51/40 6/52/41
f 61/53/42 56/54/43 58/55/44 60/56/45
f 50/57/46 51/58/17 49/59/16 48/60/47 56/61/43 61/62/42 59/63/48
f 14/47/36 21/46/3 24/64/2 1/65/49
f 33/66/50 47/67/51 48/68/47 49/17/16 34/69/52
f 8/70/40 3/71/39 5/38/32 7/37/31
f 47/67/51 33/66/50 44/72/29 54/73/28
f 15/48/37 14/47/36 1/65/49 2/74/53 3/50/39
f 34/69/52 49/17/16 53/16/15 52/75/54 37/76/55 38/77/56 35/78/12
f 57/79/57 58/55/44 56/54/43 55/31/27 46/35/10 43/80/58 41/81/59
f 32/14/13 35/13/12 38/82/56 36/36/30
f 1/65/49 24/64/2 25/83/1 26/84/23 2/74/53
f 4/39/33 5/38/32 3/71/39 2/85/53 26/25/23 30/24/22 29/86/60
f 43/87/58 46/11/10 40/10/9 42/88/61
f 27/40/34 19/44/35 57/79/57 41/81/59
f 40/10/9 39/9/8 29/86/60 30/24/22 28/26/24 42/88/61
f 11/23/21 13/22/20 12/89/26 51/58/17 50/57/46
f 50/57/46 59/63/48 17/19/18 11/23/21
f 47/67/51 54/73/28 55/90/27 56/91/43 48/68/47
f 45/12/11 44/92/29 33/93/50 34/94/52 35/13/12
f 59/63/48 61/62/42 60/95/45 18/8/7 17/19/18
f 9/49/38 6/52/41 37/96/55 52/97/54
f 6/98/41 8/99/40 7/100/31 36/101/30 38/77/56 37/76/55
f 58/55/44 57/79/57 19/44/35 20/43/6 18/102/7 60/56/45
f 39/9/8 31/15/14 4/39/33 29/86/60
f 41/81/59 43/80/58 42/103/61 28/41/24 27/40/34
f 53/16/15 51/18/17 12/104/26 10/105/25 9/106/38 52/75/54
