# Blender v2.92.0 OBJ File: 'fixed.blend'
# www.blender.org
mtllib roll_plate_right_chain_wheel_inner_1.mtl
o Body155_Body155.001
v 2.343150 1.940207 0.159811
v 2.343150 1.947925 0.203586
v 2.343150 1.956747 0.203586
v 2.343150 1.964465 0.159811
v 2.381250 1.947925 0.203586
v 2.381250 1.956747 0.203586
v 2.381250 1.940207 0.159811
v 2.381250 1.964465 0.159811
vt 0.513016 0.843586
vt 0.513016 0.848284
vt 0.508987 0.848284
vt 0.508987 0.843586
vt 0.848816 0.844801
vt 0.849762 0.844801
vt 0.850571 0.849428
vt 0.848007 0.849428
vt 0.843719 0.557198
vt 0.843719 0.552498
vt 0.847748 0.552498
vt 0.847748 0.557198
vt 0.787506 0.851120
vt 0.787506 0.847092
vt 0.790070 0.847092
vt 0.790070 0.851120
vt 0.515289 0.827423
vt 0.515289 0.831451
vt 0.514359 0.831451
vt 0.514359 0.827423
vt 0.498993 0.850935
vt 0.496429 0.850935
vt 0.497238 0.846308
vt 0.498184 0.846308
vn 0.0000 0.9848 0.1736
vn -1.0000 0.0000 0.0000
vn 0.0000 -0.9848 0.1736
vn 0.0000 0.1737 -0.9848
vn -0.0000 0.1736 -0.9848
vn -0.0000 -0.1736 -0.9848
vn 0.0000 -0.1737 -0.9848
vn -0.0000 0.1736 0.9848
vn 0.0000 -0.1736 0.9848
vn 1.0000 0.0000 0.0000
usemtl Brushed_Aluminum_2.001
s 1
f 6/1/1 8/2/1 4/3/1 3/4/1
f 2/5/2 3/6/2 4/7/2 1/8/2
f 2/9/3 1/10/3 7/11/3 5/12/3
f 4/13/4 8/14/5 7/15/6 1/16/7
f 2/17/8 5/18/8 6/19/9 3/20/9
f 7/21/10 8/22/10 6/23/10 5/24/10
