# Blender v2.92.0 OBJ File: 'fixed.blend'
# www.blender.org
mtllib roll.mtl
o Body50_Body50.001
v -2.326640 2.120900 0.368300
v -2.326640 2.044700 0.279400
v 2.326640 2.044700 0.279400
v 2.326640 2.120900 0.368300
v -2.326640 2.247900 0.368300
v 2.326640 2.247900 0.368300
v -2.326640 2.324100 0.279400
v 2.326640 2.324100 0.279400
v -2.326640 2.324100 0.076200
v 2.326640 2.324100 0.076200
v -2.326640 2.044700 0.076200
v 2.326640 2.044700 0.076200
vt 0.771812 0.000000
vt 0.771812 0.491806
vt 0.762417 0.491806
vt 0.762417 0.000000
vt 0.853683 0.491806
vt 0.824158 0.491806
vt 0.824158 0.000000
vt 0.853683 0.000000
vt 0.793289 0.000000
vt 0.802685 0.000000
vt 0.802685 0.491806
vt 0.793289 0.491806
vt 0.793289 0.491806
vt 0.793289 0.000000
vt 0.883224 0.491806
vt 0.869797 0.491806
vt 0.869797 0.000000
vt 0.883224 0.000000
vt 0.514084 0.771812
vt 0.514084 0.793289
vt 0.484558 0.793289
vt 0.484558 0.771812
vt 0.492615 0.762417
vt 0.506027 0.762417
vt 0.514084 0.824162
vt 0.484558 0.824162
vt 0.484558 0.802685
vt 0.492615 0.793289
vt 0.506027 0.793289
vt 0.514084 0.802685
vn 0.0000 -0.7593 0.6508
vn 0.0000 0.0000 -1.0000
vn 0.0000 0.7593 0.6508
vn 0.0000 1.0000 0.0000
vn 0.0000 -1.0000 0.0000
vn 0.0000 -0.0000 1.0000
vn -1.0000 0.0000 0.0000
vn 1.0000 0.0000 0.0000
usemtl Silver.001
s 1
f 2/1/1 3/2/1 4/3/1 1/4/1
f 11/5/2 9/6/2 10/7/2 12/8/2
f 6/9/3 8/10/3 7/11/3 5/12/3
f 9/6/4 7/11/4 8/10/4 10/7/4
f 12/13/5 3/2/5 2/1/5 11/14/5
f 4/15/6 6/16/6 5/17/6 1/18/6
f 7/19/7 9/20/7 11/21/7 2/22/7 1/23/7 5/24/7
f 12/25/8 10/26/8 8/27/8 6/28/8 4/29/8 3/30/8
