# Blender v2.92.0 OBJ File: ''
# www.blender.org
mtllib hanglight.mtl
o Cube_Cube.002
v 5.663251 0.807635 0.548185
v 5.663251 0.807635 -0.548186
v 5.873281 -0.226443 0.795724
v 5.873281 -0.226443 -0.795724
v 5.663251 0.542645 0.548185
v 6.115066 0.090831 1.000000
v 5.663251 0.542645 -0.548185
v 6.115066 0.090830 -1.000000
v 6.115066 -0.542645 -1.000000
v 6.115066 -0.542645 1.000000
v 5.931219 -0.542645 -0.934287
v 5.931219 -0.542645 0.934287
v 6.115066 -0.542645 0.333333
v 6.115066 -0.542645 -0.333333
v 5.663251 0.807635 -0.182729
v 5.663251 0.807635 0.182728
v 5.663251 0.542645 -0.182729
v 5.663251 0.542645 0.182728
v 6.115066 0.090830 0.333333
v 6.115066 0.090830 -0.333333
v 5.931219 -0.542645 0.311429
v 5.931219 -0.542645 -0.311429
v 5.873281 -0.226443 0.265241
v 5.873281 -0.226443 -0.265241
v 5.158100 -0.542645 -1.000000
v 4.736086 -0.542645 -1.000000
v 5.158100 0.807635 0.548185
v 4.736086 0.807635 0.548185
v 4.736086 0.807635 -0.548186
v 5.158100 0.807635 -0.548186
v 4.736086 -0.542645 1.000000
v 5.158100 -0.542645 1.000000
v 4.736086 0.542645 -0.548185
v 5.158100 0.542645 -0.548185
v 5.158100 0.090830 -1.000000
v 4.736086 0.090830 -1.000000
v 5.158100 0.542645 0.548185
v 4.736086 0.542645 0.548185
v 4.736086 0.090831 1.000000
v 5.158100 0.090831 1.000000
v 5.158100 -0.542645 -0.934287
v 4.736086 -0.542645 -0.934287
v 4.736086 -0.542645 0.934287
v 5.158100 -0.542645 0.934287
v 5.158100 -0.226443 -0.795724
v 4.736086 -0.226443 -0.795724
v 4.736086 -0.226443 0.795724
v 5.158100 -0.226443 0.795724
v 5.158100 -0.226443 -0.265241
v 4.736086 -0.226443 -0.265241
v 5.158100 -0.226443 0.265241
v 4.736086 -0.226443 0.265241
v 5.014705 0.881408 -0.153254
v 5.014815 0.883327 0.153044
v 4.888784 0.871931 -0.155259
v 4.891984 0.872806 0.156218
v 5.005028 1.003284 -0.121592
v 5.003833 1.002231 0.122228
v 4.879107 0.993807 -0.123597
v 4.881002 0.991709 0.125401
v 4.955674 0.853441 0.161014
v 4.940144 1.021595 0.117432
v 4.861054 0.930078 0.141467
v 5.034763 0.944958 0.136979
v 4.800088 0.814228 0.171751
v 4.947788 1.066292 0.105806
v 4.828293 0.940260 0.138944
v 5.067520 0.940260 0.138080
v 5.095960 0.814228 0.170683
v 4.953749 0.851428 -0.160814
v 4.940063 1.023787 -0.116037
v 4.857867 0.930906 -0.139843
v 5.035945 0.944309 -0.137008
v 4.798855 0.814228 -0.169909
v 4.947027 1.066292 -0.105032
v 4.827296 0.940260 -0.137305
v 5.066522 0.940260 -0.138169
v 5.094727 0.814228 -0.170977
v 4.903038 1.066292 0.105968
v 4.846335 1.020883 0.117956
v 4.878406 1.060208 0.107635
v 4.857652 1.043587 0.112023
v 5.049326 1.020883 0.117223
v 4.992538 1.066292 0.105645
v 5.037967 1.043587 0.111372
v 5.017181 1.060208 0.107134
v 4.845489 1.020883 -0.116449
v 4.902277 1.066292 -0.104870
v 4.856848 1.043587 -0.110598
v 4.877634 1.060208 -0.106360
v 4.991777 1.066292 -0.105193
v 5.048480 1.020883 -0.117181
v 5.016409 1.060208 -0.106861
v 5.037164 1.043587 -0.111249
v 4.948442 0.814228 0.171216
v 4.947208 0.814228 -0.170444
v 4.948284 -0.542645 -1.000000
v 4.948284 0.807635 0.548185
v 4.948284 0.807635 -0.548186
v 4.948284 -0.542645 1.000000
v 4.948284 0.542645 -0.548185
v 4.948284 0.090830 -1.000000
v 4.948284 0.542645 0.548185
v 4.948284 0.090831 1.000000
v 4.948284 -0.542645 -0.934287
v 4.948284 -0.542645 0.934287
v 4.948284 -0.226443 -0.795724
v 4.948284 -0.226443 0.795724
v 4.948284 -0.226443 -0.265241
v 4.948284 -0.226443 0.265241
v -5.663251 0.807635 0.548185
v -5.663251 0.807635 -0.548186
v -5.873281 -0.226443 0.795724
v -5.873281 -0.226443 -0.795724
v -5.663251 0.542645 0.548185
v -6.115066 0.090831 1.000000
v -5.663251 0.542645 -0.548185
v -6.115066 0.090830 -1.000000
v -6.115066 -0.542645 -1.000000
v -6.115066 -0.542645 1.000000
v -5.931219 -0.542645 -0.934287
v -5.931219 -0.542645 0.934287
v -6.115066 -0.542645 0.333333
v -6.115066 -0.542645 -0.333333
v -5.663251 0.807635 -0.182729
v -5.663251 0.807635 0.182728
v -5.663251 0.542645 -0.182729
v -5.663251 0.542645 0.182728
v -6.115066 0.090830 0.333333
v -6.115066 0.090830 -0.333333
v -5.931219 -0.542645 0.311429
v -5.931219 -0.542645 -0.311429
v -5.873281 -0.226443 0.265241
v -5.873281 -0.226443 -0.265241
v -5.158100 -0.542645 -1.000000
v -4.736086 -0.542645 -1.000000
v -5.158100 0.807635 0.548185
v -4.736086 0.807635 0.548185
v -4.736086 0.807635 -0.548186
v -5.158100 0.807635 -0.548186
v -4.736086 -0.542645 1.000000
v -5.158100 -0.542645 1.000000
v -4.736086 0.542645 -0.548185
v -5.158100 0.542645 -0.548185
v -5.158100 0.090830 -1.000000
v -4.736086 0.090830 -1.000000
v -5.158100 0.542645 0.548185
v -4.736086 0.542645 0.548185
v -4.736086 0.090831 1.000000
v -5.158100 0.090831 1.000000
v -5.158100 -0.542645 -0.934287
v -4.736086 -0.542645 -0.934287
v -4.736086 -0.542645 0.934287
v -5.158100 -0.542645 0.934287
v -5.158100 -0.226443 -0.795724
v -4.736086 -0.226443 -0.795724
v -4.736086 -0.226443 0.795724
v -5.158100 -0.226443 0.795724
v -5.158100 -0.226443 -0.265241
v -4.736086 -0.226443 -0.265241
v -5.158100 -0.226443 0.265241
v -4.736086 -0.226443 0.265241
v -5.014705 0.881408 -0.153254
v -5.014815 0.883327 0.153044
v -4.888784 0.871931 -0.155259
v -4.891984 0.872806 0.156218
v -5.005028 1.003284 -0.121592
v -5.003833 1.002231 0.122228
v -4.879107 0.993807 -0.123597
v -4.881002 0.991709 0.125401
v -4.955674 0.853441 0.161014
v -4.940144 1.021595 0.117432
v -4.861054 0.930078 0.141467
v -5.034763 0.944958 0.136979
v -4.800088 0.814228 0.171751
v -4.947788 1.066292 0.105806
v -4.828293 0.940260 0.138944
v -5.067520 0.940260 0.138080
v -5.095960 0.814228 0.170683
v -4.953749 0.851428 -0.160814
v -4.940063 1.023787 -0.116037
v -4.857867 0.930906 -0.139843
v -5.035945 0.944309 -0.137008
v -4.798855 0.814228 -0.169909
v -4.947027 1.066292 -0.105032
v -4.827296 0.940260 -0.137305
v -5.066522 0.940260 -0.138169
v -5.094727 0.814228 -0.170977
v -4.903038 1.066292 0.105968
v -4.846335 1.020883 0.117956
v -4.878406 1.060208 0.107635
v -4.857652 1.043587 0.112023
v -5.049326 1.020883 0.117223
v -4.992538 1.066292 0.105645
v -5.037967 1.043587 0.111372
v -5.017181 1.060208 0.107134
v -4.845489 1.020883 -0.116449
v -4.902277 1.066292 -0.104870
v -4.856848 1.043587 -0.110598
v -4.877634 1.060208 -0.106360
v -4.991777 1.066292 -0.105193
v -5.048480 1.020883 -0.117181
v -5.016409 1.060208 -0.106861
v -5.037164 1.043587 -0.111249
v -4.948442 0.814228 0.171216
v -4.947208 0.814228 -0.170444
v -4.948284 -0.542645 -1.000000
v -4.948284 0.807635 0.548185
v -4.948284 0.807635 -0.548186
v -4.948284 -0.542645 1.000000
v -4.948284 0.542645 -0.548185
v -4.948284 0.090830 -1.000000
v -4.948284 0.542645 0.548185
v -4.948284 0.090831 1.000000
v -4.948284 -0.542645 -0.934287
v -4.948284 -0.542645 0.934287
v -4.948284 -0.226443 -0.795724
v -4.948284 -0.226443 0.795724
v -4.948284 -0.226443 -0.265241
v -4.948284 -0.226443 0.265241
v 0.317114 -0.226443 0.795724
v 0.317114 -0.226443 0.265241
v 0.321317 0.814228 -0.169909
v 0.317114 0.807635 -0.548186
v 0.321400 0.814228 0.171751
v 0.317114 -0.226443 -0.265241
v 0.317114 -0.226443 -0.795724
v 0.317114 -0.542645 0.934287
v 0.317114 -0.542645 1.000000
v 0.317114 0.807635 0.548185
v 0.317114 0.542645 0.548185
v 0.317114 0.090830 -1.000000
v 0.317114 0.542645 -0.548185
v 0.317114 -0.542645 -1.000000
v 0.317114 -0.542645 -0.934287
v 0.317114 0.090831 1.000000
vt 0.625587 0.879563
vt 0.625587 0.827526
vt 0.680351 0.827526
vt 0.680351 0.879563
vt 0.750084 0.552165
vt 0.750084 0.610915
vt 0.706507 0.610915
vt 0.706507 0.552165
vt 0.366081 0.506420
vt 0.418119 0.506420
vt 0.418119 0.585032
vt 0.366081 0.585032
vt 0.363276 0.506419
vt 0.363276 0.547915
vt 0.310787 0.585030
vt 0.310787 0.506419
vt 0.464496 0.108747
vt 0.464496 0.523850
vt 0.420919 0.523850
vt 0.420919 0.108747
vt 0.272600 0.653903
vt 0.302621 0.653903
vt 0.302621 0.675671
vt 0.272600 0.675671
vt 0.135774 0.819422
vt 0.094278 0.819422
vt 0.094278 0.797655
vt 0.135774 0.797655
vt 0.749571 0.988291
vt 0.749571 0.937125
vt 0.764674 0.931727
vt 0.764674 0.986492
vt 0.491944 0.930562
vt 0.555453 0.930561
vt 0.570555 0.935959
vt 0.491944 0.935960
vt 0.723164 0.992085
vt 0.723164 0.948508
vt 0.491943 0.902202
vt 0.550693 0.902202
vt 0.709890 0.944771
vt 0.709890 0.988348
vt 0.683483 0.984554
vt 0.683483 0.933389
vt 0.989254 0.939711
vt 0.989254 0.983288
vt 0.962847 0.987082
vt 0.962847 0.935917
vt 0.668380 0.982755
vt 0.668380 0.927991
vt 0.947744 0.988881
vt 0.947744 0.934117
vt 0.813106 0.763118
vt 0.813106 0.793139
vt 0.791338 0.793139
vt 0.791339 0.763118
vt 0.056661 0.001403
vt 0.056661 0.031424
vt 0.034893 0.031424
vt 0.034893 0.001403
vt 0.843827 0.907815
vt 0.843827 0.937836
vt 0.791339 0.925464
vt 0.791339 0.870699
vt 0.573628 0.864861
vt 0.603649 0.864861
vt 0.616021 0.917350
vt 0.561256 0.917350
vt 0.813504 0.202042
vt 0.813504 0.143293
vt 0.857081 0.143293
vt 0.857081 0.202042
vt 0.903463 0.552157
vt 0.903463 0.610906
vt 0.859885 0.610906
vt 0.859885 0.552157
vt 0.791343 0.803253
vt 0.843381 0.803253
vt 0.843381 0.858018
vt 0.791343 0.858018
vt 0.846179 0.905703
vt 0.846179 0.853665
vt 0.900943 0.853665
vt 0.900943 0.905703
vt 0.091480 0.440569
vt 0.060401 0.440224
vt 0.060402 0.072410
vt 0.091481 0.077566
vt 0.294116 0.787319
vt 0.288517 0.787730
vt 0.288745 0.767702
vt 0.294210 0.768139
vt 0.091485 0.001403
vt 0.091481 0.042899
vt 0.060489 0.048105
vt 0.061464 0.001400
vt 0.091481 0.060135
vt 0.060446 0.060223
vt 0.032335 0.440217
vt 0.032335 0.072308
vt 0.903463 0.534921
vt 0.859885 0.534921
vt 0.810699 0.143286
vt 0.810699 0.558389
vt 0.767122 0.558389
vt 0.767122 0.143286
vt 0.813504 0.219278
vt 0.857081 0.219278
vt 0.467302 0.617266
vt 0.467302 0.202163
vt 0.510880 0.202163
vt 0.510879 0.617266
vt 0.474707 0.902202
vt 0.474708 0.930562
vt 0.550701 0.898620
vt 0.491952 0.898619
vt 0.491952 0.870260
vt 0.555461 0.870261
vt 0.474716 0.898619
vt 0.457285 0.898619
vt 0.457285 0.870260
vt 0.474716 0.870260
vt 0.001403 0.944937
vt 0.416503 0.944937
vt 0.416503 0.973296
vt 0.001403 0.973296
vt 0.474708 0.935960
vt 0.491952 0.864862
vt 0.570564 0.864863
vt 0.457285 0.864861
vt 0.474716 0.864861
vt 0.001403 0.939538
vt 0.416503 0.939539
vt 0.153009 0.819422
vt 0.153009 0.797655
vt 0.570561 0.001404
vt 0.570561 0.053442
vt 0.491949 0.053442
vt 0.491949 0.001404
vt 0.474713 0.001404
vt 0.474713 0.053442
vt 0.457282 0.053442
vt 0.457282 0.001404
vt 0.474714 0.105931
vt 0.457283 0.105931
vt 0.929181 0.128352
vt 0.929182 0.543456
vt 0.907414 0.543456
vt 0.907414 0.128352
vt 0.363276 0.489183
vt 0.310787 0.489183
vt 0.203968 0.637367
vt 0.203968 0.222263
vt 0.256457 0.222263
vt 0.256457 0.637367
vt 0.366081 0.489185
vt 0.418119 0.489185
vt 0.146319 0.108748
vt 0.146319 0.523851
vt 0.094281 0.523851
vt 0.094281 0.108748
vt 0.750084 0.534929
vt 0.706507 0.534929
vt 0.031425 0.001399
vt 0.032423 0.048003
vt 0.001407 0.042899
vt 0.001403 0.001402
vt 0.032379 0.060121
vt 0.001407 0.077566
vt 0.001407 0.060134
vt 0.976817 0.935308
vt 0.976817 0.893812
vt 0.998585 0.893812
vt 0.998584 0.935308
vt 0.976817 0.876577
vt 0.976817 0.859146
vt 0.998585 0.859146
vt 0.998585 0.876577
vt 0.236556 0.118582
vt 0.238199 0.123813
vt 0.235354 0.126289
vt 0.233865 0.119446
vt 0.556194 0.949051
vt 0.556194 0.966370
vt 0.552518 0.966370
vt 0.552518 0.949051
vt 0.248290 0.124706
vt 0.250827 0.119845
vt 0.253517 0.119446
vt 0.252029 0.126289
vt 0.316254 0.790743
vt 0.310649 0.790416
vt 0.310291 0.764830
vt 0.315749 0.764310
vt 0.277556 0.790172
vt 0.271965 0.790686
vt 0.272685 0.764258
vt 0.278115 0.765016
vt 0.283030 0.788925
vt 0.283414 0.766422
vt 0.244323 0.112078
vt 0.239092 0.113722
vt 0.231539 0.108750
vt 0.243726 0.108750
vt 0.559870 0.949051
vt 0.559870 0.966370
vt 0.243060 0.126349
vt 0.243691 0.130142
vt 0.240015 0.130142
vt 0.249183 0.114615
vt 0.255844 0.108750
vt 0.573013 0.946364
vt 0.573013 0.969057
vt 0.566225 0.967338
vt 0.566225 0.948083
vt 0.724298 0.013318
vt 0.721754 0.008313
vt 0.727905 0.010211
vt 0.727905 0.013887
vt 0.299696 0.787946
vt 0.299654 0.767490
vt 0.305159 0.789239
vt 0.304965 0.766129
vt 0.711410 0.009118
vt 0.709670 0.014456
vt 0.706513 0.013922
vt 0.706513 0.001735
vt 0.716416 0.006573
vt 0.717209 0.004061
vt 0.724052 0.005550
vt 0.722558 0.018657
vt 0.727905 0.017563
vt 0.712215 0.019461
vt 0.717553 0.021201
vt 0.717209 0.023713
vt 0.706513 0.026040
vt 0.724052 0.022225
vt 0.583624 0.943677
vt 0.583624 0.971744
vt 0.528764 0.971744
vt 0.528764 0.943677
vt 0.539375 0.946364
vt 0.539376 0.969057
vt 0.247367 0.130142
vt 0.094285 0.898620
vt 0.094285 0.870261
vt 0.094285 0.864863
vt 0.094279 0.001404
vt 0.094278 0.053442
vt 0.094279 0.105931
vt 0.001407 0.440569
vt 0.976817 0.496140
vt 0.998585 0.496140
vt 0.569261 0.083784
vt 0.569261 0.162395
vt 0.516772 0.162395
vt 0.516772 0.120898
vt 0.237991 0.129626
vt 0.236285 0.128216
vt 0.251097 0.128216
vt 0.249391 0.129626
vt 0.725978 0.006481
vt 0.727389 0.008187
vt 0.727389 0.019587
vt 0.725978 0.021293
vt 0.561955 0.948921
vt 0.561955 0.966500
vt 0.564140 0.948567
vt 0.564140 0.966855
vt 0.546164 0.967338
vt 0.546164 0.948083
vt 0.548248 0.948567
vt 0.548248 0.966855
vt 0.550433 0.948921
vt 0.550434 0.966500
vt 0.144717 0.737015
vt 0.145683 0.690309
vt 0.173749 0.690410
vt 0.174738 0.737015
vt 0.750084 0.517498
vt 0.706507 0.517498
vt 0.366081 0.471753
vt 0.418119 0.471753
vt 0.363276 0.471752
vt 0.310787 0.471752
vt 0.491950 0.105931
vt 0.170440 0.819423
vt 0.170440 0.797655
vt 0.457276 0.930562
vt 0.457276 0.935961
vt 0.457276 0.902202
vt 0.813504 0.236709
vt 0.857081 0.236709
vt 0.903463 0.517490
vt 0.859885 0.517490
vt 0.269803 0.653897
vt 0.269803 0.708662
vt 0.217765 0.708662
vt 0.217765 0.653897
vt 0.420919 0.558517
vt 0.464496 0.558517
vt 0.464496 0.617267
vt 0.420919 0.617267
vt 0.146319 0.558518
vt 0.146319 0.637130
vt 0.094281 0.637130
vt 0.094281 0.558518
vt 0.256457 0.187596
vt 0.203968 0.187596
vt 0.203968 0.108985
vt 0.256457 0.146100
vt 0.312897 0.587627
vt 0.334665 0.587627
vt 0.334665 0.617648
vt 0.312897 0.617648
vt 0.907414 0.578123
vt 0.929182 0.578124
vt 0.929182 0.619620
vt 0.907414 0.619620
vt 0.918537 0.978954
vt 0.903434 0.977155
vt 0.903434 0.922391
vt 0.918537 0.927788
vt 0.451170 0.944937
vt 0.451170 0.939539
vt 0.529781 0.939539
vt 0.514678 0.944937
vt 0.944944 0.982748
vt 0.944944 0.939171
vt 0.451170 0.973296
vt 0.509919 0.973296
vt 0.314116 0.739697
vt 0.287709 0.751079
vt 0.287709 0.699913
vt 0.314116 0.696119
vt 0.832851 0.982352
vt 0.806443 0.986146
vt 0.806443 0.934980
vt 0.832851 0.938774
vt 0.272606 0.756477
vt 0.272607 0.701713
vt 0.791341 0.987945
vt 0.791341 0.933181
vt 0.035215 0.035006
vt 0.056983 0.035006
vt 0.056983 0.065027
vt 0.035215 0.065027
vt 0.217765 0.791419
vt 0.217765 0.769651
vt 0.247785 0.769651
vt 0.247785 0.791419
vt 0.713542 0.827528
vt 0.750657 0.880017
vt 0.695892 0.880017
vt 0.683521 0.827528
vt 0.671633 0.923491
vt 0.619144 0.935862
vt 0.619144 0.881098
vt 0.671633 0.893470
vt 0.510880 0.167496
vt 0.467302 0.167496
vt 0.467302 0.108746
vt 0.510880 0.108746
vt 0.767121 0.593056
vt 0.810699 0.593056
vt 0.810699 0.651806
vt 0.767121 0.651806
vt 0.877434 0.850552
vt 0.877434 0.795788
vt 0.929472 0.795788
vt 0.929472 0.850552
vt 0.269803 0.711777
vt 0.269803 0.766541
vt 0.217765 0.766541
vt 0.217765 0.711777
vt 0.512196 0.693827
vt 0.493017 0.693921
vt 0.492579 0.688456
vt 0.512608 0.688228
vt 0.091484 0.931835
vt 0.061463 0.931838
vt 0.060489 0.885133
vt 0.091480 0.890339
vt 0.091480 0.873103
vt 0.060445 0.873015
vt 0.060401 0.860828
vt 0.091480 0.855672
vt 0.767121 0.575820
vt 0.810699 0.575820
vt 0.510880 0.184731
vt 0.467302 0.184731
vt 0.433934 0.973296
vt 0.433934 0.944937
vt 0.602801 0.827526
vt 0.607560 0.855885
vt 0.544051 0.855885
vt 0.544052 0.827526
vt 0.526816 0.827526
vt 0.526816 0.855886
vt 0.509385 0.855886
vt 0.509385 0.827526
vt 0.433934 0.939539
vt 0.622663 0.861283
vt 0.544052 0.861283
vt 0.526816 0.861283
vt 0.509385 0.861283
vt 0.907414 0.560888
vt 0.929182 0.560888
vt 0.149126 0.637130
vt 0.149126 0.558518
vt 0.201164 0.558519
vt 0.201163 0.637130
vt 0.149126 0.541283
vt 0.149126 0.523851
vt 0.201164 0.523852
vt 0.201164 0.541283
vt 0.516772 0.179631
vt 0.569261 0.179631
vt 0.569261 0.197062
vt 0.516772 0.197062
vt 0.256457 0.204832
vt 0.203968 0.204832
vt 0.146319 0.541283
vt 0.094281 0.541283
vt 0.420919 0.541282
vt 0.464496 0.541282
vt 0.031424 0.931838
vt 0.001403 0.931835
vt 0.001407 0.890339
vt 0.032422 0.885234
vt 0.032379 0.873116
vt 0.001407 0.873103
vt 0.001407 0.855672
vt 0.032335 0.860929
vt 0.976834 0.001402
vt 0.998602 0.001402
vt 0.998602 0.042899
vt 0.976834 0.042899
vt 0.976834 0.060134
vt 0.998602 0.060134
vt 0.998602 0.077566
vt 0.976834 0.077566
vt 0.716338 0.124369
vt 0.717202 0.121678
vt 0.724044 0.123166
vt 0.721568 0.126012
vt 0.614456 0.956096
vt 0.610780 0.956096
vt 0.610780 0.938776
vt 0.614456 0.938776
vt 0.722461 0.136103
vt 0.724044 0.139842
vt 0.717202 0.141330
vt 0.717600 0.138639
vt 0.515621 0.715966
vt 0.489188 0.715461
vt 0.489708 0.710003
vt 0.515293 0.710360
vt 0.515049 0.677267
vt 0.489893 0.677826
vt 0.489135 0.672396
vt 0.515564 0.671676
vt 0.513803 0.682742
vt 0.491299 0.683125
vt 0.709834 0.132135
vt 0.706505 0.131538
vt 0.706505 0.119352
vt 0.711477 0.126905
vt 0.618132 0.956096
vt 0.618132 0.938776
vt 0.727898 0.127828
vt 0.727898 0.131504
vt 0.724105 0.130873
vt 0.706505 0.143657
vt 0.712370 0.136996
vt 0.631275 0.958783
vt 0.624487 0.957064
vt 0.624487 0.937809
vt 0.631275 0.936090
vt 0.910574 0.019185
vt 0.911142 0.022793
vt 0.907466 0.022793
vt 0.905568 0.016641
vt 0.512823 0.699407
vt 0.492367 0.699365
vt 0.514116 0.704871
vt 0.491007 0.704676
vt 0.906373 0.006298
vt 0.898990 0.001401
vt 0.911177 0.001401
vt 0.911711 0.004558
vt 0.902805 0.018939
vt 0.901316 0.012097
vt 0.903828 0.011303
vt 0.915912 0.017446
vt 0.914818 0.022793
vt 0.916716 0.007102
vt 0.923295 0.001401
vt 0.920968 0.012097
vt 0.918456 0.012440
vt 0.919480 0.018939
vt 0.641886 0.961469
vt 0.641886 0.933403
vt 0.587026 0.933403
vt 0.597637 0.936090
vt 0.597637 0.958783
vt 0.587026 0.961469
vt 0.727898 0.135180
vt 0.727381 0.125804
vt 0.725971 0.124098
vt 0.725971 0.138910
vt 0.727381 0.137204
vt 0.903736 0.020866
vt 0.905442 0.022277
vt 0.916842 0.022277
vt 0.918549 0.020866
vt 0.620217 0.938647
vt 0.620217 0.956226
vt 0.622402 0.938292
vt 0.622402 0.956580
vt 0.604425 0.937809
vt 0.606510 0.938292
vt 0.606510 0.956580
vt 0.604425 0.957064
vt 0.608695 0.938647
vt 0.608695 0.956226
vt 0.535791 0.774315
vt 0.565812 0.774315
vt 0.564822 0.820919
vt 0.536756 0.821020
vt 0.533446 0.105931
vt 0.853825 0.908733
vt 0.908589 0.908733
vt 0.871474 0.961221
vt 0.841453 0.961221
vt 0.711149 0.941570
vt 0.711149 0.911549
vt 0.763637 0.874434
vt 0.763637 0.929198
vt 0.998601 0.492671
vt 0.976834 0.492671
vt 0.569261 0.612166
vt 0.516772 0.612166
vt 0.149126 0.108748
vt 0.201164 0.108748
vt 0.094284 0.861284
vt 0.094284 0.855885
vt 0.094284 0.827526
vt 0.366082 0.108750
vt 0.418120 0.108750
vt 0.310788 0.108748
vt 0.363276 0.108748
vt 0.533446 0.797655
vt 0.533446 0.819423
vt 0.094276 0.935959
vt 0.094276 0.930561
vt 0.094277 0.902202
vt 0.857081 0.599713
vt 0.813504 0.599713
vt 0.859885 0.154486
vt 0.903463 0.154486
vt 0.706507 0.154494
vt 0.750084 0.154494
vn 1.0000 -0.0000 0.0000
vn 0.0000 -1.0000 0.0000
vn 0.0000 -0.0000 -1.0000
vn 0.0000 0.7071 -0.7071
vn 0.0000 0.0000 1.0000
vn -0.9836 -0.1802 0.0000
vn 0.0000 -0.4014 -0.9159
vn 0.7071 0.7071 -0.0000
vn 0.0000 0.9998 -0.0174
vn 0.0000 1.0000 -0.0087
vn -0.0000 0.9999 -0.0116
vn 0.0843 -0.9964 -0.0092
vn -0.6670 -0.7451 -0.0061
vn -0.6652 -0.7467 -0.0061
vn 0.0867 -0.9962 -0.0092
vn 0.0060 0.9999 -0.0084
vn 0.0033 0.9999 -0.0124
vn 0.0057 0.9999 -0.0089
vn 0.0088 1.0000 -0.0042
vn -0.0000 0.9998 -0.0175
vn 0.0000 1.0000 0.0088
vn 0.0000 0.9999 0.0117
vn 0.0000 -0.4014 0.9159
vn 0.0000 0.7071 0.7071
vn 0.0088 1.0000 0.0042
vn 0.0057 0.9999 0.0089
vn 0.0034 0.9999 0.0124
vn 0.0061 0.9999 0.0084
vn 0.0000 0.9998 0.0175
vn 0.0035 0.2512 0.9679
vn 0.0000 1.0000 0.0000
vn -0.1231 0.9924 0.0004
vn -0.0753 0.9971 -0.0059
vn 0.6053 0.7960 -0.0087
vn 0.6044 0.7966 -0.0087
vn -0.0761 0.9971 -0.0059
vn -0.7223 0.6915 -0.0040
vn -0.7231 0.6908 -0.0040
vn -0.9998 -0.0207 -0.0040
vn -0.9997 -0.0225 -0.0040
vn 0.1231 0.9924 -0.0004
vn 0.9757 0.2193 -0.0035
vn 0.9480 0.3182 -0.0034
vn -0.0035 0.2512 -0.9679
vn 0.7841 -0.6205 -0.0112
vn 0.7853 -0.6190 -0.0112
vn 0.9890 0.1473 -0.0110
vn 0.9888 0.1488 -0.0110
vn -0.9757 0.2193 0.0035
vn 0.4561 0.8899 -0.0016
vn 0.7943 0.6075 -0.0029
vn -0.9480 0.3181 0.0034
vn -0.7943 0.6075 0.0029
vn -0.4561 0.8899 0.0016
vn -1.0000 0.0000 0.0000
vn 0.9836 -0.1802 0.0000
vn -0.7071 0.7071 -0.0000
vn -0.0843 -0.9964 -0.0092
vn -0.0867 -0.9962 -0.0092
vn 0.6652 -0.7467 -0.0061
vn 0.6670 -0.7451 -0.0061
vn -0.0060 0.9999 -0.0084
vn -0.0088 1.0000 -0.0042
vn -0.0057 0.9999 -0.0089
vn -0.0033 0.9999 -0.0124
vn -0.0088 1.0000 0.0042
vn -0.0061 0.9999 0.0084
vn -0.0034 0.9999 0.0124
vn -0.0057 0.9999 0.0089
vn -0.0035 0.2512 0.9679
vn 0.1231 0.9924 0.0004
vn 0.0753 0.9971 -0.0059
vn 0.0761 0.9971 -0.0059
vn -0.6044 0.7966 -0.0087
vn -0.6053 0.7960 -0.0087
vn 0.7223 0.6915 -0.0040
vn 0.7231 0.6908 -0.0040
vn 0.9998 -0.0207 -0.0040
vn 0.9997 -0.0225 -0.0040
vn -0.1231 0.9924 -0.0004
vn -0.9757 0.2193 -0.0035
vn -0.9480 0.3182 -0.0034
vn 0.0035 0.2512 -0.9679
vn -0.7841 -0.6205 -0.0112
vn -0.7853 -0.6190 -0.0112
vn -0.9890 0.1473 -0.0110
vn -0.9888 0.1488 -0.0110
vn 0.9757 0.2193 0.0035
vn -0.4561 0.8899 -0.0016
vn -0.7943 0.6075 -0.0029
vn 0.9480 0.3182 0.0034
vn 0.7943 0.6075 0.0029
vn 0.4561 0.8899 0.0016
usemtl m1
s 1
f 13/1/1 19/2/1 6/3/1 10/4/1
f 51/5/2 23/6/2 3/7/2 48/8/2
f 25/9/3 35/10/3 8/11/3 9/12/3
f 34/13/4 7/14/4 8/15/4 35/16/4
f 221/17/2 157/18/2 162/19/2 222/20/2
f 17/21/1 7/22/1 2/23/1 15/24/1
f 37/25/5 5/26/5 1/27/5 27/28/5
f 22/29/2 11/30/2 9/31/2 14/32/2
f 44/33/2 12/34/2 10/35/2 32/36/2
f 24/37/6 4/38/6 11/30/6 22/29/6
f 48/39/7 3/40/7 12/34/7 44/33/7
f 3/41/6 23/42/6 21/43/6 12/44/6
f 23/45/6 24/46/6 22/47/6 21/48/6
f 12/44/2 21/43/2 13/49/2 10/50/2
f 21/48/2 22/47/2 14/51/2 13/52/2
f 5/53/1 18/54/1 16/55/1 1/56/1
f 18/57/1 17/58/1 15/59/1 16/60/1
f 7/61/8 17/62/8 20/63/8 8/64/8
f 17/65/8 18/66/8 19/67/8 20/68/8
f 45/69/2 4/70/2 24/71/2 49/72/2
f 49/73/2 24/74/2 23/75/2 51/76/2
f 9/77/1 8/78/1 20/79/1 14/80/1
f 14/81/1 20/82/1 19/83/1 13/84/1
f 224/85/9 223/86/10 74/87/11 29/88/9
f 71/89/12 57/90/13 58/91/14 62/92/15
f 2/93/16 30/94/17 78/95/18 15/96/19
f 99/97/20 29/88/9 74/87/11 96/98/20
f 223/86/10 225/99/21 65/100/22 74/87/11
f 109/101/2 49/73/2 51/76/2 110/102/2
f 222/103/2 162/104/2 160/105/2 226/106/2
f 107/107/2 45/69/2 49/72/2 109/108/2
f 226/109/2 160/110/2 156/111/2 227/112/2
f 108/113/7 48/39/7 44/33/7 106/114/7
f 4/115/23 45/116/23 41/117/23 11/118/23
f 107/119/23 46/120/23 42/121/23 105/122/23
f 228/123/7 153/124/7 157/125/7 221/126/7
f 106/114/2 44/33/2 32/36/2 100/127/2
f 11/118/2 41/117/2 25/128/2 9/129/2
f 105/122/2 42/121/2 26/130/2 97/131/2
f 229/132/2 141/133/2 153/124/2 228/123/2
f 103/134/5 37/25/5 27/28/5 98/135/5
f 10/136/5 6/137/5 40/138/5 32/139/5
f 100/140/5 104/141/5 39/142/5 31/143/5
f 103/144/24 38/145/24 39/142/24 104/141/24
f 230/146/5 138/147/5 148/148/5 231/149/5
f 101/150/4 34/13/4 35/16/4 102/151/4
f 232/152/4 146/153/4 143/154/4 233/155/4
f 97/156/3 102/157/3 35/10/3 25/9/3
f 234/158/3 136/159/3 146/160/3 232/161/3
f 110/162/2 51/5/2 48/8/2 108/163/2
f 16/164/25 69/165/26 27/166/27 1/167/28
f 95/168/29 65/100/22 28/169/29 98/170/29
f 7/171/3 34/172/3 30/173/3 2/174/3
f 101/175/3 33/176/3 29/177/3 99/178/3
f 63/179/30 60/180/30 80/181/30 67/182/30
f 66/183/31 75/184/31 88/185/32 79/186/32
f 58/187/30 64/188/30 68/189/30 83/190/30
f 70/191/33 55/192/34 56/193/35 61/194/36
f 53/195/37 70/196/33 61/197/36 54/198/38
f 73/199/39 53/195/37 54/198/38 64/200/40
f 57/90/13 73/199/39 64/200/40 58/91/14
f 61/201/30 56/202/30 65/203/30 95/204/30
f 84/205/41 91/206/41 75/184/31 66/183/31
f 60/180/30 62/207/30 66/208/30 79/209/30
f 64/188/30 54/210/30 69/211/30 68/189/30
f 54/210/30 61/201/30 95/204/30 69/211/30
f 68/212/42 77/213/42 92/214/43 83/215/43
f 56/202/30 63/179/30 67/182/30 65/203/30
f 71/216/44 59/217/44 88/218/44 75/219/44
f 59/220/45 71/89/12 62/92/15 60/221/46
f 72/222/47 59/220/45 60/221/46 63/223/48
f 55/192/34 72/222/47 63/223/48 56/193/35
f 55/224/44 70/225/44 96/226/44 74/227/44
f 59/217/44 72/228/44 76/229/44 87/230/44
f 57/231/44 71/216/44 75/219/44 91/232/44
f 53/233/44 73/234/44 77/235/44 78/236/44
f 70/225/44 53/233/44 78/236/44 96/226/44
f 73/234/44 57/231/44 92/237/44 77/235/44
f 72/228/44 55/224/44 74/227/44 76/229/44
f 69/238/42 78/239/42 77/213/42 68/212/42
f 74/240/49 65/241/49 67/242/49 76/243/49
f 62/207/30 58/187/30 84/244/30 66/208/30
f 227/245/23 235/246/23 42/121/23 46/120/23
f 235/246/2 234/247/2 26/130/2 42/121/2
f 229/248/5 31/143/5 39/142/5 236/249/5
f 231/250/24 236/249/24 39/142/24 38/145/24
f 225/99/21 230/251/29 28/169/29 65/100/22
f 233/252/3 224/253/3 29/177/3 33/176/3
f 116/254/24 150/255/24 147/256/24 115/257/24
f 79/209/30 81/258/30 60/180/30
f 81/258/30 82/259/30 60/180/30
f 82/259/30 80/181/30 60/180/30
f 83/190/30 85/260/30 58/187/30
f 85/260/30 86/261/30 58/187/30
f 86/261/30 84/244/30 58/187/30
f 87/230/44 89/262/44 59/217/44
f 89/262/44 90/263/44 59/217/44
f 90/263/44 88/218/44 59/217/44
f 91/232/44 93/264/44 57/231/44
f 93/264/44 94/265/44 57/231/44
f 94/265/44 92/237/44 57/231/44
f 91/206/41 84/205/41 86/266/50 93/267/50
f 93/267/50 86/266/50 85/268/51 94/269/51
f 94/269/51 85/268/51 83/215/43 92/214/43
f 87/270/52 80/271/52 82/272/53 89/273/53
f 89/273/53 82/272/53 81/274/54 90/275/54
f 90/275/54 81/274/54 79/186/32 88/185/32
f 76/243/49 67/242/49 80/271/52 87/270/52
f 15/276/19 78/277/18 69/278/26 16/279/25
f 34/172/3 101/175/3 99/178/3 30/173/3
f 69/165/26 95/168/29 98/170/29 27/166/27
f 52/280/2 110/162/2 108/163/2 47/281/2
f 26/282/3 36/283/3 102/157/3 97/156/3
f 33/284/4 101/150/4 102/151/4 36/285/4
f 37/286/24 103/144/24 104/141/24 40/138/24
f 32/139/5 40/138/5 104/141/5 100/140/5
f 38/287/5 103/134/5 98/135/5 28/288/5
f 41/117/2 105/122/2 97/131/2 25/128/2
f 43/289/2 106/114/2 100/127/2 31/290/2
f 45/116/23 107/119/23 105/122/23 41/117/23
f 47/291/7 108/113/7 106/114/7 43/289/7
f 46/292/2 107/107/2 109/108/2 50/293/2
f 50/294/2 109/101/2 110/102/2 52/295/2
f 30/94/17 99/97/20 96/98/20 78/95/18
f 123/296/55 120/297/55 116/298/55 129/299/55
f 161/300/2 158/301/2 113/302/2 133/303/2
f 135/304/3 119/305/3 118/306/3 145/307/3
f 144/308/4 145/309/4 118/310/4 117/311/4
f 127/312/55 125/313/55 112/314/55 117/315/55
f 147/316/5 137/317/5 111/318/5 115/319/5
f 132/320/2 124/321/2 119/322/2 121/323/2
f 154/324/2 142/325/2 120/326/2 122/327/2
f 134/328/56 132/320/56 121/323/56 114/329/56
f 158/330/7 154/324/7 122/327/7 113/331/7
f 113/332/56 122/333/56 131/334/56 133/335/56
f 133/336/56 131/337/56 132/338/56 134/339/56
f 122/333/2 120/340/2 123/341/2 131/334/2
f 131/337/2 123/342/2 124/343/2 132/338/2
f 115/344/55 111/345/55 126/346/55 128/347/55
f 128/348/55 126/349/55 125/350/55 127/351/55
f 117/352/57 118/353/57 130/354/57 127/355/57
f 127/356/57 130/357/57 129/358/57 128/359/57
f 155/360/2 159/361/2 134/362/2 114/363/2
f 159/364/2 161/365/2 133/366/2 134/367/2
f 119/368/55 124/369/55 130/370/55 118/371/55
f 124/372/55 123/373/55 129/374/55 130/375/55
f 181/376/58 172/377/59 168/378/60 167/379/61
f 112/380/62 125/381/63 188/382/64 140/383/65
f 209/384/20 206/385/20 184/386/11 139/387/9
f 219/388/2 220/389/2 161/365/2 159/364/2
f 217/390/2 219/391/2 159/361/2 155/360/2
f 218/392/7 216/393/7 154/324/7 158/330/7
f 114/394/23 121/395/23 151/396/23 155/397/23
f 217/398/23 215/399/23 152/400/23 156/401/23
f 216/393/2 210/402/2 142/325/2 154/324/2
f 121/395/2 119/403/2 135/404/2 151/396/2
f 215/399/2 207/405/2 136/406/2 152/400/2
f 213/407/5 208/408/5 137/317/5 147/316/5
f 120/409/5 142/410/5 150/411/5 116/412/5
f 210/413/5 141/414/5 149/415/5 214/416/5
f 213/417/24 214/418/24 149/419/24 148/420/24
f 211/421/4 212/422/4 145/309/4 144/308/4
f 207/423/3 135/304/3 145/307/3 212/424/3
f 220/425/2 218/426/2 158/301/2 161/300/2
f 126/427/66 111/428/67 137/429/68 179/430/69
f 205/431/29 208/432/29 138/433/29 175/434/22
f 117/435/3 112/436/3 140/437/3 144/438/3
f 211/439/3 209/440/3 139/441/3 143/442/3
f 173/443/70 177/444/70 190/445/70 170/446/70
f 176/447/31 189/448/71 198/449/71 185/450/31
f 168/451/70 193/452/70 178/453/70 174/454/70
f 180/455/72 171/456/73 166/457/74 165/458/75
f 163/459/76 164/460/77 171/461/73 180/462/72
f 183/463/78 174/464/79 164/460/77 163/459/76
f 167/379/61 168/378/60 174/464/79 183/463/78
f 171/465/70 205/466/70 175/467/70 166/468/70
f 194/469/80 176/447/31 185/450/31 201/470/80
f 170/446/70 189/471/70 176/472/70 172/473/70
f 174/454/70 178/453/70 179/474/70 164/475/70
f 164/475/70 179/474/70 205/466/70 171/465/70
f 178/476/81 193/477/82 202/478/82 187/479/81
f 166/468/70 175/467/70 177/444/70 173/443/70
f 181/480/83 185/481/83 198/482/83 169/483/83
f 169/484/84 170/485/85 172/377/59 181/376/58
f 182/486/86 173/487/87 170/485/85 169/484/84
f 165/458/75 166/457/74 173/487/87 182/486/86
f 165/488/83 184/489/83 206/490/83 180/491/83
f 169/483/83 197/492/83 186/493/83 182/494/83
f 167/495/83 201/496/83 185/481/83 181/480/83
f 163/497/83 188/498/83 187/499/83 183/500/83
f 180/491/83 206/490/83 188/498/83 163/497/83
f 183/500/83 187/499/83 202/501/83 167/495/83
f 182/494/83 186/493/83 184/489/83 165/488/83
f 179/502/81 178/476/81 187/479/81 188/503/81
f 184/504/88 186/505/88 177/506/88 175/507/88
f 172/473/70 176/472/70 194/508/70 168/451/70
f 189/471/70 170/446/70 191/509/70
f 191/509/70 170/446/70 192/510/70
f 192/510/70 170/446/70 190/445/70
f 193/452/70 168/451/70 195/511/70
f 195/511/70 168/451/70 196/512/70
f 196/512/70 168/451/70 194/508/70
f 197/492/83 169/483/83 199/513/83
f 199/513/83 169/483/83 200/514/83
f 200/514/83 169/483/83 198/482/83
f 201/496/83 167/495/83 203/515/83
f 203/515/83 167/495/83 204/516/83
f 204/516/83 167/495/83 202/501/83
f 201/470/80 203/517/89 196/518/89 194/469/80
f 203/517/89 204/519/90 195/520/90 196/518/89
f 204/519/90 202/478/82 193/477/82 195/520/90
f 197/521/91 199/522/92 192/523/92 190/524/91
f 199/522/92 200/525/93 191/526/93 192/523/92
f 200/525/93 198/449/71 189/448/71 191/526/93
f 186/505/88 197/521/91 190/524/91 177/506/88
f 125/527/63 126/528/66 179/529/69 188/530/64
f 144/438/3 140/437/3 209/440/3 211/439/3
f 179/430/69 137/429/68 208/432/29 205/431/29
f 162/19/2 157/18/2 218/426/2 220/425/2
f 136/159/3 207/423/3 212/424/3 146/160/3
f 143/154/4 146/153/4 212/422/4 211/421/4
f 147/256/24 150/255/24 214/418/24 213/417/24
f 142/410/5 210/413/5 214/416/5 150/411/5
f 148/148/5 138/147/5 208/408/5 213/407/5
f 151/396/2 135/404/2 207/405/2 215/399/2
f 153/124/2 141/133/2 210/402/2 216/393/2
f 155/397/23 151/396/23 215/399/23 217/398/23
f 157/125/7 153/124/7 216/393/7 218/392/7
f 156/111/2 160/110/2 219/391/2 217/390/2
f 160/105/2 162/104/2 220/389/2 219/388/2
f 140/383/65 188/382/64 206/385/20 209/384/20
f 5/531/24 37/286/24 40/138/24 6/137/24
f 129/532/57 116/533/57 115/534/57 128/535/57
f 18/536/8 5/537/8 6/538/8 19/539/8
f 143/442/3 139/441/3 224/540/3 233/541/3
f 175/434/22 138/433/29 230/251/29 225/99/21
f 148/420/24 149/419/24 236/542/24 231/543/24
f 141/414/5 229/544/5 236/545/5 149/415/5
f 152/400/2 136/406/2 234/546/2 235/547/2
f 156/401/23 152/400/23 235/547/23 227/548/23
f 26/282/3 234/549/3 232/550/3 36/283/3
f 36/285/4 232/551/4 233/552/4 33/284/4
f 28/288/5 230/553/5 231/554/5 38/287/5
f 31/290/2 229/555/2 228/556/2 43/289/2
f 43/289/7 228/556/7 221/557/7 47/291/7
f 50/293/2 226/558/2 227/559/2 46/292/2
f 52/295/2 222/560/2 226/561/2 50/294/2
f 184/386/11 175/434/22 225/99/21 223/86/10
f 139/387/9 184/386/11 223/86/10 224/85/9
f 47/281/2 221/562/2 222/563/2 52/280/2
o Torus_Torus.003
v 4.954328 1.439564 0.033334
v 4.954289 1.439564 -0.033335
v 4.922791 1.429000 -0.033302
v 4.922830 1.429000 0.033788
v 4.899733 1.400104 -0.033735
v 4.899773 1.400104 0.034578
v 4.891292 1.360864 -0.034276
v 4.891333 1.360864 0.035250
v 4.899733 1.322852 -0.033735
v 4.899773 1.322852 0.034578
v 4.922791 1.295196 -0.033302
v 4.922830 1.295196 0.033788
v 4.954289 1.285060 -0.033335
v 4.954328 1.285060 0.033334
v 4.985787 1.295196 -0.033789
v 4.985826 1.295196 0.033301
v 5.008844 1.322852 -0.034579
v 5.008884 1.322852 0.033734
v 5.017284 1.360864 -0.035250
v 5.017325 1.360864 0.034275
v 5.008844 1.400104 -0.034579
v 5.008884 1.400104 0.033734
v 4.985787 1.429000 -0.033789
v 4.985826 1.429000 0.033301
v 4.953661 0.947252 -0.303742
v 4.953727 0.893960 -0.272974
v 4.953646 0.920606 -0.310882
v 4.953670 0.901100 -0.299620
v 4.915121 0.899135 -0.263539
v 4.915055 0.952764 -0.294502
v 4.915064 0.906320 -0.290354
v 4.915040 0.925949 -0.301687
v 4.886899 0.913273 -0.237863
v 4.886832 0.967879 -0.269389
v 4.886841 0.920589 -0.265166
v 4.886817 0.940576 -0.276705
v 4.876623 0.932586 -0.203271
v 4.876555 0.988161 -0.235357
v 4.876564 0.940032 -0.231058
v 4.876539 0.960374 -0.242803
v 4.887042 0.951899 -0.170961
v 4.886975 1.006505 -0.202488
v 4.886984 0.959215 -0.198264
v 4.886959 0.979202 -0.209803
v 4.915368 0.966037 -0.147662
v 4.915302 1.019666 -0.178624
v 4.915310 0.973222 -0.174476
v 4.915287 0.992851 -0.185809
v 4.954012 0.971212 -0.139170
v 4.953946 1.024504 -0.169938
v 4.953955 0.978352 -0.165816
v 4.953931 0.997858 -0.177078
v 4.992620 0.966037 -0.147827
v 4.992553 1.019666 -0.178789
v 4.992562 0.973222 -0.174641
v 4.992538 0.992851 -0.185974
v 5.020846 0.951899 -0.171246
v 5.020779 1.006505 -0.202773
v 5.020788 0.959215 -0.198549
v 5.020763 0.979202 -0.210089
v 5.031126 0.932586 -0.203600
v 5.031058 0.988161 -0.235686
v 5.031067 0.940032 -0.231388
v 5.031042 0.960374 -0.243132
v 5.020703 0.913273 -0.238148
v 5.020636 0.967879 -0.269675
v 5.020645 0.920589 -0.265451
v 5.020620 0.940576 -0.276990
v 4.992373 0.899135 -0.263704
v 4.992306 0.952764 -0.294667
v 4.992315 0.906320 -0.290518
v 4.992291 0.925949 -0.301851
v 4.954890 0.893960 0.272974
v 4.954956 0.947252 0.303741
v 4.954947 0.901100 0.299619
v 4.954971 0.920606 0.310881
v 4.916311 0.952764 0.294666
v 4.916245 0.899135 0.263704
v 4.916326 0.925950 0.301851
v 4.916302 0.906320 0.290518
v 4.887981 0.967880 0.269674
v 4.887914 0.913273 0.238147
v 4.887997 0.940577 0.276990
v 4.887972 0.920589 0.265450
v 4.877559 0.988162 0.235686
v 4.877491 0.932586 0.203599
v 4.877575 0.960374 0.243131
v 4.877550 0.940032 0.231387
v 4.887838 1.006505 0.202772
v 4.887771 0.951899 0.171245
v 4.887854 0.979202 0.210088
v 4.887829 0.959215 0.198548
v 4.916064 1.019666 0.178788
v 4.915998 0.966037 0.147826
v 4.916079 0.992852 0.185973
v 4.916055 0.973222 0.174640
v 4.954671 1.024504 0.169938
v 4.954605 0.971212 0.139170
v 4.954686 0.997858 0.177077
v 4.954662 0.978352 0.165815
v 4.993315 1.019666 0.178624
v 4.993249 0.966037 0.147661
v 4.993330 0.992852 0.185809
v 4.993307 0.973222 0.174476
v 5.021642 1.006505 0.202487
v 5.021575 0.951899 0.170960
v 5.021658 0.979202 0.209803
v 5.021633 0.959215 0.198263
v 5.032062 0.988162 0.235356
v 5.031994 0.932586 0.203270
v 5.032078 0.960374 0.242802
v 5.032053 0.940032 0.231058
v 5.021785 0.967880 0.269389
v 5.021718 0.913273 0.237862
v 5.021801 0.940577 0.276705
v 5.021776 0.920589 0.265165
v 4.993562 0.952764 0.294501
v 4.993496 0.899135 0.263539
v 4.993577 0.925950 0.301686
v 4.993553 0.906320 0.290353
vt 0.891056 0.771928
vt 0.882858 0.782277
vt 0.897863 0.639390
vt 0.904233 0.651000
vt 0.901151 0.765059
vt 0.913893 0.660182
vt 0.912275 0.763603
vt 0.926578 0.664886
vt 0.813636 0.758665
vt 0.802821 0.755679
vt 0.802826 0.655931
vt 0.816055 0.653100
vt 0.822674 0.766875
vt 0.826938 0.645407
vt 0.829316 0.778287
vt 0.834919 0.634839
vt 0.835426 0.790451
vt 0.843280 0.623763
vt 0.843806 0.799776
vt 0.854666 0.615973
vt 0.387208 0.772899
vt 0.379134 0.775184
vt 0.371556 0.588599
vt 0.385060 0.591621
vt 0.908508 0.076397
vt 0.727830 0.076438
vt 0.730008 0.065647
vt 0.906318 0.065601
vt 0.854347 0.803747
vt 0.868079 0.613799
vt 0.906332 0.087188
vt 0.730022 0.087235
vt 0.899934 0.055497
vt 0.736375 0.055540
vt 0.746404 0.046756
vt 0.889889 0.046725
vt 0.757101 0.037694
vt 0.879180 0.037672
vt 0.765786 0.026090
vt 0.870493 0.026071
vt 0.769753 0.012980
vt 0.866534 0.012955
vt 0.866585 0.139856
vt 0.769805 0.139880
vt 0.765845 0.126763
vt 0.870551 0.126746
vt 0.757158 0.115162
vt 0.879237 0.115142
vt 0.746450 0.106109
vt 0.889934 0.106079
vt 0.736405 0.097337
vt 0.899963 0.097296
vt 0.370914 0.773485
vt 0.358341 0.592710
vt 0.362439 0.767940
vt 0.347814 0.602116
vt 0.353667 0.759435
vt 0.340714 0.614387
vt 0.343834 0.750610
vt 0.333931 0.626099
vt 0.332821 0.743523
vt 0.323845 0.635202
vt 0.322013 0.739804
vt 0.310817 0.639521
vt 0.433209 0.735265
vt 0.422776 0.739922
vt 0.422865 0.631184
vt 0.436199 0.634430
vt 0.412405 0.747941
vt 0.412077 0.622929
vt 0.403326 0.757560
vt 0.404379 0.611799
vt 0.395241 0.766733
vt 0.396314 0.600141
vt 0.875031 0.793412
vt 0.891188 0.627223
vt 0.379979 0.794500
vt 0.366460 0.792660
vt 0.865362 0.801389
vt 0.881041 0.617877
vt 0.353193 0.787165
vt 0.340895 0.779138
vt 0.330243 0.770766
vt 0.320484 0.763831
vt 0.311215 0.758475
vt 0.445417 0.753011
vt 0.436688 0.759200
vt 0.427569 0.766988
vt 0.417643 0.776216
vt 0.406036 0.785160
vt 0.393286 0.791631
vt 0.913427 0.066327
vt 0.915248 0.076390
vt 0.919137 0.064984
vt 0.921141 0.076385
vt 0.926597 0.059435
vt 0.929830 0.076381
vt 0.908471 0.056399
vt 0.914606 0.053470
vt 0.918578 0.044113
vt 0.900261 0.046483
vt 0.907010 0.041646
vt 0.908373 0.031083
vt 0.890205 0.036036
vt 0.897311 0.030230
vt 0.900040 0.020680
vt 0.880768 0.023895
vt 0.887964 0.018789
vt 0.892933 0.011120
vt 0.874779 0.011719
vt 0.880255 0.008357
vt 0.885440 0.002180
vt 0.880828 0.128917
vt 0.874834 0.141100
vt 0.888027 0.134022
vt 0.880315 0.144466
vt 0.893005 0.141692
vt 0.885509 0.150646
vt 0.890260 0.116770
vt 0.897367 0.122571
vt 0.900108 0.132121
vt 0.900304 0.106311
vt 0.907051 0.111143
vt 0.908429 0.121703
vt 0.908499 0.096385
vt 0.914631 0.099309
vt 0.918615 0.108660
vt 0.913440 0.086453
vt 0.919150 0.087788
vt 0.926615 0.093330
vt 0.706509 0.076454
vt 0.709725 0.059505
vt 0.717190 0.065047
vt 0.715197 0.076450
vt 0.722900 0.066383
vt 0.721089 0.076445
vt 0.717724 0.044175
vt 0.721708 0.053528
vt 0.727841 0.056451
vt 0.727910 0.031133
vt 0.729287 0.041694
vt 0.736034 0.046525
vt 0.736230 0.020716
vt 0.738971 0.030265
vt 0.746078 0.036066
vt 0.743332 0.011143
vt 0.748311 0.018813
vt 0.755509 0.023918
vt 0.750828 0.002191
vt 0.756021 0.008370
vt 0.761502 0.011737
vt 0.750897 0.150654
vt 0.743405 0.141713
vt 0.748375 0.134045
vt 0.756083 0.144478
vt 0.755569 0.128939
vt 0.761558 0.141115
vt 0.736298 0.132155
vt 0.739027 0.122605
vt 0.746134 0.116799
vt 0.727966 0.121751
vt 0.729329 0.111189
vt 0.736078 0.106352
vt 0.717761 0.108721
vt 0.721732 0.099364
vt 0.727867 0.096437
vt 0.709743 0.093401
vt 0.717202 0.087851
vt 0.722912 0.086508
vn -0.7817 -0.3522 0.5148
vn -0.9993 0.0350 -0.0115
vn -0.9990 0.0424 -0.0138
vn -0.7132 -0.2987 0.6341
vn -0.3844 -0.5452 0.7450
vn -0.3160 -0.4199 0.8508
vn 0.0037 -0.5986 0.8010
vn 0.0039 -0.4458 0.8951
vn 0.3907 -0.5438 0.7428
vn 0.3230 -0.4187 0.8487
vn 0.7846 -0.3508 0.5112
vn 0.7173 -0.2974 0.6301
vn 0.9993 0.0349 -0.0150
vn 0.9989 0.0422 -0.0182
vn 0.7398 0.3905 -0.5480
vn 0.6804 0.3546 -0.6414
vn 0.3429 0.5290 -0.7763
vn 0.2972 0.4512 -0.8414
vn 0.3496 0.5286 0.7735
vn 0.0023 0.5589 0.8292
vn 0.0040 0.4709 0.8822
vn 0.3045 0.4512 0.8389
vn -0.0000 -0.9999 -0.0127
vn 0.0000 -0.9999 0.0127
vn -0.2784 -0.9604 0.0132
vn -0.2785 -0.9604 -0.0120
vn -0.0039 0.5589 -0.8292
vn -0.0028 0.4709 -0.8822
vn 0.2784 -0.9604 -0.0132
vn 0.2785 -0.9604 0.0120
vn -0.6507 -0.7592 -0.0094
vn -0.6507 -0.7592 0.0122
vn -0.9992 -0.0400 0.0021
vn -0.6837 0.7296 -0.0133
vn -0.6836 0.7296 0.0162
vn -0.2944 0.9555 -0.0204
vn -0.2943 0.9555 0.0217
vn -0.0000 0.9997 -0.0228
vn 0.0000 0.9997 0.0228
vn 0.2943 0.9555 -0.0217
vn 0.2944 0.9555 0.0204
vn 0.6836 0.7296 -0.0162
vn 0.6837 0.7296 0.0133
vn 0.9992 -0.0400 -0.0021
vn 0.6507 -0.7592 0.0094
vn 0.6507 -0.7592 -0.0122
vn -0.3429 0.5290 0.7763
vn -0.2973 0.4512 0.8414
vn -0.7398 0.3905 0.5480
vn -0.6804 0.3546 0.6414
vn -0.9993 0.0349 0.0150
vn -0.9989 0.0422 0.0182
vn -0.7846 -0.3508 -0.5112
vn -0.7173 -0.2974 -0.6301
vn -0.3906 -0.5438 -0.7428
vn -0.3230 -0.4187 -0.8487
vn -0.0037 -0.5986 -0.8010
vn -0.0039 -0.4458 -0.8951
vn 0.3843 -0.5452 -0.7450
vn 0.3160 -0.4199 -0.8508
vn 0.7817 -0.3522 -0.5148
vn 0.7132 -0.2987 -0.6341
vn 0.9993 0.0350 0.0115
vn 0.9990 0.0424 0.0138
vn 0.7431 0.3902 0.5437
vn 0.6847 0.3546 0.6367
vn -0.7431 0.3902 -0.5437
vn -0.6847 0.3546 -0.6367
vn -0.3495 0.5286 -0.7735
vn -0.3045 0.4512 -0.8389
vn -0.4730 -0.7213 -0.5060
vn -0.0012 -0.8181 -0.5750
vn -0.4738 -0.0784 -0.8771
vn -0.0021 -0.0889 -0.9960
vn -0.8493 -0.4327 -0.3024
vn -0.8498 -0.0471 -0.5251
vn -1.0000 -0.0000 0.0021
vn -0.8405 0.4425 0.3128
vn -0.8400 0.0481 0.5405
vn -0.4575 0.7270 0.5120
vn -0.4567 0.0791 0.8861
vn 0.0012 0.8181 0.5751
vn 0.0021 0.0890 0.9960
vn 0.4597 0.7270 0.5100
vn 0.4605 0.0791 0.8841
vn 0.8418 0.4425 0.3092
vn 0.8423 0.0481 0.5369
vn 1.0000 0.0000 -0.0021
vn 0.8480 -0.4327 -0.3060
vn 0.8475 -0.0471 -0.5287
vn 0.4708 -0.7213 -0.5080
vn 0.4700 -0.0784 -0.8792
vn -0.4700 -0.0784 0.8792
vn 0.0021 -0.0889 0.9960
vn -0.4708 -0.7213 0.5080
vn 0.0013 -0.8181 0.5750
vn -0.8475 -0.0471 0.5287
vn -0.8480 -0.4327 0.3060
vn -0.8423 0.0481 -0.5369
vn -0.8418 0.4425 -0.3092
vn -0.4605 0.0790 -0.8841
vn -0.4597 0.7270 -0.5100
vn -0.0021 0.0890 -0.9960
vn -0.0012 0.8181 -0.5751
vn 0.4567 0.0791 -0.8861
vn 0.4575 0.7270 -0.5120
vn 0.8400 0.0481 -0.5405
vn 0.8405 0.4425 -0.3128
vn 0.8498 -0.0470 0.5251
vn 0.8493 -0.4327 0.3024
vn 0.4738 -0.0784 0.8771
vn 0.4730 -0.7213 0.5060
usemtl m1
s 1
f 245/564/94 243/565/95 274/566/96 278/567/97
f 247/568/98 245/564/94 278/567/97 282/569/99
f 249/570/100 247/568/98 282/569/99 286/571/101
f 251/572/102 249/573/100 286/574/101 290/575/103
f 253/576/104 251/572/102 290/575/103 294/577/105
f 255/578/106 253/576/104 294/577/105 298/579/107
f 257/580/108 255/578/106 298/579/107 302/581/109
f 259/582/110 257/580/108 302/581/109 306/583/111
f 260/584/112 237/585/113 310/586/114 353/587/115
f 262/588/116 309/589/117 314/590/118 265/591/119
f 238/592/120 259/582/110 306/583/111 261/593/121
f 305/594/122 354/595/123 309/589/117 262/588/116
f 269/596/124 318/597/125 322/598/126 273/599/126
f 273/599/126 322/598/126 326/600/127 277/601/128
f 277/601/128 326/600/127 330/602/129 281/603/130
f 281/603/130 330/602/129 334/604/131 285/605/132
f 285/606/132 334/607/131 338/608/133 289/609/134
f 289/609/134 338/608/133 342/610/135 293/611/136
f 293/611/136 342/610/135 346/612/137 297/613/137
f 297/613/137 346/612/137 350/614/138 301/615/139
f 301/615/139 350/614/138 354/595/123 305/594/122
f 265/591/119 314/590/118 318/597/125 269/596/124
f 310/586/114 237/585/113 240/616/140 313/617/141
f 240/616/140 242/618/142 317/619/143 313/617/141
f 242/618/142 244/620/144 321/621/145 317/619/143
f 244/620/144 246/622/146 325/623/147 321/621/145
f 246/622/146 248/624/148 329/625/149 325/623/147
f 248/624/148 250/626/150 333/627/151 329/625/149
f 250/628/150 252/629/152 337/630/153 333/631/151
f 252/629/152 254/632/154 341/633/155 337/630/153
f 254/632/154 256/634/156 345/635/157 341/633/155
f 256/634/156 258/636/158 349/637/159 345/635/157
f 258/636/158 260/584/112 353/587/115 349/637/159
f 243/565/95 241/638/160 270/639/161 274/566/96
f 238/640/120 239/641/162 240/616/140 237/585/113
f 241/638/160 239/642/162 266/643/163 270/639/161
f 239/641/162 241/644/160 242/618/142 240/616/140
f 241/644/160 243/645/95 244/620/144 242/618/142
f 243/645/95 245/646/94 246/622/146 244/620/144
f 245/646/94 247/647/98 248/624/148 246/622/146
f 247/647/98 249/648/100 250/626/150 248/624/148
f 249/649/100 251/650/102 252/629/152 250/628/150
f 251/650/102 253/651/104 254/632/154 252/629/152
f 253/651/104 255/652/106 256/634/156 254/632/154
f 255/652/106 257/653/108 258/636/158 256/634/156
f 257/653/108 259/654/110 260/584/112 258/636/158
f 262/588/116 265/591/119 267/655/164 264/656/165
f 264/656/165 267/655/164 268/657/166 263/658/167
f 263/658/167 268/657/166 266/659/163 261/660/121
f 265/591/119 269/596/124 271/661/168 267/655/164
f 267/655/164 271/661/168 272/662/169 268/657/166
f 268/657/166 272/662/169 270/663/161 266/659/163
f 269/596/124 273/599/126 275/664/170 271/661/168
f 271/661/168 275/664/170 276/665/170 272/662/169
f 272/662/169 276/665/170 274/666/96 270/663/161
f 273/599/126 277/601/128 279/667/171 275/664/170
f 275/664/170 279/667/171 280/668/172 276/665/170
f 276/665/170 280/668/172 278/669/97 274/666/96
f 277/601/128 281/603/130 283/670/173 279/667/171
f 279/667/171 283/670/173 284/671/174 280/668/172
f 280/668/172 284/671/174 282/672/99 278/669/97
f 281/603/130 285/605/132 287/673/175 283/670/173
f 283/670/173 287/673/175 288/674/176 284/671/174
f 284/671/174 288/674/176 286/675/101 282/672/99
f 285/606/132 289/609/134 291/676/177 287/677/175
f 287/677/175 291/676/177 292/678/178 288/679/176
f 288/679/176 292/678/178 290/680/103 286/681/101
f 289/609/134 293/611/136 295/682/179 291/676/177
f 291/676/177 295/682/179 296/683/180 292/678/178
f 292/678/178 296/683/180 294/684/105 290/680/103
f 293/611/136 297/613/137 299/685/181 295/682/179
f 295/682/179 299/685/181 300/686/181 296/683/180
f 296/683/180 300/686/181 298/687/107 294/684/105
f 297/613/137 301/615/139 303/688/182 299/685/181
f 299/685/181 303/688/182 304/689/183 300/686/181
f 300/686/181 304/689/183 302/690/109 298/687/107
f 301/615/139 305/594/122 307/691/184 303/688/182
f 303/688/182 307/691/184 308/692/185 304/689/183
f 304/689/183 308/692/185 306/693/111 302/690/109
f 310/694/114 313/695/141 315/696/186 312/697/187
f 312/697/187 315/696/186 316/698/188 311/699/189
f 311/699/189 316/698/188 314/590/118 309/589/117
f 313/695/141 317/700/143 319/701/190 315/696/186
f 315/696/186 319/701/190 320/702/191 316/698/188
f 316/698/188 320/702/191 318/597/125 314/590/118
f 317/700/143 321/703/145 323/704/170 319/701/190
f 319/701/190 323/704/170 324/705/170 320/702/191
f 320/702/191 324/705/170 322/598/126 318/597/125
f 321/703/145 325/706/147 327/707/192 323/704/170
f 323/704/170 327/707/192 328/708/193 324/705/170
f 324/705/170 328/708/193 326/600/127 322/598/126
f 325/706/147 329/709/149 331/710/194 327/707/192
f 327/707/192 331/710/194 332/711/195 328/708/193
f 328/708/193 332/711/195 330/602/129 326/600/127
f 329/709/149 333/712/151 335/713/196 331/710/194
f 331/710/194 335/713/196 336/714/197 332/711/195
f 332/711/195 336/714/197 334/604/131 330/602/129
f 333/715/151 337/716/153 339/717/198 335/718/196
f 335/718/196 339/717/198 340/719/199 336/720/197
f 336/720/197 340/719/199 338/608/133 334/607/131
f 337/716/153 341/721/155 343/722/200 339/717/198
f 339/717/198 343/722/200 344/723/201 340/719/199
f 340/719/199 344/723/201 342/610/135 338/608/133
f 341/721/155 345/724/157 347/725/181 343/722/200
f 343/722/200 347/725/181 348/726/181 344/723/201
f 344/723/201 348/726/181 346/612/137 342/610/135
f 345/724/157 349/727/159 351/728/202 347/725/181
f 347/725/181 351/728/202 352/729/203 348/726/181
f 348/726/181 352/729/203 350/614/138 346/612/137
f 349/727/159 353/730/115 355/731/204 351/728/202
f 351/728/202 355/731/204 356/732/205 352/729/203
f 352/729/203 356/732/205 354/595/123 350/614/138
f 237/585/113 260/584/112 259/654/110 238/640/120
f 309/589/117 354/595/123 356/732/205 311/699/189
f 311/699/189 356/732/205 355/731/204 312/697/187
f 312/697/187 355/731/204 353/730/115 310/694/114
f 261/660/121 306/693/111 308/692/185 263/658/167
f 263/658/167 308/692/185 307/691/184 264/656/165
f 264/656/165 307/691/184 305/594/122 262/588/116
f 239/642/162 238/592/120 261/593/121 266/643/163
o Cube.001_Cube.003
v 4.749976 1.182697 0.059272
v 4.749976 1.508542 0.059272
v 4.749976 1.182697 -0.072316
v 4.749976 1.508542 -0.072317
v 5.156277 1.182697 0.059272
v 5.156277 1.508542 0.059272
v 5.156277 1.182697 -0.072316
v 5.156277 1.508542 -0.072317
v 4.749976 1.289525 0.059272
v 4.749976 1.430473 0.059272
v 4.749976 1.430473 -0.072316
v 4.749976 1.289525 -0.072316
v 5.156277 1.430473 -0.072316
v 5.156277 1.289525 -0.072316
v 5.156277 1.430473 0.059272
v 5.156277 1.289525 0.059272
v 5.051142 1.182697 -0.072316
v 4.855110 1.182697 -0.072316
v 4.855110 1.508542 -0.072317
v 5.051142 1.508542 -0.072317
v 4.855110 1.182697 0.059272
v 5.051142 1.182697 0.059272
v 5.051142 1.508542 0.059272
v 4.855110 1.508542 0.059272
v 5.015318 1.297807 0.059272
v 4.890934 1.297807 0.059272
v 5.015318 1.422191 0.059272
v 4.890934 1.422191 0.059272
v 4.886036 1.292909 -0.072316
v 5.020216 1.292909 -0.072316
v 4.886036 1.427089 -0.072316
v 5.020216 1.427089 -0.072316
v 4.953126 1.272046 0.059272
v 4.953126 1.447952 0.059272
v 5.041079 1.359999 0.059272
v 4.865173 1.359999 0.059272
v 4.953126 1.264978 0.059272
v 4.820969 1.264978 0.059272
v 4.953126 1.455020 0.059272
v 4.820969 1.455020 0.059272
v 5.085283 1.359999 0.059272
v 5.085283 1.264978 0.059272
v 4.820969 1.359999 0.059272
v 5.085283 1.455020 0.059272
v 4.749976 1.359999 0.059272
v 4.749976 1.359999 -0.072316
v 5.156277 1.359999 -0.072316
v 5.156277 1.359999 0.059272
v 4.858247 1.359999 -0.072316
v 5.048006 1.359999 -0.072316
v 4.953126 1.182697 -0.072316
v 4.953126 1.508542 -0.072317
v 4.953126 1.182697 0.059272
v 4.953126 1.508542 0.059272
v 4.953126 1.265120 -0.072316
v 4.953126 1.454878 -0.072317
v 4.953126 1.254061 -0.072316
v 5.100466 1.254061 -0.072316
v 4.953126 1.465937 -0.072317
v 5.100466 1.465937 -0.072317
v 4.805786 1.359999 -0.072316
v 4.805786 1.254061 -0.072316
v 5.100466 1.359999 -0.072316
v 4.805786 1.465937 -0.072317
vt 0.307995 0.546925
vt 0.307994 0.575841
vt 0.259257 0.575841
vt 0.259257 0.546926
vt 0.199185 0.770640
vt 0.214965 0.752371
vt 0.214965 0.791310
vt 0.259256 0.212904
vt 0.259256 0.183989
vt 0.307994 0.183990
vt 0.307994 0.212904
vt 0.468558 0.646591
vt 0.448735 0.659235
vt 0.448735 0.620297
vt 0.259257 0.343613
vt 0.259256 0.304674
vt 0.307994 0.304674
vt 0.307995 0.343613
vt 0.259257 0.614779
vt 0.307994 0.614779
vt 0.538944 0.646591
vt 0.529853 0.620298
vt 0.569418 0.620298
vt 0.503751 0.646591
vt 0.477650 0.620297
vt 0.503751 0.620297
vt 0.259256 0.265108
vt 0.307994 0.265108
vt 0.259256 0.239006
vt 0.307994 0.239006
vt 0.120712 0.770640
vt 0.133847 0.791310
vt 0.094281 0.791310
vt 0.159948 0.770640
vt 0.186051 0.791310
vt 0.159948 0.791310
vt 0.307995 0.455156
vt 0.307995 0.494723
vt 0.259257 0.494723
vt 0.259257 0.455156
vt 0.307995 0.520824
vt 0.259257 0.520824
vt 0.159948 0.640827
vt 0.186051 0.640827
vt 0.199185 0.661498
vt 0.159948 0.661498
vt 0.756162 0.612105
vt 0.759937 0.638734
vt 0.711488 0.644610
vt 0.707988 0.619924
vt 0.094281 0.640827
vt 0.133847 0.640827
vt 0.120712 0.661498
vt 0.094281 0.716069
vt 0.120712 0.716069
vt 0.094281 0.752371
vt 0.503751 0.770779
vt 0.477650 0.770779
vt 0.468558 0.744485
vt 0.503752 0.744485
vt 0.569418 0.770779
vt 0.529853 0.770779
vt 0.538944 0.744485
vt 0.569418 0.695537
vt 0.538944 0.695537
vt 0.569418 0.659236
vt 0.259257 0.145051
vt 0.307994 0.145051
vt 0.259258 0.651082
vt 0.307995 0.651081
vt 0.259257 0.416218
vt 0.307995 0.416218
vt 0.259257 0.379916
vt 0.307994 0.379916
vt 0.448735 0.770779
vt 0.448735 0.731841
vt 0.468558 0.695537
vt 0.448735 0.695537
vt 0.214965 0.640827
vt 0.214965 0.679766
vt 0.199185 0.716069
vt 0.214965 0.716069
vt 0.536326 0.695537
vt 0.526785 0.672504
vt 0.480717 0.672504
vt 0.471175 0.695537
vt 0.503751 0.728113
vt 0.526785 0.718572
vt 0.503751 0.662963
vt 0.480717 0.718572
vt 0.759937 0.799726
vt 0.756162 0.826355
vt 0.707987 0.818534
vt 0.711488 0.793848
vt 0.762637 0.772967
vt 0.713991 0.769043
vt 0.259258 0.108748
vt 0.307995 0.108749
vt 0.094281 0.679766
vt 0.764260 0.746119
vt 0.715495 0.744157
vt 0.569418 0.731841
vt 0.124808 0.716069
vt 0.135100 0.740917
vt 0.184797 0.740917
vt 0.195090 0.716069
vt 0.159948 0.680928
vt 0.135100 0.691220
vt 0.159948 0.751209
vt 0.184797 0.691220
vt 0.762637 0.665493
vt 0.713991 0.669416
vt 0.764260 0.692339
vt 0.715495 0.694302
vt 0.764800 0.719230
vt 0.715996 0.719230
vn -1.0000 0.0000 0.0000
vn 0.0000 -0.0000 -1.0000
vn 1.0000 -0.0000 0.0000
vn -0.0000 0.0000 1.0000
vn 0.0000 -1.0000 0.0000
vn 0.0000 1.0000 0.0000
vn -0.3822 -0.9228 -0.0486
vn 0.3822 -0.9228 -0.0486
vn 0.9228 -0.3822 -0.0486
vn 0.9228 0.3822 -0.0486
vn -0.9228 -0.3822 -0.0486
vn -0.9228 0.3822 -0.0486
vn -0.3822 0.9228 -0.0486
vn 0.3822 0.9228 -0.0486
usemtl m1
s 1
f 366/733/206 358/734/206 360/735/206 367/736/206
f 416/737/207 376/738/207 364/739/207
f 369/740/208 364/741/208 362/742/208 371/743/208
f 396/744/209 380/745/209 358/746/209
f 373/747/210 363/748/210 361/749/210 378/750/210
f 375/751/211 360/735/211 358/734/211 380/752/211
f 394/753/209 365/754/209 357/755/209
f 399/756/209 396/744/209 366/757/209 401/758/209
f 363/748/208 370/759/208 372/760/208 361/749/208
f 403/761/208 369/740/208 371/743/208 404/762/208
f 414/763/207 370/764/207 363/765/207
f 419/766/207 416/737/207 369/767/207 403/768/207
f 357/769/206 365/770/206 368/771/206 359/772/206
f 401/773/206 366/733/206 367/736/206 402/774/206
f 402/775/207 367/776/207 420/777/207 417/778/207
f 412/779/212 388/780/212 383/781/212 390/782/212
f 359/783/207 368/784/207 418/785/207
f 407/786/207 413/787/207 414/763/207 373/788/207
f 404/789/209 371/790/209 400/791/209 397/792/209
f 361/793/209 372/794/209 398/795/209
f 409/796/209 393/797/209 394/753/209 377/798/209
f 364/741/211 376/799/211 379/800/211 362/742/211
f 408/801/211 375/751/211 380/752/211 410/802/211
f 359/772/210 374/803/210 377/804/210 357/769/210
f 407/805/210 373/747/210 378/750/210 409/806/210
f 362/807/209 379/808/209 400/791/209
f 395/809/209 410/810/209 380/745/209 396/744/209
f 360/811/207 375/812/207 420/777/207
f 415/813/207 408/814/207 376/738/207 416/737/207
f 389/815/209 382/816/209 394/753/209 393/797/209
f 384/817/209 390/818/209 395/809/209 396/744/209
f 391/819/209 381/820/209 398/795/209 397/792/209
f 382/816/209 392/821/209 399/756/209 394/753/209
f 381/820/209 389/815/209 393/797/209 398/795/209
f 390/818/209 383/822/209 400/791/209 395/809/209
f 383/822/209 391/819/209 397/792/209 400/791/209
f 392/821/209 384/817/209 396/744/209 399/756/209
f 387/823/213 412/824/213 390/825/213 384/826/213
f 368/784/207 402/775/207 417/778/207 418/785/207
f 365/770/206 401/773/206 402/774/206 368/771/206
f 414/763/207 419/766/207 403/768/207 370/764/207
f 370/759/208 403/761/208 404/762/208 372/760/208
f 394/753/209 399/756/209 401/758/209 365/754/209
f 372/794/209 404/789/209 397/792/209 398/795/209
f 405/827/214 387/823/214 384/826/214 392/828/214
f 420/777/207 375/812/207 408/814/207 415/813/207
f 374/803/210 407/805/210 409/806/210 377/804/210
f 376/799/211 408/829/211 410/830/211 379/800/211
f 374/831/207 418/785/207 413/787/207 407/786/207
f 385/832/215 405/827/215 392/828/215 382/833/215
f 400/791/209 379/808/209 410/810/209 395/809/209
f 378/834/209 398/795/209 393/797/209 409/796/209
f 371/790/209 362/807/209 400/791/209
f 378/834/209 361/793/209 398/795/209
f 377/798/209 394/753/209 357/755/209
f 366/757/209 396/744/209 358/746/209
f 411/835/207 386/836/207 414/763/207 413/787/207
f 388/837/207 412/838/207 415/813/207 416/737/207
f 405/839/207 385/840/207 418/785/207 417/778/207
f 386/836/207 406/841/207 419/766/207 414/763/207
f 387/842/207 405/839/207 417/778/207 420/777/207
f 406/841/207 388/837/207 416/737/207 419/766/207
f 385/840/207 411/835/207 413/787/207 418/785/207
f 412/838/207 387/842/207 420/777/207 415/813/207
f 367/776/207 360/811/207 420/777/207
f 374/831/207 359/783/207 418/785/207
f 373/788/207 414/763/207 363/765/207
f 369/767/207 416/737/207 364/739/207
f 388/780/216 406/843/216 391/844/216 383/781/216
f 406/843/217 386/845/217 381/846/217 391/844/217
f 386/845/218 411/847/218 389/848/218 381/846/218
f 411/847/219 385/832/219 382/833/219 389/848/219
o Cylinder.004_Cylinder.009
v -6.060723 -0.316763 0.000000
v 6.060723 -0.316763 -0.000000
v 6.060723 -0.189259 -0.000000
v 6.060723 -0.206342 -0.063752
v 6.060723 -0.253011 -0.110422
v 6.060723 -0.316763 -0.127504
v 6.060723 -0.380516 -0.110422
v 6.060723 -0.427185 -0.063752
v 6.060723 -0.444268 -0.000000
v 6.060723 -0.427185 0.063752
v 6.060723 -0.380515 0.110422
v 6.060723 -0.316763 0.127504
v 6.060723 -0.253011 0.110422
v 6.060723 -0.206342 0.063752
v -6.060723 -0.206341 -0.063752
v -6.060723 -0.189259 0.000000
v -6.060723 -0.253011 -0.110421
v -6.060723 -0.316763 -0.127504
v -6.060723 -0.380515 -0.110421
v -6.060723 -0.427185 -0.063752
v -6.060723 -0.444267 0.000000
v -6.060723 -0.427185 0.063752
v -6.060723 -0.380515 0.110422
v -6.060723 -0.316763 0.127504
v -6.060723 -0.253011 0.110422
v -6.060723 -0.206341 0.063752
vt 0.324780 0.976881
vt 0.645361 0.976887
vt 0.645361 0.978632
vt 0.324780 0.978628
vt 0.645361 0.980377
vt 0.324780 0.980375
vt 0.645361 0.982123
vt 0.324780 0.982121
vt 0.645361 0.983869
vt 0.324780 0.983868
vt 0.645361 0.985614
vt 0.324780 0.985615
vt 0.645361 0.987360
vt 0.324780 0.987361
vt 0.645361 0.989106
vt 0.324780 0.989107
vt 0.645361 0.990851
vt 0.324780 0.990854
vt 0.645361 0.992596
vt 0.324780 0.992601
vt 0.645361 0.994342
vt 0.324780 0.994347
vt 0.645361 0.996087
vt 0.324780 0.996094
vt 0.645361 0.997833
vt 0.324780 0.997840
vt 0.789531 0.004658
vt 0.787152 0.002267
vt 0.788666 0.001398
vt 0.786275 0.003777
vt 0.786271 0.005523
vt 0.787140 0.007037
vt 0.788649 0.007914
vt 0.790395 0.007918
vt 0.791909 0.007049
vt 0.792786 0.005539
vt 0.792790 0.003793
vt 0.791921 0.002279
vt 0.790412 0.001402
vt 0.732378 0.004659
vt 0.733246 0.007919
vt 0.731500 0.007916
vt 0.729990 0.007040
vt 0.729119 0.005527
vt 0.729122 0.003781
vt 0.729997 0.002271
vt 0.731510 0.001400
vt 0.733256 0.001403
vt 0.734767 0.002278
vt 0.735637 0.003792
vt 0.735634 0.005537
vt 0.734759 0.007048
vn 0.0000 1.0000 -0.0000
vn 0.0000 0.8660 -0.5000
vn -0.0000 0.5000 -0.8660
vn -0.0000 -0.0000 -1.0000
vn -0.0000 -0.5000 -0.8660
vn -0.0000 -0.8660 -0.5000
vn -0.0000 -1.0000 0.0000
vn -0.0000 -0.8660 0.5000
vn 0.0000 -0.5000 0.8660
vn 0.0000 0.0000 1.0000
vn 0.0000 0.5000 0.8660
vn 0.0000 0.8660 0.5000
vn 1.0000 0.0000 0.0000
vn -1.0000 -0.0000 0.0000
usemtl m1
s 1
f 436/849/220 423/850/220 424/851/221 435/852/221
f 435/852/221 424/851/221 425/853/222 437/854/222
f 437/854/222 425/853/222 426/855/223 438/856/223
f 438/856/223 426/855/223 427/857/224 439/858/224
f 439/858/224 427/857/224 428/859/225 440/860/225
f 440/860/225 428/859/225 429/861/226 441/862/226
f 441/862/226 429/861/226 430/863/227 442/864/227
f 442/864/227 430/863/227 431/865/228 443/866/228
f 443/866/228 431/865/228 432/867/229 444/868/229
f 444/868/229 432/867/229 433/869/230 445/870/230
f 445/870/230 433/869/230 434/871/231 446/872/231
f 446/872/231 434/871/231 423/873/220 436/874/220
f 422/875/232 424/876/232 423/877/232
f 422/875/232 425/878/232 424/876/232
f 422/875/232 426/879/232 425/878/232
f 422/875/232 427/880/232 426/879/232
f 422/875/232 428/881/232 427/880/232
f 422/875/232 429/882/232 428/881/232
f 422/875/232 430/883/232 429/882/232
f 422/875/232 431/884/232 430/883/232
f 422/875/232 432/885/232 431/884/232
f 422/875/232 433/886/232 432/885/232
f 422/875/232 423/877/232 434/887/232
f 422/875/232 434/887/232 433/886/232
f 421/888/233 436/889/233 435/890/233
f 421/888/233 435/890/233 437/891/233
f 421/888/233 437/891/233 438/892/233
f 421/888/233 438/892/233 439/893/233
f 421/888/233 439/893/233 440/894/233
f 421/888/233 440/894/233 441/895/233
f 421/888/233 441/895/233 442/896/233
f 421/888/233 442/896/233 443/897/233
f 421/888/233 443/897/233 444/898/233
f 421/888/233 444/898/233 445/899/233
f 421/888/233 445/899/233 446/900/233
f 421/888/233 446/900/233 436/889/233
o Cylinder.005_Cylinder.010
v -6.060723 -0.316763 -0.524094
v 6.060723 -0.316764 -0.524095
v 6.060723 -0.189259 -0.524095
v 6.060723 -0.206342 -0.587847
v 6.060723 -0.253012 -0.634517
v 6.060723 -0.316764 -0.651599
v 6.060723 -0.380516 -0.634517
v 6.060723 -0.427185 -0.587847
v 6.060723 -0.444268 -0.524095
v 6.060723 -0.427185 -0.460343
v 6.060723 -0.380516 -0.413673
v 6.060723 -0.316764 -0.396591
v 6.060723 -0.253011 -0.413673
v 6.060723 -0.206342 -0.460343
v -6.060723 -0.206341 -0.587846
v -6.060723 -0.189259 -0.524094
v -6.060723 -0.253011 -0.634516
v -6.060723 -0.316763 -0.651598
v -6.060723 -0.380515 -0.634516
v -6.060723 -0.427185 -0.587846
v -6.060723 -0.444267 -0.524094
v -6.060723 -0.427185 -0.460342
v -6.060723 -0.380515 -0.413672
v -6.060723 -0.316763 -0.396590
v -6.060723 -0.253011 -0.413673
v -6.060723 -0.206341 -0.460342
vt 0.001401 0.976884
vt 0.321980 0.976888
vt 0.321980 0.978633
vt 0.001401 0.978630
vt 0.321980 0.980379
vt 0.001401 0.980377
vt 0.321980 0.982124
vt 0.001401 0.982124
vt 0.321980 0.983870
vt 0.001401 0.983871
vt 0.321980 0.985615
vt 0.001401 0.985617
vt 0.321980 0.987361
vt 0.001401 0.987364
vt 0.321980 0.989107
vt 0.001401 0.989111
vt 0.321980 0.990852
vt 0.001401 0.990857
vt 0.321980 0.992598
vt 0.001401 0.992603
vt 0.321980 0.994344
vt 0.001401 0.994350
vt 0.321980 0.996089
vt 0.001401 0.996096
vt 0.321980 0.997835
vt 0.001401 0.997843
vt 0.761579 0.004663
vt 0.764837 0.005534
vt 0.763964 0.007047
vt 0.764837 0.003789
vt 0.763963 0.002277
vt 0.762451 0.001404
vt 0.760705 0.001405
vt 0.759194 0.002278
vt 0.758321 0.003790
vt 0.758322 0.005536
vt 0.759195 0.007048
vt 0.760707 0.007920
vt 0.762453 0.007920
vt 0.798848 0.004655
vt 0.796465 0.007043
vt 0.795591 0.005532
vt 0.795589 0.003786
vt 0.796460 0.002273
vt 0.797971 0.001399
vt 0.799717 0.001397
vt 0.801230 0.002268
vt 0.802105 0.003779
vt 0.802106 0.005525
vt 0.801235 0.007038
vt 0.799725 0.007912
vt 0.797979 0.007914
vn 0.0000 1.0000 0.0000
vn 0.0000 0.8660 -0.5000
vn -0.0000 0.5000 -0.8660
vn -0.0000 -0.0000 -1.0000
vn -0.0000 -0.5000 -0.8660
vn -0.0000 -0.8660 -0.5000
vn -0.0000 -1.0000 0.0000
vn -0.0000 -0.8660 0.5000
vn 0.0000 -0.5000 0.8660
vn 0.0000 0.0000 1.0000
vn 0.0000 0.5000 0.8660
vn 0.0000 0.8660 0.5000
vn 1.0000 -0.0000 -0.0000
vn -1.0000 -0.0000 -0.0000
usemtl m1
s 1
f 462/901/234 449/902/234 450/903/235 461/904/235
f 461/904/235 450/903/235 451/905/236 463/906/236
f 463/906/236 451/905/236 452/907/237 464/908/237
f 464/908/237 452/907/237 453/909/238 465/910/238
f 465/910/238 453/909/238 454/911/239 466/912/239
f 466/912/239 454/911/239 455/913/240 467/914/240
f 467/914/240 455/913/240 456/915/241 468/916/241
f 468/916/241 456/915/241 457/917/242 469/918/242
f 469/918/242 457/917/242 458/919/243 470/920/243
f 470/920/243 458/919/243 459/921/244 471/922/244
f 471/922/244 459/921/244 460/923/245 472/924/245
f 472/924/245 460/923/245 449/925/234 462/926/234
f 448/927/246 450/928/246 449/929/246
f 448/927/246 451/930/246 450/928/246
f 448/927/246 452/931/246 451/930/246
f 448/927/246 453/932/246 452/931/246
f 448/927/246 454/933/246 453/932/246
f 448/927/246 455/934/246 454/933/246
f 448/927/246 456/935/246 455/934/246
f 448/927/246 457/936/246 456/935/246
f 448/927/246 458/937/246 457/936/246
f 448/927/246 459/938/246 458/937/246
f 448/927/246 449/929/246 460/939/246
f 448/927/246 460/939/246 459/938/246
f 447/940/247 462/941/247 461/942/247
f 447/940/247 461/942/247 463/943/247
f 447/940/247 463/943/247 464/944/247
f 447/940/247 464/944/247 465/945/247
f 447/940/247 465/945/247 466/946/247
f 447/940/247 466/946/247 467/947/247
f 447/940/247 467/947/247 468/948/247
f 447/940/247 468/948/247 469/949/247
f 447/940/247 469/949/247 470/950/247
f 447/940/247 470/950/247 471/951/247
f 447/940/247 471/951/247 472/952/247
f 447/940/247 472/952/247 462/941/247
o Cylinder.006_Cylinder.011
v -6.060723 -0.316763 0.505402
v 6.060723 -0.316763 0.505401
v 6.060723 -0.189259 0.505401
v 6.060723 -0.206341 0.441649
v 6.060723 -0.253011 0.394979
v 6.060723 -0.316763 0.377897
v 6.060723 -0.380515 0.394979
v 6.060723 -0.427185 0.441649
v 6.060723 -0.444267 0.505401
v 6.060723 -0.427185 0.569153
v 6.060723 -0.380515 0.615823
v 6.060723 -0.316763 0.632905
v 6.060723 -0.253011 0.615823
v 6.060723 -0.206341 0.569153
v -6.060723 -0.206341 0.441649
v -6.060723 -0.189259 0.505402
v -6.060723 -0.253011 0.394980
v -6.060723 -0.316763 0.377898
v -6.060723 -0.380515 0.394980
v -6.060723 -0.427185 0.441650
v -6.060723 -0.444267 0.505402
v -6.060723 -0.427184 0.569154
v -6.060723 -0.380515 0.615823
v -6.060723 -0.316763 0.632906
v -6.060723 -0.253011 0.615823
v -6.060723 -0.206341 0.569154
vt 0.788548 0.654828
vt 0.788542 0.975408
vt 0.786797 0.975408
vt 0.786801 0.654828
vt 0.785052 0.975408
vt 0.785054 0.654828
vt 0.783306 0.975408
vt 0.783307 0.654828
vt 0.781560 0.975408
vt 0.781561 0.654828
vt 0.779814 0.975408
vt 0.779814 0.654828
vt 0.778069 0.975408
vt 0.778068 0.654828
vt 0.776323 0.975408
vt 0.776321 0.654828
vt 0.774578 0.975408
vt 0.774575 0.654828
vt 0.772832 0.975408
vt 0.772828 0.654828
vt 0.771086 0.975408
vt 0.771081 0.654828
vt 0.769341 0.975408
vt 0.769334 0.654828
vt 0.767596 0.975408
vt 0.767588 0.654828
vt 0.780212 0.004658
vt 0.779351 0.007919
vt 0.777836 0.007051
vt 0.781096 0.007913
vt 0.782605 0.007035
vt 0.783473 0.005520
vt 0.783467 0.003774
vt 0.782589 0.002265
vt 0.781074 0.001397
vt 0.779328 0.001403
vt 0.777819 0.002281
vt 0.776952 0.003796
vt 0.776957 0.005542
vt 0.770895 0.004656
vt 0.770017 0.007913
vt 0.768507 0.007038
vt 0.767635 0.005525
vt 0.767638 0.003779
vt 0.768513 0.002268
vt 0.770026 0.001397
vt 0.771772 0.001400
vt 0.773283 0.002275
vt 0.774154 0.003788
vt 0.774151 0.005534
vt 0.773276 0.007044
vt 0.771763 0.007915
vn 0.0000 1.0000 -0.0000
vn 0.0000 0.8660 -0.5000
vn -0.0000 0.5000 -0.8660
vn -0.0000 -0.0000 -1.0000
vn -0.0000 -0.5000 -0.8660
vn -0.0000 -0.8660 -0.5000
vn -0.0000 -1.0000 0.0000
vn -0.0000 -0.8660 0.5000
vn 0.0000 -0.5000 0.8660
vn 0.0000 -0.0000 1.0000
vn 0.0000 0.5000 0.8660
vn 0.0000 0.8660 0.5000
vn 1.0000 0.0000 -0.0000
vn -1.0000 -0.0000 0.0000
usemtl m1
s 1
f 488/953/248 475/954/248 476/955/249 487/956/249
f 487/956/249 476/955/249 477/957/250 489/958/250
f 489/958/250 477/957/250 478/959/251 490/960/251
f 490/960/251 478/959/251 479/961/252 491/962/252
f 491/962/252 479/961/252 480/963/253 492/964/253
f 492/964/253 480/963/253 481/965/254 493/966/254
f 493/966/254 481/965/254 482/967/255 494/968/255
f 494/968/255 482/967/255 483/969/256 495/970/256
f 495/970/256 483/969/256 484/971/257 496/972/257
f 496/972/257 484/971/257 485/973/258 497/974/258
f 497/974/258 485/973/258 486/975/259 498/976/259
f 498/976/259 486/975/259 475/977/248 488/978/248
f 474/979/260 476/980/260 475/981/260
f 474/979/260 477/982/260 476/980/260
f 474/979/260 478/983/260 477/982/260
f 474/979/260 479/984/260 478/983/260
f 474/979/260 480/985/260 479/984/260
f 474/979/260 481/986/260 480/985/260
f 474/979/260 482/987/260 481/986/260
f 474/979/260 483/988/260 482/987/260
f 474/979/260 484/989/260 483/988/260
f 474/979/260 485/990/260 484/989/260
f 474/979/260 475/981/260 486/991/260
f 474/979/260 486/991/260 485/990/260
f 473/992/261 488/993/261 487/994/261
f 473/992/261 487/994/261 489/995/261
f 473/992/261 489/995/261 490/996/261
f 473/992/261 490/996/261 491/997/261
f 473/992/261 491/997/261 492/998/261
f 473/992/261 492/998/261 493/999/261
f 473/992/261 493/999/261 494/1000/261
f 473/992/261 494/1000/261 495/1001/261
f 473/992/261 495/1001/261 496/1002/261
f 473/992/261 496/1002/261 497/1003/261
f 473/992/261 497/1003/261 498/1004/261
f 473/992/261 498/1004/261 488/993/261
o Cylinder.002_Cylinder.012
v 4.953633 1.509733 -0.000000
v 4.953634 8.992460 -0.000003
v 4.980455 8.992458 -0.046459
v 4.953633 8.992458 -0.053646
v 5.000090 8.992458 -0.026825
v 5.007277 8.992458 -0.000003
v 5.000090 8.992458 0.026819
v 4.980455 8.992458 0.046454
v 4.953633 8.992458 0.053640
v 4.926812 8.992458 0.046454
v 4.907177 8.992458 0.026819
v 4.899990 8.992458 -0.000003
v 4.907177 8.992458 -0.026825
v 4.926812 8.992458 -0.046459
v 4.953633 1.509733 -0.053644
v 4.980455 1.509733 -0.046457
v 5.000090 1.509733 -0.026822
v 5.007277 1.509733 -0.000000
v 5.000090 1.509733 0.026821
v 4.980455 1.509733 0.046456
v 4.953633 1.509733 0.053643
v 4.926812 1.509733 0.046456
v 4.907177 1.509733 0.026821
v 4.899990 1.509733 -0.000000
v 4.907177 1.509733 -0.026822
v 4.926812 1.509733 -0.046457
vt 0.953325 0.001400
vt 0.953335 0.929598
vt 0.949891 0.929598
vt 0.949874 0.001400
vt 0.946447 0.929598
vt 0.946422 0.001400
vt 0.943002 0.929598
vt 0.942970 0.001400
vt 0.939557 0.929598
vt 0.939519 0.001400
vt 0.936113 0.929598
vt 0.936067 0.001400
vt 0.932668 0.929598
vt 0.932615 0.001400
vt 0.974035 0.001400
vt 0.974002 0.929598
vt 0.970558 0.929598
vt 0.970583 0.001400
vt 0.967114 0.929598
vt 0.967132 0.001400
vt 0.963669 0.929598
vt 0.963680 0.001400
vt 0.960225 0.929598
vt 0.960228 0.001400
vt 0.956780 0.929598
vt 0.956777 0.001400
vt 0.712942 0.034903
vt 0.717646 0.030191
vt 0.719372 0.033174
vt 0.714660 0.028470
vt 0.711214 0.028473
vt 0.708231 0.030199
vt 0.706510 0.033185
vt 0.706513 0.036631
vt 0.708238 0.039614
vt 0.711224 0.041335
vt 0.714670 0.041332
vt 0.717654 0.039607
vt 0.719375 0.036621
vt 0.923089 0.029301
vt 0.929523 0.027592
vt 0.929516 0.031038
vt 0.927786 0.034019
vt 0.924798 0.035736
vt 0.921351 0.035728
vt 0.918371 0.033998
vt 0.916654 0.031010
vt 0.916662 0.027564
vt 0.918391 0.024583
vt 0.921380 0.022866
vt 0.924826 0.022874
vt 0.927807 0.024604
vn 0.0000 -0.0000 -1.0000
vn 0.5000 -0.0000 -0.8660
vn 0.8660 -0.0000 -0.5000
vn 1.0000 -0.0000 -0.0000
vn 0.8660 0.0000 0.5000
vn 0.5000 0.0000 0.8660
vn 0.0000 0.0000 1.0000
vn -0.5000 0.0000 0.8660
vn -0.8660 0.0000 0.5000
vn -1.0000 0.0000 -0.0000
vn -0.8660 -0.0000 -0.5000
vn -0.5000 -0.0000 -0.8660
vn 0.0000 1.0000 -0.0000
vn -0.0000 -1.0000 0.0000
usemtl m1
s 1
f 513/1005/262 502/1006/262 501/1007/263 514/1008/263
f 514/1008/263 501/1007/263 503/1009/264 515/1010/264
f 515/1010/264 503/1009/264 504/1011/265 516/1012/265
f 516/1012/265 504/1011/265 505/1013/266 517/1014/266
f 517/1014/266 505/1013/266 506/1015/267 518/1016/267
f 518/1016/267 506/1015/267 507/1017/268 519/1018/268
f 519/1019/268 507/1020/268 508/1021/269 520/1022/269
f 520/1022/269 508/1021/269 509/1023/270 521/1024/270
f 521/1024/270 509/1023/270 510/1025/271 522/1026/271
f 522/1026/271 510/1025/271 511/1027/272 523/1028/272
f 523/1028/272 511/1027/272 512/1029/273 524/1030/273
f 524/1030/273 512/1029/273 502/1006/262 513/1005/262
f 500/1031/274 501/1032/274 502/1033/274
f 500/1031/274 503/1034/274 501/1032/274
f 500/1031/274 504/1035/274 503/1034/274
f 500/1031/274 505/1036/274 504/1035/274
f 500/1031/274 506/1037/274 505/1036/274
f 500/1031/274 507/1038/274 506/1037/274
f 500/1031/274 508/1039/274 507/1038/274
f 500/1031/274 509/1040/274 508/1039/274
f 500/1031/274 510/1041/274 509/1040/274
f 500/1031/274 511/1042/274 510/1041/274
f 500/1031/274 512/1043/274 511/1042/274
f 500/1031/274 502/1033/274 512/1043/274
f 499/1044/275 513/1045/275 514/1046/275
f 499/1044/275 514/1046/275 515/1047/275
f 499/1044/275 515/1047/275 516/1048/275
f 499/1044/275 516/1048/275 517/1049/275
f 499/1044/275 517/1049/275 518/1050/275
f 499/1044/275 518/1050/275 519/1051/275
f 499/1044/275 519/1051/275 520/1052/275
f 499/1044/275 520/1052/275 521/1053/275
f 499/1044/275 521/1053/275 522/1054/275
f 499/1044/275 522/1054/275 523/1055/275
f 499/1044/275 523/1055/275 524/1056/275
f 499/1044/275 524/1056/275 513/1045/275
o Torus.001
v -4.947567 1.439564 0.033334
v -4.947607 1.439564 -0.033335
v -4.979105 1.429000 -0.033302
v -4.979065 1.429000 0.033788
v -5.002163 1.400104 -0.033735
v -5.002123 1.400104 0.034578
v -5.010603 1.360864 -0.034276
v -5.010562 1.360864 0.035250
v -5.002163 1.322852 -0.033735
v -5.002123 1.322852 0.034578
v -4.979105 1.295196 -0.033302
v -4.979065 1.295196 0.033788
v -4.947607 1.285060 -0.033335
v -4.947567 1.285060 0.033334
v -4.916109 1.295196 -0.033789
v -4.916070 1.295196 0.033301
v -4.893051 1.322852 -0.034579
v -4.893011 1.322852 0.033734
v -4.884612 1.360864 -0.035250
v -4.884571 1.360864 0.034275
v -4.893051 1.400104 -0.034579
v -4.893011 1.400104 0.033734
v -4.916109 1.429000 -0.033789
v -4.916070 1.429000 0.033301
v -4.948235 0.947252 -0.303742
v -4.948169 0.893960 -0.272974
v -4.948250 0.920606 -0.310882
v -4.948225 0.901100 -0.299620
v -4.986775 0.899135 -0.263539
v -4.986841 0.952764 -0.294502
v -4.986832 0.906320 -0.290354
v -4.986856 0.925949 -0.301687
v -5.014996 0.913273 -0.237863
v -5.015063 0.967879 -0.269389
v -5.015054 0.920589 -0.265166
v -5.015079 0.940576 -0.276705
v -5.025272 0.932586 -0.203271
v -5.025341 0.988161 -0.235357
v -5.025331 0.940032 -0.231058
v -5.025357 0.960374 -0.242803
v -5.014853 0.951899 -0.170961
v -5.014921 1.006505 -0.202488
v -5.014912 0.959215 -0.198264
v -5.014936 0.979202 -0.209803
v -4.986528 0.966037 -0.147662
v -4.986594 1.019666 -0.178624
v -4.986585 0.973222 -0.174476
v -4.986609 0.992851 -0.185809
v -4.947884 0.971212 -0.139170
v -4.947949 1.024504 -0.169938
v -4.947940 0.978352 -0.165816
v -4.947965 0.997858 -0.177078
v -4.909276 0.966037 -0.147827
v -4.909342 1.019666 -0.178789
v -4.909333 0.973222 -0.174641
v -4.909358 0.992851 -0.185974
v -4.881050 0.951899 -0.171246
v -4.881117 1.006505 -0.202773
v -4.881108 0.959215 -0.198549
v -4.881133 0.979202 -0.210089
v -4.870769 0.932586 -0.203600
v -4.870837 0.988161 -0.235686
v -4.870828 0.940032 -0.231388
v -4.870853 0.960374 -0.243132
v -4.881192 0.913273 -0.238148
v -4.881259 0.967879 -0.269675
v -4.881250 0.920589 -0.265451
v -4.881275 0.940576 -0.276990
v -4.909523 0.899135 -0.263704
v -4.909589 0.952764 -0.294667
v -4.909580 0.906320 -0.290518
v -4.909605 0.925949 -0.301851
v -4.947005 0.893960 0.272974
v -4.946939 0.947252 0.303741
v -4.946949 0.901100 0.299619
v -4.946924 0.920606 0.310881
v -4.985585 0.952764 0.294666
v -4.985651 0.899135 0.263704
v -4.985569 0.925950 0.301851
v -4.985594 0.906320 0.290518
v -5.013915 0.967880 0.269674
v -5.013982 0.913273 0.238147
v -5.013899 0.940577 0.276990
v -5.013924 0.920589 0.265450
v -5.024337 0.988162 0.235686
v -5.024405 0.932586 0.203599
v -5.024321 0.960374 0.243131
v -5.024346 0.940032 0.231387
v -5.014057 1.006505 0.202772
v -5.014124 0.951899 0.171245
v -5.014041 0.979202 0.210088
v -5.014066 0.959215 0.198548
v -4.985832 1.019666 0.178788
v -4.985898 0.966037 0.147826
v -4.985816 0.992852 0.185973
v -4.985841 0.973222 0.174640
v -4.947225 1.024504 0.169938
v -4.947290 0.971212 0.139170
v -4.947209 0.997858 0.177077
v -4.947234 0.978352 0.165815
v -4.908580 1.019666 0.178624
v -4.908646 0.966037 0.147661
v -4.908565 0.992852 0.185809
v -4.908589 0.973222 0.174476
v -4.880253 1.006505 0.202487
v -4.880321 0.951899 0.170960
v -4.880238 0.979202 0.209803
v -4.880262 0.959215 0.198263
v -4.869833 0.988162 0.235356
v -4.869902 0.932586 0.203270
v -4.869817 0.960374 0.242802
v -4.869843 0.940032 0.231058
v -4.880111 0.967880 0.269389
v -4.880178 0.913273 0.237862
v -4.880095 0.940577 0.276705
v -4.880120 0.920589 0.265165
v -4.908333 0.952764 0.294501
v -4.908399 0.899135 0.263539
v -4.908318 0.925950 0.301686
v -4.908342 0.906320 0.290353
vt 0.891056 0.771928
vt 0.882858 0.782277
vt 0.897863 0.639390
vt 0.904233 0.651000
vt 0.901151 0.765059
vt 0.913893 0.660182
vt 0.912275 0.763603
vt 0.926578 0.664886
vt 0.813636 0.758665
vt 0.802821 0.755679
vt 0.802826 0.655931
vt 0.816055 0.653100
vt 0.822674 0.766875
vt 0.826938 0.645407
vt 0.829316 0.778287
vt 0.834919 0.634839
vt 0.835426 0.790451
vt 0.843280 0.623763
vt 0.843806 0.799776
vt 0.854666 0.615973
vt 0.387208 0.772899
vt 0.379134 0.775184
vt 0.371556 0.588599
vt 0.385060 0.591621
vt 0.908508 0.076397
vt 0.727830 0.076438
vt 0.730008 0.065647
vt 0.906318 0.065601
vt 0.854347 0.803747
vt 0.868079 0.613799
vt 0.906332 0.087188
vt 0.730022 0.087235
vt 0.899934 0.055497
vt 0.736375 0.055540
vt 0.746404 0.046756
vt 0.889889 0.046725
vt 0.757101 0.037694
vt 0.879180 0.037672
vt 0.765786 0.026090
vt 0.870493 0.026071
vt 0.769753 0.012980
vt 0.866534 0.012955
vt 0.866585 0.139856
vt 0.769805 0.139880
vt 0.765845 0.126763
vt 0.870551 0.126746
vt 0.757158 0.115162
vt 0.879237 0.115142
vt 0.746450 0.106109
vt 0.889934 0.106079
vt 0.736405 0.097337
vt 0.899963 0.097296
vt 0.370914 0.773485
vt 0.358341 0.592710
vt 0.362439 0.767940
vt 0.347814 0.602116
vt 0.353667 0.759435
vt 0.340714 0.614387
vt 0.343834 0.750610
vt 0.333931 0.626099
vt 0.332821 0.743523
vt 0.323845 0.635202
vt 0.322013 0.739804
vt 0.310817 0.639521
vt 0.433209 0.735265
vt 0.422776 0.739922
vt 0.422865 0.631184
vt 0.436199 0.634430
vt 0.412405 0.747941
vt 0.412077 0.622929
vt 0.403326 0.757560
vt 0.404379 0.611799
vt 0.395241 0.766733
vt 0.396314 0.600141
vt 0.875031 0.793412
vt 0.891188 0.627223
vt 0.379979 0.794500
vt 0.366460 0.792660
vt 0.865362 0.801389
vt 0.881041 0.617877
vt 0.353193 0.787165
vt 0.340895 0.779138
vt 0.330243 0.770766
vt 0.320484 0.763831
vt 0.311215 0.758475
vt 0.445417 0.753011
vt 0.436688 0.759200
vt 0.427569 0.766988
vt 0.417643 0.776216
vt 0.406036 0.785160
vt 0.393286 0.791631
vt 0.913427 0.066327
vt 0.915248 0.076390
vt 0.919137 0.064984
vt 0.921141 0.076385
vt 0.926597 0.059435
vt 0.929830 0.076381
vt 0.908471 0.056399
vt 0.914606 0.053470
vt 0.918578 0.044113
vt 0.900261 0.046483
vt 0.907010 0.041646
vt 0.908373 0.031083
vt 0.890205 0.036036
vt 0.897311 0.030230
vt 0.900040 0.020680
vt 0.880768 0.023895
vt 0.887964 0.018789
vt 0.892933 0.011120
vt 0.874779 0.011719
vt 0.880255 0.008357
vt 0.885440 0.002180
vt 0.880828 0.128917
vt 0.874834 0.141100
vt 0.888027 0.134022
vt 0.880315 0.144466
vt 0.893005 0.141692
vt 0.885509 0.150646
vt 0.890260 0.116770
vt 0.897367 0.122571
vt 0.900108 0.132121
vt 0.900304 0.106311
vt 0.907051 0.111143
vt 0.908429 0.121703
vt 0.908499 0.096385
vt 0.914631 0.099309
vt 0.918615 0.108660
vt 0.913440 0.086453
vt 0.919150 0.087788
vt 0.926615 0.093330
vt 0.706509 0.076454
vt 0.709725 0.059505
vt 0.717190 0.065047
vt 0.715197 0.076450
vt 0.722900 0.066383
vt 0.721089 0.076445
vt 0.717724 0.044175
vt 0.721708 0.053528
vt 0.727841 0.056451
vt 0.727910 0.031133
vt 0.729287 0.041694
vt 0.736034 0.046525
vt 0.736230 0.020716
vt 0.738971 0.030265
vt 0.746078 0.036066
vt 0.743332 0.011143
vt 0.748311 0.018813
vt 0.755509 0.023918
vt 0.750828 0.002191
vt 0.756021 0.008370
vt 0.761502 0.011737
vt 0.750897 0.150654
vt 0.743405 0.141713
vt 0.748375 0.134045
vt 0.756083 0.144478
vt 0.755569 0.128939
vt 0.761558 0.141115
vt 0.736298 0.132155
vt 0.739027 0.122605
vt 0.746134 0.116799
vt 0.727966 0.121751
vt 0.729329 0.111189
vt 0.736078 0.106352
vt 0.717761 0.108721
vt 0.721732 0.099364
vt 0.727867 0.096437
vt 0.709743 0.093401
vt 0.717202 0.087851
vt 0.722912 0.086508
vn -0.7817 -0.3522 0.5148
vn -0.9993 0.0350 -0.0115
vn -0.9990 0.0424 -0.0138
vn -0.7132 -0.2987 0.6341
vn -0.3844 -0.5452 0.7450
vn -0.3160 -0.4199 0.8508
vn 0.0037 -0.5986 0.8010
vn 0.0039 -0.4458 0.8951
vn 0.3907 -0.5438 0.7428
vn 0.3230 -0.4187 0.8487
vn 0.7846 -0.3508 0.5112
vn 0.7173 -0.2974 0.6301
vn 0.9993 0.0349 -0.0150
vn 0.9989 0.0422 -0.0182
vn 0.7398 0.3905 -0.5480
vn 0.6804 0.3546 -0.6414
vn 0.3429 0.5290 -0.7763
vn 0.2972 0.4512 -0.8414
vn 0.3496 0.5286 0.7735
vn 0.0023 0.5589 0.8292
vn 0.0040 0.4709 0.8822
vn 0.3045 0.4512 0.8389
vn -0.0000 -0.9999 -0.0127
vn 0.0000 -0.9999 0.0127
vn -0.2784 -0.9604 0.0132
vn -0.2785 -0.9604 -0.0120
vn -0.0039 0.5589 -0.8292
vn -0.0028 0.4709 -0.8822
vn 0.2784 -0.9604 -0.0132
vn 0.2785 -0.9604 0.0120
vn -0.6507 -0.7592 -0.0094
vn -0.6507 -0.7592 0.0122
vn -0.9992 -0.0399 0.0021
vn -0.6837 0.7296 -0.0132
vn -0.6836 0.7296 0.0162
vn -0.2944 0.9555 -0.0204
vn -0.2943 0.9555 0.0217
vn -0.0000 0.9997 -0.0228
vn 0.0001 0.9997 0.0228
vn 0.2943 0.9555 -0.0217
vn 0.2944 0.9555 0.0204
vn 0.6836 0.7296 -0.0162
vn 0.6837 0.7296 0.0133
vn 0.9992 -0.0400 -0.0021
vn 0.6507 -0.7592 0.0094
vn 0.6507 -0.7592 -0.0122
vn -0.3429 0.5290 0.7763
vn -0.2973 0.4512 0.8414
vn -0.7398 0.3905 0.5480
vn -0.6804 0.3546 0.6414
vn -0.9993 0.0349 0.0150
vn -0.9989 0.0422 0.0182
vn -0.7846 -0.3508 -0.5112
vn -0.7173 -0.2974 -0.6301
vn -0.3906 -0.5438 -0.7428
vn -0.3230 -0.4187 -0.8487
vn -0.0037 -0.5986 -0.8010
vn -0.0039 -0.4458 -0.8951
vn 0.3843 -0.5452 -0.7450
vn 0.3160 -0.4199 -0.8508
vn 0.7817 -0.3521 -0.5148
vn 0.7132 -0.2987 -0.6341
vn 0.9993 0.0350 0.0115
vn 0.9990 0.0424 0.0138
vn 0.7431 0.3902 0.5437
vn 0.6847 0.3546 0.6367
vn -0.7431 0.3902 -0.5437
vn -0.6847 0.3546 -0.6367
vn -0.3495 0.5286 -0.7735
vn -0.3045 0.4512 -0.8389
vn -0.4730 -0.7213 -0.5060
vn -0.0012 -0.8181 -0.5750
vn -0.4738 -0.0784 -0.8771
vn -0.0021 -0.0889 -0.9960
vn -0.8493 -0.4328 -0.3024
vn -0.8498 -0.0471 -0.5251
vn -1.0000 -0.0000 0.0021
vn -0.8405 0.4425 0.3128
vn -0.8400 0.0481 0.5405
vn -0.4575 0.7270 0.5120
vn -0.4567 0.0791 0.8861
vn 0.0012 0.8181 0.5751
vn 0.0021 0.0890 0.9960
vn 0.4597 0.7270 0.5100
vn 0.4605 0.0791 0.8841
vn 0.8418 0.4425 0.3092
vn 0.8423 0.0481 0.5369
vn 1.0000 -0.0000 -0.0021
vn 0.8480 -0.4327 -0.3060
vn 0.8475 -0.0471 -0.5287
vn 0.4708 -0.7213 -0.5080
vn 0.4700 -0.0784 -0.8792
vn -0.4700 -0.0784 0.8792
vn 0.0021 -0.0889 0.9960
vn -0.4708 -0.7213 0.5080
vn 0.0012 -0.8181 0.5750
vn -0.8475 -0.0471 0.5287
vn -0.8480 -0.4327 0.3060
vn -0.8423 0.0481 -0.5369
vn -0.8418 0.4425 -0.3092
vn -0.4605 0.0790 -0.8841
vn -0.4597 0.7270 -0.5100
vn -0.0021 0.0890 -0.9960
vn -0.0012 0.8181 -0.5751
vn 0.4567 0.0791 -0.8861
vn 0.4575 0.7270 -0.5120
vn 0.8400 0.0481 -0.5405
vn 0.8405 0.4425 -0.3128
vn 0.8498 -0.0471 0.5251
vn 0.8493 -0.4328 0.3024
vn 0.4738 -0.0784 0.8771
vn 0.4730 -0.7213 0.5060
usemtl m1
s 1
f 533/1057/276 531/1058/277 562/1059/278 566/1060/279
f 535/1061/280 533/1057/276 566/1060/279 570/1062/281
f 537/1063/282 535/1061/280 570/1062/281 574/1064/283
f 539/1065/284 537/1066/282 574/1067/283 578/1068/285
f 541/1069/286 539/1065/284 578/1068/285 582/1070/287
f 543/1071/288 541/1069/286 582/1070/287 586/1072/289
f 545/1073/290 543/1071/288 586/1072/289 590/1074/291
f 547/1075/292 545/1073/290 590/1074/291 594/1076/293
f 548/1077/294 525/1078/295 598/1079/296 641/1080/297
f 550/1081/298 597/1082/299 602/1083/300 553/1084/301
f 526/1085/302 547/1075/292 594/1076/293 549/1086/303
f 593/1087/304 642/1088/305 597/1082/299 550/1081/298
f 557/1089/306 606/1090/307 610/1091/308 561/1092/308
f 561/1092/308 610/1091/308 614/1093/309 565/1094/310
f 565/1094/310 614/1093/309 618/1095/311 569/1096/312
f 569/1096/312 618/1095/311 622/1097/313 573/1098/314
f 573/1099/314 622/1100/313 626/1101/315 577/1102/316
f 577/1102/316 626/1101/315 630/1103/317 581/1104/318
f 581/1104/318 630/1103/317 634/1105/319 585/1106/319
f 585/1106/319 634/1105/319 638/1107/320 589/1108/321
f 589/1108/321 638/1107/320 642/1088/305 593/1087/304
f 553/1084/301 602/1083/300 606/1090/307 557/1089/306
f 598/1079/296 525/1078/295 528/1109/322 601/1110/323
f 528/1109/322 530/1111/324 605/1112/325 601/1110/323
f 530/1111/324 532/1113/326 609/1114/327 605/1112/325
f 532/1113/326 534/1115/328 613/1116/329 609/1114/327
f 534/1115/328 536/1117/330 617/1118/331 613/1116/329
f 536/1117/330 538/1119/332 621/1120/333 617/1118/331
f 538/1121/332 540/1122/334 625/1123/335 621/1124/333
f 540/1122/334 542/1125/336 629/1126/337 625/1123/335
f 542/1125/336 544/1127/338 633/1128/339 629/1126/337
f 544/1127/338 546/1129/340 637/1130/341 633/1128/339
f 546/1129/340 548/1077/294 641/1080/297 637/1130/341
f 531/1058/277 529/1131/342 558/1132/343 562/1059/278
f 526/1133/302 527/1134/344 528/1109/322 525/1078/295
f 529/1131/342 527/1135/344 554/1136/345 558/1132/343
f 527/1134/344 529/1137/342 530/1111/324 528/1109/322
f 529/1137/342 531/1138/277 532/1113/326 530/1111/324
f 531/1138/277 533/1139/276 534/1115/328 532/1113/326
f 533/1139/276 535/1140/280 536/1117/330 534/1115/328
f 535/1140/280 537/1141/282 538/1119/332 536/1117/330
f 537/1142/282 539/1143/284 540/1122/334 538/1121/332
f 539/1143/284 541/1144/286 542/1125/336 540/1122/334
f 541/1144/286 543/1145/288 544/1127/338 542/1125/336
f 543/1145/288 545/1146/290 546/1129/340 544/1127/338
f 545/1146/290 547/1147/292 548/1077/294 546/1129/340
f 550/1081/298 553/1084/301 555/1148/346 552/1149/347
f 552/1149/347 555/1148/346 556/1150/348 551/1151/349
f 551/1151/349 556/1150/348 554/1152/345 549/1153/303
f 553/1084/301 557/1089/306 559/1154/350 555/1148/346
f 555/1148/346 559/1154/350 560/1155/351 556/1150/348
f 556/1150/348 560/1155/351 558/1156/343 554/1152/345
f 557/1089/306 561/1092/308 563/1157/352 559/1154/350
f 559/1154/350 563/1157/352 564/1158/352 560/1155/351
f 560/1155/351 564/1158/352 562/1159/278 558/1156/343
f 561/1092/308 565/1094/310 567/1160/353 563/1157/352
f 563/1157/352 567/1160/353 568/1161/354 564/1158/352
f 564/1158/352 568/1161/354 566/1162/279 562/1159/278
f 565/1094/310 569/1096/312 571/1163/355 567/1160/353
f 567/1160/353 571/1163/355 572/1164/356 568/1161/354
f 568/1161/354 572/1164/356 570/1165/281 566/1162/279
f 569/1096/312 573/1098/314 575/1166/357 571/1163/355
f 571/1163/355 575/1166/357 576/1167/358 572/1164/356
f 572/1164/356 576/1167/358 574/1168/283 570/1165/281
f 573/1099/314 577/1102/316 579/1169/359 575/1170/357
f 575/1170/357 579/1169/359 580/1171/360 576/1172/358
f 576/1172/358 580/1171/360 578/1173/285 574/1174/283
f 577/1102/316 581/1104/318 583/1175/361 579/1169/359
f 579/1169/359 583/1175/361 584/1176/362 580/1171/360
f 580/1171/360 584/1176/362 582/1177/287 578/1173/285
f 581/1104/318 585/1106/319 587/1178/363 583/1175/361
f 583/1175/361 587/1178/363 588/1179/363 584/1176/362
f 584/1176/362 588/1179/363 586/1180/289 582/1177/287
f 585/1106/319 589/1108/321 591/1181/364 587/1178/363
f 587/1178/363 591/1181/364 592/1182/365 588/1179/363
f 588/1179/363 592/1182/365 590/1183/291 586/1180/289
f 589/1108/321 593/1087/304 595/1184/366 591/1181/364
f 591/1181/364 595/1184/366 596/1185/367 592/1182/365
f 592/1182/365 596/1185/367 594/1186/293 590/1183/291
f 598/1187/296 601/1188/323 603/1189/368 600/1190/369
f 600/1190/369 603/1189/368 604/1191/370 599/1192/371
f 599/1192/371 604/1191/370 602/1083/300 597/1082/299
f 601/1188/323 605/1193/325 607/1194/372 603/1189/368
f 603/1189/368 607/1194/372 608/1195/373 604/1191/370
f 604/1191/370 608/1195/373 606/1090/307 602/1083/300
f 605/1193/325 609/1196/327 611/1197/352 607/1194/372
f 607/1194/372 611/1197/352 612/1198/352 608/1195/373
f 608/1195/373 612/1198/352 610/1091/308 606/1090/307
f 609/1196/327 613/1199/329 615/1200/374 611/1197/352
f 611/1197/352 615/1200/374 616/1201/375 612/1198/352
f 612/1198/352 616/1201/375 614/1093/309 610/1091/308
f 613/1199/329 617/1202/331 619/1203/376 615/1200/374
f 615/1200/374 619/1203/376 620/1204/377 616/1201/375
f 616/1201/375 620/1204/377 618/1095/311 614/1093/309
f 617/1202/331 621/1205/333 623/1206/378 619/1203/376
f 619/1203/376 623/1206/378 624/1207/379 620/1204/377
f 620/1204/377 624/1207/379 622/1097/313 618/1095/311
f 621/1208/333 625/1209/335 627/1210/380 623/1211/378
f 623/1211/378 627/1210/380 628/1212/381 624/1213/379
f 624/1213/379 628/1212/381 626/1101/315 622/1100/313
f 625/1209/335 629/1214/337 631/1215/382 627/1210/380
f 627/1210/380 631/1215/382 632/1216/383 628/1212/381
f 628/1212/381 632/1216/383 630/1103/317 626/1101/315
f 629/1214/337 633/1217/339 635/1218/363 631/1215/382
f 631/1215/382 635/1218/363 636/1219/363 632/1216/383
f 632/1216/383 636/1219/363 634/1105/319 630/1103/317
f 633/1217/339 637/1220/341 639/1221/384 635/1218/363
f 635/1218/363 639/1221/384 640/1222/385 636/1219/363
f 636/1219/363 640/1222/385 638/1107/320 634/1105/319
f 637/1220/341 641/1223/297 643/1224/386 639/1221/384
f 639/1221/384 643/1224/386 644/1225/387 640/1222/385
f 640/1222/385 644/1225/387 642/1088/305 638/1107/320
f 525/1078/295 548/1077/294 547/1147/292 526/1133/302
f 597/1082/299 642/1088/305 644/1225/387 599/1192/371
f 599/1192/371 644/1225/387 643/1224/386 600/1190/369
f 600/1190/369 643/1224/386 641/1223/297 598/1187/296
f 549/1153/303 594/1186/293 596/1185/367 551/1151/349
f 551/1151/349 596/1185/367 595/1184/366 552/1149/347
f 552/1149/347 595/1184/366 593/1087/304 550/1081/298
f 527/1135/344 526/1085/302 549/1086/303 554/1136/345
o Cube.002_Cube.001
v -5.151919 1.182697 0.059272
v -5.151919 1.508542 0.059272
v -5.151919 1.182697 -0.072316
v -5.151919 1.508542 -0.072317
v -4.745619 1.182697 0.059272
v -4.745619 1.508542 0.059272
v -4.745619 1.182697 -0.072316
v -4.745619 1.508542 -0.072317
v -5.151919 1.289525 0.059272
v -5.151919 1.430473 0.059272
v -5.151919 1.430473 -0.072316
v -5.151919 1.289525 -0.072316
v -4.745619 1.430473 -0.072316
v -4.745619 1.289525 -0.072316
v -4.745619 1.430473 0.059272
v -4.745619 1.289525 0.059272
v -4.850753 1.182697 -0.072316
v -5.046786 1.182697 -0.072316
v -5.046786 1.508542 -0.072317
v -4.850753 1.508542 -0.072317
v -5.046786 1.182697 0.059272
v -4.850753 1.182697 0.059272
v -4.850753 1.508542 0.059272
v -5.046786 1.508542 0.059272
v -4.886577 1.297807 0.059272
v -5.010962 1.297807 0.059272
v -4.886577 1.422191 0.059272
v -5.010962 1.422191 0.059272
v -5.015859 1.292909 -0.072316
v -4.881680 1.292909 -0.072316
v -5.015859 1.427089 -0.072316
v -4.881680 1.427089 -0.072316
v -4.948770 1.272046 0.059272
v -4.948770 1.447952 0.059272
v -4.860816 1.359999 0.059272
v -5.036722 1.359999 0.059272
v -4.948770 1.264978 0.059272
v -5.080926 1.264978 0.059272
v -4.948770 1.455020 0.059272
v -5.080926 1.455020 0.059272
v -4.816613 1.359999 0.059272
v -4.816613 1.264978 0.059272
v -5.080926 1.359999 0.059272
v -4.816613 1.455020 0.059272
v -5.151919 1.359999 0.059272
v -5.151919 1.359999 -0.072316
v -4.745619 1.359999 -0.072316
v -4.745619 1.359999 0.059272
v -5.043649 1.359999 -0.072316
v -4.853890 1.359999 -0.072316
v -4.948770 1.182697 -0.072316
v -4.948770 1.508542 -0.072317
v -4.948770 1.182697 0.059272
v -4.948770 1.508542 0.059272
v -4.948770 1.265120 -0.072316
v -4.948770 1.454878 -0.072317
v -4.948770 1.254061 -0.072316
v -4.801429 1.254061 -0.072316
v -4.948770 1.465937 -0.072317
v -4.801429 1.465937 -0.072317
v -5.096110 1.359999 -0.072316
v -5.096110 1.254061 -0.072316
v -4.801429 1.359999 -0.072316
v -5.096110 1.465937 -0.072317
vt 0.307995 0.546925
vt 0.307994 0.575841
vt 0.259257 0.575841
vt 0.259257 0.546926
vt 0.199185 0.770640
vt 0.214965 0.752371
vt 0.214965 0.791310
vt 0.259256 0.212904
vt 0.259256 0.183989
vt 0.307994 0.183990
vt 0.307994 0.212904
vt 0.468558 0.646591
vt 0.448735 0.659235
vt 0.448735 0.620297
vt 0.259257 0.343613
vt 0.259256 0.304674
vt 0.307994 0.304674
vt 0.307995 0.343613
vt 0.259257 0.614779
vt 0.307994 0.614779
vt 0.538944 0.646591
vt 0.529853 0.620298
vt 0.569418 0.620298
vt 0.503751 0.646591
vt 0.477650 0.620297
vt 0.503751 0.620297
vt 0.259256 0.265108
vt 0.307994 0.265108
vt 0.259256 0.239006
vt 0.307994 0.239006
vt 0.120712 0.770640
vt 0.133847 0.791310
vt 0.094281 0.791310
vt 0.159948 0.770640
vt 0.186051 0.791310
vt 0.159948 0.791310
vt 0.307995 0.455156
vt 0.307995 0.494723
vt 0.259257 0.494723
vt 0.259257 0.455156
vt 0.307995 0.520824
vt 0.259257 0.520824
vt 0.159948 0.640827
vt 0.186051 0.640827
vt 0.199185 0.661498
vt 0.159948 0.661498
vt 0.756162 0.612105
vt 0.759937 0.638734
vt 0.711488 0.644610
vt 0.707988 0.619924
vt 0.094281 0.640827
vt 0.133847 0.640827
vt 0.120712 0.661498
vt 0.094281 0.716069
vt 0.120712 0.716069
vt 0.094281 0.752371
vt 0.503751 0.770779
vt 0.477650 0.770779
vt 0.468558 0.744485
vt 0.503752 0.744485
vt 0.569418 0.770779
vt 0.529853 0.770779
vt 0.538944 0.744485
vt 0.569418 0.695537
vt 0.538944 0.695537
vt 0.569418 0.659236
vt 0.259257 0.145051
vt 0.307994 0.145051
vt 0.259258 0.651082
vt 0.307995 0.651081
vt 0.259257 0.416218
vt 0.307995 0.416218
vt 0.259257 0.379916
vt 0.307994 0.379916
vt 0.448735 0.770779
vt 0.448735 0.731841
vt 0.468558 0.695537
vt 0.448735 0.695537
vt 0.214965 0.640827
vt 0.214965 0.679766
vt 0.199185 0.716069
vt 0.214965 0.716069
vt 0.536326 0.695537
vt 0.526785 0.672504
vt 0.480717 0.672504
vt 0.471175 0.695537
vt 0.503751 0.728113
vt 0.526785 0.718572
vt 0.503751 0.662963
vt 0.480717 0.718572
vt 0.759937 0.799726
vt 0.756162 0.826355
vt 0.707987 0.818534
vt 0.711488 0.793848
vt 0.762637 0.772967
vt 0.713991 0.769043
vt 0.259258 0.108748
vt 0.307995 0.108749
vt 0.094281 0.679766
vt 0.764260 0.746119
vt 0.715495 0.744157
vt 0.569418 0.731841
vt 0.124808 0.716069
vt 0.135100 0.740917
vt 0.184797 0.740917
vt 0.195090 0.716069
vt 0.159948 0.680928
vt 0.135100 0.691220
vt 0.159948 0.751209
vt 0.184797 0.691220
vt 0.762637 0.665493
vt 0.713991 0.669416
vt 0.764260 0.692339
vt 0.715495 0.694302
vt 0.764800 0.719230
vt 0.715996 0.719230
vn -1.0000 -0.0000 0.0000
vn 0.0000 -0.0000 -1.0000
vn 1.0000 0.0000 0.0000
vn -0.0000 0.0000 1.0000
vn 0.0000 -1.0000 0.0000
vn 0.0000 1.0000 0.0000
vn -0.3822 -0.9228 -0.0486
vn 0.3822 -0.9228 -0.0486
vn 0.9228 -0.3822 -0.0486
vn 0.9228 0.3822 -0.0486
vn -0.9228 -0.3822 -0.0486
vn -0.9228 0.3822 -0.0486
vn -0.3822 0.9228 -0.0486
vn 0.3822 0.9228 -0.0486
usemtl m1
s 1
f 654/1226/388 646/1227/388 648/1228/388 655/1229/388
f 704/1230/389 664/1231/389 652/1232/389
f 657/1233/390 652/1234/390 650/1235/390 659/1236/390
f 684/1237/391 668/1238/391 646/1239/391
f 661/1240/392 651/1241/392 649/1242/392 666/1243/392
f 663/1244/393 648/1228/393 646/1227/393 668/1245/393
f 682/1246/391 653/1247/391 645/1248/391
f 687/1249/391 684/1237/391 654/1250/391 689/1251/391
f 651/1241/390 658/1252/390 660/1253/390 649/1242/390
f 691/1254/390 657/1233/390 659/1236/390 692/1255/390
f 702/1256/389 658/1257/389 651/1258/389
f 707/1259/389 704/1230/389 657/1260/389 691/1261/389
f 645/1262/388 653/1263/388 656/1264/388 647/1265/388
f 689/1266/388 654/1226/388 655/1229/388 690/1267/388
f 690/1268/389 655/1269/389 708/1270/389 705/1271/389
f 700/1272/394 676/1273/394 671/1274/394 678/1275/394
f 647/1276/389 656/1277/389 706/1278/389
f 695/1279/389 701/1280/389 702/1256/389 661/1281/389
f 692/1282/391 659/1283/391 688/1284/391 685/1285/391
f 649/1286/391 660/1287/391 686/1288/391
f 697/1289/391 681/1290/391 682/1246/391 665/1291/391
f 652/1234/393 664/1292/393 667/1293/393 650/1235/393
f 696/1294/393 663/1244/393 668/1245/393 698/1295/393
f 647/1265/392 662/1296/392 665/1297/392 645/1262/392
f 695/1298/392 661/1240/392 666/1243/392 697/1299/392
f 650/1300/391 667/1301/391 688/1284/391
f 683/1302/391 698/1303/391 668/1238/391 684/1237/391
f 648/1304/389 663/1305/389 708/1270/389
f 703/1306/389 696/1307/389 664/1231/389 704/1230/389
f 677/1308/391 670/1309/391 682/1246/391 681/1290/391
f 672/1310/391 678/1311/391 683/1302/391 684/1237/391
f 679/1312/391 669/1313/391 686/1288/391 685/1285/391
f 670/1309/391 680/1314/391 687/1249/391 682/1246/391
f 669/1313/391 677/1308/391 681/1290/391 686/1288/391
f 678/1311/391 671/1315/391 688/1284/391 683/1302/391
f 671/1315/391 679/1312/391 685/1285/391 688/1284/391
f 680/1314/391 672/1310/391 684/1237/391 687/1249/391
f 675/1316/395 700/1317/395 678/1318/395 672/1319/395
f 656/1277/389 690/1268/389 705/1271/389 706/1278/389
f 653/1263/388 689/1266/388 690/1267/388 656/1264/388
f 702/1256/389 707/1259/389 691/1261/389 658/1257/389
f 658/1252/390 691/1254/390 692/1255/390 660/1253/390
f 682/1246/391 687/1249/391 689/1251/391 653/1247/391
f 660/1287/391 692/1282/391 685/1285/391 686/1288/391
f 693/1320/396 675/1316/396 672/1319/396 680/1321/396
f 708/1270/389 663/1305/389 696/1307/389 703/1306/389
f 662/1296/392 695/1298/392 697/1299/392 665/1297/392
f 664/1292/393 696/1322/393 698/1323/393 667/1293/393
f 662/1324/389 706/1278/389 701/1280/389 695/1279/389
f 673/1325/397 693/1320/397 680/1321/397 670/1326/397
f 688/1284/391 667/1301/391 698/1303/391 683/1302/391
f 666/1327/391 686/1288/391 681/1290/391 697/1289/391
f 659/1283/391 650/1300/391 688/1284/391
f 666/1327/391 649/1286/391 686/1288/391
f 665/1291/391 682/1246/391 645/1248/391
f 654/1250/391 684/1237/391 646/1239/391
f 699/1328/389 674/1329/389 702/1256/389 701/1280/389
f 676/1330/389 700/1331/389 703/1306/389 704/1230/389
f 693/1332/389 673/1333/389 706/1278/389 705/1271/389
f 674/1329/389 694/1334/389 707/1259/389 702/1256/389
f 675/1335/389 693/1332/389 705/1271/389 708/1270/389
f 694/1334/389 676/1330/389 704/1230/389 707/1259/389
f 673/1333/389 699/1328/389 701/1280/389 706/1278/389
f 700/1331/389 675/1335/389 708/1270/389 703/1306/389
f 655/1269/389 648/1304/389 708/1270/389
f 662/1324/389 647/1276/389 706/1278/389
f 661/1281/389 702/1256/389 651/1258/389
f 657/1260/389 704/1230/389 652/1232/389
f 676/1273/398 694/1336/398 679/1337/398 671/1274/398
f 694/1336/399 674/1338/399 669/1339/399 679/1337/399
f 674/1338/400 699/1340/400 677/1341/400 669/1339/400
f 699/1340/401 673/1325/401 670/1326/401 677/1341/401
o Cylinder.001
v -4.948262 1.509733 -0.000000
v -4.948262 8.992460 -0.000003
v -4.921441 8.992458 -0.046459
v -4.948262 8.992458 -0.053646
v -4.901806 8.992458 -0.026825
v -4.894619 8.992458 -0.000003
v -4.901806 8.992458 0.026819
v -4.921441 8.992458 0.046454
v -4.948262 8.992458 0.053640
v -4.975084 8.992458 0.046454
v -4.994719 8.992458 0.026819
v -5.001905 8.992458 -0.000003
v -4.994719 8.992458 -0.026825
v -4.975084 8.992458 -0.046459
v -4.948262 1.509733 -0.053644
v -4.921441 1.509733 -0.046457
v -4.901806 1.509733 -0.026822
v -4.894619 1.509733 -0.000000
v -4.901806 1.509733 0.026821
v -4.921441 1.509733 0.046456
v -4.948262 1.509733 0.053643
v -4.975084 1.509733 0.046456
v -4.994719 1.509733 0.026821
v -5.001905 1.509733 -0.000000
v -4.994719 1.509733 -0.026822
v -4.975084 1.509733 -0.046457
vt 0.953325 0.001400
vt 0.953335 0.929598
vt 0.949891 0.929598
vt 0.949874 0.001400
vt 0.946447 0.929598
vt 0.946422 0.001400
vt 0.943002 0.929598
vt 0.942970 0.001400
vt 0.939557 0.929598
vt 0.939519 0.001400
vt 0.936113 0.929598
vt 0.936067 0.001400
vt 0.932668 0.929598
vt 0.932615 0.001400
vt 0.974035 0.001400
vt 0.974002 0.929598
vt 0.970558 0.929598
vt 0.970583 0.001400
vt 0.967114 0.929598
vt 0.967132 0.001400
vt 0.963669 0.929598
vt 0.963680 0.001400
vt 0.960225 0.929598
vt 0.960228 0.001400
vt 0.956780 0.929598
vt 0.956777 0.001400
vt 0.712942 0.034903
vt 0.717646 0.030191
vt 0.719372 0.033174
vt 0.714660 0.028470
vt 0.711214 0.028473
vt 0.708231 0.030199
vt 0.706510 0.033185
vt 0.706513 0.036631
vt 0.708238 0.039614
vt 0.711224 0.041335
vt 0.714670 0.041332
vt 0.717654 0.039607
vt 0.719375 0.036621
vt 0.923089 0.029301
vt 0.929523 0.027592
vt 0.929516 0.031038
vt 0.927786 0.034019
vt 0.924798 0.035736
vt 0.921351 0.035728
vt 0.918371 0.033998
vt 0.916654 0.031010
vt 0.916662 0.027564
vt 0.918391 0.024583
vt 0.921380 0.022866
vt 0.924826 0.022874
vt 0.927807 0.024604
vn 0.0000 -0.0000 -1.0000
vn 0.5000 -0.0000 -0.8660
vn 0.8660 -0.0000 -0.5000
vn 1.0000 0.0000 -0.0000
vn 0.8660 0.0000 0.5000
vn 0.5000 0.0000 0.8660
vn 0.0000 0.0000 1.0000
vn -0.5000 0.0000 0.8660
vn -0.8660 0.0000 0.5000
vn -1.0000 0.0000 -0.0000
vn -0.8660 -0.0000 -0.5000
vn -0.5000 -0.0000 -0.8660
vn 0.0000 1.0000 0.0000
vn -0.0000 -1.0000 0.0000
usemtl m1
s 1
f 723/1342/402 712/1343/402 711/1344/403 724/1345/403
f 724/1345/403 711/1344/403 713/1346/404 725/1347/404
f 725/1347/404 713/1346/404 714/1348/405 726/1349/405
f 726/1349/405 714/1348/405 715/1350/406 727/1351/406
f 727/1351/406 715/1350/406 716/1352/407 728/1353/407
f 728/1353/407 716/1352/407 717/1354/408 729/1355/408
f 729/1356/408 717/1357/408 718/1358/409 730/1359/409
f 730/1359/409 718/1358/409 719/1360/410 731/1361/410
f 731/1361/410 719/1360/410 720/1362/411 732/1363/411
f 732/1363/411 720/1362/411 721/1364/412 733/1365/412
f 733/1365/412 721/1364/412 722/1366/413 734/1367/413
f 734/1367/413 722/1366/413 712/1343/402 723/1342/402
f 710/1368/414 711/1369/414 712/1370/414
f 710/1368/414 713/1371/414 711/1369/414
f 710/1368/414 714/1372/414 713/1371/414
f 710/1368/414 715/1373/414 714/1372/414
f 710/1368/414 716/1374/414 715/1373/414
f 710/1368/414 717/1375/414 716/1374/414
f 710/1368/414 718/1376/414 717/1375/414
f 710/1368/414 719/1377/414 718/1376/414
f 710/1368/414 720/1378/414 719/1377/414
f 710/1368/414 721/1379/414 720/1378/414
f 710/1368/414 722/1380/414 721/1379/414
f 710/1368/414 712/1370/414 722/1380/414
f 709/1381/415 723/1382/415 724/1383/415
f 709/1381/415 724/1383/415 725/1384/415
f 709/1381/415 725/1384/415 726/1385/415
f 709/1381/415 726/1385/415 727/1386/415
f 709/1381/415 727/1386/415 728/1387/415
f 709/1381/415 728/1387/415 729/1388/415
f 709/1381/415 729/1388/415 730/1389/415
f 709/1381/415 730/1389/415 731/1390/415
f 709/1381/415 731/1390/415 732/1391/415
f 709/1381/415 732/1391/415 733/1392/415
f 709/1381/415 733/1392/415 734/1393/415
f 709/1381/415 734/1393/415 723/1382/415
